<svg width="132" height="372" viewBox="0 0 132 372" fill="none" xmlns="http://www.w3.org/2000/svg">
<g clip-path="url(#clip0_18_1583)">
<path d="M110.573 351.107C110.518 349.674 110.057 347.53 109.548 346.197C108.672 344.046 108.584 342.829 106.887 341.963C104.423 340.732 103.385 341.848 100.46 345.02C99.3329 346.299 97.894 347.577 97.2288 347.881C94.8193 349.16 92.0297 346.826 89.5659 344.472C87.4619 342.477 86.3962 344.101 81.2107 346.813C76.3849 349.322 73.765 350.242 71.6134 350.188C70.7922 350.188 69.4551 350.803 67.6089 351.98C63.8623 354.489 62.7356 356.633 62.4777 361.801C62.3216 365.128 62.3759 365.588 63.1971 366.609C63.9641 367.583 64.3781 367.732 66.1225 367.732C67.5071 367.732 68.5863 367.989 69.3057 368.497C69.9234 368.909 70.7447 369.369 71.2062 369.47C71.6677 369.572 72.1293 369.673 72.2311 369.727C72.3329 369.727 73.3103 369.47 74.3895 369.112C76.1881 368.449 76.5275 368.233 78.394 369.058C83.5048 371.33 81.937 369.673 87.17 367.935C90.8691 366.704 91.8397 366.657 93.9438 367.732C95.2266 368.395 96.4075 368.551 100.819 368.605C107.233 368.706 108.808 368.808 110.654 365.48C112.758 361.794 112.317 359.704 111.441 356.43C111.034 354.895 110.675 352.494 110.566 351.107H110.573Z" fill="#F2F2F2"/>
<path d="M90.346 337.445C90.1424 342.254 90.5496 344.297 91.9885 345.73C93.0677 346.806 93.4274 346.907 95.07 346.752C97.174 346.495 99.3188 346.312 101.633 343.194C104.715 339.048 103.853 333.969 101.077 332.481C99.1763 331.459 93.3256 331.967 91.527 333.353C90.6039 334.016 90.5021 334.476 90.346 337.445Z" fill="#EEC89D"/>
<path d="M110.925 348.984C110.824 346.224 110.566 344.276 110.158 343.309C109.283 341.469 107.233 339.677 105.95 339.677C105.231 339.677 104.871 339.42 104.769 338.757C103.181 331.236 103.432 331.493 98.6606 331.493C90.7059 331.547 89.3213 332.312 89.3213 336.404C89.3213 337.682 89.2195 339.576 89.0634 340.597C88.8054 342.437 88.8054 342.491 87.4751 342.234C85.9887 342.031 84.957 342.491 82.5475 344.384C80.1855 346.326 78.0815 347.252 73.9208 348.274C66.991 350.012 64.9412 351.547 63.2443 356.356C62.0634 359.832 61.8054 365 62.8371 367.299C63.5023 368.882 64.5339 369.139 66.9977 368.273C68.2805 367.813 68.4367 367.867 70.181 369.504C72.2851 371.398 73.31 371.554 75.5701 370.525C76.9548 369.809 77.0566 369.863 79.1606 370.931C80.2873 371.493 81.6787 372.007 82.1878 372.007C82.6493 372.007 84.8552 371.087 86.9593 369.957C89.1176 368.835 91.4253 367.908 92.043 367.908C92.7081 367.908 93.8891 368.321 94.6629 368.882C96.7195 370.214 99.0271 370.925 100.31 370.519C100.928 370.363 102.876 370.214 104.62 370.16C107.389 370.16 107.959 370.005 109.493 368.929C112.262 366.988 112.934 365.243 112.934 360.083C112.934 356.146 112.833 355.578 111.957 354.408C111.136 353.333 111.034 352.568 110.932 348.984H110.925ZM91.0588 338.852L91.5747 334.199L93.2172 333.84C94.1403 333.637 96.3462 333.536 98.0905 333.637L101.376 333.739L101.891 335.991C102.814 339.981 102.713 340.387 99.8416 343.458C97.3778 346.069 97.1199 346.217 95.3756 346.217C93.8891 346.217 93.2715 345.96 92.0362 344.885L90.5498 343.553L91.0656 338.845L91.0588 338.852ZM70.2692 351.54C71.5045 351.08 72.5294 350.722 72.6312 350.722C72.6855 350.722 72.6312 351.439 72.5294 352.359C72.3733 354.354 73.0453 354.509 73.8665 352.663C74.4299 351.283 75.5091 350.208 76.69 349.748C77.3077 349.545 77.4095 349.802 77.4095 351.588C77.4095 353.684 77.9253 355.22 78.6448 355.22C78.9027 355.22 79.052 354.401 79.052 353.427C79.052 350.411 79.7172 349.281 83.0566 346.623C84.8009 345.291 86.4977 344.168 86.905 344.168C87.3122 344.168 88.5475 344.986 89.6742 345.96C92.138 348.159 94.086 348.875 96.6041 348.47C98.552 348.165 98.9118 347.908 102.299 344.019C103.785 342.328 104.199 342.078 105.38 342.18C107.844 342.437 109.181 346.427 108.563 351.743C108.156 355.071 107.077 356.654 104.613 357.776C102.971 358.493 102.204 358.541 96.7602 358.29C91.0113 358.033 90.6516 358.087 87.7805 359.055C84.4412 360.286 84.5498 360.231 78.6448 359.467C69.6652 358.29 65.5045 357.113 65.5045 355.835C65.5045 354.658 68.0226 352.406 70.276 351.54H70.2692ZM110.152 364.689C109.127 367.144 107.844 367.658 102.658 367.962L98.8371 368.179C98.3891 368.206 97.9412 368.084 97.5611 367.847L96.1425 366.941C93.0136 365 90.9095 365.148 86.3891 367.604C84.4412 368.679 82.4864 369.545 82.0792 369.545C81.6719 369.545 80.6946 369.186 79.9751 368.726C78.3326 367.752 76.1742 367.651 74.4842 368.571C73.1471 369.234 73.0453 369.234 70.7851 366.988C69.6041 365.764 68.0158 365.554 66.0611 366.271C65.2398 366.63 64.8801 366.576 64.6222 366.17C64.2624 365.608 64.1063 358.757 64.4661 358.399C64.6222 358.297 65.4434 358.554 66.3122 359.014C68.1584 359.934 77.1923 361.672 82.0724 362.031C85.0995 362.288 85.8733 362.186 88.9005 361.158C92.2398 360.035 92.2873 360.035 96.7059 360.543C100.656 361.002 101.477 361.002 103.941 360.387C106.303 359.826 107.023 359.413 108.509 357.932L110.253 356.092L110.559 357.168C111.075 358.96 110.817 363.099 110.152 364.689Z" fill="#18333C"/>
<path d="M32.5994 347.983C32.7555 347.827 33.3188 347.983 33.7804 348.287C35.0089 349.159 35.6265 349.051 38.5044 347.367C40.5066 346.19 41.3279 345.426 41.8912 344.195C42.7668 342.301 42.8686 339.697 42.1492 338.365C41.2736 336.782 37.941 335.348 35.165 335.348C33.8279 335.348 32.5994 335.504 32.3958 335.653C31.2148 336.985 30.8075 341.584 31.6288 344.601C31.8324 345.473 32.036 346.441 32.0903 346.752C32.0903 347.009 32.294 347.266 32.5044 347.266C32.7148 347.266 32.708 347.469 32.5587 347.78C32.4026 348.037 32.4026 348.138 32.613 347.983H32.5994Z" fill="#EEC89D"/>
<path d="M48.0132 350.269C47.3956 345.663 44.6128 344.296 41.1784 347.516C39.0743 349.457 38.1241 349.078 36.9092 349.22C33.5427 349.619 32.5721 349.261 31.4929 346.907C29.8504 343.12 27.7259 342.714 25.2621 344.865C22.5404 347.32 19.7712 348.084 14.1241 348.084C9.55624 348.084 8.99289 348.186 6.99063 349.159C3.54945 350.85 0.36619 356.011 0.216869 360.103C0.16257 362.612 1.19424 363.633 4.01777 363.633C5.66031 363.633 6.12185 363.836 7.04492 364.858C7.86619 365.832 8.42954 366.089 9.76664 366.089C10.6897 366.089 11.8707 365.886 12.4884 365.676C13.3639 365.372 13.873 365.473 15.468 366.494C17.6739 367.928 20.5517 368.131 22.6558 367.056C24.244 366.237 29.2259 365.575 31.2282 365.879C32.1037 366.034 33.4341 366.751 34.3571 367.462C35.2327 368.226 36.3051 368.943 36.7191 368.997C37.1807 369.098 38.3074 368.997 39.1829 368.74C40.4182 368.381 41.287 368.381 42.6716 368.74C45.597 369.504 47.8028 368.28 49.2961 365.054C50.3752 362.7 50.2734 360.089 48.8888 355.95C48.2237 353.955 48.1829 351.425 48.0336 350.248L48.0132 350.269Z" fill="#F2F2F2"/>
<path d="M49.8936 352.764C49.8936 347.293 48.4547 344.168 45.9434 344.168H44.5588V341.253C44.5588 337.824 44.199 337.006 42.1968 336.187C38.6538 334.706 34.242 333.475 32.7488 333.576C31.2624 333.732 31.2081 333.779 30.7466 335.977C30.4886 337.202 30.2307 339.15 30.2307 340.225C30.1764 342.376 30.3868 342.274 27.7669 341.456C27.2036 341.3 26.5384 341.713 25.4049 342.937C22.8868 345.697 22.7375 345.852 21.604 346.265C20.9864 346.522 17.8574 346.928 14.5723 347.239C11.2873 347.543 7.9004 348.003 7.07914 348.26C5.33479 348.774 2.66737 350.918 2.66737 351.791C2.66737 352.095 2.40945 352.507 2.04973 352.609C0.97054 353.015 -0.00683594 356.444 -0.00683594 359.974C-0.00683594 364.269 0.556513 365.04 3.73977 365.04C5.68773 365.04 6.04746 365.196 7.33027 366.474C8.9728 368.057 9.84837 368.212 12.6176 367.238L14.5181 366.623L16.466 368.057C17.5927 368.929 18.828 369.538 19.5475 369.538C20.1651 369.538 22.8325 368.977 25.4524 368.314C28.0723 367.651 30.5837 367.083 31.0452 367.083C31.5067 367.083 32.742 367.901 33.8687 368.977L35.871 370.816L38.0769 370.356C39.8755 369.998 40.5407 370.052 41.6674 370.512C43.7239 371.432 44.5452 371.33 47.4162 369.849C50.8574 368.111 51.5226 366.88 51.5226 362.179C51.5226 359.623 51.319 358.243 50.7013 356.911C50.1855 355.788 49.88 354.252 49.88 352.764H49.8936ZM32.1855 340.286C32.6289 337.048 33.5362 335.531 34.9072 335.734C35.8303 335.835 37.9343 336.451 39.5769 337.066L42.5022 338.142V344.432L39.9841 346.326C36.2375 349.187 34.0316 348.936 32.4366 345.453C31.7714 343.918 31.7714 343.411 32.1787 340.286H32.1855ZM5.08366 351.797C6.10855 350.722 9.90945 349.498 12.2714 349.498C13.3981 349.498 13.7579 349.653 13.7579 350.215C13.7579 351.033 14.8371 352.771 15.3461 352.771C15.5497 352.771 15.604 351.953 15.5022 350.932L15.2986 349.092H16.785C18.1221 349.092 18.2714 349.193 18.2714 350.113C18.2714 351.236 19.6085 354.151 20.328 354.618C20.8438 354.922 20.8438 353.955 20.2737 352.521C20.0701 351.858 19.9683 350.783 20.1176 350.066C20.3212 348.99 20.5791 348.686 21.6583 348.483C22.4253 348.28 23.9185 347.259 25.3031 345.927C28.0723 343.269 28.5882 343.37 30.5362 346.846C31.9751 349.356 33.4615 350.323 35.8778 350.323C38.0837 350.323 39.1628 349.863 41.423 347.922C45.2714 344.594 47.4298 346.285 47.4298 352.528C47.4298 355.801 46.4524 358.412 44.9117 359.487C43.3235 360.61 38.0361 360.103 32.5384 358.256C30.0746 357.438 27.8687 357.438 24.38 358.101C22.1742 358.507 21.0407 358.561 18.6855 358.155C15.6583 357.641 6.36647 354.422 4.98185 353.4C4.43434 352.99 4.46828 352.462 5.08366 351.818V351.797ZM46.4049 367.604C44.1991 368.78 43.1199 368.936 41.9389 368.266C41.4773 367.962 40.242 367.908 38.7556 368.064C36.4479 368.368 36.2375 368.321 34.6493 367.042C33.2104 365.865 32.647 365.662 30.2375 365.507C28.2352 365.405 26.647 365.608 24.5904 366.224C20.6877 367.401 19.6085 367.347 17.3009 365.811C15.2986 364.479 15.3529 364.479 10.9343 365.297C9.69905 365.554 9.39362 365.399 8.11081 364.019C6.77371 362.538 6.62439 362.484 4.72393 362.741C2.56556 362.998 2.10402 362.687 1.64249 360.901C1.38457 359.981 2.36194 354.969 2.87099 354.509C2.92529 354.408 3.53615 354.712 4.1538 355.172C5.64022 356.295 11.8506 358.703 15.8076 359.724C19.2963 360.644 22.018 360.745 25.9683 360.083C28.5882 359.623 29.0497 359.677 32.6402 360.644C41.4162 363.099 44.9592 362.998 47.4773 360.13L49.0181 358.439L49.3235 360.793C49.7307 364.371 48.9638 366.163 46.3981 367.597L46.4049 367.604Z" fill="#18333C"/>
<path d="M90.3871 332.379C94.1337 333.712 95.8306 333.759 98.7559 332.684C101.525 331.662 103.527 329.41 103.527 327.313C103.527 326.549 102.964 321.639 102.299 316.316C101.634 311.047 100.758 303.885 100.453 300.354C98.7559 283.012 97.7853 279.536 93.3192 275.289C89.4708 271.602 85.4663 270.892 80.4844 273.036C79.4052 273.496 78.0206 274.416 77.3554 275.133C76.6903 275.85 75.455 277.074 74.6337 277.791C72.1156 280.145 70.6699 280.253 70.6699 285.522C70.6699 290.128 71.8102 291.399 74.1179 298.92C75.4007 303.215 77.0432 308.078 77.7084 309.762C81.5093 319.278 83.6609 324.29 85.3577 327.564L87.3057 331.243L90.3871 332.366V332.379Z" fill="#41718B"/>
<path d="M105.889 331.967C105.889 330.33 103.988 329.87 102.76 331.25C101.531 332.63 97.3164 334.422 95.3141 334.422C94.3368 334.422 92.2327 334.063 90.6445 333.658C88.4386 333.042 87.563 332.941 87.1558 333.299C86.3888 333.86 86.4363 335.037 87.2101 335.7C87.7734 336.16 87.7734 336.316 87.0065 337.08C85.3096 338.872 86.2395 341.889 88.8526 343.221C90.2915 343.938 93.4748 344.06 97.1671 343.424C107.158 341.713 108.97 338.358 106.764 334.219C106.303 333.346 105.889 332.325 105.889 331.967Z" fill="#A6DCD6"/>
<path d="M98.3012 288.87C98.3012 288.87 98.2402 288.856 98.2062 288.856C97.9144 288.856 97.7786 289.201 97.7108 289.485C97.3442 291.021 96.6316 292.948 96.7605 294.531C96.8895 296.113 96.9234 297.534 96.9234 299.076C96.9234 304.48 98.4641 312.265 98.5456 312.745C98.7017 313.509 99.1089 315.045 99.523 316.221C99.8827 317.446 100.344 318.372 100.548 318.372C101.111 318.372 100.908 313.665 100.032 307.118C99.2515 301.267 99.584 295.342 98.7085 289.539C98.6678 289.269 98.5456 288.931 98.3012 288.87Z" fill="#00DED0"/>
<path d="M97.0312 308.822C96.8615 308.051 96.7936 307.28 96.6918 306.502C96.6172 305.948 96.4678 305.407 96.4 304.852C94.866 301.957 92.9452 301.619 92.7416 304.209C92.538 306.563 93.4068 310.094 94.5878 311.473C95.5991 312.664 96.4068 312.907 97.2959 312.285C97.4859 311.128 97.2959 310.019 97.0244 308.829L97.0312 308.822Z" fill="#1A4E6E"/>
<path d="M83.8029 299.096C83.3414 299.353 83.545 300.679 84.3187 302.627C84.9839 304.263 85.9613 304.108 85.6015 302.424C85.2418 300.53 84.3187 298.792 83.8029 299.096Z" fill="#18333C"/>
<path d="M106.853 332.136C106.853 330.702 106.391 329.884 105.366 329.525C104.599 329.221 104.389 328.761 104.185 326.766C104.029 325.487 103.364 319.914 102.746 314.388C101.511 304.263 100.69 292.752 100.69 286.103C100.69 284.054 100.534 282.525 100.33 282.627C100.174 282.728 99.7125 281.863 99.3053 280.733C98.2804 277.865 94.7849 274.443 91.0383 272.603C88.4184 271.372 87.8551 271.224 84.6718 271.224C81.7465 271.224 80.7691 271.427 78.8211 272.346C73.9953 274.599 70.7103 278.792 69.6854 284.216C69.0677 287.388 69.1695 288.153 70.9139 294.138C75.6854 310.709 80.4094 322.322 85.2894 329.383L87.0338 331.892L86.2125 332.711C85.6967 333.225 85.3913 334.043 85.3913 334.706C85.4456 335.369 85.4456 336.803 85.4931 337.925C85.4931 340.022 86.1582 342.477 86.932 343.35C87.1356 343.654 88.1673 344.114 89.1379 344.371C92.9863 345.494 102.692 344.527 105.563 342.734C109.004 340.583 109.927 337.208 107.871 334.449C107.308 333.685 106.846 332.657 106.846 332.149L106.853 332.136ZM83.1922 320.678C79.1401 312.44 74.3618 299.245 72.7736 292.136C72.3664 290.141 71.7962 288.349 71.4908 288.2C70.8732 287.787 71.2872 284.724 72.4139 281.754C73.4931 278.893 76.7238 275.464 79.6492 273.983C84.5225 271.629 90.6854 272.806 94.432 276.898C97.4116 280.118 97.975 284.311 96.4342 290.912C95.8709 293.367 95.3551 295.978 95.2532 296.742C94.9953 299.502 95.9727 298.325 97.2012 294.443L98.4365 290.452L98.6944 296.999C98.8505 300.577 99.57 307.334 100.235 311.933C101.776 322.471 102.183 328.504 101.416 329.938C100.493 331.73 96.1831 333.624 96.1831 332.291C96.1831 331.419 93.7736 326.664 93.3053 326.664C92.6876 326.664 92.7894 327.483 93.7125 330.141C94.1741 331.473 94.5338 332.596 94.5338 332.65C94.5338 332.907 93.5089 332.751 91.6084 332.136C88.7849 331.317 87.4478 329.478 83.1922 320.678ZM102.746 341.449C100.948 342.166 99.4071 342.369 95.3551 342.47C92.5315 342.525 89.9116 342.47 89.6062 342.369C88.5813 341.909 87.9637 340.834 87.9637 339.454V338.122L89.9116 338.379C92.0157 338.636 91.8596 338.277 89.1922 336.796C88.3166 336.336 87.9637 335.822 87.9637 335.105C87.9637 333.773 88.3234 333.725 91.7103 334.287C96.3324 335.051 99.7193 334.341 103.208 331.933C104.443 331.06 104.796 331.27 104.796 332.907C104.796 333.725 104.335 334.544 103.357 335.565C102.536 336.329 101.918 337.046 101.918 337.148C101.918 337.709 103.717 337.148 104.796 336.228C106.283 334.949 106.955 335.308 106.955 337.303C106.955 338.994 105.57 340.374 102.746 341.449Z" fill="#18333C"/>
<path d="M87.5498 312.697C88.1131 314.179 88.7783 314.388 88.7783 313.002C88.7783 311.778 87.5498 307.733 87.0339 307.219C86.5181 306.705 86.8778 310.75 87.5498 312.691V312.697Z" fill="#18333C"/>
<path d="M92.2739 322.315C91.9141 320.374 90.7874 318.068 90.3259 318.325C89.9187 318.582 90.2241 320.523 91.0454 322.471C91.8123 324.31 92.6336 324.209 92.2807 322.315H92.2739Z" fill="#18333C"/>
<path d="M81.3389 289.424C80.7756 289.424 80.8774 293.313 81.4407 294.538C81.9023 295.457 82.6692 295.816 82.6692 295.052C82.7235 293.976 81.6443 289.424 81.3321 289.424H81.3389Z" fill="#18333C"/>
<path d="M93.4342 213.599C89.0224 213.396 84.5563 214.417 77.0088 217.278C69.1016 220.247 68.8029 220.998 67.3097 224.069C66.1287 226.368 65.2532 226.537 65.3007 233.186C65.3007 237.379 65.7622 243.771 66.4274 249.966C66.9907 255.492 67.6084 263.013 67.7102 266.746C68.0156 274.369 68.4771 277.385 69.6106 279.381C70.1265 280.199 70.3776 281.477 70.3776 282.857C70.3776 284.135 70.6355 285.366 71.0428 285.874C71.864 287.05 73.1468 287.05 75.407 285.819C76.9952 285.001 78.0269 284.845 83.5654 284.595C88.7984 284.338 90.3391 284.44 92.9047 285.001C95.5722 285.664 96.0337 285.664 97.0111 285.102C98.7554 284.129 99.1694 282.086 99.5292 273.084C99.7328 268.586 100.887 262.749 101.246 260.037C101.606 257.325 101.43 250.832 101.844 245.664C102.719 232.624 102.305 227.816 99.536 219.219C97.9477 214.207 97.4862 213.795 93.4274 213.592L93.4342 213.599Z" fill="url(#paint0_linear_18_1583)"/>
<path d="M96.8958 275.525C96.8279 276.553 96.8958 277.521 97.3234 278.576C97.3709 278.697 97.432 278.833 97.5474 278.894C97.622 278.934 97.7103 278.941 97.7985 278.948C98.1175 278.968 98.4772 278.975 98.7216 278.772C98.9999 278.542 99.0338 278.136 99.0474 277.778C99.3053 270.5 99.251 263.128 100.405 255.898C100.629 254.484 100.894 253.084 101.158 251.677C102.957 242.161 102.855 225.286 100.955 225.286C100.493 225.286 100.337 227.227 100.235 234.904C100.133 243.5 99.9772 245.286 98.898 251.271L98.6537 252.604L98.1175 255.553C98.0361 255.992 97.9546 256.425 97.8799 256.865C97.8392 257.068 97.8053 257.271 97.7781 257.48C97.5474 259.225 96.889 265.671 96.9026 266.408C96.9297 267.511 96.9501 268.62 96.9637 269.722C96.9772 271.278 97.1808 272.975 96.9908 274.518C96.9501 274.862 96.9094 275.201 96.889 275.532L96.8958 275.525Z" fill="#00DED0"/>
<path d="M96.8822 265.854C96.9094 265.759 96.9433 265.664 96.9705 265.57C97.8189 262.736 97.6356 252.868 97.622 250.852C97.5677 243.074 97.2623 241.336 95.6741 239.442C94.8528 238.468 94.337 238.164 93.156 238.164C90.3325 238.164 88.7442 240.213 87.4614 245.428C86.8981 247.68 86.742 249.98 86.7963 256.831C86.8506 261.586 87.0542 267.315 87.3121 269.519C87.57 271.772 87.9297 275.248 88.1334 277.297C88.3913 279.347 88.6492 281.335 88.7985 281.694C89.1039 282.566 90.9569 283.026 91.8257 282.512C93.4953 281.531 94.1198 278.501 94.5881 276.824C95.0836 275.038 95.4705 273.226 95.7963 271.4C95.9863 270.345 96.2171 269.269 96.3053 268.201C96.38 267.362 96.6379 266.645 96.889 265.854H96.8822Z" fill="#1A4E6E"/>
<path d="M95.6807 212.51C88.3911 211.894 74.4839 216.189 68.5246 220.896C64.9341 223.757 64.9341 223.866 65.2395 237.366C65.3414 243.757 65.7554 252.049 66.0608 255.783C66.4205 259.516 66.9839 266.219 67.3436 270.716C68.2192 281.66 68.9319 286.164 70.011 287.903C70.4726 288.667 71.0359 289.336 71.2938 289.336C71.8097 289.336 71.7011 287.186 71.0359 284.325C70.6762 282.891 70.1604 277.879 69.8074 273.172C69.4477 268.464 68.8843 261.613 68.5721 258.028C67.7509 248.769 66.9296 228.465 67.2893 226.517C68.1106 222.222 77.2463 217.359 87.9228 215.465C91.7712 214.803 96.1898 214.647 96.9567 215.161C97.2147 215.317 97.5744 215.824 97.8323 216.284C98.3957 217.406 100.242 224.211 100.914 227.795L101.477 230.71L98.4975 232.246C95.1106 233.984 95.6739 232.706 93.5699 243.297C92.2871 249.844 92.3889 251.427 94.235 253.273C95.6196 254.606 97.3165 255.066 99.1626 254.552L100.445 254.193L100.188 258.745C99.7803 266.056 99.1626 273.733 98.7486 277.054C98.545 278.745 97.4047 283.31 97.2486 285.15C96.9907 288.011 97.8798 286.875 98.3889 286.875C99.2644 286.875 100.235 285.698 100.547 284.216C100.853 282.938 101.212 278.488 102.244 260.889C102.604 255.059 103.065 248.201 103.323 245.746C103.527 243.29 103.73 238.583 103.73 235.31C103.73 230.345 103.574 228.56 102.651 224.468C100.289 214.086 99.5699 212.807 95.6671 212.496L95.6807 212.51ZM100.092 252.151C99.3255 252.915 96.9635 252.969 95.9319 252.306C94.1332 250.974 94.0857 250.007 95.3142 241.972C96.1355 236.601 96.597 234.505 97.011 234.505C97.3165 234.505 98.45 234.045 99.5767 233.483C100.703 232.922 101.735 232.462 101.837 232.462C102.4 232.462 100.71 251.542 100.092 252.157V252.151Z" fill="#18333C"/>
<path d="M82.2823 237.217C81.461 238.089 80.28 243.818 79.4045 251.285C78.685 257.629 78.5832 260.186 78.7868 267.037C78.8886 271.535 79.1465 276.452 79.3026 277.981C79.8185 283.046 80.28 280.841 80.28 273.483C80.28 269.492 80.4836 265.042 80.6873 263.561C80.8909 262.079 81.2031 258.238 81.3049 254.964C81.461 251.691 81.8207 246.78 82.1262 244.068C82.8456 237.981 82.8931 236.649 82.2823 237.217Z" fill="#18333C"/>
<path d="M47.4564 337.614C47.4564 335.795 47.6601 334.28 45.556 335.301L42.7392 336.37L39.9089 336.593C38.2664 336.025 36.108 335.057 35.0356 334.435C34.0107 333.867 32.7279 333.353 32.2121 333.353C31.6963 333.353 30.9836 333.015 30.5153 332.616C29.9519 331.994 29.5922 331.933 29.0764 332.332C28.513 332.67 28.3569 333.583 28.2551 336.248C28.0515 341.645 28.9202 342.606 34.3094 343.404C36.2098 343.688 38.3139 344.202 38.9791 344.54C40.5673 345.338 41.2868 345.338 44.47 344.54C48.2709 343.634 49.2958 342.328 48.1148 339.772C47.7551 339.034 47.4497 338.067 47.4497 337.614H47.4564Z" fill="#A6DCD6"/>
<path d="M50.0432 274.605C48.6042 273.584 47.8848 273.428 44.4979 273.226C40.0861 272.921 38.5929 273.327 36.0273 275.579C33.3599 277.933 30.2445 284.852 31.3237 286.793C31.6834 287.456 31.1879 288.748 30.8282 292.434C30.3124 297.906 30.7739 323.992 31.4934 330.08C32.0092 334.888 34.8327 334.259 39.964 336.099C41.0907 336.505 42.007 336.349 43.0794 336.349C46.6223 336.404 47.3689 333.583 47.3689 328.93C47.3689 326.272 47.8305 323.817 50.2468 313.942C52.3508 305.454 53.3282 300.334 54.4074 292.407C55.2287 286.117 55.2287 285.555 54.611 282.586C53.8441 278.853 52.3033 276.195 50.0432 274.605Z" fill="#41718B"/>
<path d="M54.8689 284.027C54.8214 283.966 54.7671 283.905 54.7128 283.851C54.5159 283.668 54.482 283.391 54.5567 283.148C54.292 282.931 54.2444 282.512 54.4141 282.221C54.1494 282.113 54.0137 281.856 54.0137 281.592C50.5521 290.547 47.8779 303.925 47.8779 313.205C47.8779 316.938 48.801 315.917 49.6223 311.209C51.8146 298.94 53.5589 291.359 55.6358 285.474C55.3644 285.001 55.1879 284.473 54.8689 284.027Z" fill="#00DED0"/>
<path d="M33.5362 278.866C33.4344 278.981 33.3325 279.096 33.2307 279.218C33.2104 279.245 33.19 279.265 33.1696 279.292C33.1696 279.292 33.1696 279.293 33.1696 279.299C33.1289 279.353 33.0882 279.407 33.0475 279.462C32.8778 279.705 32.7217 279.955 32.5995 280.219C32.4366 280.571 31.9615 280.625 31.6561 280.469C31.6425 280.463 31.6289 280.442 31.6154 280.429C31.466 284.487 31.4525 287.875 31.6629 288.389C31.9683 289.052 32.0226 289.052 32.328 288.085C32.4841 287.524 32.9457 284.757 33.3054 281.944C33.4479 280.855 33.604 279.739 33.7737 278.609C33.6991 278.691 33.6176 278.772 33.5429 278.86L33.5362 278.866Z" fill="#00DED0"/>
<path d="M36.7326 317.763C36.5764 315.971 36.3253 315.207 35.9656 315.207C35.2461 315.207 35.1986 317.202 35.8095 319.454C36.4746 321.754 37.038 320.733 36.7326 317.763Z" fill="#18333C"/>
<path d="M36.6309 324.824C35.9115 324.824 35.606 327.178 36.0133 329.836C36.4748 332.853 37.2418 331.73 37.2418 328.044C37.2418 325.433 37.0857 324.824 36.6241 324.824H36.6309Z" fill="#18333C"/>
<path d="M49.0043 273.57C47.002 272.597 46.1808 272.448 43.2011 272.448C40.3776 272.448 39.2984 272.651 37.812 273.422C34.6287 274.957 32.6808 276.952 31.0382 280.226C29.5518 283.242 29.5518 283.296 29.1378 290.763C28.8324 297.669 29.1378 313.32 29.9048 326.874C30.0767 329.872 29.8369 331.408 29.1853 331.48C27.2849 331.635 26.9794 332.454 27.0269 337.567C27.0812 340.428 27.2849 342.477 27.5903 342.836C28.1536 343.553 30.0541 344.168 32.5179 344.418C33.5428 344.574 35.8573 345.081 37.6491 345.649C39.4478 346.211 41.7554 346.671 42.7328 346.671C45.1966 346.725 47.8165 345.392 48.8957 343.451C49.9749 341.51 49.9749 340.996 48.8957 339.616C48.2781 338.798 48.1287 338.236 48.3324 337.161C48.536 336.14 48.3867 335.369 47.9251 334.55C47.2057 333.373 47.26 333.015 48.9025 323.14C50.8505 311.527 51.8821 306.827 54.5496 297.006C56.2939 290.56 56.3957 289.742 56.2464 286.164C55.9885 279.976 53.6265 275.884 49.0111 273.584L49.0043 273.57ZM47.5654 342.369C47.2057 342.93 46.5405 343.593 46.1808 343.803C45.2577 344.263 42.0201 344.675 40.9478 344.418C29.6061 341.808 28.8324 341.557 28.8324 340.326C28.8324 339.095 29.1921 339.102 31.2962 340.171C32.9387 340.989 34.174 341.246 34.174 340.685C34.174 340.529 32.993 339.664 31.6084 338.744C29.0903 337.161 29.0428 337.053 28.8867 335.166C28.8324 334.09 28.941 333.225 29.0903 333.225C29.7554 333.225 32.5315 334.246 35.4025 335.578C39.5088 337.52 43.4591 337.878 45.312 336.498L46.5948 335.578L46.3912 337.472C46.2351 338.649 45.8278 339.772 45.312 340.333C43.8731 341.868 44.2328 342.43 45.9296 341.409C47.7758 340.333 48.5971 340.847 47.5722 342.382L47.5654 342.369ZM51.4138 300.07C48.6921 310.912 46.7441 322.166 46.1808 330.046C45.9772 333.373 45.8753 333.732 44.7419 334.652C44.0767 335.213 43.1536 335.673 42.6378 335.673C41.4568 335.673 35.4025 333.576 33.7057 332.555L32.3211 331.737L31.9613 324.831C31.7577 320.996 31.5473 310.506 31.5473 301.504C31.493 283.296 31.5473 282.525 34.269 278.535C36.217 275.667 38.8912 274.139 42.4274 273.929C47.2532 273.672 50.8437 275.62 52.9002 279.759C54.9568 283.75 54.6989 286.719 51.4138 300.063V300.07Z" fill="#18333C"/>
<path d="M38.0702 289.478C37.3032 290.195 36.6856 294.903 37.1946 296.228C37.7105 297.608 38.2195 296.127 38.5317 292.495C38.7354 289.018 38.7354 288.863 38.0702 289.478Z" fill="#18333C"/>
<path d="M36.482 306.921C36.8892 308.403 37.3033 307.997 37.6087 305.947C37.9684 303.235 37.9141 301.396 37.4526 301.091C36.4752 300.476 35.8101 304.466 36.4752 306.921H36.482Z" fill="#18333C"/>
<path d="M68.9393 267.477C82.2832 255.458 86.4914 250.291 90.8556 240.625C92.9054 235.972 93.6791 231.88 93.7267 225.13C93.781 214.694 91.9823 212.293 81.7674 209.378C74.2199 207.227 66.2651 206.104 58.8737 206.104C52.3579 206.104 51.3262 206.463 49.9959 209.074C49.1203 210.812 45.014 221.552 43.6837 225.746C43.2764 226.977 41.7832 231.116 40.3443 235.005C33.4687 253.523 30.2787 268.058 31.1 284.582L30.7402 288.653L32.6 290.513C33.5705 291.48 34.6701 292.305 35.885 292.934C36.6452 293.334 37.4461 293.699 38.0841 293.929C40.7515 295.004 44.2131 294.307 46.1068 293.489C49.8534 291.954 55.0185 286.719 57.2244 281.964C59.023 278.176 64.1543 271.785 68.9258 267.49L68.9393 267.477Z" fill="url(#paint1_linear_18_1583)"/>
<path d="M52.2417 271.568C50.7553 277.196 50.5449 278.731 51.0608 279.238C51.7259 279.901 52.7033 279.137 54.8617 276.168C56.0969 274.477 58.3028 271.67 59.6874 269.925C63.3322 265.474 64.4589 263.432 64.4589 261.227C64.4589 257.953 61.6354 256.371 58.8662 258.156C56.097 259.996 54.2983 263.628 52.2417 271.562V271.568Z" fill="#1A4E6E"/>
<path d="M78.8281 253.307C78.672 253.307 76.4661 255.404 73.9548 257.913C71.3892 260.469 66.6177 265.177 63.3326 268.45C60.0951 271.677 55.2964 275.315 55.5476 280.422C55.5476 280.537 55.5679 280.665 55.6426 280.746C55.6833 280.794 55.7444 280.828 55.8055 280.848C56.1856 280.997 56.6607 280.794 56.8168 280.422C56.8643 280.307 56.8847 280.178 56.939 280.07C57.0272 279.901 57.1901 279.786 57.3394 279.671C58.8666 278.467 59.7761 276.276 61.0181 274.754C62.7964 272.569 64.758 270.527 66.672 268.471C67.8869 267.165 69.1019 265.867 70.3168 264.561C75.7059 258.887 79.9141 253.307 78.8349 253.307H78.8281Z" fill="#00DED0"/>
<path d="M48.1354 219.956C47.5177 219.956 46.6965 221.336 44.3345 226.503C40.7915 234.126 39.563 237.447 37.3028 245.529C34.8933 253.916 33.2508 261.335 32.5313 266.807C32.1784 269.485 31.296 273.05 32.7417 275.491C32.9589 275.647 33.2779 275.559 33.4748 275.376C33.6716 275.194 33.7598 274.93 33.8481 274.673C34.7101 272.11 35.3073 269.465 35.8368 266.827C38.287 254.464 41.3006 241.999 45.882 230.23C48.9635 222.405 49.4725 219.949 48.1422 219.949L48.1354 219.956Z" fill="#00DED0"/>
<path d="M45.373 260.443C45.373 262.079 46.14 261.721 47.0699 259.624C48.0473 257.426 48.5563 254.558 47.9454 254.558C47.3821 254.558 45.3798 259.11 45.3798 260.443H45.373Z" fill="#18333C"/>
<path d="M57.0269 232.049C57.183 232.049 58.0042 230.717 58.9748 229.08C59.9454 227.443 60.9771 225.705 61.2825 225.191C61.8459 224.319 61.8459 224.271 60.821 224.271C59.8979 224.271 59.5382 224.731 58.0993 227.599C57.1762 229.439 56.511 231.177 56.6128 231.488C56.7689 231.792 56.9183 232.049 57.0201 232.049H57.0269Z" fill="#18333C"/>
<path d="M84.489 232.665C82.7446 232.563 79.8668 232.103 78.1225 231.691C75.7605 231.13 74.7831 231.028 74.3216 231.387C73.9618 231.644 72.8827 233.997 71.8578 236.655C67.6971 247.45 67.6971 251.9 71.8035 253.794C75.2446 255.377 78.4754 254.153 81.9641 249.905C84.17 247.146 88.1745 239.523 88.9958 236.398C89.4573 234.505 89.4573 234.403 88.5885 233.686C87.9709 233.172 86.6406 232.868 84.4822 232.665H84.489ZM82.4324 246.117C80.1722 249.797 78.8419 251.183 76.7854 252.151C74.8374 253.07 74.7288 253.07 72.8351 252.252C69.808 250.974 69.7062 247.802 72.4754 238.745C73.4528 235.627 74.3216 232.962 74.4777 232.814C74.6338 232.658 75.7062 232.76 76.8872 233.071C78.0682 233.375 80.7356 233.835 82.7922 234.045C84.8962 234.302 86.7424 234.66 87.0003 234.917C87.5636 235.478 84.7401 242.337 82.4324 246.117Z" fill="#18333C"/>
<path d="M55.7447 234.2C55.0796 235.019 53.5389 240.592 53.8443 241.106C53.9461 241.363 54.204 241.363 54.4076 241.207C54.9235 240.592 56.8714 235.323 56.8714 234.504C56.8714 233.585 56.3556 233.429 55.7447 234.2Z" fill="#18333C"/>
<path d="M49.8936 250.311C49.8936 251.386 50.7148 250.872 51.5904 249.188C52.8732 246.631 53.5926 244.379 53.1786 244.122C52.4592 243.662 49.8936 248.471 49.8936 250.311Z" fill="#18333C"/>
<path d="M90.9571 215.58C92.9051 217.88 93.7806 217.629 92.6539 215.066C91.5272 212.665 90.3938 211.847 85.8259 210.054C76.8938 206.524 72.2241 205.55 61.1879 205.198C53.1788 204.894 51.6924 205.144 50.0974 207.241C49.534 208.005 48.2512 211.13 47.2196 214.146C46.1947 217.217 43.6291 224.17 41.4164 229.641C34.2829 247.7 34.3779 251.095 31.2015 271.23C29.2942 283.303 29.3485 291.068 30.0205 293.117C30.3802 294.24 31.0453 292.914 31.4594 290.249C31.663 288.815 32.7965 277.317 33.4616 270.872C34.1811 264.379 35.0024 257.521 35.3621 255.58L36.0273 252.103L37.3644 252.36C38.3892 252.516 39.3666 252.306 41.0091 251.596C43.6766 250.365 43.9888 249.858 48.6042 239.983C52.1947 232.313 52.6087 231.238 51.991 231.238C51.6313 231.238 50.0906 233.848 43.5205 245.664C41.6743 249.039 39.672 250.676 37.9752 250.27C36.5363 249.912 36.5363 249.864 37.0996 247.511C37.6155 245.461 45.3123 224.494 47.8304 218.353C48.4481 216.771 49.2693 214.464 49.6766 213.24C50.7015 210.021 51.7806 208.025 52.8598 207.457C54.0408 206.794 66.4141 207.254 71.6472 208.12C76.6291 208.938 77.7015 209.243 84.068 211.698C88.7377 213.49 89.4571 213.896 90.9435 215.587L90.9571 215.58Z" fill="#18333C"/>
<path d="M43.9884 264.791C43.3232 265.454 41.6807 270.52 41.6807 271.798C41.6807 273.178 42.4001 272.617 43.2689 270.568C45.0675 266.421 45.4273 263.303 43.9884 264.785V264.791Z" fill="#18333C"/>
<path d="M40.7041 277.067C39.9847 277.067 39.2652 278.961 38.9598 281.822C38.6001 284.893 39.3195 284.636 40.3987 281.362C41.4236 278.244 41.4779 277.067 40.7041 277.067Z" fill="#18333C"/>
<path d="M73.7102 264.792C80.64 257.94 87.0065 251.285 87.8278 250.061C90.3934 246.172 93.2712 237.582 93.6785 232.563C93.7803 230.927 93.7328 230.413 93.2712 230.413C92.9115 230.413 92.3482 231.637 91.7848 233.788C90.0405 239.821 87.8821 244.887 85.4726 248.62C83.5246 251.636 80.9047 254.45 71.2531 263.966C63.6038 271.535 59.0359 276.344 58.3165 277.676C54.8753 283.709 50.7215 289.079 48.2577 290.615C47.6943 290.973 47.3346 291.433 47.4907 291.589C48.054 292.15 50.7215 290.872 52.8323 289.032C54.3187 287.652 54.8889 287.341 54.6785 287.957C54.373 288.931 53.1921 294.301 53.1921 294.808C53.1921 295.369 54.1694 294.862 54.9364 293.787C55.3436 293.273 56.321 290.513 57.0948 287.7C59.5586 278.751 59.4568 278.954 73.7237 264.785L73.7102 264.792Z" fill="#18333C"/>
<path d="M25.4112 203.974C29.056 205.807 35.7823 202.087 44.6058 193.457C52.099 186.132 54.9769 182.466 57.7461 176.71C63.9565 163.941 66.3185 152.429 64.2619 144.631C63.237 140.755 62.2597 139.085 59.0764 135.683C55.228 131.55 51.6307 129.771 47.1646 129.771C43.004 129.771 40.8524 130.867 37.9271 134.479C35.5176 137.462 31.9203 144.523 30.0198 150.069C29.3547 152.003 26.8366 157.502 24.4746 162.209C20.8841 169.325 20.0628 171.313 19.6488 173.876C18.8275 178.848 19.3434 185.598 21.0334 193.132C22.6217 200.193 23.8569 203.176 25.3977 203.96L25.4112 203.974Z" fill="#F2F2F2"/>
<path d="M35.9728 193.565C37.561 193.565 38.5927 193.152 42.1832 191.056C50.1379 186.402 55.2216 180.004 58.7646 170.238C59.5859 168.087 59.9456 166.092 60.1017 163.434C60.3053 159.957 60.2578 159.497 59.2805 157.502C57.9433 154.79 56.0972 153.511 53.1176 153.207C48.0881 152.693 46.1334 154.485 41.7216 163.488C33.1492 181.188 30.5836 189.879 33.2035 192.645C33.8687 193.362 34.5406 193.565 35.9728 193.565Z" fill="#DCD5D2"/>
<path d="M26.5384 204.637C26.9456 204.637 27.3054 204.792 27.3054 204.995C27.3054 205.611 30.0746 204.691 34.0791 202.797C40.5475 199.679 48.0407 192.672 55.276 182.845C61.8461 173.998 65.8981 162.439 65.8981 152.72C65.8438 139.626 57.7398 129.088 47.2669 128.574C40.595 128.27 36.8959 131.232 34.0248 139.159C33.1018 141.817 26.8913 154.452 21.5497 164.529C19.242 168.925 18.2646 173.071 18.2646 178.597C18.2646 185.3 20.009 194.505 22.3167 199.774C23.2941 202.128 25.4999 204.63 26.5248 204.63L26.5384 204.637ZM28.9004 154.1C32.9524 146.017 36.8076 138.192 37.4185 136.758C41.0633 128.52 50.6131 127.911 57.9027 135.527C62.009 139.822 64.0113 145.551 63.957 152.869C63.9027 160.18 62.4162 165.706 58.3099 174.147C55.4321 179.977 53.3823 182.743 46.8665 189.696C42.2443 194.606 35.423 199.72 30.957 201.566C27.0067 203.257 26.2873 203 24.4411 199.314C21.6719 193.842 19.9208 186.22 19.9208 179.673C19.9208 172.612 20.5384 170.873 28.9004 154.1Z" fill="#18333C"/>
<path d="M12.8278 152.815C11.6944 150.042 11.0631 147.661 10.7238 144.834C10.1536 139.626 9.81427 138.666 8.39572 138.666C6.97717 138.666 6.7464 139.065 6.00658 142.514C4.58803 149.027 5.72151 156.156 8.674 159.727C10.1536 161.54 12.1966 161.878 13.6152 160.579C14.9251 159.45 14.6401 157.238 12.8211 152.822L12.8278 152.815Z" fill="#E5CAA5"/>
<path d="M27.8552 181.025C26.6742 175.297 24.5701 171.719 18.5633 165.375C15.9977 162.662 15.2443 160.573 14.2194 160.573C13.3439 160.573 12.6787 160.931 12.0611 161.695C11.2398 162.717 11.2194 164.658 11.4298 167.573C11.6878 171.922 13.1742 177.596 16.4592 186.653C19.1267 194.12 20.8235 197.19 24.0543 200.619C24.6719 201.235 25.3914 201.742 25.595 201.742C28.0045 201.742 29.4434 188.492 27.8552 181.025Z" fill="#F2F2F2"/>
<path d="M33.3457 201.958C33.3457 201.296 33.0878 201.296 30.5765 202.263C27.5493 203.386 26.2122 203.338 24.9294 201.958C22.0516 198.841 17.9995 188.918 14.6127 176.589C11.0697 163.697 11.0697 160.884 14.6127 162.318C15.4339 162.676 16.0991 163.082 16.0991 163.291C16.0991 163.501 17.7416 165.442 19.7982 167.64C21.8548 169.839 24.1624 172.605 24.9294 173.829C27.495 177.82 28.0109 177.103 25.805 172.605C24.2643 169.487 17.952 161.655 16.0516 160.586C15.0742 160.025 14.9249 159.768 15.176 158.895C15.8412 156.386 15.3796 153.931 13.3774 149.994C11.5787 146.464 11.4294 145.801 11.1172 142.216C10.9136 139.146 10.6557 138.179 10.0923 137.712C8.8638 136.839 7.88643 137.096 6.24389 138.733C3.83439 141.134 3.26425 144.719 4.34344 150.346C5.219 154.898 6.50181 157.914 8.44977 159.964C10.1466 161.702 10.1941 161.804 10.038 164.11C9.8819 165.95 10.2959 168.148 11.986 174.647C14.4498 184.367 16.1466 189.534 18.6579 195.161C21.0199 200.43 23.124 203.703 24.8208 204.725C25.5403 205.185 26.409 205.442 26.7688 205.388C27.0742 205.286 27.9498 205.083 28.6149 204.928C30.2032 204.569 33.3389 202.628 33.3389 201.958H33.3457ZM9.68507 158.787C7.32308 155.919 5.63303 149.94 5.93846 145.334C6.14208 142.419 7.22127 139.964 8.40226 139.707C9.01991 139.606 9.12172 139.964 9.12172 142.216C9.12172 145.131 9.94299 147.844 11.9995 151.936C13.6421 155.054 13.8457 157.921 12.6172 159.301C11.5923 160.424 11.029 160.322 9.69186 158.787H9.68507Z" fill="#18333C"/>
<path d="M105.094 37.3481C106.655 38.9037 107.517 38.9578 108.786 37.6931C110.286 36.2524 110.626 30.544 108.664 22.4346C108.026 19.8441 107.11 18.7079 106.133 18.3629C104.056 17.5581 103.479 18.6538 103.302 24.2337C103.241 26.9391 103.302 30.7334 103.479 32.634C103.771 35.5084 104.001 36.2592 105.094 37.3549V37.3481Z" fill="#E5CAA5"/>
<path d="M110.403 41.6228C109.018 38.8633 107.376 38.8092 106.195 41.4673C105.428 43.2055 105.319 44.5379 105.014 53.8445C104.756 62.0283 104.45 65.7618 103.629 70.8277C103.066 74.4597 102.448 80.0869 102.346 83.3064C102.088 88.6292 102.19 89.6505 103.011 92.9241C104.138 97.4759 105.577 100.648 106.812 101.263C108.353 101.98 110.382 103.502 111.563 102.582C113.206 101.304 115.738 97.645 117.068 92.4777C118.71 86.032 118.052 80.5468 117.176 74.3109C116.05 66.3299 111.326 43.3678 110.403 41.6228Z" fill="#F2F2F2"/>
<path d="M100.982 11.7821C98.674 9.3269 97.2351 7.38577 95.9523 4.77506C94.9274 2.77982 93.95 1.09571 93.7464 0.940147C93.0269 0.534336 92.2057 1.96144 91.9477 4.05813C91.6423 6.56739 90.6106 7.48723 89.3278 6.35772C88.9206 5.99925 88.1468 5.74224 87.631 5.79635C86.8097 5.95191 86.6536 6.20892 86.45 8.35296C86.2939 10.0438 86.0428 10.9096 85.4726 11.3221C84.4477 12.0391 84.3934 12.0391 82.6491 10.9096C81.4206 10.0371 81.1084 9.98973 80.7011 10.4496C80.036 11.268 80.545 13.1618 82.0382 14.9C83.6265 16.7938 86.6061 18.8364 92.8165 22.1641C95.9998 23.8549 98.3618 25.4376 99.5903 26.6686C100.615 27.7439 101.694 28.6097 101.952 28.6097C102.36 28.6638 102.468 27.4869 102.468 24.1593C102.468 21.1247 102.896 19.2332 103.751 18.4847C104.83 17.4634 104.932 17.2064 104.572 16.2325C104.314 15.617 102.726 13.6217 100.982 11.7821Z" fill="#FF479B"/>
<path d="M115.065 55.772C114.658 54.0811 113.782 50.1988 113.219 47.1755C112.038 41.3927 111.42 39.7086 110.138 38.8902C109.418 38.4303 109.418 38.3762 110.294 37.2535C111.061 36.1781 111.169 35.5153 111.115 31.2678C111.115 23.3409 109.167 19.1476 101.565 10.8081C97.8186 6.61476 96.3796 4.51807 95.762 2.36727C95.0968 -0.0337727 94.2756 -0.493692 92.4226 0.473491C91.1398 1.13631 91.038 1.44744 90.9362 3.233C90.7326 6.35098 90.5765 6.56065 89.2394 5.27559C87.8004 3.89583 87.1353 3.94317 85.7507 5.37704C84.7258 6.45244 84.624 6.70945 84.9837 8.0351C85.2891 9.05639 85.2891 9.67187 84.9294 10.1318C84.4679 10.7473 84.2643 10.7473 83.029 9.67187C81.7937 8.59647 81.6443 8.59647 80.6195 9.15784C79.0787 9.97623 79.0787 11.2545 80.5652 14.2711C82.2077 17.646 84.3118 19.3369 91.2416 22.8134C95.6059 25.0656 96.9362 25.9314 99.2982 28.3392C102.067 31.1528 102.122 31.2001 102.325 33.865C102.583 36.5771 103.764 38.5724 105.047 38.5724C105.767 38.5724 105.767 38.7753 104.891 40.3106C104.273 41.4333 104.124 43.2257 103.914 52.8907C103.71 63.6853 103.656 64.294 102.576 67.8246C101.552 71.1522 101.395 72.2749 101.192 79.6945C101.036 87.0059 101.09 88.3383 101.857 92.1732C102.936 97.2864 103.914 99.4372 106.221 101.838C107.762 103.475 108.122 103.631 109.866 103.631C111.509 103.631 112.024 103.428 113.565 101.994C115.724 99.9986 117.264 96.9821 118.391 92.2747C119.11 89.4069 119.314 87.4658 119.314 82.3526C119.314 76.5224 119.158 75.2915 117.57 67.4187C116.592 62.7113 115.466 57.4426 115.052 55.7584L115.065 55.772ZM102.183 27.9469C102.129 27.9469 101.362 27.1826 100.486 26.256C99.5629 25.3362 97.7642 23.855 96.4814 23.0366C93.9633 21.3998 93.8615 20.737 96.176 21.3998C98.1783 21.9612 99.2032 21.2983 98.8434 19.5601C98.6398 18.3833 98.7416 18.0789 99.8208 17.3079C101.002 16.4895 101.049 16.4895 101.409 17.2064C101.613 17.6122 101.925 20.1756 102.027 22.9351C102.129 25.6946 102.23 27.9469 102.183 27.9469ZM98.8434 15.2585C99.2032 14.9542 99.6104 14.8527 99.8683 15.103C100.072 15.3059 99.6647 15.8199 98.8434 16.3272L97.5063 17.247L96.7394 15.6102C95.9181 13.7706 96.1217 13.4121 97.6149 13.7706C98.538 14.0276 98.6398 14.1831 98.1783 14.6904C97.5131 15.4547 98.0222 15.9214 98.8434 15.2518V15.2585ZM97.4045 19.9659C97.4045 20.0674 97.0991 20.1688 96.7394 20.1688C96.3796 20.1688 96.2235 19.9659 96.3796 19.763C96.5833 19.3505 97.4045 19.5601 97.4045 19.9659ZM102.129 16.0769C100.948 13.8247 96.7869 11.7821 95.5584 12.8034C94.7371 13.4662 94.7914 15.36 95.6127 16.9494C96.176 18.1263 96.176 18.2818 95.6127 18.8432C95.0493 19.4587 94.7371 19.3572 92.6873 17.9707C90.1692 16.3339 90.0199 16.2798 90.0199 16.9968C90.0199 17.3011 90.8412 18.1736 91.8661 18.9379C92.891 19.7022 93.7122 20.5205 93.7122 20.6761C93.7122 21.2916 92.1715 20.879 89.4498 19.5534C85.7507 17.6596 83.7009 16.0228 81.9566 13.4662C80.4158 11.1666 80.6195 10.0912 82.4181 11.5251C83.857 12.6478 85.2416 12.6478 86.3208 11.471C87.0403 10.7067 87.1964 10.1927 86.986 8.60323C86.7281 6.24953 87.2439 5.84372 88.6285 7.22348C89.9113 8.50178 90.4271 8.55589 91.7099 7.52783C92.4769 6.91236 92.6873 6.29688 92.7348 4.55865C92.7891 3.3818 92.9928 2.3064 93.1964 2.25906C93.4 2.20495 93.9633 3.1789 94.4249 4.51131C95.0425 6.20219 96.1692 7.83896 98.2258 10.1386C101.925 14.2305 103.975 16.6856 103.975 17.0441C103.975 17.8084 102.692 17.1455 102.129 16.0702V16.0769ZM105.515 36.7394C104.233 36.0225 104.076 35.2041 103.819 26.9188C103.561 18.992 104.382 17.1523 106.642 20.5273C108.285 22.9825 108.902 25.6405 109.16 30.862C109.418 35.3123 109.364 35.6708 108.543 36.4892C107.518 37.5105 107.056 37.5646 105.515 36.7462V36.7394ZM116.294 91.2128C115.113 96.069 113.212 99.8566 111.42 101.088C110.653 101.602 109.724 102.007 109.418 102.007C109.058 102.007 107.979 101.243 107.056 100.269C104.647 97.8681 103.567 94.3375 103.255 88.0948C103.052 82.8801 103.92 72.5928 105.054 68.3995C105.515 66.4583 105.773 62.8263 105.977 53.9255C106.235 41.4469 106.438 40.2159 108.183 40.2159C109.364 40.2159 110.029 41.7986 110.952 46.763C111.414 49.3737 112.235 53.2086 112.798 55.3594C116.959 71.8286 118.086 83.6444 116.287 91.2128H116.294Z" fill="#18333C"/>
<path d="M109.854 76.1165C106.365 75.758 104.668 76.9348 101.587 81.8993C99.4825 85.3757 95.4576 96.7316 95.4576 97.7597C95.4576 97.9626 92.6002 101.135 91.3717 103.745C88.0323 110.752 88.7246 111.578 88.0051 116.075C86.8241 123.238 87.4757 129.244 91.0662 132.822C93.0142 134.763 93.7269 136.528 96.6522 136.887C103.636 137.806 109.026 134.844 112.514 128.141C115.392 122.67 118.623 111.517 119.702 103.793C120.679 96.38 120.265 86.0927 118.826 82.2104C117.7 79.1939 113.695 76.4817 109.847 76.1232L109.854 76.1165Z" fill="#F2F2F2"/>
<path d="M119.037 79.1127C118.473 78.9572 117.754 81.6693 118.113 82.5892C118.833 84.5303 119.396 93.4852 119.193 99.4709C118.731 111.233 117.089 117.272 111.747 126.633C106.663 135.635 101.946 137.786 95.7288 133.843C92.7017 131.902 89.5184 126.836 88.2356 121.926C86.8985 116.711 88.2356 111.848 93.5772 101.98C95.5252 98.4023 97.7854 93.8504 98.6067 91.8552C100.303 87.7632 102.048 81.2162 102.048 79.1668C102.048 77.476 101.328 76.9687 100.969 78.504C99.0207 87.2019 97.5818 90.7798 92.1383 100.499C87.9777 107.966 86.7492 111.084 86.084 115.385C85.3171 120.194 86.342 124.949 89.1655 129.602C91.6293 133.748 94.5546 136.251 98.0976 137.326C104.722 139.423 109.595 135.744 115.399 124.232C119.607 115.947 121.351 107.56 121.351 95.9944C121.351 88.0135 120.17 79.5253 119.043 79.1127H119.037Z" fill="#18333C"/>
<path d="M105.157 123.833C102.896 119.078 101.872 117.949 97.7109 115.446C93.9643 113.147 91.4462 112.119 89.6543 112.119C88.3172 112.119 88.2697 111.963 89.091 109.968C89.8104 108.23 89.858 107.154 89.2471 105.004C88.4801 102.143 89.41 100.655 84.5367 100.296C79.6091 99.9918 71.5254 99.4237 70.7041 100.296C70.3444 100.601 69.2313 105.004 68.7697 107.459L67.8941 112.011L64.0457 112.646C61.4258 113.925 58.7923 114.899 57.7675 115.156C55.2018 115.818 51.0751 118.612 48.7132 120.654C47.634 121.574 46.229 123.265 44.5865 124.131C40.324 126.383 40.4801 126.789 47.0503 129.298C56.4711 132.957 58.3783 134.175 66.0412 143.319C67.8127 144.732 69.2652 146.43 70.8806 148.006C71.7561 148.865 72.6453 149.71 73.4123 150.664C73.9824 151.367 74.3964 152.138 74.7901 152.937C76.5751 155.297 81.4484 161.1 82.996 164.036C84.2245 166.437 86.315 171.854 87.0819 171.854C88.1611 171.854 88.9281 170.88 89.7018 168.526C90.2652 166.633 94.0118 160.444 96.8896 156.555C98.0163 154.972 99.9711 152.105 101.098 150.164C102.224 148.27 104.329 145.152 105.666 143.258L108.184 139.829L109.283 135.852C109.283 131.3 107.464 128.622 105.157 123.813V123.833Z" fill="url(#paint2_linear_18_1583)"/>
<path d="M112.548 186.599C111.312 177.035 111.061 173.403 110.905 164.502C110.851 158.875 110.701 157.597 110.138 156.677C109.52 155.859 110.233 154.059 110.281 150.887C110.335 148.689 109.473 147.675 109.364 147.519C109.059 147.262 105.774 151.354 103.412 154.885C100.792 158.774 96.4277 166.599 93.4006 172.889C90.8349 178.104 90.4209 178.773 88.8802 179.639C86.9322 180.714 84.8282 180.66 82.9752 179.436C82.3576 179.03 80.3553 176.163 78.4549 172.943C74.2467 165.936 72.6517 163.785 66.7535 157.089C58.5951 147.83 52.3779 142.156 45.0408 137.191C42.0137 135.142 37.6494 132.944 37.1336 133.201C36.93 133.356 36.5702 134.479 36.258 135.71L35.7422 137.962L37.2286 139.498C38.6675 140.979 41.4911 145.483 43.5951 149.575C46.6223 155.507 47.6472 168.452 46.4187 183.744C46.0114 188.398 45.4956 196.683 45.1902 202.162C44.7286 211.678 44.7286 212.341 45.4956 214.336C45.9028 215.459 46.8327 217.095 47.4978 217.914C49.8598 220.829 55.5544 222.77 63.4073 223.487C66.0273 223.69 69.6178 224.204 71.4164 224.562C75.577 225.482 82.2626 224.258 86.2128 223.331C88.9481 222.716 91.5205 223.183 93.7399 223.906H102.326C105.36 221.383 109.161 216.399 110.993 212.178C113.559 206.504 114.075 198.11 112.534 186.605L112.548 186.599Z" fill="#F2F2F2"/>
<path d="M105.014 144.834C103.27 146.572 101.213 149.027 100.392 150.258C96.1839 156.501 93.8762 160.383 91.0527 165.605C89.4101 168.777 87.8219 171.591 87.564 171.848C87.2585 172.253 86.4848 171.131 84.435 167.14C82.9486 164.279 81.1499 161.107 80.4305 160.079C75.9101 153.789 74.4237 151.949 70.0119 146.931C66.9848 143.454 64.1613 140.688 62.7223 139.768C61.4395 138.896 59.1318 136.955 57.5911 135.419C55.5889 133.478 53.892 132.247 51.8422 131.273C45.7812 128.439 42.9373 126.261 40.745 127.783C39.6522 128.541 38.2269 131.307 37.6228 133.214C37.107 134.75 36.8015 136.386 36.8558 136.9C36.9576 137.516 38.1929 138.382 41.5798 140.228C45.8898 142.528 46.6635 143.197 52.8196 149.23C56.4101 152.761 60.8762 157.414 62.7291 159.511C67.1952 164.577 77.254 179.355 81.1567 186.673C82.9011 189.947 85.0459 194.221 85.4531 194.735C86.7359 196.575 87.3128 194.6 88.9554 190.562C92.1861 182.581 95.3694 177.468 104.661 165.855C107.383 162.426 109.487 158.49 110.512 154.959C111.075 153.018 111.415 148.784 111.157 145.362C110.695 137.793 109.535 140.127 105.021 144.834H105.014Z" fill="#D89568"/>
<path d="M69.543 115.764C69.543 116.84 70.0588 117.557 72.414 119.802C75.7534 123.022 77.4434 126.194 78.4683 130.955C79.7511 137.097 82.4728 140.674 87.095 142.257C91.147 143.637 96.3326 143.535 99.6176 141.953C102.387 140.674 104.443 138.835 104.803 137.299C105.21 135.818 103.88 133.309 102.957 133.667C97.6154 135.818 91.6629 131.266 89.6131 123.387C89.2534 122.156 88.8937 119.241 88.7375 116.941C88.5814 114.642 88.2217 112.288 87.9163 111.672C87.6584 111.057 87.509 110.137 87.6108 109.677C87.9163 108.656 87.2036 108.095 85.5611 108.095C84.7398 108.04 83.8642 108.609 82.4321 110.036C80.2737 112.234 79.6086 112.437 74.4774 112.849C70.7308 113.154 69.5498 113.823 69.5498 115.764H69.543Z" fill="#1A4E6E"/>
<path d="M70.1068 104.97C69.6452 106.965 69.4891 110.645 69.9507 111.057C70.514 111.618 71.695 111.314 72.109 110.543C72.367 110.083 72.6724 108.291 72.8285 106.505C73.0321 103.895 72.9303 103.232 72.367 102.772C71.4439 102.008 70.6701 102.718 70.1068 104.97Z" fill="#00DED0"/>
<path d="M48.6991 123.847C51.7805 122.21 55.7307 120.113 57.5294 119.193C61.4796 117.3 68.4638 113.465 69.0271 112.951C69.6923 112.288 69.0814 112.186 66.9774 112.646C63.2783 113.363 57.1764 115.406 54.4547 116.792C49.3235 119.403 41.3145 125.179 41.3145 126.309C41.3145 127.438 43.1606 126.87 48.7059 123.854L48.6991 123.847Z" fill="#00DED0"/>
<path d="M103.881 207.681C102.903 208.397 100.032 214.742 100.032 216.277C100.032 217.095 100.236 217.298 101.057 217.298C102.292 217.298 105.93 213.362 106.86 210.954C108.041 207.938 106.297 205.99 103.881 207.681Z" fill="#DCD5D2"/>
<path d="M80.4706 210.799C79.8529 211.056 76.8258 211.414 73.7443 211.563C67.6357 211.921 65.5317 212.584 63.8891 214.836C63.3733 215.499 62.6606 216.115 62.1923 216.216C61.1674 216.473 60.8077 217.65 61.5271 218.367C61.8326 218.725 62.9118 219.131 63.9366 219.287C66.1968 219.747 76.3575 219.442 78.2579 218.881C80.1584 218.32 83.4434 216.27 84.4683 214.945C86.7285 212.077 84.1086 209.372 80.4638 210.799H80.4706Z" fill="#DCD5D2"/>
<path d="M106.548 176.325C104.905 174.79 104.491 174.891 103.466 176.683C102.082 179.138 101.362 185.124 101.206 194.532C101.104 202.56 101.104 203.075 101.871 203.636C103.1 204.508 103.976 204.353 105.618 202.919C107.464 201.336 108.442 199.131 109.317 194.681C109.935 191.82 109.935 190.745 109.575 187.316C108.808 180.714 107.933 177.596 106.548 176.318V176.325Z" fill="#DCD5D2"/>
<path d="M51.1018 189.04C52.5883 188.526 53.362 171.55 51.8688 171.55C51.5634 171.55 51.2512 174.979 50.7896 183.981C50.5317 188.377 50.586 189.196 51.0951 189.047L51.1018 189.04Z" fill="#18333C"/>
<path d="M112.236 154.567C111.72 135.588 111.007 131.293 107.05 123.312C103.609 116.407 99.9167 113.133 94.2153 112.011L91.9551 111.551L91.9008 106.897C91.8465 101.933 91.4936 100.709 89.9529 99.8904C89.3352 99.5861 85.7922 99.3291 79.9959 99.2276C69.1158 98.9706 69.4212 98.8691 68.4981 103.624C68.1384 105.315 67.7787 107.56 67.6226 108.636C67.4189 110.475 67.3646 110.577 65.6746 110.989C60.5909 112.268 54.1226 115.284 48.8352 118.916C42.6723 123.062 41.0841 124.746 38.3149 130.117C35.0298 136.407 34.7244 137.381 35.6474 138.402C36.0615 138.862 36.6248 139.22 36.9846 139.22C38.2674 139.22 43.3511 142.291 47.4031 145.564C52.1746 149.352 58.4393 155.689 62.6474 160.911C68.8579 168.689 77.1723 181.323 82.0999 190.474C85.4393 196.764 86.0026 197.535 86.8714 197.224C87.1769 197.123 88.2085 195.127 89.1791 192.875C91.4868 187.451 96.1633 179.578 103.344 168.831C106.528 164.076 109.351 159.829 109.609 159.423C110.016 158.76 110.125 159.064 110.172 161.114C110.376 176.819 111.048 192.009 111.659 196.663C112.324 201.932 112.324 202.391 111.659 205.205C109.962 212.314 105.394 219.578 101.186 221.877C99.6474 222.729 97.8171 223.002 95.695 222.696L92.5117 222.182L93.5366 220.957C94.9212 219.321 95.5388 218.096 97.2357 213.436C98.8782 208.986 98.8782 208.783 98.0569 208.783C97.6972 208.783 97.4393 208.986 97.4393 209.243C97.4393 209.446 96.4619 211.698 95.2334 214.255C92.8714 219.266 90.971 221.363 88.0456 222.236C85.1678 223.054 84.8624 222.851 86.3488 221.16C87.9913 219.321 89.4303 216.196 88.9144 215.689C88.7108 215.486 87.8352 216.148 86.8103 217.427C84.9642 219.726 83.3217 221.059 80.8579 222.337C79.3171 223.101 78.9574 223.155 71.0026 222.696C61.2493 222.182 58.1678 221.776 56.2198 220.856C54.3737 219.983 52.575 217.995 51.2379 215.33C50.6746 214.207 50.0027 213.288 49.799 213.288C49.0796 213.288 49.9008 215.797 51.747 219.578C52.1067 220.24 49.4393 218.604 48.2583 217.427C47.437 216.608 46.7719 215.276 46.3103 213.49C45.2312 209.655 45.6452 199.064 47.1859 190.576C48.0615 185.665 48.3126 182.75 48.4687 176C48.5705 171.394 48.4687 166.078 48.2108 164.13C47.7493 160.343 45.9031 152.057 45.2855 151.083C44.3624 149.602 44.3624 151.543 45.2855 157.117C46.161 162.385 46.3103 164.428 46.3103 173.18C46.256 182.541 46.2085 183.616 45.0751 189.345C43.9484 195.019 43.8941 196.196 43.8465 204.894C43.8465 213.998 43.8465 214.356 44.8239 216.148C45.3398 217.17 46.161 218.448 46.6701 218.962C47.7493 220.186 53.7017 223.108 55.0864 223.108C55.704 223.108 56.7832 223.311 57.6045 223.568C58.3714 223.825 62.0705 224.231 65.8171 224.542C74.6474 225.205 84.0411 225.259 86.8103 224.698C89.5321 224.184 92.7153 224.184 96.204 224.799C98.5117 225.205 99.2855 225.157 101.288 224.596C106.059 223.216 111.197 216.257 113.607 207.816C114.842 203.622 114.89 201.986 114.068 195.642C113.451 190.785 112.785 176.866 112.222 154.567H112.236ZM69.6316 108.02C69.7877 106.586 70.0931 104.49 70.3511 103.265L70.8669 101.013L79.6972 101.27C86.1655 101.473 88.7312 101.676 89.0909 102.089C89.756 102.751 90.0683 109.968 89.4506 110.529C88.8873 111.043 84.3669 111.246 81.0343 110.935C79.5479 110.78 76.3646 110.631 73.9008 110.631L69.3805 110.577L69.6384 108.02H69.6316ZM44.3284 124.949C47.3081 122.291 53.7221 118.145 57.6248 116.36C65.6339 112.626 68.3013 112.214 80.2606 112.985C95.0977 113.959 97.3036 114.52 100.792 118.253C104.077 121.73 107.722 129.454 108.34 134.263C108.801 137.692 107.159 140.965 101.356 148.229C97.8669 152.524 94.7312 157.333 91.0389 163.981C89.2945 167.154 87.7538 169.866 87.5977 170.015C87.4416 170.17 86.7221 169.095 86.0094 167.613C84.109 163.779 78.204 154.722 75.1293 150.887C71.4846 146.383 61.0117 136.204 56.8579 133.187C52.6497 130.069 48.3398 127.918 44.9461 127.201L42.3262 126.687L44.3284 124.949ZM108.34 156.562C108.034 157.685 105.313 162.189 101.871 167.404C98.5864 172.26 94.8873 178.043 93.6045 180.241C91.0389 184.59 86.7764 193.132 86.7764 193.951C86.7764 195.127 86.0094 194.255 84.7741 191.651C81.6927 185.104 73.4325 172.165 66.9099 163.623C59.6203 154.059 48.842 143.982 40.9348 139.376C39.0343 138.3 37.4936 137.225 37.4936 137.076C37.4936 136.873 38.4167 134.777 39.5502 132.423L41.6067 128.074L43.2493 128.331C49.8194 129.352 59.5728 136.616 70.2493 148.229C76.6158 155.189 85.8058 169.46 86.9325 174.113C87.2922 175.547 87.8081 175.29 88.4189 173.295C89.7017 169.406 97.9687 155.75 102.74 149.765C104.023 148.128 105.869 145.619 106.901 144.191L108.747 141.533L109.052 145.422C109.46 149.873 109.209 153.809 108.333 156.575L108.34 156.562Z" fill="#18333C"/>
<path d="M92.2201 152.673C92.7834 150.475 92.7834 150.164 92.2201 149.961C91.9146 149.859 91.4531 149.961 91.297 150.265C90.7811 151.029 90.3739 154.255 90.6793 154.763C91.1952 155.635 91.6024 155.067 92.2201 152.666V152.673Z" fill="#18333C"/>
<path d="M89.0363 149.555C90.7807 142.548 90.3735 141.628 88.059 147.404C86.7762 150.576 86.0567 154.411 86.5726 155.182C87.1359 156.102 87.6992 154.77 89.0363 149.555Z" fill="#18333C"/>
<path d="M74.287 102.697C74.9522 102.9 77.1649 102.954 79.2147 102.799C82.3979 102.643 84.2169 102.691 86.6264 101.466C88.1128 100.702 89.1174 99.1194 90.0404 98.3484C91.0653 97.4286 92.4024 96.7657 93.7395 96.5087C97.5404 95.6903 101.335 93.2014 101.694 90.0834C101.85 88.6022 100.208 87.8649 98.9726 85.1054L97.4319 81.8319L98.3549 78.1999C99.5902 73.0326 99.278 71.0373 96.4545 65.5656C93.9364 60.6012 93.373 59.8911 91.269 58.8157C90.3934 58.4098 89.1649 57.233 88.4997 56.259C86.8029 53.858 85.011 52.7826 81.9296 52.4715C78.9499 52.1671 74.9454 53.2899 71.3074 55.488C70.0246 56.2523 67.8391 55.7585 66.0947 56.4214C62.864 57.6456 60.7327 60.9056 60.373 62.6979C59.8572 65.2072 59.8097 66.2758 60.1694 69.245C60.6852 73.2828 60.1151 76.0491 58.3708 78.7071C55.2893 83.259 55.1875 83.4619 55.1875 86.4311C55.1875 89.1432 55.2418 89.292 56.7282 90.78C57.7531 91.8013 59.1377 92.5724 61.0382 93.1811C63.8074 94.1009 64.0178 94.3038 67.3504 98.3957C68.6332 100.033 72.0201 102.129 74.2803 102.691L74.287 102.697Z" fill="url(#paint3_linear_18_1583)"/>
<path d="M91.3026 72.0315C91.8659 72.4915 92.6872 72.8499 93.1012 72.8499C95.0492 72.8499 95.2596 69.6305 93.4066 68.244C92.3275 67.4797 92.2256 67.4797 91.2483 68.0884C89.8094 69.0624 89.8094 70.902 91.3026 72.0248V72.0315Z" fill="#F2F2F2"/>
<path d="M69.6923 92.3356C70.2081 92.9985 70.5136 93.0526 71.491 92.6941C72.3665 92.3356 72.3665 90.1375 71.4367 89.779C69.9977 89.2177 68.6674 91.1114 69.6923 92.3356Z" fill="#F2F2F2"/>
<path d="M68.2593 67.9869C70.6213 66.6071 72.162 63.0225 71.3407 60.8785C71.0828 60.1615 70.4651 59.6543 69.2909 59.3431C67.3905 58.7818 66.9832 58.9847 65.0828 61.5954C63.5964 63.5906 63.4403 66.6613 64.7231 67.9396C65.748 68.9608 66.671 69.015 68.2661 67.9937L68.2593 67.9869Z" fill="#F2F2F2"/>
<path d="M61.0176 88.8051C62.1986 88.8051 63.8887 87.1683 64.1466 85.6871C64.3502 84.6117 64.2009 84.2059 63.3796 83.3334C61.8932 81.8522 60.4 81.9537 59.3751 83.5904C58.3502 85.3287 58.3502 86.9654 59.3751 87.9867C59.8366 88.4466 60.5561 88.8051 61.0176 88.8051Z" fill="#F2F2F2"/>
<path d="M87.5763 78.5447C86.8568 77.8278 86.1374 77.5234 85.2143 77.5234C83.9858 77.5234 83.6736 77.7804 82.5944 79.4646C81.3116 81.5139 81.0062 83.8608 81.7731 85.8561C82.1329 86.7759 82.0311 86.9315 81.0537 87.1885C80.4903 87.3441 79.6691 87.2426 79.255 86.9856C77.4089 85.8628 71.5039 86.8841 71.5039 88.3653C71.5039 88.8794 71.66 88.9267 72.2709 88.5683C73.608 87.9054 75.8614 88.1083 77.4564 89.0282C78.7935 89.7925 79.2007 89.8466 80.5854 89.4881C81.4609 89.2852 82.1261 89.1837 82.0718 89.3325C81.8682 89.7383 79.6623 93.323 78.1691 95.5211C77.4496 96.698 77.0899 97.5637 77.4021 97.5637C77.9179 97.5637 81.3523 94.4458 81.3523 93.9858C81.3523 93.8844 82.0175 92.9645 82.7912 91.9906C83.8161 90.7664 84.6917 90.1509 85.6691 89.948C86.4903 89.7925 87.4677 89.2311 87.9768 88.6156C88.6962 87.6417 88.798 87.0803 88.6962 83.5497C88.5401 80.0733 88.4383 79.5119 87.5695 78.538L87.5763 78.5447ZM86.8568 87.087C86.5514 87.8513 85.3161 87.9595 84.6985 87.1885C83.979 86.3701 83.0016 83.7594 83.0016 82.7922C83.0016 81.5613 85.3093 79.3631 86.0288 79.9245C86.6464 80.4385 87.2573 85.9575 86.8501 87.087H86.8568Z" fill="#18333C"/>
<path d="M98.2054 80.3844C98.2054 79.9786 98.6127 78.7477 99.081 77.6723C99.6443 76.3399 99.9566 74.8587 99.9566 73.3774C99.9566 71.1793 99.8005 70.8208 97.5946 66.8845C97.2891 66.3231 96.8276 64.9907 96.5154 63.9153C95.952 61.6157 93.9498 59.1605 91.486 57.7267C90.4068 57.1112 89.124 55.8329 88.357 54.6087C87.3796 53.0734 86.5109 52.3091 84.814 51.4907C81.7326 50.0095 78.6036 50.2598 73.6217 52.512C71.6738 53.3845 68.7959 54.4058 67.2552 54.8116C63.814 55.6841 61.4045 57.4223 59.9181 60.1345C58.3299 63.0496 58.1195 65.1463 58.9407 69.9551C59.762 74.9195 59.6059 75.6297 56.7348 78.5515C54.3729 80.9052 54.0674 81.7236 53.6534 85.403C53.3955 87.8581 53.4498 88.3722 54.4204 90.3133C55.4996 92.4641 56.8299 93.6409 59.6059 94.7096C64.0719 96.4004 65.3005 97.2188 66.6376 99.2614C67.4045 100.438 68.124 101.561 68.2801 101.771C68.4362 102.028 69.8208 102.643 71.3615 103.15C73.9272 104.07 74.5923 104.124 79.167 103.915C86.2529 103.61 86.5041 103.502 89.2258 100.797C91.3299 98.7542 91.995 98.2875 95.0765 97.3203C99.2371 96.042 101.185 94.5608 102.162 91.9974C103.086 89.5422 102.57 87.4997 100.058 83.8677C99.0335 82.3864 98.2122 80.797 98.2122 80.3912L98.2054 80.3844ZM100.106 91.1249C99.2303 93.2216 97.7982 94.1955 93.8955 95.4739C90.6104 96.5492 89.9928 96.9551 88.2484 98.8488C86.348 100.898 86.1919 101 83.5244 101.304C73.6692 102.481 71.3072 101.919 68.2258 97.7734C66.2235 95.0613 65.7077 94.7569 61.2416 93.0187C56.8774 91.3278 56.0561 90.5094 55.6964 87.1344C55.3367 83.9623 56.314 81.4598 58.5199 79.769C59.3412 79.1061 60.3186 78.1322 60.624 77.5708L61.1873 76.4954L61.4453 77.8278C61.7507 79.2076 63.4475 81.2028 64.3706 81.2028C65.09 81.2028 65.09 80.4859 64.3706 80.0801C63.4475 79.5187 62.8842 78.0375 62.8842 75.9882C62.8842 74.8654 62.4226 73.019 61.805 71.5919C59.2394 65.5047 60.624 60.3374 65.5041 57.7808C66.943 57.0165 67.7643 56.8609 70.8932 56.9624C74.8434 57.0639 76.8457 56.8068 76.8457 56.1981C76.8457 55.9952 75.8683 55.8397 74.6873 55.7923H72.529L75.4068 54.3584C80.3887 51.9033 84.3864 52.5661 86.6466 56.2522C87.4679 57.5846 88.6489 58.6533 90.3457 59.6813C93.0131 61.3181 93.8887 62.5491 94.3502 65.2071C94.5063 66.1811 95.2258 67.7164 96.1489 68.9406C98.5109 72.0586 98.5584 73.5939 96.5086 78.5583C95.7891 80.3506 96.3525 82.4947 98.0968 84.801C100.201 87.5605 100.819 89.4543 100.099 91.1452L100.106 91.1249Z" fill="#18333C"/>
<path d="M119.436 107.695C118.873 106.674 117.794 105.139 117.129 104.32L115.948 102.738L116.871 100.641C117.59 98.9501 117.746 98.0303 117.59 96.035C117.183 91.0706 114.305 86.7758 109.683 84.0636L107.633 82.8867L107.375 79.6132C106.961 74.3444 105.679 72.3492 101.572 70.868C99.8278 70.2525 98.3414 69.2853 96.7464 67.7973C95.5179 66.6205 94.079 65.4436 93.5632 65.1866C92.226 64.4697 90.1763 64.6253 88.2215 65.5924C86.6808 66.3094 86.3754 66.7152 85.9613 68.2031C85.6536 69.398 85.1061 69.7903 84.3188 69.38C82.3708 68.4061 80.0088 68.6631 78.6242 69.9955C77.545 71.0709 76.7441 70.9897 76.7441 73.0864C76.7441 74.4188 77.7012 77.0025 78.0609 78.2334C78.3663 79.4644 78.6242 81.764 78.6785 83.3467C78.6785 87.7971 79.0858 88.8183 82.6831 92.4503C86.2736 96.0282 87.5088 98.2332 88.1265 101.811C88.7441 105.599 89.6265 107.208 88.4998 113.6C87.1152 121.27 86.1785 125.747 87.9229 128.973C89.6197 132.044 92.9048 135.419 94.907 136.183C97.5745 137.157 103.222 136.183 102.712 134.851C102.509 134.235 107.179 129.785 108.102 129.785C108.461 129.785 109.541 130.502 110.565 131.368C112.724 133.309 115.235 134.229 118.982 134.54C122.728 134.898 125.09 134.438 127.249 133.004C132.02 129.886 132.59 120.986 128.328 117.151C124.527 113.776 120.475 109.427 119.45 107.689L119.436 107.695Z" fill="url(#paint4_linear_18_1583)"/>
<path d="M82.6968 83.6105C82.8529 85.7816 83.7556 87.8309 85.2488 89.4204C86.5316 90.8001 88.276 92.8968 89.0973 94.0737C89.9728 95.2979 91.4592 97.2457 92.3823 98.4226C93.3054 99.5995 94.5882 101.236 95.2534 102.055C95.871 102.873 96.5362 103.536 96.7398 103.536C97.6154 103.536 98.5384 101.743 98.742 99.7482C99 96.2177 96.7398 92.4369 92.7353 89.6706C91.4525 88.7981 90.0135 87.6754 89.5045 87.114C88.2217 85.7816 87.0407 82.8665 86.7353 80.4114C86.0701 75.6566 84.2172 73.8169 82.9344 76.8335C82.4728 78.0103 82.371 79.1872 82.6289 82.6636L82.6968 83.6037V83.6105Z" fill="#F2F2F2"/>
<path d="M94.7447 111.618C94.5886 111.463 93.9777 111.774 93.3601 112.335C92.2809 113.309 92.2334 113.512 92.2334 117.76C92.2877 122.054 92.7492 124.922 93.5705 125.943C93.8284 126.248 94.5479 126.457 95.213 126.457C96.8013 126.457 97.4732 125.078 96.8013 123.184C96.5434 122.467 96.3397 120.424 96.3397 118.632C96.3397 115.764 95.6203 112.7 94.7515 111.625L94.7447 111.618Z" fill="#F2F2F2"/>
<path d="M130.48 119.112C128.735 115.534 127.14 113.742 123.964 111.693C122.118 110.516 121.242 109.65 121.086 108.933C120.726 107.141 119.6 104.841 118.778 104.077C117.292 102.745 117.19 102.136 118.113 100.039C118.833 98.4564 118.935 97.584 118.731 95.3858C118.317 90.4755 115.602 86.3295 111.082 83.9825C109.744 83.2656 108.462 82.3458 108.258 81.9399C108.054 81.5815 107.797 80.0462 107.64 78.565C107.539 77.0296 107.179 75.19 106.819 74.473C106.154 72.8363 103.588 70.0226 102.767 70.0226C100.921 70.0226 99.2241 69.0487 97.8938 67.3105C95.8915 64.5983 93.1698 63.32 89.9866 63.577C87.8825 63.7326 87.3667 63.9355 86.3961 65.0582C85.7309 65.7751 85.2151 66.7491 85.2151 67.209C85.2151 67.8718 85.059 67.9733 84.4956 67.723C83.3146 67.1617 79.3644 67.3172 78.0816 67.9801C74.8508 69.6168 74.3825 72.6875 76.4933 78.105C77.6743 81.0742 77.7762 81.6829 77.4164 83.2724C77.0092 85.1661 77.2128 86.2415 78.5974 89.2581C79.5748 91.4089 81.0069 93.093 83.4232 94.9327C85.5816 96.5694 86.7083 98.869 87.5838 103.421C88.2015 106.85 88.2015 107.1 87.2241 112.525C86.559 116.359 86.2467 119.586 86.2467 123.008C86.2467 127.404 86.3486 128.121 87.3259 130.171C88.8124 133.343 90.2038 134.824 93.0748 136.258C96.0001 137.739 99.0273 137.949 101.545 136.921C102.367 136.562 104.111 135.182 105.448 133.803L107.858 131.347L109.344 132.267C110.22 132.781 112.269 133.904 113.966 134.777C116.892 136.312 117.149 136.359 119.919 136.156C125.824 135.696 129.57 133.755 131.213 130.373C131.98 128.791 132.088 127.972 131.98 125.159C131.824 122.345 131.62 121.324 130.493 119.126L130.48 119.112ZM126.937 132.105C125.498 133.079 121.134 134.256 118.67 134.256C116.206 134.256 111.896 131.544 109.792 128.683C108.251 126.586 107.43 126.025 104.199 124.848C103.48 124.543 102.299 123.671 101.579 122.907C100.398 121.574 100.297 121.27 100.5 119.22C100.704 116.765 100.344 116.15 99.6246 117.685C98.749 119.626 98.6472 121.777 99.3191 123.109C100.195 124.848 102.55 126.796 104.505 127.357C105.38 127.614 106.405 128.175 106.765 128.534C107.382 129.197 107.382 129.298 106.609 129.555C106.147 129.711 104.864 130.833 103.785 132.112C102.706 133.336 101.22 134.621 100.5 134.925C96.9096 136.407 91.8734 134.161 89.8237 130.116C87.9232 126.383 87.8214 121.878 89.5182 114.006C90.2852 110.272 90.2852 103.982 89.5182 100.912C88.6427 97.6922 87.0001 94.7771 85.3101 93.492C82.9481 91.6997 81.1495 89.7045 80.2264 87.9189C79.5069 86.485 79.4051 85.8222 79.663 83.3129C79.8667 80.6549 79.8191 80.0935 78.6381 77.2258C77.0499 73.188 77.0499 72.0111 78.6924 70.6787C80.749 68.9405 83.5182 69.3463 86.5997 71.9029C88.6562 73.6411 89.2196 72.8227 87.4753 70.5705C86.3486 69.0893 86.24 68.4738 86.9119 66.9385C87.2173 66.2756 87.9368 65.7616 88.9685 65.4573C91.378 64.7403 93.74 65.8157 96.3056 68.7849C97.9481 70.6246 98.8237 71.2401 100.154 71.5985C103.541 72.471 105.136 74.4595 105.543 78.45L105.801 80.851L104.159 79.0113C102.36 77.0161 102 77.3746 103.235 80.0867C104.111 82.0279 106.52 84.0772 110.165 85.971C113.043 87.4522 114.475 89.1431 115.86 92.464C117.143 95.582 117.095 96.8129 115.398 100.648C114.014 103.82 113.552 106.891 114.217 108.629C114.577 109.603 115.195 108.987 115.195 107.655C115.195 106.992 115.398 105.964 115.602 105.301L116.063 104.178L117.244 105.457C117.862 106.174 118.683 107.81 119.043 109.035C119.661 111.084 119.966 111.49 121.968 112.768C126.998 115.94 129.665 120.079 129.923 125.098C130.079 128.527 129.204 130.57 126.944 132.105H126.937Z" fill="#18333C"/>
<path d="M93.8822 92.2544C91.2148 90.462 90.3392 88.6765 90.6989 85.2947C90.9569 82.4811 90.5428 81.9671 89.5722 83.8135C88.6492 85.6058 88.3913 87.3914 88.8528 89.1296C89.4704 91.2804 90.6514 92.7075 93.2646 94.3984C95.2668 95.6767 95.4229 95.8796 95.8845 98.1319C96.1424 99.4102 96.4478 100.641 96.5496 100.79C96.6514 100.945 96.9094 101.094 97.1673 101.094C97.7306 101.094 97.1673 96.3395 96.4478 94.7501C96.1424 94.0873 94.9614 92.9578 93.8822 92.2408V92.2544Z" fill="#18333C"/>
</g>
<defs>
<linearGradient id="paint0_linear_18_1583" x1="72.9364" y1="256.351" x2="105.577" y2="244.366" gradientUnits="userSpaceOnUse">
<stop offset="0.11" stop-color="#41718B"/>
<stop offset="1" stop-color="#1A4E6E"/>
</linearGradient>
<linearGradient id="paint1_linear_18_1583" x1="36.3058" y1="250.575" x2="83.5794" y2="249.512" gradientUnits="userSpaceOnUse">
<stop offset="0.11" stop-color="#41718B"/>
<stop offset="1" stop-color="#1A4E6E"/>
</linearGradient>
<linearGradient id="paint2_linear_18_1583" x1="59.8308" y1="108.845" x2="123.607" y2="173.911" gradientUnits="userSpaceOnUse">
<stop offset="0.11" stop-color="#41718B"/>
<stop offset="1" stop-color="#1A4E6E"/>
</linearGradient>
<linearGradient id="paint3_linear_18_1583" x1="60.1287" y1="59.465" x2="89.9405" y2="91.8584" gradientUnits="userSpaceOnUse">
<stop offset="0.11" stop-color="#D89568"/>
<stop offset="1" stop-color="#C96C40"/>
</linearGradient>
<linearGradient id="paint4_linear_18_1583" x1="71.9591" y1="66.3499" x2="136.988" y2="158.664" gradientUnits="userSpaceOnUse">
<stop offset="0.11" stop-color="#D89568"/>
<stop offset="1" stop-color="#C96C40"/>
</linearGradient>
<clipPath id="clip0_18_1583">
<rect width="132" height="372" fill="white"/>
</clipPath>
</defs>
</svg>
