<svg width="274" height="167" viewBox="0 0 274 167" fill="none" xmlns="http://www.w3.org/2000/svg">
<g filter="url(#filter0_d_18_1368)">
<path d="M97.609 34.4104L111.539 34.0263L125.29 40.4347L131.535 43.5144L145.802 38.7644C145.802 38.7644 145.382 34.6487 148.127 32.7193C150.871 30.7898 153.595 31.1151 155.325 32.162C157.054 33.209 157.951 33.6303 157.29 37.6687C156.64 41.7087 155.155 47.9423 155.155 47.9423L147.603 49.392L149.774 52.4571L155.001 52.9973L163.893 57.3236L176.887 65.9368L192.548 66.7459C192.548 66.7459 194.595 60.5934 195.026 60.6554C195.456 60.7175 200.319 60.2617 200.319 60.2617L203.883 62.73L203.233 69.7355L201.753 74.4533C201.753 74.4533 200.161 75.8863 199.721 75.9689C199.281 76.0515 192.707 75.2496 192.707 75.2496L191.053 89.2207L186.81 92.956L175.076 97.7118L156.855 101.139C156.855 101.139 152.82 99.3666 149.713 99.2781C146.606 99.1896 134.774 95.0235 134.774 95.0235L125.845 87.4344L110.63 101.259C110.63 101.259 104.53 108.961 101.607 102.833C98.6823 96.7166 99.7604 93.4573 99.7604 93.4573C99.7604 93.4573 99.0277 89.8694 102.358 88.2491C105.689 86.6288 108.511 87.7546 108.721 87.7849C108.93 87.8151 112.734 86.117 113.19 85.5312C113.646 84.9455 116.452 81.5758 116.452 81.5758L97.9482 62.6763L79.2983 61.5823C79.2983 61.5823 80.2254 69.7587 71.6193 67.5069C63.0132 65.255 69.9597 48.7895 69.9597 48.7895L74.6445 47.0724L79.8435 50.0686C79.8435 50.0686 80.0154 51.6884 80.2044 51.8617C80.3934 52.035 89.1835 53.089 89.1835 53.089C89.1835 53.089 87.2269 48.4597 90.1499 42.793C93.073 37.1262 97.6043 34.4434 97.6043 34.4434L97.609 34.4104Z" fill="#00BBB6"/>
<path d="M74.3306 55.5754C75.1642 52.528 77.1536 50.6806 79.4842 49.8259L74.6491 47.0395L69.9643 48.7566C69.9643 48.7566 63.397 64.3107 70.9463 67.2527C72.1889 63.3992 73.2487 59.4857 74.3306 55.5754Z" fill="#F2F2F2"/>
<path d="M115.501 82.7081C118.479 81.6549 121.192 79.9455 122.871 76.6604C122.964 76.4829 123.065 76.3289 123.156 76.1624C119.357 70.2565 113.537 66.4856 105.983 65.4526C102.582 64.9846 100.609 63.0489 99.8401 60.6465C99.597 61.0046 99.3587 61.3297 99.1346 61.5558C98.7512 61.9498 98.3505 62.3077 97.9529 62.6435L97.964 62.6451L116.468 81.5446C116.468 81.5446 116.047 82.0455 115.502 82.6971L115.501 82.7081Z" fill="#F2F2F2"/>
<path d="M174.866 64.5671L163.919 57.3048L155.026 52.9785L149.8 52.4383L148.265 50.2738C142.787 48.8998 137.202 46.5445 132.65 43.1248L131.538 43.4925L125.293 40.4128L111.542 34.0044L97.6122 34.3885C97.6122 34.3885 93.0809 37.0713 90.1579 42.738C89.2988 44.4002 88.8701 45.9672 88.6797 47.3663C89.2321 46.581 89.7877 45.7737 90.2706 45.2367C92.0615 43.2821 94.5363 41.6619 97.0324 40.7525C103.236 38.5018 109.49 40.2685 115.517 42.1371C130.144 46.6837 144.326 52.75 159.364 55.9293C162.84 56.6662 164.805 58.8928 165.51 61.4995C166.345 61.6424 167.212 61.8797 168.112 62.2004C170.34 62.9934 172.563 64.0553 174.742 65.2681C174.777 65.026 174.812 64.784 174.88 64.5466L174.866 64.5671Z" fill="#F2F2F2"/>
<path d="M172.42 80.9064C171.398 80.9613 163.093 81.8532 157.674 82.4197C155.82 82.6241 155.583 82.8596 155.354 84.4442C155.212 85.4345 155.371 86.6707 155.778 87.1337C156.505 88.1821 157.394 88.1081 162.568 86.8997C164.252 86.4685 167.478 86.1248 169.71 86.1097C172.421 86.0513 173.926 85.4594 174.223 84.3341C174.726 82.2499 173.924 80.7863 172.42 80.9064Z" fill="#18333C"/>
<path d="M202.118 59.5777C201.041 59.0853 200.209 58.2914 200.096 57.6686C199.965 56.2343 198.944 56.2892 198.129 57.7219C197.76 58.41 196.567 59.1816 195.508 59.5006C193.966 59.8849 193.35 60.4027 192.725 61.93C192.232 63.0047 191.777 64.2871 191.71 64.7492C191.605 65.4755 191.104 65.6728 189.581 65.4533C188.522 65.3005 185.118 65.0118 182.035 64.8369L176.54 64.5164L168.033 58.8416C159.47 53.0913 154.591 50.8378 151.527 51.0025C150.638 51.0765 149.853 50.896 149.702 50.5372C149.551 50.1784 149.986 49.9716 150.781 50.0861C152.7 50.3629 155.945 49.4155 156.429 48.4068C156.703 47.9072 157.426 44.3045 158.044 40.4846C159.166 33.6372 159.129 33.4295 158.08 32.2674C157.504 31.5777 156.18 30.9151 155.253 30.7815C154.26 30.6383 153.362 30.3066 153.211 29.9478C152.796 29.0792 151.642 29.115 150.156 30.0465C149.342 30.5358 148.084 31.2979 147.346 31.7306C146.314 32.3233 145.784 33.1903 145.309 35.0764L144.664 37.6792L137.984 39.9512L131.305 42.2232L123.818 38.3804C111.528 32.2276 112.502 32.5028 105.371 32.7551C101.909 32.8626 98.3622 33.0925 97.5202 33.3081C95.3539 33.8045 93.5458 35.5657 90.3069 40.2209C87.7593 43.83 87.4465 44.5937 87.359 47.0748C87.3387 48.622 87.375 50.2447 87.5069 50.7356C87.667 51.5 87.1751 51.6313 84.6877 51.5422C81.8032 51.3959 81.6142 51.3012 80.443 49.5822C79.7724 48.6094 78.506 47.5506 77.4755 47.1998C76.1991 46.6788 75.6605 46.1968 75.6047 45.1778C75.4364 43.0642 73.9611 42.9863 72.8431 45.1166C72.1231 46.3607 71.1955 47.1705 69.7101 47.6303C68.4991 48.0623 67.3729 48.8435 67.1358 49.5506C66.1973 51.8416 66.5631 65.239 67.5923 67.005C67.8095 67.3733 68.9911 68.0828 70.1255 68.6508C74.6917 70.7245 80.3115 68.7715 80.8732 64.876L81.1588 62.8953L88.9989 63.3518L96.9052 63.8178L98.7855 65.7738C99.8533 66.8039 103.964 70.6317 107.904 74.2327C111.854 77.7678 115.048 80.9242 115.02 81.1222C114.925 81.7825 109.879 86.7837 109.349 86.7074C109.084 86.6692 108.555 86.1211 108.31 85.4792C107.63 84.1006 106.004 84.1356 104.035 85.6041C103.278 86.1689 102.076 87.0066 101.252 87.5619C98.631 89.3406 97.9668 91.6037 98.7468 96.9732C99.5263 102.814 100.045 103.9 102.191 104.951C106.417 107.043 109.662 106.095 111.822 102.363C112.447 101.307 114.587 99.1222 116.584 97.4557C118.572 95.8552 121.44 93.3032 123.002 91.8435L125.813 89.216L129.716 92.1377C134.829 96.0426 138.252 97.6144 147.461 100.29C150.424 101.144 153.172 102.001 154.666 102.497C155.687 102.835 156.765 102.935 157.826 102.762C158.98 102.569 160.511 102.262 162.1 101.862C165.175 101.159 170.548 99.9796 174.086 99.344C180.764 98.0154 181.833 97.6304 188.259 93.839L188.715 93.5678C190.946 92.2271 192.448 89.9386 192.775 87.3573L193.188 84.1031L194.046 76.7457L195.719 77.324C197.648 78.0065 200.514 77.3414 202.351 75.8539C203.572 74.8842 203.828 74.0449 204.712 68.8481C205.816 62.1327 205.552 61.151 202.13 59.5793L202.118 59.5777ZM71.2028 49.4631C71.6951 48.8601 71.9409 49.0303 72.5924 50.1352C73.5745 51.7596 75.2013 51.7245 75.4393 50.0739C75.544 49.3477 75.9321 48.9992 76.6603 49.1042C78.249 49.3333 78.3424 50.5599 76.8662 51.4254C75.3804 52.3569 73.8484 52.2034 71.9296 50.9832C70.9371 50.3683 70.7294 49.934 71.2028 49.4631ZM76.9091 66.1242C75.5558 67.0748 72.397 66.9564 71.0454 66.0201C69.8166 65.169 69.2806 61.8566 69.1644 54.6957L69.1381 52.5352L71.7569 53.5868C73.9881 54.5151 74.6501 54.6105 76.334 54.1794C77.4502 53.9359 78.3584 53.7299 78.415 53.8054C78.5284 53.9566 78.4219 56.5697 78.1635 59.7675C77.8658 64.6446 77.723 65.635 76.9091 66.1242ZM102.386 89.5449C103.124 89.1122 103.379 89.2164 103.709 90.2075C104.237 91.6991 104.965 91.804 106.688 90.6371C107.596 89.9593 108.353 89.8662 109.119 90.1788C110.509 90.851 110.054 91.6616 107.66 92.7991C105.692 93.7959 104.945 93.823 102.789 92.8382C101.324 92.2225 101.117 90.3731 102.386 89.5449ZM110.105 97.8694C109.516 100.548 109.042 101.49 107.897 102.404C106.364 103.665 105.55 103.683 103.48 102.576C102.544 102.036 102.129 101.168 101.705 98.9498C101.47 97.2984 101.273 95.8547 101.302 95.6566C101.33 95.4585 102.616 95.4418 104.139 95.6613C105.992 95.9286 107.563 95.818 108.859 95.2635L110.798 94.4648L110.105 97.8694ZM183.612 67.0189C185.626 67.1071 188.18 67.2057 189.192 67.2168L191.083 67.22L190.627 70.3892C190.369 72.1718 190.037 73.5393 189.905 73.5202C189.782 73.435 187.494 71.9595 184.782 70.153L179.99 66.8336L183.612 67.0189ZM148.668 33.8084C149.283 33.2905 149.548 33.3287 150.238 34.1695C150.871 34.9347 151.258 35.058 152.185 34.7199C152.895 34.4852 153.444 33.9578 153.501 33.5617C153.568 33.0995 153.993 32.9587 154.627 33.2522C156.092 33.8679 156.205 34.4908 155.136 35.3475C154.464 35.7898 153.168 35.8725 151.381 35.6148C148.269 35.1663 147.655 34.7407 148.668 33.8084ZM150.517 38.3211C152.239 38.5692 154.111 38.7044 154.735 38.5923C155.842 38.4148 155.889 38.5564 155.348 40.9047C154.209 45.5256 153.697 46.7324 152.77 47.0705C150.783 47.7276 148.901 47.6584 148.069 46.8645C147.304 46.0802 146.938 42.5228 147.272 39.2685C147.472 37.882 147.548 37.8255 150.517 38.3211ZM138.985 41.9152C141.738 41.099 144.046 40.5557 144.103 40.6312C144.159 40.7068 144.187 41.9239 144.185 43.339C144.212 45.4995 144.079 45.9522 143.086 46.2807C141.449 46.8535 139.18 46.1893 134.737 43.729C134.302 43.4641 135.958 42.7593 138.985 41.9152ZM98.6248 35.4893C99.1167 35.358 102.172 35.2593 105.359 35.1797C111.043 35.1231 111.242 35.1518 114.588 36.7801C116.555 37.6702 118.408 38.4091 118.739 38.4568C119.07 38.5046 121.896 39.9905 124.95 41.7786C129.884 44.5794 134.374 46.7096 142.08 49.9773C144.311 50.9056 145.303 51.9922 143.648 51.7536C143.251 51.6963 137.121 52.4975 130.074 53.5707L117.238 55.4267L107.439 45.5893C99.9465 38.0388 97.8585 35.6484 98.6248 35.4893ZM93.0971 40.084C94.3756 38.2465 95.6632 36.8146 95.8618 36.8432C96.0604 36.8719 100.369 41.2 105.358 46.4349C113.578 55.0338 116.601 58.907 117.903 62.5319C118.139 63.2399 118.337 63.7402 118.204 63.7212C118.138 63.7116 116.191 62.2177 113.951 60.412C111.712 58.6064 105.54 54.077 100.275 50.2851L90.72 43.4481L93.0971 40.084ZM90.7744 45.8823C91.3793 46.3739 93.6096 48.2456 95.7265 49.9662C97.8435 51.6868 99.658 53.1615 99.7147 53.2371C99.7714 53.3127 97.7098 53.0828 95.0714 52.635L90.3148 51.8818L90.118 49.9663C89.5271 44.6915 89.5081 44.8235 90.7744 45.8823ZM93.5596 61.2461C89.7388 61.0321 85.3127 60.7984 83.7616 60.7769C81.2081 60.6783 80.9529 60.5741 81.0861 59.6498C81.1718 59.0555 81.2584 57.5179 81.2502 56.1688L81.2619 53.7441L85.2341 53.8451C87.4567 53.896 91.3908 54.261 94.0386 54.6428C99.2777 55.3308 101.206 56.485 101.78 59.0615C102.261 61.3549 101.003 61.6453 93.5596 61.2461ZM114.552 75.9326C112.69 74.3162 109.033 71.093 106.529 68.7774C102.541 65.0348 102.078 64.4962 102.958 64.0165C104.273 63.33 104.562 58.519 103.343 56.6584C102.899 55.9878 102.758 55.563 103.004 55.7333C104.592 56.9058 117.407 66.9086 118.796 68.0525C119.694 68.8559 120.819 69.4899 121.216 69.5472C122.01 69.6617 122.841 70.9273 125.268 75.6579L126.958 78.9345L125.115 77.6578C124.141 76.9108 122.818 76.2482 122.222 76.1623C121.626 76.0764 120.462 76.65 119.601 77.4693L118.048 78.863L114.552 75.9326ZM125.04 86.6108C124.018 87.6092 120.827 90.5191 117.978 92.939C115.12 95.4249 112.735 97.4399 112.602 97.4208C112.404 97.3921 112.547 95.4583 113.052 91.4873C113.138 90.4214 113.045 89.1947 112.705 88.7413C112.242 88.2028 112.592 87.6468 114.23 86.1306C115.394 85.0853 117.666 82.9192 119.323 81.2709L122.314 78.3324L123.77 79.4858C124.554 80.1381 125.565 81.5643 126.008 82.7066L126.858 84.7836L125.04 86.6108ZM131.431 89.6216C128.822 87.5606 128.775 87.419 129.032 85.1646L129.375 82.7877L131.925 87.1318C133.265 89.5492 134.323 91.5888 134.247 91.6452C134.105 91.6922 132.81 90.8315 131.431 89.6216ZM136.096 87.2613C135.887 87.2987 133.734 83.9554 131.421 79.8476C129.051 75.6642 125.208 69.0444 122.809 65.0591C120.477 61.0833 118.588 57.7782 118.73 57.7312C119.09 57.5809 127.026 56.4337 138.452 54.9809C149.945 53.5377 153.303 53.6848 157.68 55.6639C160.78 57.1219 187.264 75.4309 185.146 74.6538C184.314 74.3317 181.715 72.6763 179.409 70.8611C173.814 66.5497 168.804 63.3337 168.038 63.4928C167.688 63.5771 170.249 65.9683 173.821 68.8423C177.328 71.7067 180.2 74.2776 180.153 74.6077C180.048 74.8623 177.75 75.3396 174.94 75.6085C163.893 76.7789 149.297 78.6509 146.507 79.2595L143.508 79.9055L140.447 76.2964C136.158 71.3646 129.279 64.2396 128.617 64.1442C128.286 64.0964 127.993 64.2563 127.955 64.5204C127.926 64.7185 130.854 68.7802 134.434 73.475L140.981 81.9674L138.784 84.5487C137.563 85.9901 136.379 87.1675 136.096 87.2613ZM190.263 85.0967C189.408 89.1521 189.228 89.4631 187.382 90.545C186.266 91.2601 185.32 91.7303 185.121 91.7016C184.922 91.673 184.583 90.2762 184.216 88.6057C183.614 85.2838 183.113 84.5376 182.129 85.2719C181.741 85.6203 181.692 86.8938 182.125 89.5173C182.604 92.7541 182.585 93.3579 181.828 93.9227C181.07 94.4875 180.947 94.4023 180.806 93.5058C180.016 89.1459 178.197 82.0765 177.838 81.7551C177.536 81.5093 177.063 81.5085 176.76 81.7345C176.296 82.1394 176.362 83.0924 177.63 91.6326C177.96 93.5671 178.053 95.2655 177.967 95.388C177.825 95.4349 174.335 96.2122 170.22 97.1016C166.114 97.925 161.507 98.9456 159.965 99.3299L157.175 99.9385L155.006 92.9534C152.95 86.5913 152.091 85.052 151.106 86.258C150.708 86.6724 151.923 92.7785 153.102 96.3183C154.064 99.0182 154.054 99.0842 152.73 98.8933C152.002 98.7883 151.436 98.0326 150.945 96.277C150.116 93.5963 148.595 91.4899 147.923 91.9322C147.686 92.1676 147.77 93.4603 148.043 94.8476C148.382 96.2444 148.542 97.4806 148.466 97.5371C148.249 97.6405 141.289 95.7609 139.824 95.1452C139.058 94.8326 138.454 93.8693 137.945 92.2458L137.285 89.7917L140.844 86.1937C143.609 83.4246 144.953 82.54 146.693 82.1844C149.692 81.5385 165.242 79.602 171.542 79.0276C174.275 78.8151 178.116 78.4253 180.187 78.1174C182.874 77.7634 184.349 77.8413 185.294 78.3146C186.06 78.6272 187.705 79.4035 188.915 79.915L191.146 80.8433L190.263 85.0967ZM199.684 63.3379C199.95 62.9044 200.168 62.3292 200.206 62.0651C200.32 61.2728 201.681 61.6714 202.286 62.6347C202.664 63.2957 202.559 63.5503 201.632 63.8883C199.995 64.4611 199.211 64.2806 199.684 63.3379ZM195.628 62.416C196.196 61.7566 197.359 62.1264 197.566 63.0325C197.688 63.5893 197.452 63.8248 196.79 63.7293C195.664 63.5671 195.135 63.019 195.628 62.416ZM200.241 74.4714C199.929 74.7633 198.746 74.9972 197.735 74.9861C194.623 75.0092 192.838 71.9212 193.467 67.5636L193.771 65.4508L196.371 66.1627C197.865 66.5803 199.662 66.772 200.712 66.519C201.687 66.3225 202.509 66.239 202.566 66.3145C202.821 66.8905 200.762 74.142 200.241 74.4714Z" fill="#18333C"/>
<path d="M163.738 90.5057C161.676 91.2193 161.581 91.4078 162.648 92.9097C164.036 94.997 168.388 93.8721 168.258 91.4944C168.221 90.3434 165.8 89.7921 163.738 90.5057Z" fill="#18333C"/>
<path d="M146.115 63.7016C147.373 63.4113 147.412 62.2037 146.193 61.2866C144.359 59.9438 142.608 61.3089 143.978 63.0565C144.601 63.8878 144.932 63.9355 146.115 63.7016Z" fill="#18333C"/>
<path d="M161.595 65.5293C165.254 66.8656 165.453 66.8943 165.577 66.0359C165.729 64.9796 164.822 64.2422 161.38 62.8024C157.183 60.984 154.336 60.5736 154.364 61.7907C154.429 62.7437 156.253 63.6807 161.595 65.5293Z" fill="#18333C"/>
<path d="M71.8707 74.822C75.2613 71.5367 82.739 73.5697 87.1853 75.6935C88.3025 76.2252 87.4673 75.9251 96.0306 81.7541C100.574 84.8467 103.001 86.4435 106.59 86.8599C107.864 87.0098 107.267 86.7777 111.294 86.7294C120.104 86.6292 122.688 87.7657 123.615 88.2138C124.719 88.7549 123.98 88.5697 127.356 90.7751C132.482 94.1203 134.282 94.6044 134.596 96.3346C134.868 97.8791 133.844 99.6747 132.563 100.198C131.379 100.678 130.123 100.014 129.413 99.7097C125.051 97.7779 122.682 101.008 118.94 99.7049C117.706 99.2799 118.155 99.0526 114.86 96.5219C108.238 91.4446 106.531 92.4229 102.916 88.835C102.353 88.2822 101.484 87.3593 100.037 86.926C98.3844 86.4406 97.1639 86.9386 95.4643 87.2439C92.5729 87.7706 90.2734 87.3941 88.0401 87.0271C85.8509 86.6666 84.0941 85.8853 80.6891 84.3497C74.0604 81.3496 70.5893 79.7258 70.5426 77.3938C70.5123 76.1202 71.5063 75.1627 71.8739 74.8L71.8707 74.822Z" fill="#A0E4DA"/>
<path d="M129.136 90.8521L123.604 86.8081C122.981 86.359 122.244 86.0841 121.475 86.0294L118.354 85.8041C116.004 85.7011 111.907 85.4474 109.27 85.3817C106.541 85.3253 104.161 85.0383 103.837 84.7893C103.512 84.5403 102.981 84.475 102.623 84.6143C102.172 84.7739 99.8363 83.0892 95.5237 79.4906L90.4188 75.2949C89.532 74.5717 88.4622 74.1029 87.3242 73.95L83.5668 73.4532C80.5438 73.0173 76.6966 72.4401 74.9818 72.148C73.2671 71.8558 71.4684 71.911 70.9842 72.2231C69.8217 73.1001 68.4382 75.8998 68.6702 77.2587C68.7861 78.0954 69.7688 79.0122 74.2002 82.0213C77.157 84.0876 80.9096 86.3361 82.5892 87.1062C85.5216 88.3266 86.2056 88.4252 95.9097 88.1394C98.476 88.0714 99.5571 88.3059 100.297 89.109C100.804 89.6539 101.832 90.184 102.495 90.1898C103.405 90.2086 105.804 91.6891 110.892 95.3769L116.972 99.7583C117.677 100.264 118.524 100.555 119.385 100.6L122.273 100.725C124.664 100.777 128.147 101.066 130.076 101.277C133.182 101.612 133.744 101.536 134.633 100.373C135.201 99.6346 135.633 98.2814 135.6 97.3332C135.597 96.1571 133.436 93.992 129.115 90.8379L129.136 90.8521ZM96.8482 85.8484C96.3392 85.629 93.855 85.5966 91.3911 85.7356C86.1858 86.0634 84.6872 85.6002 79.3814 82.0944C75.7124 79.7344 75.5596 79.6225 75.8572 78.3399C76.2813 76.5701 75.6007 76.135 74.3322 77.3562C72.8348 78.9937 70.8974 77.3552 72.2327 75.5932C72.5941 75.1174 75.0467 75.2127 79.5385 75.9277C90.3694 77.5905 90.1661 77.5162 94.5742 81.78C98.1727 85.3318 98.8557 86.5311 96.8592 85.85L96.8482 85.8484ZM102.138 87.5098C101.875 87.3034 101.886 87.0691 102.246 86.9188C102.563 86.8297 102.943 86.7721 102.993 86.8131C103.094 86.895 103.04 87.1906 102.886 87.4042C102.679 87.6664 102.353 87.6643 102.138 87.5098ZM131.672 98.8C129.803 98.7215 129.538 98.526 130.02 97.2139C130.22 96.6136 130.022 95.8774 129.544 95.5165C128.64 94.8357 128.32 95.2613 127.676 97.5386C127.527 98.1799 126.26 98.3004 122.836 98.0652L119.367 97.7559C118.6 97.6902 117.861 97.4264 117.226 96.9866L111.756 93.2101C103.902 87.854 103.853 87.4875 111.016 87.88C122.232 88.5874 121.591 88.4275 127.87 92.7589C132.991 96.2943 133.478 96.7464 133.284 97.7744C133.165 98.5997 132.815 98.8412 131.66 98.8094L131.672 98.8Z" fill="#18333C"/>
<path d="M166.118 52.2862C168.62 48.2886 176.364 48.4729 181.198 49.4731C182.411 49.7267 181.524 49.6324 191.24 53.2463C196.391 55.1684 199.135 56.1369 202.713 55.6868C203.987 55.5223 203.346 55.441 207.253 54.4318C215.79 52.2368 218.571 52.7163 219.563 52.938C220.764 53.2011 220 53.1919 223.805 54.5269C229.584 56.5508 231.449 56.5838 232.161 58.2029C232.8 59.6317 232.23 61.6277 231.11 62.4435C230.079 63.1934 228.698 62.8483 227.94 62.7165C223.239 61.8927 221.716 65.5821 217.782 65.217C216.481 65.0969 216.866 64.7705 213.052 63.1084C205.403 59.7591 203.98 61.1153 199.616 58.4978C198.933 58.0847 197.871 57.4037 196.361 57.332C194.638 57.2521 193.568 58.0302 191.991 58.7352C189.318 59.9336 186.993 60.1263 184.739 60.2955C182.518 60.4695 180.641 60.1314 176.956 59.4429C169.794 58.107 166.039 57.3633 165.429 55.1075C165.099 53.8804 165.832 52.7055 166.108 52.2736L166.118 52.2862Z" fill="#A0E4DA"/>
<path d="M225.555 54.1839L219.218 51.5852C218.506 51.2916 217.73 51.2022 216.967 51.3393L213.885 51.861C211.578 52.3147 207.541 53.058 204.971 53.6198C202.306 54.2129 199.934 54.4998 199.562 54.3451C199.19 54.1904 198.652 54.2477 198.338 54.472C197.93 54.7276 195.269 53.6587 190.206 51.1989L184.243 48.3508C183.21 47.8538 182.055 47.6647 180.911 47.7917L177.146 48.2037C174.108 48.4959 170.238 48.8589 168.507 48.9913C166.776 49.1236 165.04 49.6035 164.643 50.0179C163.715 51.1422 163.059 54.2041 163.611 55.4519C163.926 56.2387 165.104 56.8916 170.117 58.7601C173.487 60.0661 177.66 61.3529 179.481 61.694C182.622 62.1694 183.306 62.1108 192.656 59.5162C195.13 58.8395 196.238 58.8083 197.142 59.4104C197.769 59.8266 198.891 60.0895 199.533 59.9349C200.417 59.7367 203.109 60.5965 208.928 62.9632L215.878 65.7627C216.687 66.0926 217.576 66.1759 218.424 65.9949L221.265 65.4273C223.603 64.9107 227.04 64.3504 228.979 64.102C232.068 63.6936 232.594 63.4775 233.182 62.1356C233.553 61.2793 233.655 59.8675 233.393 58.9535C233.107 57.8114 230.49 56.2247 225.543 54.1934L225.555 54.1839ZM193.002 57.0387C192.461 56.9607 190.028 57.5086 187.682 58.2374C182.704 59.7999 181.152 59.7109 175.154 57.5656C171.034 56.1514 170.841 56.0788 170.828 54.7627C170.81 52.9402 170.047 52.6842 169.112 54.167C168.056 56.104 165.775 54.9775 166.651 52.9585C166.888 52.4085 169.291 51.9125 173.815 51.5427C184.723 50.5655 184.512 50.5463 189.811 53.6244C194.156 56.2167 195.106 57.2073 193.003 57.0277L193.002 57.0387ZM198.537 57.3875C198.23 57.2534 198.185 57.0221 198.5 56.7868C198.794 56.6269 199.14 56.486 199.205 56.5065C199.333 56.5586 199.347 56.8527 199.242 57.1072C199.108 57.4136 198.782 57.4901 198.537 57.3875ZM229.913 61.2937C228.08 61.6696 227.773 61.5354 227.927 60.1535C227.984 59.5215 227.617 58.8621 227.057 58.6127C226.018 58.1597 225.8 58.6562 225.73 61.0163C225.737 61.6688 224.537 62.1024 221.154 62.6817L217.711 63.2074C216.951 63.3225 216.163 63.2426 215.448 62.9709L209.234 60.6036C200.32 57.2851 200.191 56.9296 207.24 55.6095C218.295 53.6089 217.641 53.6157 224.773 56.329C230.592 58.5384 231.175 58.8696 231.239 59.9122C231.322 60.7441 231.039 61.0629 229.912 61.3047L229.913 61.2937Z" fill="#18333C"/>
<path d="M119.602 24.585C122.104 20.5874 129.848 20.7717 134.682 21.7719C135.895 22.0255 135.008 21.9313 144.724 25.5451C149.875 27.4673 152.618 28.4357 156.197 27.9857C157.471 27.8211 156.829 27.7399 160.737 26.7306C169.274 24.5356 172.054 25.0151 173.047 25.2369C174.248 25.4999 173.484 25.4908 177.289 26.8258C183.068 28.8496 184.932 28.8826 185.645 30.5018C186.284 31.9306 185.714 33.9266 184.594 34.7423C183.563 35.4922 182.182 35.1471 181.424 35.0154C176.723 34.1915 175.2 37.8809 171.266 37.5159C169.965 37.3958 170.35 37.0694 166.535 35.4073C158.887 32.0579 157.464 33.4141 153.1 30.7967C152.416 30.3836 151.355 29.7025 149.845 29.6308C148.122 29.5509 147.052 30.329 145.475 31.034C142.802 32.2324 140.477 32.4251 138.223 32.5943C136.002 32.7683 134.125 32.4302 130.44 31.7417C123.278 30.4058 119.523 29.6621 118.913 27.4063C118.583 26.1793 119.316 25.0043 119.592 24.5724L119.602 24.585Z" fill="#A0E4DA"/>
<path d="M179.041 26.4718L172.703 23.8731C171.991 23.5794 171.215 23.4901 170.452 23.6272L167.37 24.1488C165.064 24.6025 161.026 25.3458 158.456 25.9076C155.792 26.5007 153.419 26.7876 153.047 26.6329C152.675 26.4782 152.138 26.5355 151.824 26.7598C151.415 27.0154 148.754 25.9465 143.692 23.4867L137.728 20.6386C136.696 20.1416 135.541 19.9526 134.396 20.0796L130.631 20.4916C127.594 20.7837 123.723 21.1468 121.993 21.2791C120.262 21.4115 118.526 21.8913 118.128 22.3057C117.2 23.43 116.545 26.492 117.097 27.7398C117.411 28.5265 118.59 29.1794 123.602 31.0479C126.973 32.3539 131.146 33.6408 132.966 33.9819C136.107 34.4572 136.791 34.3986 146.141 31.804C148.615 31.1273 149.723 31.0961 150.627 31.6983C151.254 32.1144 152.377 32.3773 153.018 32.2227C153.903 32.0245 156.594 32.8844 162.413 35.2511L169.364 38.0505C170.172 38.3805 171.061 38.4637 171.909 38.2827L174.75 37.7151C177.089 37.1985 180.525 36.6382 182.465 36.3898C185.553 35.9814 186.08 35.7653 186.667 34.4235C187.038 33.5672 187.141 32.1553 186.878 31.2413C186.592 30.0993 183.976 28.5126 179.028 26.4812L179.041 26.4718ZM146.487 29.3265C145.947 29.2486 143.514 29.7964 141.168 30.5253C136.19 32.0878 134.637 31.9987 128.64 29.8534C124.519 28.4393 124.327 28.3666 124.314 27.0505C124.295 25.2281 123.532 24.9721 122.598 26.4549C121.541 28.3919 119.26 27.2654 120.137 25.2463C120.374 24.6964 122.776 24.2004 127.301 23.8305C138.208 22.8533 137.997 22.8341 143.297 25.9123C147.642 28.5045 148.591 29.4951 146.489 29.3155L146.487 29.3265ZM152.023 29.6754C151.716 29.5412 151.67 29.31 151.986 29.0747C152.279 28.9148 152.626 28.7738 152.69 28.7944C152.818 28.8465 152.832 29.1405 152.728 29.3951C152.593 29.7015 152.267 29.778 152.023 29.6754ZM183.399 33.5815C181.565 33.9574 181.258 33.8233 181.412 32.4414C181.469 31.8094 181.103 31.1499 180.542 30.9006C179.503 30.4476 179.285 30.9441 179.215 33.3041C179.223 33.9567 178.023 34.3902 174.639 34.9695L171.196 35.4953C170.436 35.6104 169.648 35.5304 168.933 35.2588L162.72 32.8914C153.806 29.573 153.677 29.2174 160.726 27.8973C171.781 25.8968 171.127 25.9036 178.258 28.6168C184.078 30.8263 184.661 31.1574 184.724 32.2C184.807 33.032 184.524 33.3507 183.397 33.5925L183.399 33.5815Z" fill="#18333C"/>
<path d="M75.7046 42.8445C81.1414 35.9901 92.5455 31.49 95.175 22.939C93.8538 23.1978 91.9565 24.2498 88.0268 25.8062C84.2754 27.2984 84.8544 26.7978 83.7772 27.3951C82.883 27.8952 80.4667 29.3441 75.4898 36.6018C73.2105 39.9126 73.7562 39.5644 72.8978 40.519C72.7226 40.7184 72.5396 40.8942 72.3566 41.07C73.5795 41.4148 74.7312 42.019 75.7046 42.8445Z" fill="#70A7BA"/>
<path d="M44.4669 64.5355C45.3916 65.1518 46.6354 65.0391 48.3542 64.3658C52.5809 58.6399 56.1997 52.4445 60.721 46.9408C53.07 49.7803 53.6205 49.3992 52.6175 49.951C48.3292 52.3543 42.3677 57.3021 43.1152 61.9592C43.1999 62.4657 43.4193 63.834 44.4779 64.5371L44.4669 64.5355Z" fill="#70A7BA"/>
<path d="M43.1043 61.9576C42.3552 57.3115 48.3168 52.3636 52.6066 49.9493C53.6854 49.341 52.9472 49.8524 62.6512 46.208C67.7949 44.2762 70.4946 43.2052 72.8978 40.5188C73.7562 39.5643 73.2089 39.9234 75.4898 36.6016C80.4667 29.3439 82.883 27.895 83.7772 27.3949C84.8544 26.7976 84.2738 27.3092 88.0269 25.806C93.7148 23.5371 95.1361 22.3491 96.7401 23.0971C98.1645 23.763 99.0549 25.6325 98.7478 26.9811C98.4677 28.2213 97.2029 28.8701 96.5373 29.2684C92.4555 31.724 93.7335 35.514 90.5298 37.8154C89.4746 38.5731 89.546 38.0779 85.5819 39.3261C77.6098 41.816 77.4409 43.7687 72.4242 44.6629C71.6391 44.7968 70.3857 44.9755 69.2026 45.917C67.8554 46.9808 67.5579 48.2634 66.8361 49.833C65.6072 52.4978 63.982 54.1618 62.4105 55.7662C60.8532 57.3501 59.2145 58.327 55.9892 60.2321C49.7246 63.9231 46.3984 65.8248 44.4576 64.5228C43.3989 63.8197 43.1795 62.4514 43.0949 61.945L43.1043 61.9576Z" fill="#A0E4DA"/>
<path d="M89.1172 24.4132L82.6303 26.6006C81.897 26.8431 81.2582 27.2902 80.7674 27.8822L78.7869 30.2925C77.3475 32.1518 74.802 35.3568 73.2252 37.4659C71.6138 39.6599 70.0058 41.4387 69.6274 41.5639C69.249 41.689 68.8766 42.0846 68.788 42.465C68.6535 42.9286 65.9398 43.8628 60.5033 45.3256L54.135 47.0808C53.0328 47.3824 52.0329 47.9908 51.2581 48.8339L48.6956 51.6096C46.597 53.8232 43.9273 56.6396 42.7029 57.8672C41.51 59.1105 40.5156 60.6184 40.4898 61.1875C40.5389 62.6437 42.048 65.3774 43.2911 65.9723C44.0458 66.3619 45.3592 66.0795 50.372 64.1963C53.7701 62.9676 57.763 61.2069 59.3623 60.2692C62.0515 58.5677 62.5169 58.0731 67.8493 49.9905C69.2716 47.8591 70.0778 47.1104 71.1561 46.9739C71.9018 46.8792 72.9143 46.34 73.3073 45.8013C73.8407 45.0694 76.4332 43.9605 82.381 41.92L89.4672 39.482C90.2856 39.1956 91.0128 38.6827 91.5399 37.9948L93.2996 35.7099C94.7138 33.7908 96.9468 31.1136 98.2281 29.6471C100.289 27.3046 100.542 26.8018 100.089 25.4111C99.7998 24.5269 98.9497 23.3934 98.1462 22.8731C97.1769 22.2017 94.1625 22.7219 89.103 24.4336L89.1172 24.4132ZM66.483 47.9064C66.013 48.1981 64.553 50.2004 63.2601 52.2943C60.5478 56.7333 59.3064 57.6889 53.3867 60.003C49.3545 61.6457 49.1543 61.7067 48.2819 60.7272C47.071 59.362 46.3283 59.6705 46.6073 61.4069C47.0955 63.5666 44.6264 64.2103 43.96 62.1147C43.7729 61.5374 45.2581 59.5948 48.4185 56.3436C55.9969 48.4613 55.8218 48.582 61.8444 47.4285C66.8264 46.5405 68.1945 46.6592 66.494 47.908L66.483 47.9064ZM70.8762 44.5409C70.5577 44.641 70.3655 44.4897 70.4542 44.1094C70.5664 43.7998 70.7401 43.4542 70.7984 43.4401C70.9277 43.4026 71.134 43.612 71.2205 43.8716C71.321 44.1894 71.1348 44.4659 70.8762 44.5409ZM97.08 26.9093C95.9421 28.3964 95.6236 28.4965 94.8318 27.3489C94.4555 26.8341 93.7385 26.5735 93.1709 26.7612C92.0845 27.1101 92.2479 27.6167 93.7516 29.451C94.1878 29.9407 93.5657 31.053 91.4036 33.7067L89.1628 36.3603C88.661 36.9507 88.0221 37.3978 87.2968 37.6639L81.054 39.9539C72.1605 43.2883 71.8139 43.1147 76.2628 37.4883C83.2808 28.7276 82.7776 29.1717 89.9381 26.531C95.7772 24.385 96.4394 24.2446 97.1653 24.9895C97.7685 25.5707 97.765 25.9858 97.08 26.9093Z" fill="#18333C"/>
</g>
<defs>
<filter id="filter0_d_18_1368" x="-4.51611" y="-14.1631" width="282.032" height="197.326" filterUnits="userSpaceOnUse" color-interpolation-filters="sRGB">
<feFlood flood-opacity="0" result="BackgroundImageFix"/>
<feColorMatrix in="SourceAlpha" type="matrix" values="0 0 0 0 0 0 0 0 0 0 0 0 0 0 0 0 0 0 127 0" result="hardAlpha"/>
<feOffset dy="20"/>
<feGaussianBlur stdDeviation="20"/>
<feComposite in2="hardAlpha" operator="out"/>
<feColorMatrix type="matrix" values="0 0 0 0 0 0 0 0 0 0.733333 0 0 0 0 0.713726 0 0 0 0.2 0"/>
<feBlend mode="normal" in2="BackgroundImageFix" result="effect1_dropShadow_18_1368"/>
<feBlend mode="normal" in="SourceGraphic" in2="effect1_dropShadow_18_1368" result="shape"/>
</filter>
</defs>
</svg>
