<svg width="143" height="308" viewBox="0 0 143 308" fill="none" xmlns="http://www.w3.org/2000/svg">
<g clip-path="url(#clip0_18_1399)">
<path d="M59.4964 145.894L54.0338 148.216L56.1267 154.687L59.4964 156.995L63.9545 162.015L65.6847 163.926C65.6847 163.926 66.5777 164.986 66.7242 162.015C66.8707 159.045 64.7359 152.86 64.6173 152.588C64.4987 152.316 59.4964 145.901 59.4964 145.901V145.894Z" fill="#EEC696"/>
<path d="M50.5104 72.3368C46.5686 76.8692 44.357 81.0739 43.0245 83.6399C35.7269 97.7042 34.2898 101.532 33.1944 105.102C32.0851 108.714 31.534 110.52 31.5549 112.375C31.6177 117.542 34.2618 119.006 40.471 129.159C43.3663 133.887 45.9965 137.359 51.2569 144.304C51.9406 145.204 53.4127 147.093 55.4917 147.17C56.9359 147.226 58.2894 146.389 59.0428 145.531C60.501 143.858 60.5568 141.055 57.5429 131.342C54.5708 121.789 52.8057 119.006 54.2638 115.381C55.1429 113.198 56.3708 112.752 58.4987 110.472C63.0963 105.535 64.359 99.9774 65.873 94.5106C67.2613 89.4762 68.6078 84.4069 67.3729 78.208C66.5636 74.1498 65.1893 72.281 64.0939 71.1793C63.5079 70.5936 60.2986 67.5046 56.4057 68.1112C54.4941 68.4111 52.9732 69.5058 50.5174 72.3368H50.5104Z" fill="#D89568"/>
<path d="M34.9039 98.0808C43.6736 79.4144 45.9828 75.1609 49.8339 71.1097C52.499 68.2856 54.3966 67.3164 57.0687 67.3164C60.6617 67.3164 63.7383 69.1084 66.4034 72.7483C68.1476 75.1609 68.9708 78.1802 68.9708 82.336C69.0197 91.2613 64.3034 104.845 58.4012 112.689L55.9385 116.071L57.7315 125.045C59.8314 135.707 60.9616 142.889 60.6547 144.325C60.5012 145.092 60.9128 145.762 62.5035 147.351C64.9662 149.813 67.122 154.171 67.7848 158.013C68.3011 161.039 68.0429 164.728 67.2685 165.655C66.0406 167.14 64.7011 165.962 61.9872 161.095C60.1942 157.866 60.0896 157.762 58.6035 157.713C57.6268 157.664 56.6571 157.302 56.092 156.737C54.7594 155.51 53.3711 152.177 53.1199 149.562C52.9176 147.616 52.7083 147.254 51.1176 145.922C50.1409 145.099 48.5014 143.307 47.427 141.871C46.3526 140.483 44.9642 138.844 44.3503 138.28C43.7363 137.715 42.1945 135.511 40.9666 133.357C39.7387 131.202 37.0667 126.893 34.9667 123.72C30.7598 117.263 29.7831 114.802 30.1459 111.26C30.5017 108.185 31.4296 105.619 34.9179 98.0808H34.9039ZM56.0431 151.661C56.7617 154.122 58.0942 155.663 59.1198 155.3C60.4523 154.889 61.8895 155.97 63.3267 158.431C64.0453 159.763 64.9174 161.2 65.1755 161.562C65.636 162.232 65.6918 162.176 65.6918 161.207C65.7406 157.671 63.3825 151.57 60.9198 148.697L59.7896 147.365L57.6338 148.035C56.4059 148.39 55.478 148.906 55.478 149.164C55.478 149.422 55.7361 150.552 56.0431 151.675V151.661ZM38.3922 123.922C40.7503 127.409 42.8573 130.791 43.1154 131.411C43.527 132.59 49.3246 140.337 51.5292 142.742C52.199 143.46 53.2734 144.437 53.8385 144.841C55.5827 146.075 56.5594 146.229 57.4803 145.253C57.9408 144.792 58.3035 144.018 58.3035 143.509C58.3035 141.661 57.0757 134.277 56.0989 130.282C55.5338 128.022 54.8152 124.536 54.4036 122.486C54.0478 120.436 53.2246 117.054 52.6106 114.899C51.9409 112.745 51.2781 110.388 51.1246 109.621C50.713 107.418 51.7944 108.233 53.2246 111.162L54.4524 113.728L56.8105 110.444C62.657 102.244 66.5569 91.0591 66.6616 82.092C66.6616 77.4271 66.2011 75.4259 64.3034 72.9645C62.8663 71.0678 59.7896 69.3734 57.7873 69.3734C53.6292 69.3734 49.0665 74.8611 43.3177 86.8057C34.0807 106.03 32.9016 108.903 32.9016 111.978C32.9016 115.053 33.8225 117.054 38.3922 123.922Z" fill="#18333C"/>
<path d="M43.7993 165.676C43.6668 157.908 44.7761 147.003 45.5435 144.186C46.3807 140.936 47.3156 137.645 48.2923 137.296C48.8574 137.087 51.6271 137.896 54.7247 138.851C57.4456 139.681 63.5641 141.278 68.2664 142.408C73.0244 143.537 77.3151 144.813 77.8244 145.246C78.3825 145.622 79.1081 146.668 79.4499 147.54C80.7406 150.873 80.615 165.174 79.7499 176.784C79.5197 179.713 79.8267 184.343 79.7011 187.16C79.1988 196.782 77.3081 206.998 75.1593 211.572C73.3663 215.428 71.6361 218.119 70.9524 218.175C70.6873 218.196 69.3199 218.893 67.8548 219.758C66.3897 220.623 61.1991 222.443 59.3363 221.696C54.7247 219.814 53.9573 219.451 52.5341 218.308C49.8062 216.16 47.9574 212.402 46.0807 205.31C44.8249 200.492 44.5947 197.18 44.7621 187.955C44.9784 180.528 44.0924 179.768 43.7924 165.662L43.7993 165.676Z" fill="url(#paint0_linear_18_1399)"/>
<path d="M48.404 202.444C48.3691 202.444 48.3342 202.437 48.2993 202.43C47.6923 202.277 47.3086 201.698 46.9807 201.161C46.8342 200.917 46.6807 200.659 46.6319 200.38C46.597 200.164 46.6319 199.941 46.6319 199.718C46.6458 199.334 46.597 198.944 46.5482 198.56C46.4365 197.717 46.4086 196.81 46.2063 195.987C46.0738 195.443 45.9133 195.004 45.8784 194.425C45.8156 193.296 45.7459 192.166 45.6691 191.037C45.4738 187.934 45.2575 184.824 45.0482 181.721C43.8622 164.037 43.7087 159.763 44.1343 157.873C44.6366 155.663 45.3482 160.948 47.1412 180.745C47.4691 184.308 47.797 187.871 48.1249 191.434C48.2784 193.121 48.4388 194.809 48.5923 196.496C48.7598 198.323 49.2272 200.345 48.704 202.137C48.6691 202.256 48.6133 202.388 48.4946 202.437C48.4598 202.451 48.4249 202.451 48.39 202.451L48.404 202.444Z" fill="#FF479B"/>
<path d="M44.1693 148.362C45.9344 136.146 46.2483 135.428 48.9622 135.574C49.925 135.651 53.2738 136.425 56.3644 137.275C59.4621 138.175 65.0852 139.604 68.8177 140.504C75.8502 142.233 78.871 143.565 79.7222 145.399C81.3338 148.753 81.564 179.538 80.0431 191.469C79.2478 197.675 77.0013 210.519 76.3664 212.367C75.6548 214.542 72.5432 218.461 70.6316 219.681C69.7247 220.232 68.0433 221.013 66.9131 221.424C65.7759 221.787 63.6969 222.226 62.2806 222.345C55.0319 223.063 49.3948 218.991 46.4227 210.881C45.0483 207.186 45.0204 206.872 43.9321 193.47C42.4042 174.281 42.4809 159.561 44.1693 148.355V148.362ZM45.2995 156.046C45.0274 156.597 44.9716 170.208 45.2228 174.469C45.3832 176.993 45.6344 178.667 45.9065 178.75C46.6111 178.904 48.718 177.558 49.625 176.421C51.1041 174.497 51.5436 172.182 51.4947 166.631C51.4529 163.668 51.4529 160.551 51.4878 159.7C51.5506 158.529 51.4041 158.117 51.0413 158.152C50.7273 158.18 49.3599 157.657 47.9785 156.981C46.5972 156.305 45.3972 155.879 45.3065 156.046H45.2995ZM53.7482 219.089C58.2063 221.041 66.7387 221.641 70.0456 218.133C73.206 214.793 74.7548 210.282 76.3525 201.677C78.0338 192.801 78.4943 189.482 78.8501 182.467C79.1989 175.982 78.9896 156.737 78.5013 150.956C78.0129 145.176 78.1036 145.008 69.3549 143.056C65.6294 142.205 59.4551 140.615 55.6598 139.563C51.8645 138.51 48.6274 137.833 48.439 138.056C48.2925 138.231 47.9018 139.8 47.5669 141.515L47.0437 144.681L48.0762 145.601C48.5925 146.089 50.6087 147.344 52.5482 148.397C55.883 150.231 56.3923 150.663 55.7435 151.089C55.1505 151.563 51.3482 150.454 49.1227 149.213C47.839 148.474 46.7437 147.986 46.6948 148.042C46.646 148.097 46.3739 149.283 46.1227 150.629C45.5227 153.536 45.46 153.383 50.232 155.998L52.7854 157.371L53.218 162.413C53.9645 171.826 53.3784 175.522 50.5599 178.464C49.1018 179.964 47.6227 180.675 46.332 180.466C45.5786 180.319 45.5716 180.898 46.1506 190.751C47.2529 210.554 47.2739 216.306 53.7621 219.089H53.7482Z" fill="#18333C"/>
<path d="M67.6249 177.014C67.4086 171.373 67.2691 166.617 67.3737 166.555C67.9458 165.815 68.3016 168.117 69.2435 177.3C70.3318 188.268 70.3179 191.762 69.1388 200.966C68.8667 203.371 68.4551 205.366 68.2458 205.38C67.7714 205.422 67.5691 198.665 67.8133 192.236C67.9039 189.53 67.8481 182.655 67.6319 177.007L67.6249 177.014Z" fill="#18333C"/>
<path d="M57.4806 158.215C56.6365 148.92 56.8528 145.831 58.876 140.42C60.4736 136.153 61.5341 135.539 69.02 134.584C73.8897 133.957 74.9501 133.922 81.2082 134.661C84.9476 135.086 88.736 135.344 89.629 135.267C91.8824 135.023 97.5056 136.397 100.122 137.868C102.787 139.333 104.65 141.927 105.591 145.504C106.673 149.541 110.029 167.775 111.215 176.143C111.787 180.382 114.319 192.396 115.359 202.786C117.501 224.883 116.977 225.518 113.866 229.43C112.91 230.678 110.894 231.577 110.238 231.954C109.575 232.274 108.48 232.337 107.064 232.512C103.54 232.811 99.3683 231.765 95.1545 228.363C90.6545 224.667 88.7987 222.129 86.2174 216.049C85.0174 213.183 83.357 209.836 82.6174 208.574C81.1384 206.161 76.8059 200.652 73.485 197.068C72.3758 195.89 70.527 193.456 69.4246 191.699C68.3223 189.942 65.6712 186.762 64.2968 184.922C59.7411 178.695 58.9318 173.535 57.4667 158.208L57.4806 158.215Z" fill="url(#paint1_linear_18_1399)"/>
<path d="M96.3262 158.201C96.682 158.062 96.8983 158.738 97.0797 160.837C97.4564 165.251 100.184 178.039 101.37 180.745C102.898 184.37 107.245 191.308 109.038 193.059C110.712 194.718 112.442 195.729 112.045 194.816C111.912 194.509 111.27 190.702 110.684 186.302C110.049 181.965 109.017 176.017 108.452 173.151C107.126 166.91 105.738 156.179 106.024 154.568C106.373 152.421 106.91 153.801 107.893 159.122C108.41 162.043 109.47 167.085 110.217 170.25C111.145 174.302 111.884 179.266 112.645 186.344C113.251 192.222 113.914 196.929 114.221 197.375C114.724 198.163 115.84 209.675 116.447 218.677L116.049 218.712C114.214 215.072 112.91 211.195 112.358 207.018C112.058 203.455 111.752 200.875 111.493 200.15C111.082 199.076 110.014 197.737 108.417 196.392C103.896 192.438 99.6471 185.437 97.875 178.925C96.1587 172.454 95.0983 158.731 96.3262 158.201Z" fill="#FF479B"/>
<path d="M68.099 181.819C68.8734 183.45 70.6664 186.469 72.0129 188.575C73.4082 190.681 75.1733 193.387 75.9128 194.593C76.6523 195.799 78.6686 198.33 80.4127 200.192C85.1778 205.185 88.1359 213.057 90.0754 219.033C90.3614 219.953 90.9544 221.425 91.4707 224.758C90.4451 223.705 90.2917 222.589 89.2312 221.571C89.0917 221.432 88.9033 221.39 88.7219 221.411C86.9219 214.57 84.0127 208.594 80.2174 204.125C75.9826 199.139 75.0826 197.947 72.6966 193.547C68.8664 186.518 67.1432 183.067 66.606 181.1C65.8316 178.255 66.5502 178.618 68.099 181.819Z" fill="#FF479B"/>
<path d="M57.5154 164.644C56.8178 158.299 57.6061 158.236 58.827 164.484C60.1596 171.464 62.6572 180.25 63.8293 182.209C65.113 184.217 69.8571 190.214 76.3384 197.926C83.6987 206.614 85.1638 208.922 89.5591 218.287C90.5288 220.372 91.7428 222.812 92.3567 223.767C94.0172 226.487 97.8683 229.388 101.58 230.761C104.587 231.884 105.124 231.995 107.949 231.598C110.301 231.242 111.333 230.943 112.373 230.057C113.908 228.816 115.498 226.299 115.505 225.134C115.526 224.765 115.61 223.858 115.707 223.161C116.217 219.2 115.994 214.089 114.87 205.875L113.698 197.082L110.866 194.886C109.282 193.7 107.084 191.553 105.961 190.116C104.831 188.68 103.896 187.592 103.791 187.655C103.498 187.829 103.791 189.663 103.805 189.928C103.917 191.811 104.084 193.693 104.259 195.569C104.475 197.961 104.719 200.345 104.97 202.73C105.103 203.999 105.243 205.268 105.389 206.537C105.515 207.611 106.094 208.727 105.263 209.668C105.145 209.801 104.97 209.919 104.81 209.85C104.705 209.801 104.657 209.682 104.615 209.578C103.631 207.032 103.512 204.292 103.282 201.559C102.075 189.224 101.357 183.304 100.757 181.24C98.8101 174.581 97.352 165.495 96.3404 153.62C95.7334 147.107 95.4264 141.634 95.566 141.411C96.5776 140.211 97.4357 144.053 98.5171 154.973C100.003 169.344 102.703 182.404 104.817 185.451C106.924 188.394 110.189 191.929 111.633 192.759L113.028 193.596L112.805 190.967C112.589 188.443 110.963 177.419 108.717 162.789C107.67 156.102 105.222 145.936 103.77 141.989C102.473 138.552 99.5985 137.108 92.273 136.299C87.8847 135.769 71.1478 135.714 65.7827 136.167L61.6316 136.523L60.6968 137.98C60.1805 138.768 59.5945 139.981 59.441 140.63C59.2317 141.285 58.8061 141.85 58.4852 141.878C57.641 141.947 57.7945 138.761 58.7014 136.99C60.1456 134.012 62.5386 133.538 75.5151 133.601C90.7242 133.733 96.2218 134.221 100.498 135.979C105.375 137.945 106.463 140.713 109.931 159.735C112.847 175.947 118.282 213.064 118.177 216.195C118.052 220.337 117.48 224.827 116.866 226.306C115.638 229.269 113.042 231.814 110.217 232.797C105.787 234.234 99.5496 232.539 94.4357 228.425C89.7754 224.695 86.6917 220.142 84.6824 213.957C83.8173 211.223 81.3197 207.416 77.3639 202.619C68.5804 192.145 62.1688 183.959 61.5061 182.369C60.2712 179.671 58.0456 169.7 57.5084 164.658L57.5154 164.644Z" fill="#18333C"/>
<path d="M73.3103 159.226C76.3661 159.652 80.2102 160.014 81.8497 160.035C84.0752 160.056 84.9403 160.251 85.2543 160.802C85.4985 161.151 86.0496 163.912 86.4543 166.841C87.3124 173.172 87.145 177.474 85.8473 180.863C84.8985 183.429 82.4357 186.183 80.4823 186.93C75.9754 188.687 70.422 186.358 68.8383 181.993C68.4894 181.016 67.8476 179.699 67.4778 179.092C67.0453 178.388 66.3964 175.11 65.6011 169.462C64.4569 161.618 64.3872 160.83 64.9872 159.777C65.7616 158.285 66.4453 158.222 73.3103 159.226ZM69.9545 179.573C71.4545 182.885 72.5638 184.112 74.594 184.949C79.4218 186.923 84.1031 183.45 85.1496 177.063C85.5613 174.434 85.2124 167.852 84.4031 163.947L83.9566 161.813L81.9822 161.667C79.5893 161.555 68.8592 160.509 67.5127 160.3C66.543 160.119 66.5499 160.223 66.843 163.64C67.3802 169.944 68.7685 176.972 69.9476 179.573H69.9545Z" fill="#18333C"/>
<path d="M102.214 279.077C105.633 281.273 108.933 281.524 111.71 279.857C113.37 278.819 114.291 279.111 113.67 280.485C113.496 280.924 113.754 281.482 114.507 282.263C116.593 284.362 118.665 288.204 118.896 290.303C119.084 291.928 118.923 292.52 118.01 293.608C117.437 294.347 116.091 295.309 115.017 295.77C111.145 297.527 105.235 296.551 102.34 293.671C99.9749 291.384 99.5215 289.78 99.5703 284.167C99.6122 278.393 99.968 277.675 102.207 279.077H102.214Z" fill="#EAC9A1"/>
<path d="M94.4007 213.238C97.6867 209.571 104.056 209.082 109.875 212.137C112.477 213.503 114.431 215.874 115.924 219.723C116.928 222.233 117.117 223.168 117.27 228.077C117.368 231.082 117.305 235.956 117.075 238.892C116.844 241.82 116.642 249.407 116.593 255.654C116.426 273.61 114.438 277.019 113.258 277.424C111.8 277.919 110.579 279.502 109.861 279.774C108.312 280.276 106.449 280.171 104.81 279.516C103.059 278.818 99.9192 275.59 99.2983 273.896C98.1122 270.556 96.6541 263.373 95.8658 256.617C95.2448 251.22 94.4844 247.259 92.7472 240.53C90.9054 233.174 90.5077 230.984 90.4449 227.812C90.2984 221.738 91.8333 216.153 94.3937 213.238H94.4007Z" fill="#41718B"/>
<path d="M86.5451 213.761C87.0125 213.615 87.5985 214.305 88.5264 215.923C90.4659 219.465 96.7867 234.011 96.5007 234.352C96.0682 234.868 94.5682 232.825 92.6147 229.123C91.5543 227.205 90.6752 225.636 90.6822 225.685C90.6334 225.741 91.1496 228.028 91.8054 230.775C93.5217 237.881 95.0705 246.109 96.4379 255.996C97.617 264.259 99.3053 270.995 101.21 275.388C101.929 276.971 104.363 278.874 105.801 278.965C107.077 279.07 107.37 276.294 107.119 264.566C107.008 258.911 107.001 251.924 107.119 249.058C107.196 246.192 107.021 239.219 106.701 233.537C106.324 227.854 106.17 222.945 106.303 222.617C106.791 221.515 107.58 223.3 108.459 227.407C109.338 231.514 109.442 235.9 109.101 250.481C109.017 254.455 108.926 261.505 108.954 266.163C108.982 270.821 108.863 275.646 108.647 276.88C108.228 279.404 108.466 279.704 110.161 279.132C111.863 278.568 113.391 276.636 113.566 274.928C113.649 274.077 113.991 271.239 114.305 268.673C114.668 266.1 115.059 258.82 115.205 252.51C115.359 246.199 115.603 237.922 115.749 234.046C115.896 230.169 115.979 224.339 115.972 221.111C115.924 214.34 116.077 212.367 116.656 212.318C118.121 212.144 118.596 220.149 118.024 235.224C117.821 240.907 117.591 249.442 117.465 254.218C117.27 263.708 117.235 264.559 116.126 271.483C115.707 274.056 115.414 277.473 115.442 279.007C115.512 281.698 115.645 282.005 117.717 285.164C120.521 289.529 120.835 290.665 120.033 293.12C119.307 295.142 118.568 295.784 115.805 296.976C114.835 297.429 112.959 297.75 111.005 297.806C105.403 297.966 101.698 296.056 99.4309 291.802C98.489 290.08 97.7774 286.07 98.2797 285.129C98.3704 284.913 98.5728 282.933 98.7053 280.75C98.9914 276.65 98.6844 274.879 96.4449 267.871C95.9984 266.372 95.1054 261.421 94.4426 256.819C92.3915 242.65 90.3892 232.818 87.4032 222.596C85.7567 216.969 85.5125 214.075 86.5451 213.775V213.761ZM101.761 291.802C103.059 293.971 104.684 295.044 107.44 295.658C111.214 296.446 115.554 295.763 117.472 294.068C118.017 293.601 118.561 292.548 118.707 291.739C118.993 290.129 118.163 288.448 115.84 286.001C115.086 285.22 114.326 283.748 113.949 282.458C113.628 281.217 113.28 280.185 113.224 280.136C113.168 280.088 112.24 280.429 111.117 280.896C108.661 281.901 105.668 281.622 102.57 280.032L100.519 278.937L100.666 280.673C100.749 281.622 100.742 284.055 100.652 286.07C100.477 289.634 100.491 289.787 101.775 291.795L101.761 291.802Z" fill="#18333C"/>
<path d="M16.5208 268.952C15.7045 265.193 16.8835 261.742 21.0695 255.536C25.4508 248.995 26.4973 247.092 28.7229 241.513C29.7624 239.003 32.2461 233.878 34.2972 230.217C38.1623 223.161 39.6971 219.584 42.3203 211.223C44.6784 203.665 45.8575 202.5 49.3667 204.508C50.183 204.941 53.1969 206.328 56.141 207.59C61.3526 209.773 70.2896 214.995 71.9501 216.794C72.871 217.854 72.564 219.242 71.078 220.762C70.4152 221.411 69.1176 223.468 68.085 225.322C63.1735 234.722 55.9387 244.442 46.1575 254.908C44.7063 256.491 41.8669 259.838 39.8925 262.376C37.8692 264.901 35.1832 268.066 33.8647 269.356C32.5321 270.695 31.4577 271.887 31.4019 272.09C31.1368 273.108 27.6624 275.743 26.3578 275.946C25.5625 276.064 23.8602 275.89 22.5834 275.562C19.4579 274.802 17.2184 272.306 16.5138 268.959L16.5208 268.952Z" fill="#41718B"/>
<path d="M15.0557 269.844C18.1324 273.923 19.4301 275.011 22.3324 275.994C25.6951 277.103 25.5416 276.664 24.3695 282.786C23.9091 284.961 23.337 286.942 23.051 287.207C22.7649 287.479 21.7533 287.785 20.8045 287.883C16.9464 288.253 12.6 286.314 11.0442 283.49C9.82326 281.273 9.98372 279.425 11.9023 274.181C13.4511 269.935 14.2464 268.763 15.0557 269.837V269.844Z" fill="#EAC9A1"/>
<path d="M26.8951 246.813C31.8625 236.995 32.5602 235.377 36.6554 225.162C38.7135 219.967 41.7902 212.673 43.5553 208.873C43.5553 209.243 43.5762 209.612 43.6111 209.982C43.6739 210.707 43.8065 211.418 44.0297 212.108C44.246 212.757 44.5251 213.426 44.4902 214.117C42.9204 217.68 40.974 222.296 39.481 225.845C34.088 238.933 28.9044 248.967 24.6347 254.448C23.9091 255.347 23.1208 256.073 22.8626 256.003C22.3533 255.87 22.7091 255.145 26.9021 246.813H26.8951Z" fill="#FF479B"/>
<path d="M14.4209 266.567C15.286 264.503 18.4743 258.576 21.5231 253.381C28.5904 241.165 31.8136 234.268 39.6065 214.723C43.9739 203.657 44.6018 202.291 45.5715 202.549C46.2343 202.723 47.1622 201.733 46.9878 203.434C46.8483 204.599 45.9762 207.451 46.032 208.064C46.2064 209.689 44.1971 219.033 43.5483 219.625C42.76 220.344 42.7041 219.514 43.332 215.044C43.639 212.834 43.6809 211.209 43.4646 211.425C43.2344 211.69 41.4205 215.909 39.4879 220.797C33.7113 235.586 30.9834 241.193 21.9417 256.986C17.4767 264.866 16.9953 265.884 17.0441 267.369C17.086 268.254 17.379 269.635 17.7418 270.332C18.3836 271.643 18.5231 271.734 20.2324 271.636C22.3184 271.58 24.5021 269.921 28.4509 265.444C29.916 263.813 31.1439 262.662 31.1788 262.941C31.1997 263.276 29.9369 265.179 28.3672 267.222C26.3649 269.858 24.8928 271.329 23.3231 272.334C22.0882 273.101 21.0417 273.756 21.0278 273.805C20.9999 273.909 21.858 274.188 22.9254 274.467C25.1719 275.053 27.6625 274.509 28.5974 273.226C28.8834 272.759 31.7439 269.74 34.8764 266.525C46.8204 254.225 57.1737 240.516 65.4061 227.623C67.6805 224.025 69.6967 219.2 71.2107 216.711C72.9199 213.894 76.185 210.052 76.5338 210.142C77.6501 210.435 73.7362 219.144 68.8595 226.835C62.1201 237.455 50.811 252.775 43.6669 260.494C36.6066 268.08 30.2439 274.481 28.5695 275.681C27.2928 276.601 27.1881 276.789 26.3649 280.771C25.8626 283.093 25.437 285.763 25.3533 286.719C25.1579 288.301 25.0533 288.497 23.7835 288.978C22.2835 289.508 20.3092 289.759 18.6418 289.647C16.5069 289.473 13.5418 288.092 11.407 286.231C7.61868 283.002 7.54194 280.582 11.0163 273.756C12.007 271.838 13.5069 268.631 14.4209 266.581V266.567ZM12.9697 284.613C15.3139 286.698 18.4534 287.625 21.4115 287.144C23.0161 286.858 23.3998 286.628 23.2952 286C23.2463 285.554 23.4905 283.379 23.8114 281.119L24.4463 277.033L22.458 276.51C20.2115 275.925 17.8464 274.321 16.3325 272.403L15.2581 271.085L14.086 273.066C13.4093 274.195 12.3767 276.273 11.7209 277.738C10.2 281.266 10.4024 282.354 12.9767 284.606L12.9697 284.613Z" fill="#18333C"/>
<path d="M4.27695 280.039C4.82811 278.763 6.19552 276.671 7.32574 275.276C10.2838 271.692 11.5326 271.908 13.3675 276.148C14.6931 279.216 17.2884 281.803 19.5697 282.458C20.4906 282.695 22.2906 282.681 23.7278 282.402C28.151 281.545 31.1579 282.981 39.0415 289.731C44.4414 294.305 45.46 296.041 44.6437 299.151C44.1763 300.936 43.8135 301.494 42.474 302.457C40.4508 303.942 36.216 304.911 31.9811 304.834C27.6277 304.785 24.9766 304.095 22.6115 302.491C21.5929 301.787 19.7511 300.49 18.5581 299.632C16.8558 298.426 15.4814 297.847 12.6698 297.115C8.16293 295.993 4.3816 294.403 2.40024 292.792C1.17933 291.823 0.844444 291.237 0.642124 289.501C0.460732 287.493 0.523525 287.235 1.85606 284.857C2.60256 283.469 3.71184 281.308 4.263 280.039H4.27695Z" fill="#41718B"/>
<path d="M5.85356 274.642C7.08144 272.452 9.72559 270.479 10.9535 270.793C11.6651 270.981 12.0418 271.622 12.4395 273.254C13.1232 276.05 14.2674 277.933 16.3534 279.564C18.9138 281.649 20.5882 281.928 23.2951 280.562C24.5579 279.913 26.016 279.53 26.5323 279.662C27.0904 279.808 28.5834 280.799 29.888 281.845C31.2345 282.96 33.3694 284.39 34.6531 285.108C40.4158 288.301 44.239 291.816 45.5506 295.149C45.8506 295.881 45.9343 297.429 45.7459 298.58C45.4599 300.302 45.132 300.929 43.8622 302.233C41.8669 304.221 39.8228 305.155 35.7973 305.957C33.5019 306.389 31.6462 306.396 29.2322 306.041C27.3904 305.776 25.5137 305.448 24.9905 305.371C23.9021 305.141 21.3347 303.488 17.9859 300.867C15.7813 299.089 14.8116 298.621 10.0814 297.108C5.44891 295.623 4.43033 295.142 2.78384 293.726C0.118771 291.397 -0.425404 289.724 0.321095 286.049C0.80946 283.776 1.40944 282.298 2.89546 279.746C3.97684 277.905 5.34426 275.59 5.86752 274.635L5.85356 274.642ZM32.8392 286.551C30.0834 284.794 27.3904 283.002 26.8532 282.535C26.0021 281.824 25.8486 281.782 24.6765 282.514C24.0067 282.995 22.5696 283.49 21.4742 283.692C19.7719 283.957 19.2487 283.874 17.4627 282.974C14.7488 281.663 11.9302 278.693 10.8558 276.12C10.3465 274.948 9.84419 273.944 9.64885 273.84C9.06281 273.582 6.82331 277.354 6.09076 279.941C5.0931 283.33 5.51171 285.08 7.56981 287.2C8.96514 288.546 9.77443 288.978 14.2534 290.421C18.1185 291.704 20.0301 292.527 22.0603 293.936C23.5463 294.926 26.1276 296.306 27.7462 297.004C35.3787 300.141 41.5879 299.751 42.5646 296.027C43.1088 293.936 40.367 291.307 32.8252 286.558L32.8392 286.551ZM2.2885 288.267C2.33733 289.536 2.68616 290.282 3.95591 291.481C5.37217 292.945 6.06285 293.231 10.9953 294.793C16.1232 296.46 16.6534 296.711 19.458 298.914C21.0835 300.211 22.8696 301.494 23.5114 301.773C28.2137 303.816 32.0578 304.332 35.7275 303.44C38.574 302.77 39.7949 302.268 41.4902 301.02L42.5576 300.267L41.3646 300.664C38.0996 301.885 37.1786 301.857 31.0183 300.19C25.7091 298.803 24.7812 298.398 21.9207 296.613C19.8626 295.309 17.0999 293.991 14.1558 292.945C7.91865 290.714 5.84658 289.466 4.38149 286.956C3.70475 285.798 3.06988 284.871 2.97221 284.843C2.6164 284.752 2.31641 286.523 2.29548 288.267H2.2885Z" fill="#18333C"/>
<path d="M96.3471 288.706C97.6656 287.43 98.8935 287.486 100.868 288.957C103.233 290.61 104 290.916 107.377 291.37C111.933 292.039 114.13 291.697 115.693 290.135C118.323 287.423 119.307 287.179 126.514 287.89C131.53 288.364 131.586 288.357 135.967 290.735C139.735 292.688 140.9 293.915 141.074 295.965C141.151 296.857 141.486 297.729 141.884 298.015C143.125 298.914 142.644 301.334 140.83 303.077C139.804 304.116 136.477 306.096 134.886 306.654C132.319 307.561 124.909 307.61 120.179 306.843C117.012 306.32 114.186 306.131 109.547 306.32C103.952 306.529 102.884 306.459 100.7 305.643C97.0936 304.311 96.7098 303.551 95.9982 295.825C95.4331 289.787 95.4122 289.578 96.3471 288.706Z" fill="#41718B"/>
<path d="M97.3937 286.049C97.7495 285.861 98.9704 286.496 100.498 287.688C103.84 290.261 107.287 291.558 110.559 291.439C113.782 291.377 115.756 290.254 116.217 288.204C116.412 287.395 116.907 286.349 117.34 285.833L118.107 284.92L120.493 285.617C121.749 286.042 124.282 286.565 126.054 286.837C134.426 288.134 140.084 290.568 141.549 293.461C143.46 297.269 143.502 301.445 141.563 303.572C141.033 304.144 139.491 305.336 138.179 306.138C135.158 307.986 132.116 308.293 123.863 307.777C112.631 307.094 108.856 306.933 106.917 307.1C104.238 307.331 99.4657 306.619 97.6937 305.769C95.9216 304.862 95.0495 302.659 94.7705 298.182C94.4426 292.492 95.6635 286.886 97.3937 286.049ZM98.1193 302.659C98.8727 304.66 101.238 305.092 111.507 305.016C114.891 304.995 120.472 305.204 123.884 305.497C132.305 306.159 134.091 305.95 137.209 304.046C139.777 302.505 141.221 300.797 141.109 299.479C141.046 298.747 140.949 298.803 139.595 299.716C137.551 301.215 134.042 302.254 129.884 302.603C125.782 302.952 122.796 302.728 117.361 301.655C113.698 300.957 113.168 300.95 107.356 301.71C102.173 302.415 100.959 302.464 99.8564 301.975C97.9937 301.236 97.6309 301.369 98.1123 302.652L98.1193 302.659ZM97.8472 297.603C100.205 299.786 104.001 300.204 110.147 298.991C111.661 298.705 113.607 298.594 114.57 298.719C115.54 298.9 118.114 299.319 120.375 299.709C127.254 300.874 133.456 300.344 137.195 298.28C139.777 296.899 140.244 296.118 139.421 294.542C138.214 292.213 130.595 289.152 125.168 288.818C123.996 288.706 122.44 288.469 121.728 288.26C120.04 287.716 119.175 288.162 117.312 290.491C115.1 293.169 112.693 294.11 108.961 293.796C105.926 293.58 102.305 292.137 99.7099 290.24C97.8472 288.866 97.7076 289.089 97.1356 293.58C96.7518 296.578 96.8146 296.676 97.8472 297.596V297.603Z" fill="#18333C"/>
<path d="M100.896 158.02C100.163 158.243 98.4749 158.369 97.2051 158.278C95.9354 158.138 92.1889 157.922 88.8611 157.748C80.4682 157.323 73.5822 156.974 64.6173 156.974C53.6291 156.974 50.8384 157.406 47.2106 154.129C43.792 151.061 42.9548 143.14 42.8293 133.12C42.6548 119.09 42.8293 115.841 45.8432 100.194C46.8548 94.9569 48.7385 92.0423 47.8455 89.4623C47.5385 88.5837 45.4525 89.8598 44.8664 88.2351C42.8432 82.8311 35.155 70.3496 34.5061 69.1991C32.1271 64.7992 32.748 58.5654 37.6805 52.5966C38.9293 51.1044 39.6758 48.615 39.6688 48.1897C39.6479 46.3419 42.2083 43.5946 43.9316 41.8862C45.4455 40.4428 46.1362 41.5236 48.5082 41.0704C54.1384 39.9965 59.0499 39.7246 66.5777 42.1093C72.8288 44.1384 81.431 49.152 86.5937 52.7221C88.2611 53.8447 89.2238 54.6884 89.6634 56.7524C89.9424 58.0633 90.1448 59.4858 91.0517 60.469C91.575 61.0338 92.2796 61.3894 92.9494 61.759C96.926 63.9206 100.435 66.8492 103.91 69.7499C105.242 70.8656 106.61 72.0161 107.412 73.5571C108.465 75.5653 108.277 77.8036 108.507 79.9861C109.289 87.3635 109.679 89.5181 110.942 93.3532C112.589 98.4992 113.398 103.924 113.489 111.148C113.551 116.05 113.97 120.317 115.47 130.107C116.454 136.794 116.37 138.851 114.744 143.725C113.475 147.588 109.575 152.442 107.733 152.462C107.419 152.462 106.058 153.641 104.705 155.028C103.352 156.472 101.628 157.811 100.889 158.027L100.896 158.02Z" fill="url(#paint2_linear_18_1399)"/>
<path d="M44.4966 106.504C44.6012 105.856 44.7198 105.207 44.8454 104.566C45.0826 103.75 45.3198 102.941 45.564 102.132C45.8501 101.163 46.2617 100.131 46.5826 99.0779C46.8338 99.315 47.0989 99.573 47.3989 99.8589C50.7128 103.143 52.7848 104.119 60.4033 105.974C69.2427 108.129 80.2309 109.314 90.2563 109.189C95.6353 109.119 98.6352 108.505 102.151 106.664C103.986 105.695 104.984 105.465 108.465 105.319C112.051 105.165 112.63 105.27 112.798 105.842C112.958 106.26 113.342 107.104 113.663 107.675C114.577 109.3 114.451 111.783 113.321 114.167C111.779 117.612 109.637 119.062 106.1 119.111C105.312 119.118 103.519 119.62 102.047 120.164C98.6352 121.579 89.6773 122.479 82.5471 122.151C78.0053 121.942 76.0938 122.542 72.7171 122.374C68.4892 122.109 60.6405 121.21 55.0732 119.488C52.1709 118.574 47.0082 116.245 43.3106 114.23C43.6803 111.65 44.071 109.077 44.4896 106.511L44.4966 106.504Z" fill="#F2F2F2"/>
<path d="M43.5479 120.854C45.2572 121.74 47.685 122.723 51.9757 124.369C60.1383 127.43 65.1685 128.636 76.1078 129.975C84.7728 131.077 91.6378 131.314 96.1168 130.672C100.226 130.038 107.998 127.304 111.144 125.317C112.191 124.62 113.293 124.076 113.558 124.076C114.298 124.069 114.898 125.533 114.919 127.276C114.94 128.699 114.682 129.18 112.491 131.314C109.672 134.04 106.268 135.978 104.21 136.006C103.421 136.013 102.263 136.348 101.684 136.773C100.742 137.366 99.2144 137.596 93.5703 137.875C81.7031 138.447 76.4218 137.931 62.4546 134.786C52.2129 132.513 48.4036 131.411 43.4502 128.831C43.527 126.175 43.5479 123.511 43.5479 120.854Z" fill="#F2F2F2"/>
<path d="M32.7689 61.3754C33.2573 59.0256 34.8759 56.613 35.9642 54.5141C37.5479 51.46 39.4316 48.6639 40.9595 45.5818C41.7827 43.9293 42.8781 42.2697 44.5734 41.5236C46.3175 40.7566 48.3129 41.1052 50.2175 41.1471C52.15 41.1889 54.0825 40.896 56.0151 40.9797C57.6755 41.0494 59.308 41.3981 60.9266 41.7467C65.7893 42.7996 70.659 43.9223 75.2775 45.7771C79.8961 47.6319 84.2704 50.2746 87.5773 53.9911C89.6145 56.2783 89.3843 61.7869 87.7378 64.318C86.7541 65.9148 82.6797 69.0247 79.01 70.9702C77.231 71.9394 73.1985 74.4148 70.1637 76.4578C65.1893 79.7351 58.9592 83.612 51.5779 88.0259C48.4873 89.8597 46.485 89.9365 44.8804 88.2141C44.1827 87.5378 42.7316 84.916 41.5874 82.4545C40.3944 79.9931 38.12 75.2167 36.5503 71.8627C33.0829 64.6806 32.4829 62.9444 32.7759 61.3615L32.7689 61.3754Z" fill="#F2F2F2"/>
<path d="M43.5481 49.2564C47.8736 44.6264 55.52 46.5718 61.0106 47.7432C61.5966 47.8688 62.1826 48.0012 62.7268 48.2523C63.3338 48.5382 63.8501 48.9775 64.3524 49.4098C66.4175 51.1809 68.4337 53.0496 70.0035 55.274C71.5732 57.4983 72.6755 60.1202 72.7243 62.8396C72.7592 65.043 72.0685 66.4446 70.1988 67.4766C68.1826 68.5852 66.0686 69.5266 63.9756 70.461C61.9803 71.3326 59.3571 72.5249 58.1013 73.0688C55.3735 74.2612 51.1038 74.5262 49.2968 73.5988C45.2085 71.5418 41.9434 63.516 41.8388 55.3367L41.8248 53.9631C41.8039 52.2338 42.4179 50.5533 43.562 49.2494L43.5481 49.2564Z" fill="#DCD5D2"/>
<path d="M80.2731 90.7034C79.3801 91.2403 77.8732 92.7883 76.9383 94.1201C76.0034 95.4519 74.2941 97.6345 73.1988 98.9663C71.2733 101.26 69.9686 102.062 69.9547 100.961C69.9547 100.696 70.8268 99.2103 71.9221 97.6693C75.7034 92.2444 78.9406 89.3019 80.894 89.5389C81.794 89.6854 81.6894 89.79 80.2731 90.7034Z" fill="#18333C"/>
<path d="M69.7869 96.212C67.2823 98.5619 66.5498 98.9454 66.5358 97.9413C66.5219 96.993 71.273 92.9278 71.7543 93.4438C72.0753 93.7575 71.3985 94.6082 69.7869 96.212Z" fill="#18333C"/>
<path d="M35.7969 53.1264C36.8294 51.4808 37.9108 49.0403 38.2596 47.7155C39.1108 44.1732 41.141 41.8791 45.02 40.0383C46.806 39.1737 47.6432 39.0551 52.9245 39.0412C58.9942 39.0203 62.4267 39.5014 67.6173 41.1261C72.0126 42.4928 78.6543 45.9443 82.7008 48.9009C84.3263 50.0793 86.0077 51.446 87.8356 52.2967C88.7007 52.7011 89.2169 52.736 89.7541 53.6145C90.3262 54.5419 90.6332 55.6576 90.696 56.7384C90.7239 57.2893 90.696 57.868 90.9262 58.3701C91.2751 59.1301 92.1541 60.1551 92.8727 60.5874C97.9447 63.6485 102.598 66.877 106.631 71.1862C108.71 73.4106 109.17 75.5513 109.4 78.4241C109.784 83.591 110.238 86.1152 111.228 89.5319C113.872 98.3596 114.389 101.672 114.668 111.427C114.912 118.546 115.163 121.496 115.944 125.122C116.67 128.49 116.97 131.334 117.026 135.658L117.103 141.564L115.505 144.855C113.656 148.676 109.7 153.313 107.391 154.394C106.393 154.826 105.354 155.788 104.677 156.855C103.484 158.766 102.389 159.679 100.442 160.181C99.7586 160.349 98.7052 160.411 98.1261 160.37C97.547 160.272 95.8517 160.133 94.3238 159.993C90.996 159.721 84.9193 158.794 81.424 158.048C80.6706 157.887 78.7311 157.511 76.2962 157.064C77.6846 157.064 79.052 157.002 80.4264 156.765C81.2287 156.625 82.031 156.5 82.8403 156.409C84.1101 156.5 85.3798 156.555 86.6565 156.562C88.603 156.897 90.3262 157.162 91.3378 157.288C96.5145 157.859 100.896 157.699 101.573 157.002C101.935 156.681 102.821 155.405 103.54 154.185L104.935 151.953L104.182 146.633C103.721 143.683 103.366 140.525 103.359 139.681C103.338 138.203 103.289 138.098 102.389 138.321C94.9796 140.574 76.6032 139.486 61.3035 135.881C55.5617 134.535 48.0618 131.934 42.5782 129.522C42.5642 128.789 42.5572 128.057 42.5503 127.325C52.1571 131.906 64.7499 135.246 79.045 136.976C81.8426 137.31 86.81 137.617 90.0262 137.68C96.1517 137.812 98.7261 137.415 101.51 135.902C102.821 135.197 102.87 135.093 102.842 132.513L102.807 129.821L100.603 130.533C96.8703 131.634 81.4659 131.669 73.4777 130.554C59.336 128.608 49.0664 125.854 42.62 122.388C42.62 122.312 42.62 122.228 42.627 122.151C42.6619 121.433 42.7177 120.715 42.7805 119.997C44.8177 121.196 47.2525 122.381 49.5827 123.26C55.3105 125.401 63.2988 127.304 72.3893 128.615C78.2567 129.494 81.5287 129.717 88.2332 129.738C92.8797 129.738 97.0447 129.626 97.5191 129.515C97.9935 129.403 99.361 129.124 100.568 128.845L102.78 128.399L102.759 126.607C102.745 125.659 102.884 123.86 103.024 122.597C103.212 120.694 103.156 120.38 102.633 120.701C102.319 120.917 100.631 121.203 98.8935 121.377C97.1564 121.558 93.4657 122.026 90.6751 122.43C84.1449 123.357 70.9521 123.574 65.5662 122.8C58.7012 121.851 50.6222 119.034 43.6526 115.129C43.7363 114.802 43.827 114.474 43.8968 114.146C44.0014 113.7 44.0712 113.254 44.127 112.814C46.2828 113.979 48.6269 115.178 50.0711 115.827C55.3245 118.239 59.3012 119.564 64.1639 120.554C67.6522 121.252 70.0312 121.377 78.8427 121.37C89.9774 121.391 90.2913 121.335 94.7634 120.324C96.2913 119.934 98.3982 119.648 99.4517 119.634C103.247 119.585 103.714 118.734 104.049 111.664L104.3 106.49L102.361 107.62C98.5377 109.83 94.3238 110.618 85.6728 110.73C78.0195 110.771 73.5823 110.409 64.7569 108.826C56.1198 107.306 49.4641 104.524 45.8781 101.016C45.9409 99.9704 45.9688 98.9175 45.9758 97.8646C47.6292 99.5729 50.6083 101.909 52.5478 102.864C56.2105 104.663 62.8313 106.372 70.2335 107.55C75.7311 108.38 77.845 108.512 85.8612 108.359C97.4703 108.212 101.259 107.431 103.491 104.865C104.217 104.063 104.266 103.589 103.966 100.8C103.784 99.0081 103.17 96.0656 102.563 94.1759C100.421 87.3494 96.6122 74.2125 96.6052 73.6268C96.5773 71.3606 100.268 79.3306 103.059 87.5238C105.193 93.9318 106.205 98.4573 106.247 101.776C106.275 104.203 106.386 104.356 107.391 104.607C108.717 104.907 111.605 104.077 111.912 103.283C112.17 102.592 111.2 97.1743 109.931 92.2863C109.01 88.6325 107.9 84.6718 107.865 80.8856C107.838 77.5176 106.442 73.4385 104.182 70.8794C103.338 69.9242 102.326 69.1362 101.321 68.3483C97.6866 65.5173 94.0238 62.6654 89.9146 60.5874C89.6983 62.1842 89.6146 63.7392 88.6518 65.064C87.9053 66.096 87.0193 67.0304 86.0705 67.8811C83.6775 70.0427 80.8729 71.7859 78.0334 73.2781C75.0474 74.847 71.2242 77.2666 69.5498 78.6054C67.8754 79.9442 66.0476 81.3946 65.4755 81.8199C64.6383 82.4614 64.5894 82.566 65.2731 82.3499C65.7476 82.2383 67.2754 82.0082 68.6429 81.8339C70.0661 81.6595 72.7521 81.1505 74.6986 80.6485C78.752 79.6514 78.5357 79.7071 78.5427 80.1813C78.5567 81.2342 70.9382 83.6538 63.829 84.7974C60.2988 85.3691 58.5686 85.92 55.4221 87.4331C53.2175 88.5139 50.4897 89.6017 49.3316 89.9364C48.7943 90.0689 48.2292 90.2781 47.6781 90.3338C47.1409 90.3826 46.5967 90.4384 46.0665 90.3757C45.5363 90.3129 44.9921 90.1386 44.5874 89.783C44.0712 89.3297 43.9177 88.6673 43.5688 88.1095C43.2968 87.6772 43.0316 87.2588 42.7944 86.7986C42.0898 85.411 41.4898 83.9745 40.848 82.5521C39.7108 80.0349 37.4364 75.5792 35.6573 72.6994C32.2109 66.9398 31.4993 65.3708 31.4783 63.1535C31.4574 61.4102 33.1527 57.5403 35.7829 53.1334L35.7969 53.1264ZM106.163 144.276C106.568 147.017 106.917 149.91 106.979 150.698L107.105 152.176L109.498 149.513C113.921 144.66 115.854 138.83 114.94 133.203L114.598 131.307L112.931 132.959C111.368 134.507 109.324 135.588 106.589 136.202C105.221 136.48 105.173 137.066 106.163 144.276ZM104.949 131.579C104.984 134.165 105.033 134.319 105.933 134.312C108.256 134.228 112.603 131.802 113.74 129.996C114.256 129.089 113.998 125.561 113.307 125.15C113.147 125.045 112.575 125.421 112.051 126.007C111.061 127.074 107.231 128.81 105.752 128.831C105.012 128.838 104.914 129.159 104.942 131.586L104.949 131.579ZM104.845 123.406C104.9 127.625 104.845 127.576 107.942 126.265C112.4 124.362 113.077 123.406 112.61 119.829L112.317 117.354L111.061 118.421C109.756 119.543 107.545 120.15 105.856 119.857L104.796 119.662L104.845 123.406ZM111.486 105.814C111.117 105.974 109.749 106.204 108.535 106.323C107.272 106.441 106.324 106.72 106.331 107.034C106.296 108.456 105.598 115.848 105.396 116.803C105.145 117.807 105.2 117.863 106.728 117.842C108.361 117.772 110.251 117.005 111.612 115.778C112.24 115.192 112.331 114.349 112.282 110.283C112.226 105.856 112.17 105.486 111.486 105.814ZM36.5225 69.4082C39.9131 74.9028 40.8898 76.7925 43.1712 81.8757C44.3642 84.5533 45.613 87.0147 46.0386 87.4331C47.0014 88.4721 47.5316 88.4163 51.8292 86.5197C57.1314 84.2395 63.3127 80.5718 67.9103 76.9807C70.0521 75.3212 74.0288 72.79 76.7078 71.4373C81.7938 68.7876 85.2961 66.3192 86.803 64.4016C88.9867 61.5776 89.4611 57.7216 88.01 55.3647C86.9356 53.6355 79.1078 48.357 74.1195 45.9374C66.7941 42.3394 61.129 41.0354 52.9524 41.14C47.9432 41.147 47.3083 41.2655 45.3688 42.2348C43.3735 43.2598 43.22 43.4759 40.3945 49.2565C38.7968 52.5477 37.1015 55.8389 36.5783 56.5292C36.1108 57.2753 35.2876 58.8163 34.8271 59.925C33.4946 63.0001 33.8923 65.1059 36.5294 69.3942L36.5225 69.4082Z" fill="#18333C"/>
<path d="M41.978 53.733C44.1896 49.1727 47.1686 46.8647 52.0104 45.9582C54.1173 45.5608 55.2754 45.5468 57.4452 45.9443C61.4637 46.7392 61.1009 47.3249 56.5103 47.3807C53.1894 47.4225 52.2895 47.5899 50.3011 48.5661C45.7384 50.7835 43.0454 54.6186 43.0943 58.9418C43.0663 61.1592 43.2896 61.8425 44.5803 63.9344C46.464 66.9676 49.0314 69.5197 50.4058 69.8753C51.2011 70.0775 52.9313 69.5266 56.3987 68.1111C59.0777 67.0234 62.5451 65.8171 64.0172 65.4335C72.2775 63.3765 74.4263 62.2469 75.9193 59.1161C76.5402 57.8958 76.9937 56.6268 76.9937 56.306C76.9797 55.4623 77.7751 55.6645 78.103 56.6616C78.5983 58.1817 77.4751 61.2568 75.6542 63.1255C74.7682 64.0878 74.0426 64.9943 74.0426 65.1477C74.0984 65.308 72.3124 65.8031 70.045 66.2006C65.4683 67.1001 60.1591 68.8015 56.0638 70.7539C52.9662 72.2182 50.0151 72.518 48.0546 71.5418C46.464 70.719 43.0873 66.6956 41.7896 64.025C40.2757 60.8245 40.3315 57.1358 41.978 53.74V53.733Z" fill="#18333C"/>
<path d="M42.6829 113.784C43.1434 110.604 43.6038 107.013 43.7573 105.786C44.134 101.776 45.8084 94.5455 47.434 88.9881C47.7898 88.8905 48.1247 88.765 48.4456 88.6046C48.9549 88.5976 49.4642 88.5139 49.9595 88.3884C48.6828 93.1021 47.2945 100.166 45.9689 109.272C43.8689 122.96 43.8131 139.367 45.7666 149.011C46.4363 152.295 47.3572 153.473 50.0781 154.757C51.8223 155.579 52.4362 155.628 62.5942 155.524C77.1126 155.321 93.0193 156.597 95.0146 158.09C95.4751 158.396 95.6286 158.808 95.4262 159.115C95.1681 159.47 94.4495 159.575 92.81 159.373C85.6799 158.606 75.8289 158.145 63.8221 158.145L50.2805 158.097L48.02 156.814C43.7643 154.457 42.7876 151.584 41.8108 138.816C41.2457 130.867 41.5527 121.74 42.6829 113.798V113.784Z" fill="#18333C"/>
<path d="M117.194 118.247C114.961 115.29 110.678 113.575 106.547 114.293C101.252 115.206 97.5615 119.885 97.129 124.118C96.8429 126.921 98.1406 127.974 102.592 135.574C103.638 137.359 108.989 146.584 112.282 152.358C113.943 155.266 121.749 162.831 123.612 161.499C124.477 160.879 126.989 158.215 123.884 144.995C120.982 132.632 119.817 133.447 119.105 126.851C118.645 122.619 118.945 120.575 117.194 118.254V118.247Z" fill="#D89568"/>
<path d="M125.244 161.492C124.177 160.983 122.942 161.346 122.447 161.492C122.161 161.576 120.71 162.008 119.852 163.264C119.042 164.449 119.524 165.258 119.649 169.128C119.747 172.279 119.475 173.102 120.193 173.765C121.296 174.776 122.705 173.569 123.947 174.448C124.951 175.159 124.826 176.505 125.105 182.293C125.265 185.653 125.405 187.09 126.333 187.543C127.163 187.948 128.21 187.362 128.377 187.271C130.777 185.932 130.909 181.881 131.105 176.087C131.189 173.646 131.223 172.398 130.833 171.178C130.037 168.681 128.886 168.73 127.421 165.446C126.451 163.264 126.43 162.064 125.237 161.492H125.244Z" fill="#EEC696"/>
<path d="M100.059 127.82C107.601 144.59 113.503 153.969 119.398 158.585C123.298 161.66 123.863 161.046 123.452 154.122C123.096 148.69 122.063 142.993 119.293 131.718C116.008 118.435 114.78 109.977 115.701 106.95C116.314 104.691 116.928 105.312 117.187 108.436C117.703 113.867 118.673 118.693 121.498 130.072C125.091 144.478 125.705 147.812 125.907 154.994L126.061 160.837L127.91 163.71C131.398 169.093 132.221 171.247 132.221 175.243C132.221 181.191 130.784 186.936 128.838 189.035C127.861 190.06 127.198 190.165 126.068 189.544C124.993 188.98 124.428 187.132 123.759 181.749C122.991 175.752 122.935 175.599 121.554 175.599C120.884 175.599 120.068 175.187 119.454 174.525C118.533 173.604 118.428 173.088 118.324 169.093C118.219 166.68 118.324 164.065 118.526 163.298C118.882 161.967 118.833 161.862 115.142 158.222C109.296 152.379 105.243 145.608 97.8055 129.201C94.8823 122.793 94.5195 121.712 94.3172 118.79L94.0102 115.506L95.9567 119.195C96.9822 121.245 98.8799 125.094 100.059 127.806V127.82ZM121.093 172.119C121.4 172.886 121.812 173.144 122.684 173.144C124.84 173.144 125.349 174.274 126.019 179.915C126.277 181.965 126.584 184.224 126.738 184.942C126.842 185.66 127.093 186.274 127.303 186.274C127.819 186.274 128.845 182.739 129.354 179.35C130.121 174.225 129.765 172.119 127.254 167.099C125.663 164.024 124.84 162.741 124.435 162.845C124.079 162.95 123.207 162.999 122.489 162.999C121.359 162.999 121.205 163.103 121.003 164.484C120.591 166.792 120.696 170.941 121.107 172.126L121.093 172.119Z" fill="#18333C"/>
<path d="M101.636 67.3165C101.636 67.3165 106.394 69.6804 108.794 74.157C111.194 78.6336 114.912 93.9112 114.912 93.9112L116.126 119.467C116.126 119.467 115.435 125.896 107.719 127.046C100.003 128.197 96.7798 120.847 96.7798 120.847L89.538 95.4801L88.8543 80.6348C88.8543 80.6348 88.4497 76.1791 94.8193 71.4515C101.189 66.7238 101.642 67.3165 101.642 67.3165H101.636Z" fill="#D89568"/>
<path d="M88.6451 94.2806C88.08 89.818 87.8777 80.3348 88.3381 79.8746C88.9521 79.261 89.3637 80.6416 89.8241 85.2089C90.9544 95.4102 93.4659 108.694 96.2357 118.693C97.0031 121.566 97.6729 124.285 97.6729 124.794C97.6729 125.77 97.1566 125.924 96.4938 125.15C95.9287 124.48 93.7241 118.588 92.6985 114.997C91.673 111.511 89.2102 98.9455 88.6451 94.2806Z" fill="#18333C"/>
<path d="M89.531 59.716C89.7891 58.7956 93.6263 60.9014 97.3657 63.1536C103.268 66.6889 108.347 70.6425 109.47 72.5392C110.754 74.8472 113.879 84.8463 115.065 90.4316C116.914 99.1478 117.479 105.458 117.221 113.303C117.068 117.71 116.761 120.687 116.454 121.043C116.196 121.349 115.84 121.454 115.686 121.245C115.484 121.091 115.226 117.71 115.121 113.756C114.814 105.709 113.991 97.8647 112.812 92.0145C111.835 87.1962 109.017 77.7619 107.733 74.9379C106.659 72.5252 105.012 71.1446 96.2913 65.1479C93.3193 63.0979 89.4822 59.9182 89.531 59.709V59.716Z" fill="#18333C"/>
<path d="M66.1592 64.1995C65.7616 62.9653 65.3848 61.8984 65.343 61.8357C65.3011 61.7729 63.8988 62.2052 62.2663 62.7561C57.871 64.2762 56.078 63.7881 53.378 60.5038C51.5781 58.3074 50.9711 56.6688 51.2641 54.7442C51.4455 53.5449 51.285 53.2032 50.2106 52.5547C49.52 52.1852 48.1316 50.7976 47.1479 49.5285C45.927 48.0642 44.127 47.2763 43.1084 46.9625C41.2875 46.314 39.9969 43.9083 39.5294 42.0257C39.0341 40.0314 40.1085 35.764 41.441 34.3694C42.4596 33.2956 42.5712 32.8842 43.0387 28.4215C43.6735 21.7973 44.6921 19.9773 48.8711 17.7809C50.4897 16.9581 51.1385 16.8953 53.4897 17.2509C55.6803 17.5856 56.6501 17.5159 58.2408 16.9023C61.5895 15.5984 63.2221 16.4281 61.1012 18.4573C59.0989 20.3957 55.2687 25.5766 54.299 27.773C52.6943 31.3153 52.6734 33.9231 54.1594 38.5253C55.771 43.3575 58.4082 45.1983 62.5384 47.1577C66.7243 49.1241 70.3173 48.6081 73.7707 46.572C78.5707 43.7828 81.5287 43.1065 84.1938 41.3772C85.9101 40.2545 87.4728 39.4736 87.6054 39.6549C87.731 39.885 87.5914 41.8374 87.2566 44.0827C86.7891 47.5343 86.838 48.6081 87.4798 51.7459C88.4217 56.1039 88.3658 60.6782 87.3473 64.583C85.9798 69.7081 82.7287 72.1486 77.2311 72.1695C74.1335 72.1835 69.801 70.1334 67.9173 67.7696C67.3871 67.0514 66.5639 65.4337 66.1662 64.1995H66.1592Z" fill="#1A4E6E"/>
<path d="M90.5702 34.8785C87.34 38.2324 76.6867 44.773 70.61 47.2135C68.5659 48.0224 67.9659 48.0921 65.7473 47.597C62.3985 46.8231 59.7335 45.031 57.7661 42.1721C55.9312 39.4945 53.3847 32.4031 53.6359 30.7296C54.0475 28.3937 56.9428 25.7788 59.866 22.0065C61.5892 19.817 63.3334 17.4671 63.8078 16.7908C64.338 16.1214 65.831 14.6989 67.1706 13.6181L69.6473 11.7005L73.7425 11.7912C78.368 11.9028 78.7239 11.6936 81.0261 7.77481C83.7052 3.11691 87.2563 0.822823 90.7376 1.45736C93.2352 1.88968 101.203 5.9758 104.007 8.26988C107.67 11.2264 108.87 13.1649 108.737 15.7588C108.563 19.036 107.251 21.6648 103.986 25.2768C100.589 29.0282 98.8445 30.3112 95.1468 31.8313C93.4934 32.5425 91.8329 33.6233 90.5771 34.8715L90.5702 34.8785Z" fill="#F2F2F2"/>
<path d="M91.6101 53.8518C90.9543 54.2841 89.3915 55.1976 89.2381 55.1766C87.3613 54.8907 86.7125 44.6336 87.752 39.5573L88.3381 36.7682L91.0869 34.8367C94.3101 32.6054 94.917 31.0295 95.4542 34.5369C95.5659 35.283 95.824 38.0582 96.124 40.666C96.5775 44.3617 96.5565 45.9027 96.138 47.6041C95.4891 50.1213 93.5426 52.757 91.6171 53.8518H91.6101Z" fill="#EEC696"/>
<path d="M47.2946 26.9502C46.876 29.7115 46.6178 30.3669 46.1434 30.2972C44.6295 30.0671 44.3574 26.239 45.6341 23.4428C46.3318 21.9994 49.5201 19.287 50.4061 19.4195C51.1875 19.538 51.1108 19.6844 49.3666 21.7136C47.9504 23.3104 47.769 23.8194 47.2946 26.9432V26.9502Z" fill="#FF479B"/>
<path d="M95.9353 28.8887C95.3842 29.0212 94.8819 29.1537 94.826 29.1467C93.3261 29.1885 88.4634 21.8321 86.8308 17.1045C86.4122 15.9749 85.875 14.9847 85.5611 14.9359C85.2471 14.8871 85.0448 14.4827 85.1146 14.0155C85.289 12.865 88.4076 12.0073 91.0168 12.4048C96.033 13.109 99.3957 18.3666 98.6004 24.3284C98.1679 27.1943 97.3725 28.5679 95.9353 28.8817V28.8887Z" fill="#DCD5D2"/>
<path d="M72.7241 54.1726C71.538 54.577 70.6241 55.344 69.7939 56.6061C68.8939 57.9658 68.0497 58.5794 66.7591 59.0257C65.7474 59.3534 64.7498 59.9461 64.4289 60.3226C64.1568 60.7062 63.2219 61.257 62.4335 61.515C60.2987 62.2053 58.5406 61.8358 57.6197 60.5179L56.8313 59.3883L58.6034 59.3395C59.9359 59.3255 60.8498 58.935 62.6638 57.5544C63.9335 56.5712 65.273 55.8182 65.587 55.867C65.9498 55.9228 66.8428 55.3091 67.6032 54.5212C69.1869 52.8965 71.5659 51.9761 73.1496 52.4293C74.7891 52.8895 74.5868 53.5031 72.7241 54.1795V54.1726Z" fill="#FF479B"/>
<path d="M64.3941 40.4776C62.8383 41.2585 60.5012 40.7983 59.0082 39.3968C56.0082 36.6494 55.7152 30.5203 58.3663 26.3923C62.2593 20.4235 66.3476 18.4781 67.9103 21.8669C68.6359 23.4149 68.6917 29.0281 68.0569 33.1978C67.4569 37.1585 66.2359 39.592 64.3871 40.4845L64.3941 40.4776Z" fill="#DCD5D2"/>
<path d="M77.7754 59.5765C77.5661 60.9292 76.6312 61.8566 75.2429 62.1774C74.1964 62.3935 72.1383 61.8636 72.0615 61.3197C72.0406 61.1035 72.7522 60.6224 73.6522 60.3365C74.5034 59.9879 75.6126 59.3533 76.0103 58.8792C77.1684 57.5613 78.0196 57.9588 77.7754 59.5695V59.5765Z" fill="#FF479B"/>
<path d="M77.2939 69.7987C76.4079 69.2897 76.6381 68.8434 77.866 68.5017C79.645 68.0276 82.8822 65.6917 83.7334 64.325C84.2357 63.4952 84.7868 61.229 85.338 57.631C85.8263 54.3956 86.3287 52.1782 86.531 52.2131C87.9891 52.4362 87.5147 64.3598 85.9659 66.4726C84.7519 68.1531 82.1566 69.7848 80.4683 70.0149C78.5079 70.252 78.0893 70.238 77.3009 69.7987H77.2939Z" fill="#FF479B"/>
<path d="M42.3129 37.6118C43.0315 37.0818 43.1292 37.1516 43.6804 39.1528C44.6013 42.5974 44.978 42.9251 48.2082 43.4132C51.4384 43.9013 53.0639 45.1634 52.8198 46.7811C52.7151 47.4575 52.4919 47.5342 52.0105 47.1925C51.1872 46.6417 49.5617 46.4464 46.8408 46.4604C44.4966 46.4255 42.3827 45.2471 41.5385 43.4132C40.82 41.8094 41.2944 38.3648 42.3129 37.6118Z" fill="#FF479B"/>
<path d="M68.5244 40.91C68.5942 41.5097 64.8129 41.0913 62.5873 40.2755L60.7176 39.5642L61.9385 41.0285C63.1106 42.4301 63.3687 42.5277 65.4338 42.6253C67.9872 42.6951 68.3291 43.225 66.3547 43.9362C63.9827 44.8009 61.5618 43.8526 59.9502 41.4748C59.1618 40.3382 59.0502 39.6828 59.3641 38.2952C59.5246 37.57 59.7967 37.563 61.6873 38.1139C65.1198 39.0622 68.5314 40.4847 68.5175 40.91H68.5244Z" fill="#18333C"/>
<path d="M66.5357 28.3448C65.866 29.579 65.0218 32.0056 64.6032 33.707C64.1846 35.4014 63.5777 36.9633 63.3195 37.2492C62.3219 38.2185 62.0777 37.0052 62.7265 34.1184C63.473 30.9806 65.3776 27.2152 66.8637 25.8416C68.0915 24.8026 67.9799 25.5278 66.5357 28.3518V28.3448Z" fill="#18333C"/>
<path d="M71.9289 24.0984C70.7289 24.6074 69.8708 24.3215 68.8103 23.1989C67.708 22.0204 67.7499 20.3191 68.9708 19.3289C69.9405 18.5689 70.994 18.6734 72.48 19.7542C74.3149 21.0442 74.0218 23.2965 71.9289 24.0984ZM71.1266 20.6189C70.1847 20.4794 69.7661 20.7862 69.9196 21.5533C70.1498 22.4946 71.6428 22.5085 71.7824 21.5672C71.8591 21.0442 71.6498 20.6956 71.1266 20.6119V20.6189Z" fill="#18333C"/>
<path d="M41.7061 29.8579C41.5526 28.7702 41.5526 26.6365 41.7898 25.0676C42.1317 22.8223 42.4875 21.867 43.6944 20.2353C46.4432 16.5467 50.9641 14.8871 54.4803 16.3235C56.0361 16.986 56.357 16.979 57.9058 16.2538C58.9384 15.7727 60.2011 15.5356 61.0872 15.6681C62.3499 15.8075 62.8592 15.6193 63.8708 14.5454C67.9871 10.2641 69.4103 9.67836 74.2102 10.4035L77.4962 10.8986L79.2892 7.86541C81.3543 4.44171 84.2007 1.5131 86.4472 0.41835C90.3472 -1.38763 99.7586 2.70546 106.372 9.09264C110.705 13.2694 111.193 15.6402 108.717 20.3818C106.47 24.6283 104.663 26.6992 100.345 29.83L96.1378 32.926L96.8843 37.8419C97.8749 43.9641 97.568 48.8242 96.0959 51.4809C95.0773 53.245 91.289 56.083 90.1379 55.9087C89.6146 55.832 89.5518 56.2434 89.4821 58.4747C89.4053 62.8398 88.7774 65.9427 87.4588 67.93C85.7147 70.6494 82.5822 73.0062 80.1752 73.3828C78.8078 73.5989 77.2241 73.4665 75.3125 73.069C69.2777 71.6744 66.222 69.3455 65.0638 65.3291C64.715 64.1019 64.3383 63.0838 64.1778 63.0629C64.0173 63.042 63.3057 63.5161 62.5244 64.0949C59.4477 66.4517 55.464 65.5871 51.6827 61.7032C50.2525 60.204 49.2688 57.2266 49.5687 55.2463C49.806 53.6843 49.3664 52.7081 48.2711 52.5408C47.9083 52.485 46.9107 51.6413 46.0944 50.7139C45.1874 49.6679 44.1758 48.9288 43.4991 48.8242C40.1573 48.3152 37.0178 42.9879 37.548 38.8042C37.8759 36.6635 39.2224 34.0975 40.6317 32.926C41.5991 32.1822 41.9503 31.1502 41.6852 29.83L41.7061 29.8579ZM74.1056 12.9556C70.5614 12.4187 70.1359 12.4048 68.8242 13.2764C66.8917 14.4199 59.5314 22.4806 57.1105 26.1135C54.3687 30.1229 53.9361 32.2496 55.0594 35.7779C56.4338 40.0942 58.2267 43.0297 60.5779 44.773C63.3615 46.8509 67.2266 47.7574 70.0731 46.9067C72.5358 46.1606 77.6497 43.4133 81.6822 40.7217C85.8472 37.8837 91.7913 32.8144 92.2867 31.6639C92.5518 30.9597 92.3076 29.4256 91.3239 26.3994L89.9425 22.1389L88.4077 24.1471C86.81 26.2529 84.8984 27.9334 85.017 27.1525C85.0589 26.8945 85.7147 25.7091 86.4821 24.5446C87.2495 23.3801 88.0518 21.5811 88.2821 20.4445C88.6449 18.7431 88.5472 18.3526 87.717 17.481C86.4751 16.1701 79.059 13.7157 74.0986 12.9626L74.1056 12.9556ZM102.961 25.0118C105.256 22.5364 107.747 18.1086 108.04 16.1841C108.221 14.9847 107.935 14.406 106.226 12.335C103.205 8.67426 96.068 4.02334 91.1704 2.53114C87.9123 1.50612 85.1845 3.27724 81.7031 8.66729L79.7706 11.575L83.3147 12.858C87.0612 14.1759 89.6704 15.6332 90.3053 16.7419C90.5216 17.0975 91.6169 20.4097 92.7122 24.0913C93.8145 27.7242 94.8331 30.869 95.0355 30.9527C95.6285 31.2595 100.987 27.271 102.982 25.0118H102.961ZM89.3146 54.0888L91.3169 52.8476C92.3843 52.1573 93.6611 51.1253 94.0727 50.4908C95.2099 48.9567 95.754 44.6684 95.3006 40.652C95.1052 38.7554 94.861 36.1614 94.7355 34.8575C94.6029 32.5425 94.6169 32.4937 93.8843 33.449C93.5355 33.9859 92.2169 35.2759 90.996 36.3148C88.1007 38.86 87.5844 40.8612 88.1984 46.6626C88.4425 48.9358 88.7983 51.5018 88.9797 52.4362L89.3146 54.0888ZM39.7736 39.8013C39.8224 41.942 41.427 45.4424 42.5851 45.8817C43.0944 46.063 44.106 46.4325 44.8665 46.6557C45.5711 46.9206 46.6804 47.7295 47.2455 48.5662C48.0478 49.5982 48.7246 50.0724 49.7711 50.2258C50.6083 50.3513 51.5641 50.7139 52.0036 50.9928C52.6734 51.5227 52.7292 51.8505 52.1989 53.5797C51.0687 57.5125 53.5245 61.7311 57.5709 62.8188C59.2663 63.2372 59.4965 63.1605 62.036 61.5219C63.522 60.5178 64.8615 59.7647 65.022 59.7856C65.7545 59.8972 66.2569 60.7758 66.808 62.777C67.6871 66.11 68.587 67.5813 70.7149 69.0247C73.0451 70.5518 78.0195 71.521 80.3566 70.9144C82.0868 70.4263 85.0938 67.8463 86.0077 66.0124C87.2216 63.6347 87.424 58.0703 86.5937 50.9021C86.1682 47.3739 85.9519 43.5527 86.1193 42.4022L86.4263 40.3661L82.638 42.8345C77.5869 46.2303 72.6614 48.7894 70.3452 49.2914C67.3592 49.9608 62.5662 48.8591 59.8244 46.8927C57.1803 44.9961 56.1547 43.6713 54.2919 39.7595C50.9431 32.6401 51.6478 29.063 57.7384 21.616C59.3849 19.5729 60.6616 17.8436 60.5709 17.7251C60.4732 17.6554 59.5104 18.0458 58.2965 18.6595C56.3361 19.6426 56.1198 19.6636 54.6687 19.0151C51.7315 17.6066 49.7222 17.8367 47.2386 19.81C44.2037 22.2296 43.4084 24.6701 44.127 29.4186C44.4758 31.7127 44.8595 32.675 46.1781 34.209C47.0851 35.255 47.6292 36.2451 47.5037 36.3846C46.8479 36.8169 45.4874 36.2939 44.3363 35.1016L43.1293 33.9022L42.0968 34.7041C40.7084 35.771 39.8015 37.8768 39.7736 39.7943V39.8013Z" fill="#18333C"/>
</g>
<defs>
<linearGradient id="paint0_linear_18_1399" x1="75.1326" y1="190.836" x2="48.7195" y2="166.776" gradientUnits="userSpaceOnUse">
<stop offset="0.11" stop-color="#41718B"/>
<stop offset="1" stop-color="#1A4E6E"/>
</linearGradient>
<linearGradient id="paint1_linear_18_1399" x1="108.35" y1="186.97" x2="62.2279" y2="172.99" gradientUnits="userSpaceOnUse">
<stop offset="0.11" stop-color="#41718B"/>
<stop offset="1" stop-color="#1A4E6E"/>
</linearGradient>
<linearGradient id="paint2_linear_18_1399" x1="88.9506" y1="72.0768" x2="40.1511" y2="170.228" gradientUnits="userSpaceOnUse">
<stop offset="0.11" stop-color="#D89568"/>
<stop offset="1" stop-color="#C96C40"/>
</linearGradient>
<clipPath id="clip0_18_1399">
<rect width="143" height="308" fill="white" transform="matrix(-1 0 0 1 143 0)"/>
</clipPath>
</defs>
</svg>
