<svg width="196" height="320" viewBox="0 0 196 320" fill="none" xmlns="http://www.w3.org/2000/svg">
<g clip-path="url(#clip0_18_1480)">
<path d="M129.572 184.952C127.93 184.514 124.261 182.661 121.253 182.442C118.252 182.223 114.546 183.143 113.18 183.033C110.288 182.705 104.983 183.69 100.398 185.28C98.7054 185.885 96.6272 186.374 95.7553 186.374C93.5681 186.316 90.5671 188.46 89.143 191.036C87.617 193.939 88.3364 196.93 88.3364 202.685C88.3364 210.914 87.9368 234.17 88.8668 239.597C89.7388 244.368 90.509 246.206 90.073 263.144C89.7969 272.905 89.6371 282.556 89.6371 284.642C89.6371 286.728 89.5789 289.245 89.5789 290.347C89.4699 297.641 89.4118 297.204 92.6962 305.483C94.4473 309.816 96.2494 313.763 96.7362 314.31C98.1531 315.791 99.5192 316.119 106.081 316.557C114.931 317.104 115.912 317.104 117.881 316.389C118.811 316.061 120.068 315.783 120.613 315.783C122.306 315.725 124.217 313.478 124.217 311.509C124.217 309.371 122.575 305.914 120.119 302.682C119.08 301.311 116.842 297.853 115.2 295.001C112.526 290.288 112.308 289.683 112.744 288.64C115.694 281.513 116.566 279.04 117.823 273.831C118.644 270.432 119.843 263.852 120.446 259.191C121.376 251.845 121.863 249.54 123.89 243.179C125.198 239.064 127.262 228.954 129.34 222.432C134.31 206.581 135.632 204.903 135.632 196.842C135.632 187.848 134.979 186.476 129.572 184.944V184.952Z" fill="#41718B"/>
<path d="M118.186 305.024C115.73 303.871 112.613 304.039 108.624 305.52C104.148 307.219 102.563 309.743 104.801 311.553C105.732 312.267 107.802 312.209 112.562 311.385C120.649 309.904 122.887 307.329 118.186 305.024Z" fill="#6A92AD"/>
<path d="M111.305 302.062C114.473 300.413 114.64 298.991 111.741 297.568C109.554 296.416 106.822 296.365 102.731 297.401C97.9788 298.553 96.3366 300.413 98.2549 302.558C98.9089 303.324 99.512 303.382 104.264 303.215C108.58 303.105 109.779 302.886 111.312 302.062H111.305Z" fill="#6A92AD"/>
<path d="M102.512 283.417C105.898 275.961 106.552 271.46 104.482 269.374C103.66 268.55 103.61 268.55 102.512 269.265C100.492 270.578 99.1263 273.27 97.8111 278.646C96.3942 284.511 96.2852 286.488 97.317 287.582C98.8429 289.282 100.376 288.078 102.505 283.417H102.512Z" fill="#6A92AD"/>
<path d="M98.959 262.087C101.037 262.087 102.185 260.883 104.91 256.163C108.296 250.349 108.354 250.131 109.117 246.622C110.098 242.456 110.207 219.748 109.335 214.758C108.514 210.483 106.988 208.558 104.256 208.558C98.0798 208.558 96.4448 216.122 96.3867 244.754C96.3867 255.609 96.4957 260 96.8808 260.876C97.3168 261.861 97.7019 262.079 98.959 262.079V262.087Z" fill="#6A92AD"/>
<path d="M119.981 305.133C116.05 303.266 115.556 305.571 119.218 308.533C121.841 310.67 123.534 310.947 123.316 309.189C123.149 307.54 121.95 306.118 119.981 305.133Z" fill="#E75196"/>
<path d="M117.961 303.054C118.397 302.12 117.903 299.378 117.089 298.225C114.633 294.935 111.843 293.126 111.843 294.767C111.843 295.862 114.517 301.843 115.447 302.828C116.595 304.032 117.358 304.09 117.961 303.047V303.054Z" fill="#E75196"/>
<path d="M127.683 217.114C126.375 218.318 126.317 218.486 121.288 242.617C120.467 246.512 119.377 251.115 118.883 252.925C118.389 254.734 117.953 256.543 117.953 256.98C117.953 258.184 118.774 257.914 119.537 256.375C121.121 253.253 125.27 239.429 127.407 229.888C128.605 224.511 129.267 218.479 128.714 217.166C128.438 216.451 128.387 216.451 127.675 217.107L127.683 217.114Z" fill="#E75196"/>
<path d="M117.524 266.092C116.543 266.092 112.336 276.618 110.752 283.096C110.149 285.671 110.098 286.386 110.534 286.933C111.188 287.699 111.246 287.757 112.285 287.152C114.582 285.948 119.494 266.092 117.532 266.092H117.524Z" fill="#E75196"/>
<path d="M133.932 184.623C129.834 181.005 117.815 179.794 107.003 181.881C99.1338 183.361 91.2717 186.323 89.2517 188.519C87.7185 190.167 87.2317 195.376 86.9556 214.35C86.7884 226.853 86.8466 233.382 87.2317 237.824C87.9438 245.615 88.1036 263.159 87.6168 277.201C87.2317 286.911 87.2898 288.114 87.9438 289.099C88.4887 289.924 88.6559 291.237 88.6559 294.198C88.6559 297.16 88.932 298.969 89.6949 301.384C90.298 303.083 91.4461 306.811 92.3181 309.612C93.2481 312.683 94.2291 314.988 94.8322 315.477C95.3263 315.973 97.8331 316.849 100.405 317.505C106.415 319.095 115.425 319.263 119.363 317.943C124.064 316.404 124.936 315.309 124.936 310.925C124.936 308.241 123.737 305.111 121.819 302.755C121.216 302.04 120.235 300.669 119.69 299.684C119.087 298.699 117.888 296.941 116.958 295.737C114.829 293.053 113.027 289.486 113.572 289.158C113.79 288.99 114.989 285.809 116.195 282.031C117.779 277.15 119.254 270.95 121.223 261.08C122.807 253.348 125.321 242.376 126.847 236.73C128.431 231.084 130.996 221.703 132.58 215.889C136.025 203.276 136.729 199.439 136.729 193.457C136.729 188.191 136.235 186.659 133.946 184.631L133.932 184.623ZM114.865 297.7C115.904 299.013 116.943 300.661 117.321 301.267L117.924 302.471L114.974 302.748C111.094 303.134 107.439 304.061 105.194 305.162C102.353 306.643 103.61 307.139 107.817 306.257C111.966 305.432 118.033 305.272 119.835 305.979C120.547 306.257 121.31 307.074 121.696 308.066C122.081 308.941 122.299 309.714 122.24 309.765C121.696 310.152 115.904 310.918 111.479 311.137C108.529 311.305 106.124 311.574 106.124 311.793C106.124 312.559 108.747 312.836 115.41 312.836C119.181 312.836 122.291 312.946 122.291 313.165C122.291 313.712 119.835 314.813 116.994 315.47C112.293 316.564 106.233 316.126 99.2937 314.157L96.5615 313.391L93.7204 304.564C92.1364 299.735 90.8285 295.023 90.8285 294.089C90.8285 293.213 90.8866 292.44 90.9375 292.44C91.0465 292.44 93.0665 293.316 95.4135 294.417C97.8186 295.511 100.442 296.394 101.256 296.394C102.731 296.394 105.732 294.913 109.452 292.389L111.203 291.186L112.133 293.272C112.627 294.366 113.884 296.394 114.865 297.714V297.7ZM133.932 195.478C133.656 201.73 133.823 200.905 126.942 226.08C124.159 236.336 121.318 247.41 120.606 250.7C119.567 255.966 119.08 257.338 116.943 261.335C115.635 263.801 114.429 266.383 114.378 266.93C114.102 268.74 115.091 268.411 116.398 266.325C117.111 265.282 117.706 264.457 117.815 264.516C118.091 264.844 115.737 274.714 113.993 280.367C112.351 285.576 112.082 286.232 110.28 287.881C108.42 289.581 104.489 292.265 104.22 291.937C104.053 291.769 104.765 286.291 106.349 274.882C106.952 270.658 107.439 266.712 107.439 266.106C107.439 265.063 107.381 265.063 106.785 265.829C105.913 266.981 104.22 274.495 102.578 284.533C101.43 291.55 100.994 293.308 100.449 293.25C99.6279 293.192 95.0429 291.164 92.9647 289.96C89.7385 288.041 89.7385 288.093 90.3998 275.37C91.1119 261.773 91.1119 252.115 90.3416 242.194C90.0146 237.532 89.8475 228.319 89.9057 217.625C90.0146 200.132 90.3998 192.509 91.3226 190.481C92.7395 187.359 106.894 183.624 117.379 183.624C126.012 183.624 131.745 185.382 133.387 188.453C134.041 189.766 134.15 190.7 133.932 195.471V195.478Z" fill="#18333C"/>
<path d="M111.152 210.454C110.607 211.001 110.389 213.029 110.062 220.543C109.568 231.456 109.517 255.748 109.895 256.193C111.37 257.615 111.806 254.216 111.806 241.333C111.806 234.804 112.133 225.372 112.46 220.273C113.063 212.103 113.063 211.001 112.46 210.454C111.857 209.849 111.748 209.849 111.152 210.454Z" fill="#18333C"/>
<path d="M82.6464 290.631L83.1914 287.283C83.5765 284.978 83.6855 279.828 83.5765 270.614C83.3585 253.61 83.4675 232.827 83.7945 222.133C84.1796 210.615 83.4675 194.274 82.4865 191.422C81.5056 188.519 79.9724 186.542 77.9524 185.557C77.0804 185.061 73.0331 183.857 68.9422 182.873C61.894 181.064 59.3726 177.591 55.2817 177.868C49.2216 178.255 48.3497 176.891 46.3805 178.817C44.9055 180.188 43.8155 186.608 42.5076 192.195C41.1997 197.842 40.9236 198.556 38.6856 201.846C37.3195 203.823 35.6846 206.121 34.9725 206.945C33.7154 208.368 33.6646 208.594 33.8826 211.548C34.1587 215.772 35.7427 219.062 39.0198 222.184C41.2578 224.322 41.8609 225.306 43.6048 229.53C44.7529 232.215 46.2279 235.505 46.94 236.934C47.6521 238.306 49.2362 242.529 50.5441 246.366C51.8011 250.152 53.8212 255.303 54.9692 257.885C56.1173 260.409 57.3162 263.75 57.5924 265.34C58.2463 268.849 62.7805 285.744 63.9285 288.924L64.7496 291.229L63.7687 292.878C63.2237 293.753 61.9666 296.168 60.9857 298.254C59.9466 300.282 58.1446 303.193 56.8875 304.674C53.1745 309.174 53.1163 312.515 56.6695 315.696C58.7985 317.563 60.9857 318.38 65.0257 318.877C70.6498 319.533 78.9551 319.095 83.3803 317.892C85.8363 317.235 87.7473 314.988 88.8445 311.421C89.9926 307.584 89.7165 306.264 85.7273 297.437L82.6682 290.638L82.6464 290.631Z" fill="#41718B"/>
<path d="M74.8724 300.202C73.0703 299.764 71.8714 299.815 68.3182 300.421C63.4571 301.245 61.873 302.12 61.873 303.988C61.873 304.973 62.091 305.301 62.963 305.527C63.5661 305.695 65.092 305.746 66.4581 305.695C67.766 305.585 70.7161 305.476 73.0122 305.367C77.1613 305.148 81.0414 304.054 80.7145 303.12C80.4383 302.354 77.2194 300.764 74.8724 300.216V300.202Z" fill="#6A92AD"/>
<path d="M68.1506 286.269C68.1506 283.307 67.5475 281.112 65.5856 276.778C63.3985 272.008 62.8535 272.226 62.8535 277.712C62.8535 282.045 63.8926 285.663 65.8545 287.969C67.3295 289.727 68.2015 289.063 68.1506 286.269Z" fill="#6A92AD"/>
<path d="M50.995 218.814C48.8078 216.239 47.7179 219.091 48.2629 226C49.084 235.869 51.7071 243.602 56.2412 249.255C57.0623 250.298 57.9924 251.123 58.2104 251.123C58.9733 251.123 58.3775 244.215 57.0623 237.854C55.6454 230.778 52.3102 220.361 51.0022 218.821L50.995 218.814Z" fill="#6A92AD"/>
<path d="M73.8837 308.153C67.7074 308.153 61.1532 309.415 61.2113 310.677C61.2113 311.553 62.1414 312.268 63.6673 312.545C67.0534 313.26 76.7756 311.998 78.9628 310.568C81.3098 308.978 79.5659 308.153 73.8837 308.153Z" fill="#6A92AD"/>
<path d="M59.8381 265.428C59.8381 262.962 54.7008 248.54 50.4428 239.05C48.9096 235.651 47.1657 231.595 46.6207 230.055C46.0758 228.516 45.4727 227.371 45.2038 227.48C44.2229 227.976 45.3128 232.361 49.3529 244.426C53.7199 257.316 55.1949 260.876 57.6582 264.224C59.0242 266.143 59.8453 266.58 59.8453 265.428H59.8381Z" fill="#E75196"/>
<path d="M33.1855 210.921C33.1855 213.336 35.9685 217.231 37.8796 218.712C38.5335 219.259 39.1875 219.478 39.4055 219.259C39.8414 218.821 37.4944 211.14 36.6225 210.104C35.7505 209.061 33.1855 208.514 33.1855 210.921Z" fill="#E75196"/>
<path d="M63.4425 296.635C62.0255 297.62 56.0164 305.301 55.2461 307.052C54.4832 308.97 54.425 310.947 55.1371 311.655C55.9582 312.421 56.5032 312.041 57.3751 310.174C57.8693 309.189 59.3443 307.212 60.7612 305.731C64.7504 301.398 66.8794 294.213 63.4352 296.627L63.4425 296.635Z" fill="#E75196"/>
<path d="M58.9658 271.738C58.9658 275.684 61.5308 285.284 63.2238 287.918C63.609 288.465 64.0449 288.902 64.2629 288.902C65.52 288.902 63.5508 277.822 61.3709 272.343C60.499 270.096 58.9658 269.71 58.9658 271.738Z" fill="#E75196"/>
<path d="M85.1537 287.283C85.3717 285.364 85.3717 269.462 85.1537 252.02C84.9866 234.578 84.9866 218.566 85.2118 216.538C85.706 211.439 85.6478 201.35 85.1537 196.631C84.6596 191.802 83.6205 188.679 81.8766 186.921C80.3507 185.441 71.6094 181.603 62.4321 178.423C56.9679 176.556 56.205 176.395 52.1649 176.395C48.4519 176.395 47.5799 176.563 46.2647 177.329C44.1357 178.7 43.3146 180.29 42.8205 184.405C41.6216 193.946 39.7614 198.17 34.1882 204.203C31.1872 207.493 30.962 208.587 32.437 213.307C33.636 217.034 34.675 218.734 38.2282 222.629C40.5244 225.204 40.1393 224.278 46.5844 242.427C48.2775 247.147 51.0604 254.493 52.8116 258.826C55.3766 265.245 56.1977 267.872 57.3966 273.744C58.1596 277.639 59.5838 282.899 60.4557 285.423C61.3277 287.947 62.1488 290.58 62.3159 291.237C62.592 292.776 61.4439 295.023 57.3458 300.669C53.3566 306.155 52.8116 307.417 52.8116 311.254C52.8116 315.091 53.3057 316.192 55.3766 317.337C56.8517 318.213 61.9308 319.424 65.484 319.803C68.8192 320.131 75.9183 320.022 78.8103 319.635C84.3254 318.811 89.1865 315.63 89.7896 312.34C90.4436 308.941 89.7315 304.221 87.9876 300.114C85.2554 293.586 84.7613 291.397 85.1465 287.283H85.1537ZM59.591 270.279L59.3149 268.521L60.354 269.943C60.899 270.709 61.5529 271.256 61.7709 271.205C62.701 270.877 61.9889 268.462 59.8599 264.844C55.9288 257.878 52.9206 251.356 50.4065 244.331C49.0404 240.494 47.0713 235.176 46.0395 232.543C43.5835 226.182 42.8714 223.658 42.3773 218.997C42.1011 216.859 41.8323 214.992 41.7233 214.882C41.1783 214.335 40.5752 215.488 40.3572 217.844L40.0303 220.419L38.5552 218.61C36.6442 216.363 35.6632 214.386 34.7332 211.155L33.9702 208.58L36.8622 205.457C40.3572 201.671 42.5444 197.397 43.4163 192.626C45.6543 180.728 45.7633 180.451 47.9505 179.408C50.3556 178.255 54.6718 178.751 61.0588 180.947C67.395 183.143 78.4833 187.804 79.5732 188.789C80.0092 189.175 80.7722 190.547 81.2663 191.911C82.1382 194.048 82.2472 195.529 82.4652 203.809C82.6323 209.017 82.6323 214.335 82.4071 215.656C82.24 216.969 81.804 220.922 81.477 224.431C81.0919 227.94 80.4961 232.878 80.1691 235.402C79.348 241.435 80.0019 242.311 81.7531 237.598C82.4071 235.68 82.4652 236.395 82.6251 256.025C82.7922 284.27 82.6832 289.916 81.7531 290.463C79.239 291.886 74.5959 293.644 74.436 293.148C74.327 292.871 73.564 289.201 72.6848 284.978C71.0426 276.589 68.6448 267.864 68.0417 267.864C67.5476 267.864 67.5476 268.141 68.0998 270.884C68.3178 272.146 69.1389 277.245 69.851 282.184C70.5631 287.122 71.3769 292.003 71.6022 292.987C71.8201 294.031 71.9873 294.855 71.9291 294.855C71.3842 295.074 67.0099 294.14 66.5739 293.702C65.266 292.389 60.5647 276.589 59.5838 270.286L59.591 270.279ZM61.5602 314.806C62.3813 315.302 64.0743 315.463 68.5503 315.412C74.7775 315.412 80.5106 314.536 84.4489 313.055C85.6478 312.559 86.745 312.289 86.854 312.45C87.29 312.837 84.5579 314.755 82.1019 315.74C80.0237 316.615 78.7667 316.725 72.2706 316.834C67.1334 316.943 63.9145 316.776 61.7854 316.338C56.3212 315.185 55.4493 314.529 55.4493 311.399C55.4493 308.715 56.1032 307.176 58.6755 303.835C59.9834 302.077 61.7346 299.283 62.6065 297.634C64.1324 294.673 64.1906 294.621 64.7937 295.548C65.3386 296.314 66.3196 296.7 68.6739 297.087C73.1499 297.911 74.1381 297.853 75.7221 296.649C76.4851 296.044 78.2871 295.059 79.8203 294.454L82.4943 293.359L83.2572 295.446C83.6932 296.54 84.6741 299.122 85.4952 301.15C86.3163 303.127 87.0793 305.644 87.1883 306.636C87.4644 308.394 87.3554 308.613 86.0983 309.488C82.9302 311.793 75.5041 313.435 66.5957 313.872C60.9135 314.15 60.5865 314.201 61.5675 314.806H61.5602Z" fill="#18333C"/>
<path d="M63.3545 236.723C60.8404 222.906 58.2172 210.396 57.5633 209.739C56.9093 209.083 57.1273 212.92 58.0574 218.296C58.5515 221.09 59.5324 227.67 60.2445 232.995C61.0075 238.313 61.7704 243.74 62.0466 245.061C62.6497 248.3 64.9967 257.783 65.3236 258.279C65.6506 258.884 66.3627 258.717 66.6316 258.002C66.9077 257.287 66.3554 253.778 63.3545 236.723Z" fill="#18333C"/>
<path d="M45.989 199.104C45.0589 198.826 42.3849 209.579 42.988 211.111C43.7001 213.088 44.9572 210.673 46.0471 205.246C46.8101 201.409 46.8101 199.381 45.989 199.104Z" fill="#18333C"/>
<path d="M73.1353 308.285C79.3044 308.066 80.5614 307.898 80.5614 307.351C80.5614 305.928 71.9873 305.104 66.5739 306.038C61.9889 306.862 58.1087 308.613 58.7627 309.605C59.0897 310.101 59.3076 310.101 62.7519 309.277C64.5539 308.839 68.6521 308.452 73.1281 308.292L73.1353 308.285Z" fill="#18333C"/>
<path d="M50.6315 201.402C50.1956 201.402 49.7015 202.496 49.1056 204.91C48.6115 206.829 47.5797 210.177 46.8095 212.256C46.0465 214.394 45.3926 216.312 45.3926 216.531C45.3926 216.808 45.7777 216.969 46.2137 216.969C47.0856 216.969 50.2537 210.768 51.0748 207.318C51.7288 204.633 51.5108 201.394 50.6388 201.394L50.6315 201.402Z" fill="#18333C"/>
<path d="M41.5482 182.129C40.0223 176.264 36.4691 167.977 33.7369 163.87C30.5688 159.267 30.4599 158.771 31.6588 154.985C32.2619 153.227 33.1847 150.542 33.7878 149.061C35.539 144.896 40.451 128.169 41.5482 122.793C43.3502 113.689 42.6962 109.794 37.45 99.0485C34.2238 92.4103 28.3817 81.7745 26.7977 79.6371C25.5406 77.9374 21.9365 75.1946 20.9556 75.1946C20.5705 75.1946 19.1536 76.1283 17.7294 77.2809C14.2852 80.0748 12.1562 83.7514 11.2261 88.4127C10.841 90.4407 10.0271 94.5549 9.42404 97.5677C8.82094 100.58 7.45489 106.723 6.42308 111.165C4.07608 120.984 3.30585 125.477 2.4339 134.195C2.04879 137.813 1.56195 142.255 1.28583 144.014C0.740865 147.69 1.00972 150.922 2.21592 154.54C3.30585 157.939 13.5803 178.124 16.1453 181.961C17.2934 183.661 19.3134 187.228 20.7303 189.912C22.0964 192.546 24.5524 196.879 26.1364 199.454C27.7786 202.029 29.4135 204.83 29.7986 205.596C30.6197 207.296 31.7678 208.39 33.0248 208.667C35.539 209.273 37.014 208.667 39.7461 205.705C42.8052 202.357 43.0813 201.372 42.9724 193.859C42.9142 188.103 42.7544 186.622 41.5554 182.121L41.5482 182.129Z" fill="#41718B"/>
<path d="M10.5651 141.985C12.6432 143.247 16.6832 133.976 18.3254 124.325C19.8005 115.44 20.5634 102.003 19.6915 98.99C19.2555 97.4508 18.4925 97.3998 17.7223 98.8806C15.8113 102.557 10.2381 125.149 9.58411 131.62C9.14813 135.953 9.6931 141.438 10.5651 141.985Z" fill="#6A92AD"/>
<path d="M17.1776 162.221C16.3565 161.127 15.8115 160.799 14.9396 160.908C13.7915 161.018 13.7407 161.076 13.9005 163.87C14.1185 169.684 16.4146 175.22 20.2948 179.393C22.482 181.749 22.9179 181.151 22.3148 176.818C21.4938 170.785 19.5827 165.467 17.1776 162.228V162.221Z" fill="#6A92AD"/>
<path d="M33.9402 204.888C33.2863 202.364 32.1382 201.927 31.0482 203.845C30.3362 205.158 30.6631 206.967 31.9202 208.178C32.3562 208.674 33.1773 209.054 33.6132 209.054C34.7032 209.054 34.7613 208.069 33.9402 204.888Z" fill="#E75196"/>
<path d="M9.41664 160.959C6.35754 153.832 6.19042 153.555 4.99149 153.555C4.01054 153.555 2.4265 152.14 2.31751 152.855C2.09952 154.503 10.7827 170.005 14.7137 175.221C16.5158 177.577 16.4068 176.424 14.4376 172.259C13.4567 170.122 11.1605 165.022 9.40937 160.959H9.41664Z" fill="#E75196"/>
<path d="M3.79269 148.624C5.15875 145.006 5.54386 143.357 6.5248 136.449C8.65382 122.188 9.86001 116.213 15.0481 94.4966C16.8502 86.8225 17.5041 80.9502 16.5232 80.9502C15.5422 80.9502 14.6121 82.1538 13.3551 85.0644C12.098 87.9678 11.2261 91.0972 10.514 95.6492C10.2379 97.3489 9.03893 102.995 7.84 108.152C5.43486 118.737 4.39579 125.704 3.08786 138.863C2.59376 143.802 2.04879 148.405 1.9398 149.062C1.77267 149.718 1.77267 150.484 1.9398 150.71C2.48477 151.586 2.86988 151.148 3.79996 148.624H3.79269Z" fill="#E75196"/>
<path d="M33.0469 159.281C32.393 158.348 31.957 157.253 32.066 156.867C32.175 156.48 33.7082 152.534 35.4012 148.091C38.8963 139.046 41.1343 131.911 42.5003 125.718C43.5903 120.619 43.7574 112.391 42.8273 109.706C41.7882 106.963 41.2941 107.948 41.4613 112.34C41.7374 119.197 39.9281 126.871 34.522 142.175C32.611 147.493 30.9688 152.213 30.8089 152.592C30.5328 153.249 30.155 152.869 28.8398 150.615C27.0377 147.654 25.1267 145.567 24.5817 146.063C24.4146 146.231 25.1267 148.04 26.1077 150.068C27.1467 152.154 27.9678 153.905 27.9678 154.073C27.9678 154.182 26.9287 153.416 25.6717 152.373C22.9977 150.126 21.8496 149.412 20.5926 149.412C20.0476 149.412 19.6625 149.47 19.6625 149.521C19.6625 149.572 21.0794 151.111 22.8306 152.92C30.2567 160.543 37.305 171.398 39.652 178.802C42.108 186.535 42.929 196.791 41.345 200.847C40.582 202.875 35.9898 207.755 34.8417 207.755C34.0787 207.755 31.4556 205.18 31.4556 204.465C31.4556 204.137 32.3857 202.328 33.5846 200.46C36.0988 196.295 36.4257 195.471 35.6047 195.471C35.0016 195.471 32.0006 198.432 30.6854 200.3C30.3584 200.796 29.9224 201.175 29.7045 201.175C28.8834 201.175 16.7051 179.955 11.5679 169.589C10.4198 167.284 8.45066 163.556 7.14273 161.251C5.88567 158.946 4.51961 156.203 4.14177 155.167L3.4878 153.3L5.23897 154.671C6.21992 155.437 7.09913 156.261 7.20813 156.48C7.59324 157.086 8.73404 156.918 8.73404 156.312C8.73404 155.984 7.80396 154.664 6.71402 153.351C3.98191 150.112 3.65493 149.565 3.10996 146.822C2.50686 144.079 2.89197 140.57 4.86113 128.563C8.74131 105.037 14.4235 81.7817 16.4435 81.0741C17.1556 80.8553 21.4718 84.5318 22.7289 86.392C24.0368 88.3105 25.134 88.5294 24.698 86.7786C24.3129 85.13 22.569 82.555 20.331 80.3082L18.4708 78.4407L23.6589 73.2322C27.2121 69.6651 28.6291 67.9654 28.1931 67.856C26.9941 67.6371 23.223 70.4894 18.3037 75.3112C13.9367 79.586 13.5516 80.082 12.2945 83.4303C8.02921 94.6862 0 136.529 0 147.384C0 153.912 0.108994 154.131 9.01016 171.128C17.4245 187.14 20.5344 192.626 25.3956 200.03C26.8125 202.116 27.9606 204.363 27.9606 204.969C27.9606 206.617 29.1595 208.587 30.6927 209.521C31.5646 210.068 32.8798 210.396 34.1369 210.396C35.997 210.396 36.4839 210.177 38.8381 208.091C42.2242 205.129 43.9754 202.715 44.5204 200.249C45.8864 194.384 43.7574 179.357 40.6983 173.105C38.7873 169.21 34.304 161.207 33.0542 159.289L33.0469 159.281Z" fill="#18333C"/>
<path d="M145.245 83.7733C149.234 77.0256 149.285 76.2086 145.739 72.8603C141.532 68.9649 128.206 58.4385 123.563 55.3674C115.642 50.1589 103.348 45.0599 95.5948 43.7979C90.4067 42.9736 75.1112 43.5207 70.519 44.6733C66.4208 45.6581 57.2435 49.9401 50.8565 53.8282C48.4005 55.2507 45.7773 56.7899 44.9563 57.2276C40.9671 59.2555 26.8778 69.1837 23.6516 72.1454C20.0984 75.4937 20.0475 75.6031 20.3164 77.135C20.4835 78.1782 21.3555 79.4912 22.8814 81.1399C25.9986 84.3787 26.3256 84.9259 28.5055 91.0097C30.1985 95.5616 30.6345 97.3197 31.4556 103.951C32.3275 110.808 32.3856 112.726 32.1095 122.158C31.9424 128.023 32.0514 140.745 32.3275 150.951L32.8725 169.21L31.7825 171.128C30.0314 174.141 29.9805 174.805 31.0704 177.548L32.0514 179.962L31.0704 181.662C30.1404 183.311 29.8715 184.952 30.4673 185.776C31.3393 186.98 35.0523 188.789 40.3567 190.605C52.9201 194.829 56.8511 197.134 65.3236 205.304C72.8587 212.541 75.8669 214.569 79.253 214.846C82.966 215.174 82.966 215.014 83.1332 205.355C83.1913 200.862 83.1913 194.72 83.1332 191.7C82.966 183.858 83.7871 166.584 84.2812 166.088C85.1023 165.322 86.4684 167.072 86.7372 169.268C88.4303 181.275 93.8364 210.892 94.7156 212.701C95.1007 213.525 95.9726 214.401 96.7356 214.729C98.4868 215.495 99.6857 215.495 105.528 214.729C111.922 213.854 121.368 213.905 127.813 214.78C130.705 215.167 133.605 215.386 134.15 215.218C135.239 214.941 139.774 211.381 143.16 208.142C145.129 206.223 144.962 206.771 145.943 198.053C146.219 195.639 146.815 190.868 147.251 187.527C147.687 184.128 147.963 180.889 147.796 180.29C147.36 178.372 145.935 177.219 144.133 177.219C141.619 177.219 130.858 178.868 125.779 180.013C123.265 180.56 121.194 180.998 121.136 180.947C120.591 180.509 123.65 169.757 126.324 162.849C128.235 157.859 128.453 157.691 132.115 158.129C134.353 158.406 134.462 158.348 136.104 156.816C137.797 155.226 137.855 155.226 139.708 155.722C141.401 156.218 141.728 156.159 142.767 155.393C143.697 154.737 143.966 154.131 143.915 153.037C143.37 136.033 142.44 123.53 139.817 98.6911L139.381 94.5258L140.798 91.6735C141.619 90.0833 143.581 86.5161 145.223 83.7733H145.245Z" fill="#41718B"/>
<path d="M102.026 146.669C101.263 147.712 100.827 150.834 101.154 152.979C101.808 157.254 105.034 162.958 107.272 163.95C108.689 164.556 110.716 164.001 111.857 162.747C113.499 160.828 113.005 157.917 110.331 153.314C106.887 147.449 103.501 144.707 102.026 146.676V146.669Z" fill="#6A92AD"/>
<path d="M92.5139 208.434C92.4122 207.026 92.2669 205.611 92.0126 204.225C91.889 203.554 91.7365 202.882 91.5548 202.226C91.3659 201.562 91.1261 200.92 90.9299 200.256C90.1524 197.572 89.7891 194.785 89.4331 192.02C89.2514 190.598 89.0697 189.168 88.8445 187.753C88.7355 187.053 88.612 186.352 88.4739 185.659C88.3358 184.966 88.1397 184.281 88.0307 183.588C87.8199 182.194 87.8563 180.772 87.8781 179.364C87.8926 178.642 87.8999 177.92 87.8781 177.198C87.849 176.483 87.7545 175.782 87.6674 175.075C87.4857 173.608 87.5075 172.12 87.3694 170.647C87.2968 169.895 87.1151 169.159 86.9553 168.415C86.403 167.05 85.5383 165.643 85.0951 165.643C84.7681 165.643 84.2231 165.971 83.8962 166.357C82.9661 167.452 82.3121 181.166 82.4792 195.529L82.6464 208.419L83.7944 209.462C84.8335 210.396 85.2114 210.447 87.3985 210.177C88.7646 210.009 90.3995 209.63 91.1116 209.243C91.8236 208.915 92.4195 208.696 92.4195 208.747C92.434 208.762 92.4849 208.871 92.5648 209.039C92.5503 208.835 92.5357 208.638 92.5212 208.434H92.5139Z" fill="#F3F3F3"/>
<path d="M99.5108 208.032C97.9849 204.195 97.4327 201.949 94.2137 185.988C92.6297 178.314 91.2128 170.194 91.0965 167.948C90.9294 165.701 90.6024 163.782 90.4426 163.673C89.8395 163.286 88.6914 165.482 88.0956 168.334C87.7686 169.873 87.4925 170.749 87.4416 170.253C87.4271 169.91 87.3181 169.458 87.1582 168.976C87.2091 169.202 87.2599 169.436 87.3108 169.662C87.4489 170.355 87.507 171.055 87.5506 171.756C87.5942 172.478 87.6087 173.2 87.6523 173.922C87.6959 174.659 87.8194 175.388 87.8921 176.125C88.0374 177.562 87.9648 179.007 87.9502 180.444C87.9502 181.159 87.9502 181.873 88.0084 182.588C88.0665 183.325 88.2045 184.033 88.3717 184.748C89.0111 187.483 89.2945 190.299 89.6578 193.085C90.0211 195.865 90.4498 198.666 91.3581 201.329C92.2373 203.882 92.4771 206.61 92.6588 209.287C92.8259 209.666 93.0657 210.206 93.3345 210.783C93.7705 211.826 94.7006 213.139 95.4127 213.744C97.5417 215.553 99.8887 214.897 100.332 212.373C100.55 211.279 100.332 210.126 99.5108 208.04V208.032Z" fill="#6A92AD"/>
<path d="M73.999 141.949C73.2361 139.921 71.1579 134.494 69.2978 129.883C64.1097 117.052 61.8135 110.581 58.7036 99.829C55.8625 90.178 55.8116 89.8497 55.9206 85.3488C56.1386 73.8887 59.4157 64.0189 65.5339 56.3375C69.305 51.6761 71.0489 50.1953 74.7111 48.605C77.5522 47.4525 77.7702 47.4014 85.9084 47.4014C96.2338 47.4598 97.8178 47.8974 101.64 52.1211C104.372 55.1922 108.797 63.5302 109.727 67.3672C110.548 70.6061 110.439 80.7458 109.618 84.6996C108.361 90.4552 103.282 107.51 100.608 114.535C99.1912 118.431 97.3819 123.639 96.677 126.163C95.9141 128.687 94.439 133.458 93.3418 136.689C89.7886 147.165 88.1537 155.612 89.6288 155.882C90.0647 155.991 90.7187 155.116 91.7069 153.03C96.9531 141.679 104.379 128.242 110.497 118.861C114.16 113.324 117.161 108.444 117.161 108.057C117.161 107.343 116.122 105.592 111.805 98.7858L109.785 95.5469L110.548 94.2849C111.369 92.9719 119.29 85.0206 120.438 84.3567C120.765 84.1379 121.368 83.423 121.746 82.6571C122.4 81.4534 122.349 81.0668 121.528 77.7185C120.271 72.6194 118.469 68.1186 114.806 60.9916C112.074 55.5643 111.311 54.4627 108.194 51.3406C103.878 47.0075 100.601 45.1984 95.1366 44.1042C90.2754 43.061 82.5732 43.0099 76.3969 43.8853C72.3569 44.4324 64.9235 46.5698 62.4675 47.8318C60.4983 48.8749 57.1123 52.9892 54.3293 57.76C50.3401 64.5587 49.628 66.2073 47.063 74.0492C44.1129 82.9343 43.5098 85.4583 44.0621 86.4941C44.3382 86.9902 46.0312 88.1938 47.8841 89.2369C56.5673 94.1172 56.7344 94.6132 52.6944 101.463C50.9432 104.366 49.6934 107 49.5263 108.043C49.2502 110.239 50.4564 112.704 55.3175 119.671C57.3375 122.523 61.6028 129.161 64.8218 134.37C67.9898 139.578 72.4659 146.654 74.762 150.112C77.0581 153.57 79.129 156.422 79.4633 156.422C80.0664 156.422 78.7003 152.417 76.6222 148.303C75.8592 146.88 74.7111 144.028 73.999 141.942V141.949Z" fill="#6A92AD"/>
<path d="M84.8771 152.366C86.1341 151.381 93.1824 129.555 95.9654 117.978C97.0045 113.645 99.0245 106.022 100.441 101.091C103.668 90.0686 105.957 78.8784 105.906 74.3849C105.906 68.301 102.52 59.3576 98.8065 55.7394C93.5603 50.4726 84.6591 47.8975 79.0859 50.0932C75.6417 51.4063 70.2937 54.813 68.5425 56.8409C64.1174 61.8889 61.1673 73.1302 61.8794 82.0663C62.2645 86.837 63.2454 93.4169 64.0665 96.3275C64.7205 98.6838 70.5117 116.782 75.6489 132.524C77.015 136.857 78.926 142.89 79.798 145.903C80.6699 148.916 81.709 151.717 82.0941 152.154C82.8571 153.088 83.9543 153.139 84.8771 152.373V152.366Z" fill="#F3F3F3"/>
<path d="M142.614 179.627C137.804 179.685 124.369 183.413 120.816 185.659C117.372 187.797 115.896 190.102 117.212 191.473C117.866 192.079 119.341 192.13 121.746 191.532C126.004 190.489 133.924 188.898 138.131 188.242C143.486 187.366 146.487 186.768 147.25 184.908C148.398 182.165 145.775 179.583 142.607 179.634L142.614 179.627Z" fill="#6A92AD"/>
<path d="M111.747 148.967C112.51 149.842 113.222 150.28 113.825 150.229C115.191 150.01 115.351 146.501 114.101 145.13C111.478 142.336 109.24 145.954 111.754 148.967H111.747Z" fill="#6A92AD"/>
<path d="M160.642 164.818C160.642 163.724 159 162.513 155.614 160.981C154.742 160.595 153.318 159.61 152.446 158.786C150.586 157.137 150.208 157.027 144.911 156.648C142.615 156.539 140.595 156.152 139.992 155.773C138.517 154.788 137.477 155.007 136.061 156.429C134.971 157.633 134.585 157.742 131.911 157.742H128.961L127.704 160.266C125.735 164.213 124.151 169.042 123.824 171.945C123.657 173.864 123.33 174.849 122.734 175.345C121.913 176.001 121.913 176.111 122.567 177.65C123.33 179.568 124.093 179.678 129.288 178.365C131.258 177.869 135.683 177.212 139.178 176.942L145.514 176.337L148.355 173.594C151.523 170.523 153.819 169.37 157.423 168.933C160.482 168.546 161.572 167.889 161.085 166.686C160.868 166.248 160.7 165.373 160.65 164.818H160.642Z" fill="#00C491"/>
<path d="M50.0792 182.53C47.4052 180.772 44.7821 178.802 44.179 178.146C42.8129 176.665 40.1898 175.293 38.7147 175.293C36.4767 175.293 30.1914 182.698 30.1914 185.273C30.1914 187.082 31.7173 187.848 40.2988 190.372C44.4478 191.634 57.1202 198.272 62.9695 202.27C65.9196 204.297 68.7607 205.997 69.1967 205.997C69.9596 205.997 69.9088 205.829 68.8116 203.911C63.1293 193.983 57.2292 187.242 50.0719 182.523L50.0792 182.53Z" fill="#6A92AD"/>
<path d="M38.1116 160.266C37.3995 161.638 35.3287 165.256 33.4685 168.276C31.6665 171.289 30.1914 174.032 30.1914 174.418C30.1914 175.512 31.8336 177.927 32.5965 177.927C32.9235 177.927 34.4567 176.774 35.9826 175.294C38.8746 172.441 38.7656 172.5 41.2289 173.098C42.5949 173.375 43.743 174.36 46.8529 177.701C49.803 180.83 51.0601 181.866 51.7722 181.815C52.4843 181.706 52.6441 181.377 52.6441 180.334C52.5351 177.81 46.1408 164.869 43.525 161.74C42.4351 160.478 41.4468 159.106 41.3378 158.618C40.7929 156.918 39.4268 157.633 38.1116 160.266Z" fill="#6A92AD"/>
<path d="M48.7637 57.3297C48.4368 56.7826 45.9226 57.4975 43.0815 58.92C33.8534 63.5814 23.1429 74.6621 24.291 78.3314C24.945 80.4177 26.2601 79.6445 37.1813 70.5406C43.1905 65.5509 49.4686 58.424 48.7637 57.3224V57.3297Z" fill="#6A92AD"/>
<path d="M53.6175 53.4197C43.2412 58.1029 18.209 74.3411 18.209 77.2663C18.209 77.5435 18.4851 78.0323 18.754 78.3605C19.0301 78.6377 19.3571 78.8566 19.466 78.8566C19.575 78.8566 20.8321 79.2432 22.6341 77.7623C27.6043 73.6481 32.5235 69.9715 36.8397 67.1776C38.9178 65.8062 41.8679 63.7199 43.343 62.5163C44.8689 61.2543 47.71 59.168 49.6791 57.8038C51.0234 56.9066 52.4985 55.8561 53.7264 54.9224C53.6901 54.4191 53.6538 53.9157 53.6247 53.4197H53.6175Z" fill="#E75196"/>
<path d="M53.4073 144.582C60.8334 155.554 67.2858 162.79 66.2467 158.953C65.8108 157.414 58.2684 142.394 54.9404 136.522C53.2983 133.618 49.2074 125.828 45.8213 119.248C39.3761 106.635 39.0491 106.248 37.2471 108.116C35.8302 109.487 34.1299 121.334 34.1299 129.336C34.1299 138.608 36.4769 150.776 37.9519 149.185C38.555 148.58 39.7031 144.911 40.3571 141.562L40.902 138.71L42.1591 141.781C45.3853 149.514 48.8804 155.379 54.4463 162.404C57.9414 166.788 59.3075 167.612 58.9223 165.088C58.7552 164.322 57.2802 160.704 55.5871 157.078C53.8941 153.453 51.5471 147.537 50.29 143.919C47.7759 136.405 47.8849 136.405 53.4073 144.575V144.582Z" fill="#6A92AD"/>
<path d="M123.33 64.1285C126.003 66.6524 132.783 72.0798 135.072 73.4512C137.15 74.7132 137.695 74.6548 137.695 73.0646C137.695 70.0445 134.745 65.4999 130.865 62.5382C127.697 60.182 121.193 56.396 120.045 56.2866C117.531 56.0094 119.391 60.3425 123.322 64.1285H123.33Z" fill="#6A92AD"/>
<path d="M142.869 73.9325C142.869 72.8894 135.109 64.6682 131.781 62.1952C130.582 61.2615 128.068 59.4013 126.266 58.0299C124.405 56.6585 122.226 55.236 121.296 54.8494C119.879 54.2439 119.711 54.2439 119.435 54.9078C119.108 55.7321 122.771 59.6275 127.356 63.3551C129.049 64.7265 131.723 67.1922 133.256 68.8408C136.148 71.9119 138.662 73.8304 140.682 74.4359C142.484 74.983 142.869 74.8736 142.869 73.9398V73.9325Z" fill="#E75196"/>
<path d="M103.922 74.8079C103.704 74.8079 102.992 75.9604 102.389 77.3319C99.7655 83.3646 99.4385 84.0212 99.0026 84.0212C98.7264 84.0212 96.9825 85.6114 95.0715 87.5299L91.7508 89.412L89.1495 87.2892C85.5963 84.3275 84.1503 85.2759 82.1812 85.9908C81.3092 86.319 79.0131 86.9245 77.0439 87.3622C74.9149 87.7999 73.1129 88.4053 72.7278 88.9014C72.0738 89.6163 72.0738 89.8351 72.7278 91.7536C73.8177 94.9341 78.192 103.272 79.7179 105.023C80.43 105.847 81.6289 106.781 82.341 107.109C84.688 108.152 87.5291 107.656 90.1014 105.905C92.0124 104.534 100.209 91.5348 102.614 85.998C104.634 81.3367 105.397 74.8079 103.922 74.8079Z" fill="#D5D2D2"/>
<path d="M111.297 113.521C110.694 115.17 110.367 116.592 110.476 116.702C110.861 117.088 112.278 116.045 113.317 114.615C116.653 110.173 118.091 109.443 113.15 101.178C110.462 96.6776 110.418 95.8022 109.546 95.97C108.18 96.1378 108.398 98.0563 110.585 103.425C112.555 108.415 112.664 109.509 111.297 113.514V113.521Z" fill="#E75196"/>
<path d="M117.307 78.0979C117.692 80.2936 118.178 82.5915 118.455 83.2553C118.782 83.9702 119.276 84.4589 119.821 84.4589C121.95 84.4589 121.95 78.8128 119.712 71.9557C117.365 64.6609 115.236 61.1521 113.92 62.4652C113.644 62.7424 113.753 63.6688 114.197 64.9892C115.286 68.3885 116.602 73.8159 117.307 78.0979Z" fill="#E75196"/>
<path d="M56.6115 102.39C58.2537 98.5525 58.4717 96.1963 57.1565 95.9701C56.6115 95.8607 55.7904 96.9039 54.2064 99.5884C51.1473 104.797 49.2072 107.299 49.8611 109.932C50.1373 111.085 51.8521 112.318 52.2372 112.806C52.5642 113.354 53.5451 115.6 54.4244 117.854C55.2963 120.16 56.7205 123.45 57.5416 125.2C58.3045 127.009 59.9104 128.848 60.0702 128.68C60.1792 128.57 58.4717 124.763 57.2146 120.809C55.1946 114.338 54.9766 113.295 55.0275 109.786C55.0856 106.438 55.3036 105.512 56.6115 102.382V102.39Z" fill="#E75196"/>
<path d="M53.6104 60.875C52.5205 60.9845 51.9174 62.137 48.6912 69.4829C45.7411 76.1722 44.2152 83.7442 45.247 86.4286C45.4141 86.8153 45.9009 87.0852 46.3369 87.0852C47.485 87.0852 48.2479 85.1666 49.178 80.5053C49.5631 78.4773 50.377 75.4062 50.9801 73.7066C53.0582 67.8926 54.5841 62.7936 54.5841 61.7504C54.5841 60.9261 54.417 60.7656 53.6032 60.875H53.6104Z" fill="#E75196"/>
<path d="M144.939 189.037C144.177 189.314 141.553 199.622 141.553 202.306C141.553 203.787 141.117 204.772 139.148 207.682C137.84 209.601 136.743 211.468 136.743 211.797C136.743 212.453 142.643 206.698 143.733 204.889C144.278 204.013 144.714 201.927 145.041 198.746C145.317 196.113 145.753 192.991 146.022 191.78C146.516 189.533 146.131 188.541 144.932 189.037H144.939Z" fill="#E75196"/>
<path d="M149.881 164.271C149.227 164.271 147.752 165.533 147.752 166.08C147.752 166.627 149.227 166.518 149.83 165.913C150.542 165.256 150.542 164.264 149.888 164.264L149.881 164.271Z" fill="#18333C"/>
<path d="M152.555 167.123C152.555 167.838 154.139 167.999 155.178 167.342C155.672 167.014 155.723 166.795 155.345 166.408C154.633 165.752 152.562 166.299 152.562 167.123H152.555Z" fill="#18333C"/>
<path d="M146.822 168.553C146.277 168.94 145.405 169.21 144.853 169.159C143.814 169.049 141.852 171.296 141.408 173.215C140.972 174.805 142.062 174.754 143.319 173.047C143.814 172.332 144.685 171.515 145.23 171.238L146.211 170.742L145.23 171.785C144.031 173.098 143.973 173.922 145.121 173.922C145.616 173.922 145.993 173.703 145.993 173.485C145.993 173.207 146.705 172.281 147.519 171.347C148.34 170.413 149.045 169.319 149.045 168.991C149.045 167.948 147.955 167.729 146.807 168.553H146.822Z" fill="#18333C"/>
<path d="M87.0571 124.894C86.999 125.609 87.0571 126.433 87.1661 126.761C87.7692 128.301 89.3533 126.484 89.1353 124.624C88.9173 123.143 87.2751 123.362 87.0571 124.901V124.894Z" fill="#18333C"/>
<path d="M88.7498 97.9688C88.7498 95.6126 87.9868 94.7882 86.7298 95.8825C85.9668 96.4879 86.1267 98.9536 87.0059 99.9967C87.9868 101.149 88.757 100.216 88.757 97.9688H88.7498Z" fill="#18333C"/>
<path d="M88.7498 112.449C88.7498 110.749 87.9287 109.983 87.0568 110.859C86.4028 111.515 86.4537 114.368 87.1149 115.024C87.8779 115.848 88.7571 114.477 88.7571 112.449H88.7498Z" fill="#18333C"/>
<path d="M114.043 191.364C113.767 190.321 113.389 189.715 112.953 189.715C112.35 189.715 112.299 190.102 112.517 192.02C112.626 193.282 112.903 197.448 113.062 201.343C113.229 205.18 113.556 208.638 113.825 208.966C114.152 209.404 114.973 209.462 117.161 209.185C118.686 209.017 121.259 208.747 122.843 208.638C124.427 208.47 125.684 208.142 125.684 207.923C125.684 207.208 121.971 206.771 118.585 206.989L115.417 207.267L115.358 205.844C115.358 205.02 115.358 203.597 115.417 202.664C115.475 200.526 114.654 193.618 114.051 191.364H114.043Z" fill="#18333C"/>
<path d="M67.2273 201.511C69.9594 205.078 70.8313 205.735 70.8313 204.254C70.8313 202.941 64.11 193.063 61.763 191.036C59.634 189.117 56.0808 186.651 55.4269 186.651C54.6058 186.651 55.2089 187.855 56.6258 188.957C58.2098 190.219 62.308 195.099 67.22 201.518L67.2273 201.511Z" fill="#18333C"/>
<path d="M162.931 165.971C161.347 164.986 161.071 164.658 161.071 163.396C161.071 162.024 160.853 161.805 158.448 160.543C157.031 159.829 154.35 158.238 152.606 157.086C149.932 155.328 149.053 154.999 147.904 155.167C144.736 155.714 144.845 155.933 144.518 146.341C144.133 133.4 141.895 107.182 140.529 98.4649C139.708 93.4169 138.669 89.6893 138.124 89.6893C137.521 89.6893 137.579 92.5926 138.342 98.6838C139.381 107.292 141.234 133.888 141.51 144.641C141.728 153.635 141.677 154.62 141.016 154.839C140.631 155.007 139.817 154.839 139.214 154.452C137.688 153.409 137.194 153.519 135.116 155.328C133.365 156.809 133.205 156.86 130.8 156.59L130.131 156.517C129.005 156.393 127.908 156.933 127.312 157.895L126.869 158.618C124.137 163.221 119.988 174.301 119.493 178.467L119.217 180.714L115.991 182.194C110.636 184.66 110.309 186.141 115.497 184.281C120.082 182.632 124.18 181.538 129.15 180.553C134.07 179.568 145.536 178.138 145.812 178.416C145.921 178.583 146.139 180.115 146.306 181.873L146.524 185.112L140.9 186.316C131.505 188.402 121.833 191.911 122.872 192.954C122.981 193.064 124.892 192.677 127.079 192.079C131.446 190.926 143.414 188.402 144.78 188.402C145.543 188.402 145.601 188.57 145.383 189.825C145.107 191.138 143.363 204.465 143.363 205.122C143.363 205.29 141.888 206.654 140.137 208.084L136.86 210.768L137.136 206.603C137.303 203.641 137.245 202.437 136.86 202.437C136.366 202.437 135.661 204.575 134.346 210.111C133.961 211.811 133.474 213.35 133.307 213.511C133.139 213.679 131.773 213.511 130.189 213.124C125.822 211.972 114.843 212.081 105.608 213.401C96.8663 214.663 96.4884 214.554 95.0134 210.717C93.1532 206.165 88.2412 176.388 88.2921 170.413C88.3502 164.271 89.818 160.047 96.6483 146.282C104.518 130.431 108.013 124.398 115.548 113.653C117.35 111.019 118.883 108.495 118.883 108.116C118.883 107.737 118.011 106.248 116.972 104.768C115.933 103.345 114.131 100.763 112.983 99.012C111.014 96.0504 110.963 95.7732 111.566 94.8467C111.893 94.2996 114.843 91.4473 118.069 88.5367L123.911 83.2188L123.853 81.242C123.795 79.2651 121.179 70.9344 119.043 65.777C117.735 62.757 114.233 56.5637 113.361 55.8488C113.034 55.5716 112.758 55.1339 112.758 54.9151C112.758 54.6963 111.777 53.2665 110.57 51.844C109.371 50.3632 108.441 49.1012 108.55 48.9917C108.827 48.7145 118.113 53.4926 122.044 55.8999C127.777 59.5181 132.311 63.1363 141.161 71.4232C147.338 77.1277 149.031 78.4699 149.031 76.2742C149.031 74.8517 135.319 61.6044 128.329 56.6148C121.717 51.844 110.411 46.1978 103.806 44.2793C102.389 43.8927 100.201 43.1851 98.9953 42.7985C95.8272 41.7553 79.7106 41.8137 73.9776 42.8568C68.8403 43.8416 64.6913 45.1036 61.6322 46.6939C60.3243 47.3504 57.534 48.7218 55.514 49.6556C48.9598 52.7777 36.8325 60.3497 28.4181 66.6013C23.557 70.2195 17.0537 76.5295 17.0537 77.6237C17.0537 78.5575 17.6277 79.6809 22.5979 75.0852C31.0122 67.3016 52.8909 53.2738 54.8528 53.2738C54.9618 53.2738 53.4359 56.4543 51.4086 60.4008C47.3104 68.4615 44.4693 76.5222 43.6482 82.3362C42.9942 86.8298 43.1032 87.107 46.0533 89.0255C51.4594 92.4832 54.7946 94.7811 54.9545 95.1677C55.0126 95.4449 54.0826 97.254 52.8255 99.1142C50.1515 103.279 48.0734 107.503 48.0734 108.875C48.0734 110.246 49.0034 112.004 54.2497 120.393C56.7057 124.398 59.9828 129.774 61.5159 132.459C63.1 135.092 65.992 139.863 68.0192 143.043C72.1683 149.623 77.0294 159.114 78.5044 163.556C79.0494 165.256 80.0376 168.874 80.5826 171.675C81.6725 176.665 81.6725 177.052 81.4545 193.224C81.3456 202.27 81.1276 210.556 81.0186 211.592L80.8006 213.511L78.8314 213.234C75.8305 212.796 73.5343 211.366 68.6732 206.873C57.1998 196.178 51.2996 192.502 40.0514 189.103C34.3183 187.344 32.2911 186.469 31.2592 185.317C30.6053 184.602 30.7651 184.273 33.3883 180.655C36.7743 175.884 37.7044 175.447 40.4874 176.979C41.5265 177.584 44.3676 179.612 46.8236 181.531C49.7155 183.777 51.3577 184.82 51.6338 184.543C52.1279 184.047 44.8035 177.249 41.5265 175.162C38.5764 173.244 35.7934 173.681 33.7152 176.366C32.6762 177.679 32.7343 177.679 31.7461 175.76L31.034 174.338L34.5872 168.962C36.6072 166 38.6854 162.323 39.2303 160.792C40.3784 157.611 40.4293 157.224 39.6154 157.224C39.2885 157.224 37.8643 159.201 36.4474 161.609L33.8824 166.051L33.6062 162.374C33.4391 160.398 33.1703 149.762 33.0031 138.79C32.6762 118.723 32.945 109.064 34.2602 97.3853C35.0813 90.1999 34.0931 91.0243 32.5672 98.8661C31.9641 101.937 31.8551 101.828 31.0413 97.7136C29.8932 91.8486 28.9631 92.8844 29.7333 99.1944C30.1693 102.426 30.3364 110.713 30.3873 126.068C30.4454 138.243 30.6053 152.993 30.8233 158.807L31.1502 169.443L29.7842 171.58C28.0912 174.265 28.0912 175.038 29.7842 177.336L31.0921 179.204L29.5662 181.509C26.231 186.279 28.0403 188.256 38.7435 191.765C50.2678 195.602 55.187 198.564 65.2944 207.887C72.3427 214.357 75.1256 216.006 79.2238 216.006C81.3528 216.006 81.9559 215.838 82.886 214.911C83.9759 213.817 85.8361 213.431 86.3302 214.255C86.4973 214.474 86.8752 214.693 87.2603 214.693C87.7544 214.693 87.8634 214.364 87.6454 213.431C87.4274 212.227 87.4783 212.169 89.0623 211.899C91.5764 211.461 92.2304 211.57 92.2304 212.227C92.2304 212.555 93.0515 213.876 94.0324 215.13L94.5847 215.831C95.3622 216.83 96.6047 217.348 97.8545 217.209L98.2977 217.158C99.6638 217.049 102.832 216.611 105.346 216.173C110.534 215.349 123.374 215.079 130.473 215.736L132.711 215.933C134.077 216.049 135.436 215.626 136.489 214.736L140.202 211.622C143.203 209.207 145.666 206.96 145.775 206.632C146.429 204.932 148.399 186.338 148.449 181.407L148.508 175.593L149.924 174.112C152.221 171.756 158.557 169.509 163.142 169.509C165.983 169.509 165.874 167.751 162.924 165.942L162.931 165.971ZM82.3047 165.752C82.0867 165.861 81.7016 165.095 81.4327 164.103C81.1566 163.06 79.7397 159.5 78.2647 156.094C75.5907 150.01 71.7614 143.532 57.5631 120.561L50.6238 109.32L51.2269 107.562C51.5539 106.577 53.0289 103.776 54.504 101.368C58.1081 95.5543 58.2752 94.8978 56.197 92.7604C55.3251 91.8267 52.6438 89.9081 50.246 88.5367C45.3267 85.5751 45.3848 85.7428 46.5329 80.1477C48.7201 69.7308 55.6012 54.9224 60.2443 50.5893C61.8865 48.999 63.0854 48.3425 66.0355 47.4088C72.9167 45.2714 77.182 44.7243 87.6672 44.7243H97.2805L100.172 46.1468C104.053 48.0653 107.112 51.1948 111.101 57.2786C115.468 63.8585 116.616 66.2731 119.079 73.6773C121.862 82.1246 121.862 81.7964 118.476 84.758C114.705 87.9969 110.12 92.7677 109.299 94.2485C108.696 95.4011 108.754 95.671 110.171 98.3628C110.992 99.9531 112.627 102.696 113.775 104.505C114.923 106.263 115.853 107.904 115.853 108.123C115.853 108.342 113.724 111.741 111.101 115.688C105.746 123.698 102.527 129.125 98.8136 136.638C94.7736 144.699 88.4883 158.632 87.6163 161.317C87.2312 162.688 86.7444 163.841 86.5773 163.841C86.0323 163.841 85.3202 158.355 85.5382 156.385C85.6472 155.291 86.8461 151.119 88.1032 147.172C97.1715 119.204 101.27 105.497 103.675 95.1823C104.438 92.0601 105.426 87.9459 105.862 86.0784C108.049 77.1423 107.119 68.1478 103.13 59.8683C98.5956 50.4361 90.0723 46.3219 80.1321 48.6781C74.3409 50.0495 70.0247 53.0622 66.6386 58.1686C60.9564 66.7253 59.5395 76.5368 62.0536 89.2662C63.4706 96.2838 68.9929 116.578 72.4299 127.432C74.29 133.079 76.1429 139.002 76.637 140.592C77.727 144.21 81.7161 154.248 82.2611 154.795C82.4791 155.072 82.6462 157.538 82.6462 160.39C82.6462 163.243 82.4791 165.657 82.3192 165.767L82.3047 165.752ZM85.5309 118.314C84.9278 116.118 84.8188 113.543 84.877 101.915C84.877 94.3507 85.0441 87.5446 85.2039 86.8881L85.48 85.6261L87.8852 87.5446C90.3993 89.631 91.8744 90.5647 92.6373 90.5647C92.9134 90.5647 95.0424 88.7556 97.4476 86.5598C101.982 82.3945 103.181 80.476 103.951 75.9241L104.227 74.115L104.554 76.5295C105.208 81.6286 101.437 96.3786 92.0996 125.229H92.1577C89.8107 132.356 87.4565 139.761 86.8606 141.679L85.8216 145.188L85.7634 136.741C85.7053 132.138 85.4873 127.805 85.2693 127.199C84.9423 126.375 85.0513 125.332 85.5454 123.471C86.1994 121.057 86.1994 120.678 85.5454 118.314H85.5309ZM96.4012 58.5917C93.9961 54.1491 90.392 51.9024 85.2039 51.5741C82.312 51.4063 81.5417 51.5741 79.5217 52.4495C76.1865 53.9887 72.4734 57.5485 71.2745 60.3497C70.1264 63.0342 69.7486 66.6597 70.1846 70.1685C70.4607 72.3642 70.7295 72.9624 72.4807 74.8298C74.8277 77.3538 79.0349 79.6006 81.3819 79.6006C83.2929 79.6006 83.46 79.7684 83.1839 81.6869C82.9659 83 82.7479 83.1678 78.5408 84.8091C71.4925 87.5519 72.2046 87.7124 70.0756 83C67.8376 78.1198 67.1836 74.5526 67.5106 69.2931C67.8376 64.7995 68.3825 62.6549 70.4026 58.4385C71.6015 55.8634 72.1537 55.1996 74.3917 53.7188C79.6888 50.3194 87.2821 49.6045 92.3612 52.1285C97.2223 54.4847 101.924 61.4512 102.519 67.0974C102.955 70.825 101.865 75.3769 99.5693 79.659C98.2033 82.234 97.0043 83.8827 95.0352 85.5823L92.4121 87.8875L89.026 85.4219C85.9669 83.1167 85.6908 82.7884 85.6908 81.366C85.6908 79.8268 85.7489 79.7757 88.2558 79.0608C91.5328 78.076 94.8099 75.2238 96.503 71.766C97.542 69.5703 97.7019 68.8044 97.7019 65.1278C97.7019 61.4512 97.5929 60.7436 96.394 58.599L96.4012 58.5917ZM74.3845 73.4001C72.5824 71.591 72.1465 70.4967 72.1465 67.5861C72.1465 63.5813 73.6724 59.6859 76.1356 57.388C80.9968 52.785 87.8779 52.785 92.3612 57.4464C94.7082 59.8026 95.4784 62.2172 95.2023 66.1636C94.8753 71.4305 91.9252 75.3186 87.2821 76.7484C82.6971 78.1198 77.9377 76.8578 74.3917 73.4001H74.3845ZM82.9078 128.023C83.1839 129.067 83.3438 133.888 83.2348 139.651C83.1767 145.027 83.0676 149.521 82.9587 149.63C81.8106 150.725 65.803 97.5312 64.001 86.6182C62.9619 80.476 63.0709 72.2475 64.2771 68.5199C64.7712 66.8712 65.2581 65.5582 65.3162 65.5582C65.3743 65.5582 65.4252 67.6445 65.4252 70.2779C65.3671 72.9624 65.6432 76.0335 65.9701 77.4049C66.7912 80.6438 69.4652 87.4936 70.3372 88.5367C71.3181 89.631 73.9994 89.3027 79.0785 87.3842L83.1767 85.7939L82.9005 90.4553C82.7334 93.0303 82.5154 99.829 82.3556 105.592C82.0794 114.915 82.1376 116.286 82.8497 118.642C83.5618 120.998 83.5618 121.546 83.0676 123.741C82.6317 125.55 82.5735 126.645 82.9005 128.016L82.9078 128.023ZM88.8589 207.923C87.4928 208.091 85.6908 208.361 84.9278 208.58L83.5109 208.908V207.099C83.4528 202.824 84.55 168.218 84.7098 168.378C84.8188 168.488 85.9088 175.235 87.224 183.405C89.5201 197.885 90.7772 205.399 91.2131 206.88C91.3802 207.485 90.9951 207.646 88.8661 207.923H88.8589ZM126.113 164.767C126.825 162.52 128.736 158.734 129.339 158.406C129.506 158.297 130.16 158.297 130.865 158.464L132.064 158.683L130.807 160.055C130.095 160.821 128.729 162.579 127.748 164.06C126.818 165.482 125.779 167.072 125.51 167.568C124.907 168.502 124.965 168.225 126.113 164.774V164.767ZM124.311 178.919C123.272 179.306 127.043 169.655 129.666 165.212C131.032 162.907 133.379 159.726 134.912 158.195C137.368 155.671 137.645 155.452 138.516 155.999C139.338 156.546 139.229 156.714 135.784 160.274C130.923 165.431 126.992 171.683 125.459 176.833C125.132 177.876 124.638 178.81 124.311 178.919ZM128.569 177.876C127.806 177.876 127.748 177.708 128.075 176.563C128.787 174.097 132.551 167.408 135.392 163.622C139.105 158.683 143.53 155.284 144.402 156.714C144.511 156.933 143.254 158.304 141.619 159.785C137.63 163.461 133.75 168.67 131.352 173.711C129.877 176.84 129.165 177.876 128.569 177.876ZM132.391 177.11C131.679 177.219 131.134 177.219 131.134 177.11C131.134 176.453 137.303 167.131 139.221 164.935C141.844 161.973 147.577 157.261 148.617 157.261C148.973 157.261 152.133 159.223 154.342 160.704C155.374 161.397 158.012 162.805 158.455 163.184C159.545 163.95 159.218 164.008 157.801 163.184C157.423 162.943 154.589 161.703 152.882 160.988C150.913 160.113 149.169 159.457 149.06 159.457C148.951 159.457 148.188 160.004 147.476 160.66C146.713 161.317 144.635 163.126 142.833 164.716C138.952 168.174 135.675 172.12 134.527 174.863C133.815 176.512 133.379 176.949 132.398 177.11H132.391ZM158.499 167.787C157.242 167.787 153.361 169.1 150.905 170.362C149.924 170.858 148.391 172.171 147.41 173.266C145.826 175.133 145.499 175.294 142.934 175.68C138.945 176.286 137.252 176.227 137.252 175.512C137.252 173.594 143.261 166.795 147.468 163.833C149.924 162.134 150.201 162.185 155.934 164.986C159.814 166.905 160.635 167.78 158.499 167.78V167.787Z" fill="#18333C"/>
<path d="M165.932 110.728C164.624 103.053 161.122 94.11 156.646 87.4718C153.201 82.2633 145.23 72.284 144.082 71.788C143.101 71.3503 142.825 71.4597 140.529 73.7649C137.47 76.836 133.263 81.9934 131.737 84.6195C129.935 87.7417 129.223 91.09 129.172 96.6851C129.172 101.179 129.339 102.28 130.647 106.664C133.27 115.491 139.991 127.885 145.339 133.918C147.199 135.946 152.497 139.95 154.299 140.665C154.626 140.775 155.825 140.942 156.864 140.942C158.666 141.001 158.993 140.775 161.013 138.696C163.469 136.121 164.893 133.538 165.932 129.424C166.862 125.915 166.862 116.374 165.932 110.72V110.728Z" fill="#41718B"/>
<path d="M143.501 69.7819C136.671 62.7643 127.552 55.9072 126.455 56.9504C126.179 57.2786 130.989 61.9984 137.543 67.7539L141.205 70.9928L139.294 73.0208C136.402 76.0919 133.83 79.659 132.849 82.0152C131.374 85.3635 132.355 85.3052 135.036 81.9058C136.344 80.2572 138.698 77.5727 140.224 75.873L143.007 72.9113L145.354 75.4864C149.176 79.7611 152.235 83.9338 155.948 89.9665C157.859 93.0887 159.77 96.1087 160.156 96.6558C160.541 97.203 161.137 97.6406 161.463 97.6406C164.959 97.6406 153.703 80.1988 143.494 69.7819H143.501Z" fill="#18333C"/>
<path d="M156.719 139.323C153.274 139.265 148.849 135.814 144.046 129.286C138.531 121.772 134.433 113.492 130.611 101.923C129.354 98.1368 128.155 95.0146 127.937 95.0146C127.392 95.0146 127.552 97.8085 128.322 101.485C131.214 115.797 142.36 135.048 150.993 140.643C152.962 141.847 153.449 142.015 155.694 141.847C157.06 141.738 158.426 141.46 158.695 141.191C159.516 140.425 158.368 139.323 156.726 139.323H156.719Z" fill="#18333C"/>
<path d="M160.489 60.0869C161.31 60.2547 163.272 60.6924 164.856 61.0206C166.382 61.4072 168.954 61.6261 170.538 61.6261C173.162 61.5677 173.38 61.4583 173.489 60.5319C173.707 59.1094 172.944 58.3361 170.429 57.6286C167.537 56.7532 164.856 55.1629 164.856 54.3386C164.856 53.2444 163.926 52.5806 162.618 52.5806C160.489 52.5806 158.302 56.3082 158.796 59C158.905 59.496 159.508 59.8753 160.489 60.0942V60.0869Z" fill="#B3815C"/>
<path d="M169.994 63.0488C169.173 63.0488 167.48 62.7716 166.172 62.4433C162.132 61.3491 160.817 61.5096 159.073 63.4281C155.738 67.1557 148.915 85.5313 146.233 98.0345C144.976 104.009 144.104 112.785 144.431 116.461C145.303 125.784 151.807 135.325 159.015 137.9C161.093 138.615 161.311 138.666 163.055 138.068C164.145 137.682 164.806 136.865 166.332 134.012C170.103 127.046 171.411 122.166 172.508 111.42C174.368 92.1185 174.804 74.0201 173.438 68.3739C172.457 64.0992 171.796 63.1071 169.994 63.0561V63.0488Z" fill="#41718B"/>
<path d="M191.625 31.185C190.15 30.8568 183.923 31.2944 179.113 32.1187C171.352 33.4902 168.954 35.9558 166.382 45.0086C165.074 49.67 165.016 51.2019 165.997 53.1277C166.818 54.718 167.581 55.4329 169.441 56.3082C170.153 56.6365 171.083 56.9137 171.461 56.9137C172.718 56.9648 174.411 55.214 176.708 51.3186C181.736 42.8202 182.717 42.0469 187.963 42.0469C191.625 42.0469 193.042 41.0621 193.696 38.3193C194.677 33.9862 194.023 31.8488 191.618 31.1923L191.625 31.185Z" fill="#EBCBA3"/>
<path d="M159.145 65.2664C158.215 67.0755 150.68 90.7105 149.859 94.5476C149.365 96.6339 148.878 100.631 148.711 103.542C148.493 108.59 148.493 108.86 149.474 110.071C150.295 111.114 150.673 111.275 151.93 111.056C152.751 110.946 153.79 110.56 154.117 110.29C155.207 109.414 160.562 97.9542 162.095 93.2345C164.283 86.6546 165.649 80.6729 166.085 75.4645C166.303 72.831 166.63 69.5411 166.739 68.1697C167.015 65.7551 166.957 65.5946 165.7 64.3326C163.68 62.3047 160.402 62.8007 159.145 65.2664Z" fill="#6A92AD"/>
<path d="M187.629 29.5364C180.908 29.5948 175.225 30.7984 171.294 33.0452C168.998 34.3583 167.472 37.3783 165.118 45.2202L163.534 50.4287L161.674 51.0341C158.557 52.0773 156.101 57.0669 157.198 60.0286C157.583 61.0134 157.416 61.6772 155.723 64.6316C154.633 66.4991 153.754 68.1988 153.754 68.4176C153.754 68.6364 152.715 71.3209 151.407 74.392C148.842 80.4759 145.891 89.2515 145.012 93.4752C144.685 95.1748 143.922 96.7651 142.825 98.3043C139.657 102.579 138.124 106.037 138.836 107.24C139.163 107.736 139.548 107.408 143.261 102.798C143.37 102.63 143.319 104.447 143.094 106.854C142.709 111.566 142.985 114.477 143.857 114.2C144.133 114.09 144.402 113.434 144.46 112.719C144.787 109.37 146.48 99.1213 147.461 95.0071C150.026 83.9263 156.58 68.1331 160.409 63.6906L161.826 62.042L163.846 62.9757C164.994 63.4717 167.073 63.9605 168.49 64.1283C170.401 64.3471 171.055 64.566 171.113 65.1131C171.113 65.4997 171.498 68.5708 171.934 71.9702C172.915 80.3081 172.973 93.6867 171.934 102.025C170.074 117.708 168.272 125.222 164.776 132.298L163.258 135.347C162.146 137.579 159.981 139.192 157.496 139.345C156.943 139.381 156.369 139.345 155.766 139.221C152.228 138.484 154.778 140.03 155.592 141.015C156.355 141.891 160.293 141.402 162.858 140.14C164.66 139.206 165.096 138.659 166.738 135.42C171.105 126.645 173.024 118.97 174.935 101.368C176.083 91.2211 175.756 75.209 174.223 65.9957C173.729 63.2529 173.787 62.983 174.659 61.8304C175.313 61.0061 175.589 60.1307 175.531 59.0365C175.472 57.8329 175.807 56.7897 176.788 55.2505C177.551 54.098 178.866 51.574 179.789 49.7138C182.136 44.8336 182.739 44.2865 186.125 43.8999C190.768 43.4622 193.551 42.7473 194.372 41.923C194.866 41.4269 195.302 39.8367 195.629 37.0938C196.123 33.2568 196.123 32.8702 195.353 31.827C193.936 29.9595 192.403 29.4708 187.593 29.5218L187.629 29.5364ZM161.521 58.7666C161.027 59.1532 160.431 59.4815 160.264 59.4815C159.065 59.4815 159.443 56.2499 160.809 54.4919C161.79 53.2299 163.701 52.96 164.086 53.9448C164.413 54.7691 162.778 57.9496 161.521 58.7739V58.7666ZM171.57 61.0134C170.372 61.8377 170.095 61.8377 165.888 60.7362L164.246 60.2985L165.394 58.5988L166.542 56.8991L168.344 57.7235C169.325 58.1611 170.691 58.6572 171.345 58.8177C172.82 59.0949 172.929 60.0797 171.563 61.0134H171.57ZM192.875 36.3935C192.708 38.3704 192.33 39.7418 191.945 40.0117C191.56 40.34 189.758 40.6683 187.905 40.836C181.242 41.4415 180.203 42.1491 177.144 48.4591C176.272 50.2682 174.848 52.7338 174.026 53.8864C173.154 55.039 172.166 55.9727 171.73 55.9727C170.204 55.9144 167.196 53.9448 166.593 52.515C166.099 51.253 166.157 50.7059 167.465 46.65C168.286 44.1844 169.543 40.836 170.248 39.2458C171.396 36.7802 171.89 36.1236 173.416 35.3504C177.783 33.1036 188.167 31.6227 191.495 32.717L193.188 33.2641L192.861 36.3862L192.875 36.3935Z" fill="#18333C"/>
<path d="M54.8967 42.3679C55.9867 42.4773 56.0957 42.6451 55.8268 43.6809C54.6787 48.1818 54.7877 54.5429 56.1029 58.7082C57.796 64.0844 63.42 71.3792 67.7362 73.7354C70.3012 75.1068 76.6374 77.0254 80.4667 77.5214C88.772 78.5646 94.7231 77.5798 101.495 73.9543C106.574 71.2114 107.446 70.5549 110.128 67.2066C113.79 62.6036 115.534 57.169 115.701 50.1514C115.759 46.5843 115.977 45.1618 116.9 42.6961C117.83 40.2816 118.048 38.8007 118.099 36.0068C118.099 32.6585 117.99 32.3886 116.9 31.5133C115.752 30.5795 114.495 30.6379 113.346 31.681C113.02 32.0093 112.634 33.3297 112.475 34.6938C112.148 36.9406 111.544 38.6403 111.544 37.2178C111.544 35.4597 106.08 28.7194 103.239 26.9613C102.367 26.4653 100.616 25.2033 99.3081 24.1091C94.011 19.8343 92.209 19.5571 83.1915 21.3662C79.5293 22.1322 75.3803 23.1243 73.9634 23.613C72.5465 24.0507 70.6863 24.4884 69.8652 24.4884C68.0632 24.4884 64.837 26.5163 62.8169 29.0403C61.509 30.6306 60.9059 30.9589 58.7769 31.4549C55.2818 32.2208 52.7168 33.1546 52.0556 33.9205C51.2927 34.8543 51.8376 39.6761 52.8767 41.1059C53.3127 41.7114 54.2428 42.3095 54.8967 42.3679Z" fill="#EACBA4"/>
<path d="M72.6847 59.8899C74.2106 60.6048 75.2497 60.7142 78.9119 60.5465C85.1391 60.3276 88.8013 58.6279 86.0692 57.1982C85.575 56.921 83.2862 56.4833 80.9319 56.2644C75.5258 55.7684 73.5567 55.0024 71.2097 52.5879C69.0806 50.4505 67.6056 50.0639 66.8426 51.4936C65.7527 53.5799 68.9208 58.1319 72.6847 59.8826V59.8899Z" fill="#F3F3F3"/>
<path d="M55.2017 31.703C58.2027 31.1559 60.339 30.1127 65.578 26.655C69.4581 24.0799 70.8242 23.4161 74.6463 22.3803C79.2313 21.1766 89.0698 19.4769 91.7438 19.4769C95.0208 19.4769 101.306 24.1966 104.852 29.2957C106.051 31.1048 107.693 33.0817 108.405 33.6799C109.168 34.2853 110.098 34.8324 110.592 34.8324C111.849 34.8324 112.692 32.7315 114.008 30.0981C115.483 27.1364 115.65 23.8027 114.887 21.607C114.284 19.6885 112.394 17.1718 110.643 16.4058C109.713 16.0776 109.277 15.421 108.95 14.0496C108.238 11.5256 105.397 8.3451 102.556 7.03204C96.8229 4.2892 80.5973 1.05762 72.6771 1.05762C69.182 1.05762 68.4699 1.16704 67.7578 1.93299C66.3409 3.30441 66.5589 5.5512 68.1938 6.92262C68.9568 7.52808 69.8869 8.07519 70.272 8.07519C70.8751 8.13355 70.8169 8.18461 70.163 8.46182C69.6689 8.68066 66.7188 8.95786 63.6597 9.11835C55.1364 9.55603 50.9873 11.3651 50.9873 14.7134C50.9873 16.3621 52.7894 18.1712 54.4315 18.1712C55.0346 18.1712 55.6886 18.5578 55.9574 19.0465C56.5605 20.1991 55.5723 21.0745 51.0382 23.4307C47.4341 25.2982 46.3369 26.4507 46.3369 28.3109C46.3369 30.7255 50.98 32.5346 55.1872 31.7103L55.2017 31.703Z" fill="url(#paint0_linear_18_1480)"/>
<path d="M74.0512 44.7534C76.8923 43.5498 77.8732 40.2525 75.9113 38.3924C75.0394 37.5681 74.3854 37.4586 70.3381 37.4076C63.9438 37.2982 61.3788 37.6848 60.3397 39.1073C59.8456 39.7127 59.4678 40.5881 59.4678 41.0841C59.4678 42.3461 59.773 44.7388 60.9719 44.9577C63.4279 45.4537 72.6342 45.3078 74.0512 44.7607V44.7534Z" fill="#F3F3F3"/>
<path d="M94.1495 22.4314C93.1685 21.3372 92.7834 21.2278 90.0513 21.2278C84.1003 21.2278 74.3707 23.2047 69.6186 25.3931C65.5786 27.2022 61.4804 31.8125 62.1925 33.731C62.5776 34.6064 62.8465 34.5553 65.1426 33.0745C67.7657 31.2654 72.2999 29.894 80.2201 28.4715C95.8425 25.6776 96.7726 25.2326 94.1495 22.4387V22.4314Z" fill="#CEB38E"/>
<path d="M90.4365 44.3668C91.6355 45.1911 92.7181 44.3668 95.5084 44.3668C102.775 44.3668 105.354 44.0386 105.354 40.5298C105.354 39.2167 105.078 38.6113 104.206 37.8964C103.167 37.1304 102.455 37.021 98.1969 37.021C90.1095 37.021 88.5836 37.7359 88.8016 41.4052C88.9106 43.0538 89.1867 43.4915 90.4438 44.3668H90.4365Z" fill="#F3F3F3"/>
<path d="M110.106 66.2511C112.453 62.7423 114.749 56.7606 115.185 52.9236C115.57 49.196 114.095 46.1248 113.434 49.247C112.889 51.6032 108.733 58.2925 106.059 61.0354C104.584 62.5746 102.019 64.7119 100.435 65.8062C97.6516 67.6736 92.3473 70.1393 91.9694 69.811C91.8604 69.7016 92.0276 68.9867 92.2964 68.1624C92.6815 67.0682 92.6234 66.6305 92.1874 66.1344C91.4753 65.4779 91.5843 65.4195 86.6142 68.9283C82.5742 71.7806 80.5541 71.4523 76.1799 67.2286C72.6848 63.8293 71.0426 63.7709 72.1398 67.1192C72.4159 67.9435 72.5758 68.7095 72.4668 68.8189C72.3578 68.9283 71.0499 68.4323 69.5748 67.6663C64.9317 65.3612 60.3467 59.4378 58.1595 53.0257C57.2295 50.3412 56.1904 49.568 55.2094 50.83C54.7153 51.4865 54.6063 52.588 54.7153 55.433C54.9333 60.036 56.5174 63.7126 60.1796 68.2645C63.1297 71.8827 65.0988 73.3125 69.9599 75.3404C74.3851 77.1495 76.6812 77.755 80.4451 78.2438C86.8903 79.0097 93.3936 77.8571 99.2938 74.8954C102.898 73.0863 108.471 68.6438 110.113 66.2293L110.106 66.2511Z" fill="#CEB38E"/>
<path d="M67.2132 72.2837C64.3212 69.271 62.897 66.8564 60.877 61.7574C58.4719 55.783 58.4719 55.6735 58.203 48.4882C57.9269 42.0688 57.8179 41.6895 57.0041 41.6895C55.747 41.6895 55.0349 44.87 54.7661 51.5593C54.7443 52.0334 54.737 52.5003 54.7225 52.9453C54.6789 52.9672 54.628 52.9891 54.5771 53.0037C54.6062 53.4049 54.6353 53.7988 54.6571 54.2C54.6716 54.1854 54.6861 54.1781 54.7079 54.1635C54.7079 54.4553 54.7079 54.7471 54.7152 55.0243C54.7806 55.9945 54.846 56.9574 54.9187 57.9276C54.9187 58.0006 54.9187 58.0662 54.9041 58.1319C55.2529 61.3708 56.074 63.7853 57.4909 65.9738C59.6199 69.1543 62.352 71.8388 65.135 73.429C66.4429 74.195 67.9761 74.8004 68.5792 74.8004C69.5093 74.8004 69.4003 74.5816 67.2132 72.2765V72.2837Z" fill="#E75196"/>
<path d="M65.6803 37.6773C62.2361 37.4001 62.0762 37.4585 60.9282 38.5527C59.9472 39.5958 59.8382 39.9752 60.1071 41.5654C60.2742 42.6086 59.9182 44.549 60.2451 44.9356C61.0662 45.811 61.742 45.0742 62.6721 44.6876C63.108 44.5198 63.326 43.8633 63.326 42.7691C63.326 41.1204 63.3842 41.1204 65.6222 40.5733C68.2962 39.9679 70.1563 38.9247 69.6114 38.3776C69.3934 38.1588 67.6422 37.8305 65.6803 37.6627V37.6773Z" fill="#E75196"/>
<path d="M92.1729 41.5218C92.1729 40.3181 92.34 40.2087 94.1421 39.9315C96.2711 39.6032 96.5981 39.1656 95.2901 38.3923C94.1421 37.7868 90.32 37.8452 89.6661 38.5017C89.3899 38.7789 89.1211 40.0409 89.1211 41.2446C89.1211 42.4482 89.3972 43.7102 89.6661 44.0385C90.9231 45.2421 92.1802 43.9801 92.1802 41.5145L92.1729 41.5218Z" fill="#E75196"/>
<path d="M87.9658 55.0535C83.1555 55.0535 77.7494 54.2876 74.9083 53.2444C73.6512 52.7484 71.5222 51.4864 70.207 50.3922C68.8991 49.349 67.5331 48.4736 67.148 48.4736C66.058 48.4736 65.1279 50.2827 65.1279 52.369C65.1279 56.3155 68.405 60.5392 72.554 61.8596C73.862 62.2972 75.9983 62.465 79.1082 62.3556C83.1483 62.2462 84.0783 62.0784 87.1374 60.8237C88.9976 59.9994 91.1266 58.8468 91.8387 58.2486C94.3528 56.1113 93.0958 55.0681 87.9585 55.0681L87.9658 55.0535ZM84.7977 58.8395C80.4815 60.4881 74.5305 60.4298 71.5804 58.6717C69.5022 57.4681 67.7002 54.9441 67.4313 52.8067L67.1552 50.8882L69.4514 52.9745C72.2925 55.5496 75.6785 56.7021 82.2908 57.417L87.2101 57.9641L84.805 58.8395H84.7977Z" fill="#18333C"/>
<path d="M116.638 25.2763C116.696 21.0526 115.926 19.5207 112.54 17.1062C110.353 15.5742 109.917 15.0198 109.263 12.9919C107.461 7.45516 101.67 4.0558 90.9084 2.18833C84.3034 1.09412 70.8681 -0.277301 69.2841 0.0509635C65.571 0.707493 64.1468 3.66917 66.007 6.68921C66.6101 7.67401 66.7191 8.11169 66.334 8.11169C61.1459 8.27947 54.8605 9.04542 53.1675 9.81138C48.8005 11.7299 48.7424 16.3402 53.1094 18.8569C54.1993 19.5134 55.0785 20.2283 55.0785 20.4472C55.0785 20.8848 52.6225 22.2052 49.2873 23.5183C46.0102 24.7803 45.0293 25.8234 45.0293 28.1213C45.0293 29.7115 45.3054 30.2586 46.5552 31.5206C47.3763 32.396 48.7424 33.1693 49.5053 33.3297C50.8714 33.6069 50.9222 33.7164 50.9804 35.6859C51.0385 36.7802 51.5835 39.1947 52.2374 41.0038C53.3274 44.0749 53.3855 44.8409 53.4945 52.4639L53.5308 57.7891C53.5453 59.6274 53.9668 61.4365 54.7806 63.0851L55.4055 64.3617C56.8224 67.1556 57.9196 68.6948 59.9905 70.6717C64.8516 75.2747 70.0398 78.2364 75.286 79.389C77.197 79.8266 79.871 79.9944 84.3543 79.885C95.5007 79.5567 102.985 76.8723 108.609 71.1094C113.797 65.8426 116.253 60.0286 116.253 53.1205C116.253 49.5533 116.42 48.7874 117.779 45.5558C120.293 39.6908 120.184 34.5844 117.452 30.0909C116.74 28.9383 116.58 27.9535 116.631 25.2617L116.638 25.2763ZM47.6451 27.2532C47.8631 26.9249 49.5053 26.1006 51.2492 25.4951C53.0004 24.8386 55.6744 23.3578 57.2584 22.1468C59.8234 20.17 68.5647 16.2235 72.2269 15.3992C74.305 14.9031 73.0988 14.1372 70.81 14.4144C67.8599 14.801 60.5936 17.0478 58.7916 18.142C57.8615 18.6891 57.2075 18.8569 57.0404 18.5797C56.8733 18.3609 55.9505 17.646 54.9114 16.9894C52.8333 15.6764 52.4554 15.2314 52.4554 13.9183C52.4554 12.2187 54.2066 11.5621 59.9905 11.1244C62.9406 10.9056 66.2177 10.519 67.3076 10.2491C68.3976 9.97186 71.7837 9.70195 74.8427 9.70195C78.2288 9.6436 80.416 9.48311 80.416 9.20591C80.416 8.6588 78.8901 8.22111 73.9127 7.44787C69.5456 6.79134 68.0125 6.07645 67.5184 4.54455C67.0824 3.23149 68.2813 2.40718 70.6356 2.40718C73.6365 2.40718 89.4261 4.54455 93.8004 5.47828C101.067 7.1269 105.434 10.0302 106.8 14.0351C107.454 15.9536 107.454 16.1724 106.633 17.7116C106.197 18.587 105.325 19.9584 104.722 20.8338C103.523 22.3657 103.247 23.4672 104.01 23.4672C104.504 23.4672 107.505 20.5639 108.486 19.1341L109.139 18.1493L110.942 19.2435C113.397 20.8338 114.168 22.2052 114.168 24.948C114.168 26.7571 113.841 27.9097 112.417 30.5942L110.665 33.9425L107.991 30.3754C105.477 26.976 95.8132 17.325 92.8049 15.1876C91.0538 13.984 87.9438 12.8825 87.6168 13.3202C87.5078 13.539 88.3798 14.5238 89.586 15.5159C90.7849 16.559 91.7731 17.5438 91.7731 17.7116C91.7731 18.3171 85.8729 19.849 79.2606 21.0599C70.6864 22.5918 68.6083 23.3067 62.5482 26.9833C56.757 30.441 54.737 31.3164 52.4409 31.3674C49.7088 31.3674 46.4898 28.6246 47.6306 27.2532H47.6451ZM88.2853 36.9042C88.0673 37.123 87.8493 38.1078 87.7912 39.151C87.6241 40.8507 87.5732 40.9601 87.0791 40.1358C86.4252 39.0926 83.4169 37.5023 82.0509 37.5023C81.5059 37.5023 80.2997 37.889 79.4278 38.3267L77.7856 39.151V38.1078C77.7856 36.2404 76.5285 36.0215 68.0633 36.3498C63.8053 36.5176 59.976 36.7875 59.5981 36.8969C58.886 37.2252 61.3493 31.8489 63.0423 29.4416C64.6845 27.1365 69.4367 25.4951 80.1399 23.6277C83.5259 23.0222 87.7331 22.1468 89.5351 21.7092L92.7032 20.8338L94.8322 21.9864C98.3854 23.9049 102.534 27.6909 105.535 31.6957C108.318 35.4233 108.318 35.5328 107.555 36.3571C106.901 36.9625 106.516 37.072 105.913 36.6853C104.932 36.1893 88.7576 36.3571 88.2708 36.9042H88.2853ZM104.075 38.2756L103.908 40.6318L103.799 42.988L97.4626 43.0464C93.9675 43.1047 90.7994 43.0464 90.3635 42.937C89.7604 42.7692 89.6005 42.2221 89.6005 40.7412V38.8227H92.1655C93.5316 38.8227 96.8086 38.7133 99.3736 38.5455L104.075 38.2683V38.2756ZM75.3441 38.6039L75.2351 41.0184C75.177 42.3315 75.068 43.433 75.0171 43.4841C75.0171 43.4841 71.7401 43.6518 67.8599 43.8123L60.7607 44.1406V38.9321L66.5519 38.6039C69.72 38.4361 72.9971 38.385 73.8691 38.4361L75.3441 38.6039ZM54.5844 40.5807C54.2574 40.5807 52.8914 35.7516 52.8914 34.4969C52.8914 33.782 53.1675 33.5632 53.9813 33.5632C54.5844 33.5632 55.7834 33.286 56.6553 32.9066C57.8034 32.4106 58.1304 32.4106 57.9632 32.7972C57.8542 33.1255 57.0913 34.9929 56.2702 36.9625C55.5072 38.9394 54.7443 40.5807 54.5772 40.5807H54.5844ZM106.64 69.1544C102.382 73.3781 96.9176 75.7343 88.0673 76.9963C78.0181 78.4188 69.7709 75.8437 62.3375 69.045C60.3175 67.2359 59.1113 65.5872 57.8615 63.1216C56.2193 59.8827 56.1685 59.5545 56.0013 54.6743C55.8342 49.3564 56.7134 42.7181 57.8615 40.0336C58.4646 38.6622 58.5155 38.6622 58.5155 42.0105C58.5736 44.8628 58.6826 45.4682 59.3874 45.8476C59.8815 46.1248 63.4275 46.2853 67.8526 46.2853C76.4849 46.2853 77.3569 46.0081 77.3569 43.433C77.3569 41.7333 79.0499 40.2525 81.3969 39.8659C82.5958 39.6981 83.2571 39.9753 85.328 41.5145C86.694 42.5576 87.784 43.7102 87.8421 43.9801C87.8421 45.0743 90.1382 45.4026 97.6225 45.4026C102.869 45.4026 105.325 45.2348 105.652 44.8555C105.979 44.5783 106.197 43.433 106.197 42.3315C106.197 40.5734 106.364 40.1941 107.781 39.0926C109.256 37.889 109.423 37.889 109.91 38.5455C110.237 38.9321 111.109 41.23 111.879 43.5351C115.265 53.7332 113.521 62.1806 106.633 69.1471L106.64 69.1544ZM117.125 39.7564C116.907 40.909 116.471 42.4409 116.086 43.2652C115.541 44.5783 115.432 44.6366 115.156 43.8707C112.533 37.1814 112.424 36.306 113.79 33.3443C114.393 32.0313 115.098 30.9298 115.316 30.9298C115.752 30.9298 116.9 34.1103 117.285 36.4154C117.394 37.1303 117.343 38.6622 117.118 39.7637L117.125 39.7564Z" fill="#18333C"/>
</g>
<defs>
<linearGradient id="paint0_linear_18_1480" x1="46.3514" y1="17.9377" x2="115.337" y2="17.9377" gradientUnits="userSpaceOnUse">
<stop offset="0.11" stop-color="#D89568"/>
<stop offset="1" stop-color="#C96C40"/>
</linearGradient>
<clipPath id="clip0_18_1480">
<rect width="196" height="320" fill="white"/>
</clipPath>
</defs>
</svg>
