<svg width="320" height="185" viewBox="0 0 320 185" fill="none" xmlns="http://www.w3.org/2000/svg">
<g filter="url(#filter0_d_18_1340)">
<path d="M206.714 35.1853L189.375 35.8894L172.841 44.9868L165.358 49.3215L147.214 44.6417C147.214 44.6417 147.38 39.5062 143.799 37.3527C140.217 35.1991 136.871 35.8341 134.803 37.2698C132.734 38.7194 131.666 39.313 132.832 44.2551C133.998 49.1973 136.372 56.8038 136.372 56.8038L145.881 57.9496L143.452 61.9392L137.01 63.0436L126.335 69.1591L110.939 80.9347L91.5452 83.2677C91.5452 83.2677 88.4633 75.8131 87.9357 75.9373C87.4082 76.0616 81.3277 75.8959 81.3277 75.8959L77.1074 79.2643L78.5234 87.8924L80.7724 93.6076C80.7724 93.6076 82.8686 95.2504 83.4378 95.3194C84.007 95.3884 92.1005 93.8285 92.1005 93.8285L95.3629 110.988L100.957 115.254L115.951 120.154L138.884 122.846C138.884 122.846 143.743 120.306 147.603 119.934C151.462 119.561 165.789 113.39 165.789 113.39L176.228 103.23L196.33 119.064C196.33 119.064 204.576 128.078 207.672 120.251C210.768 112.424 209.157 108.475 209.157 108.475C209.157 108.475 209.768 103.975 205.479 102.249C201.189 100.524 197.802 102.167 197.538 102.222C197.274 102.277 192.401 100.496 191.79 99.806C191.18 99.1158 187.404 95.1952 187.404 95.1952L208.769 70.2083L231.841 67.2679C231.841 67.2679 231.397 77.4697 241.906 73.9494C252.415 70.4292 242.35 50.6192 242.35 50.6192L236.381 48.8936L230.189 53.0488C230.189 53.0488 230.12 55.0643 229.898 55.299C229.676 55.5337 218.847 57.5768 218.847 57.5768C218.847 57.5768 220.874 51.6821 216.751 44.9039C212.628 38.1396 206.77 35.1991 206.77 35.1991L206.714 35.1853Z" fill="#00BBB6"/>
<path d="M237.478 59.4268C236.173 55.7271 233.549 53.6012 230.578 52.7453L236.353 48.8799L242.323 50.6055C242.323 50.6055 251.832 69.3111 242.698 73.5906C240.823 68.9246 239.157 64.1619 237.492 59.413L237.478 59.4268Z" fill="#F2F4F1"/>
<path d="M188.667 96.5343C184.877 95.4852 181.365 93.5939 178.977 89.6595C178.852 89.4524 178.713 89.2592 178.574 89.0659C182.781 81.4318 189.694 76.255 198.995 74.3361C203.188 73.4664 205.465 70.9125 206.214 67.8616C206.547 68.2757 206.867 68.6623 207.172 68.9245C207.686 69.3801 208.213 69.7943 208.741 70.1808H208.727L187.362 95.1677C187.362 95.1677 187.931 95.7613 188.653 96.5205L188.667 96.5343Z" fill="#F2F4F1"/>
<path d="M113.327 79.0988L126.307 69.1731L136.983 63.0575L143.424 61.9531L145.146 59.1507C151.837 56.9833 158.57 53.5873 163.929 48.9765L165.345 49.3354L172.827 45.0007L189.361 35.9033L206.701 35.1992C206.701 35.1992 212.559 38.1397 216.682 44.9041C217.89 46.892 218.556 48.797 218.917 50.5088C218.167 49.5701 217.404 48.6314 216.751 48.0102C214.364 45.7462 211.143 43.9377 207.964 43.0404C200.051 40.7764 192.443 43.496 185.113 46.326C167.33 53.2008 150.227 61.9255 131.832 67.1299C127.584 68.331 125.335 71.2714 124.683 74.557C123.656 74.8055 122.601 75.1644 121.518 75.6476C118.825 76.8072 116.159 78.3257 113.549 80.0099C113.48 79.7062 113.41 79.4163 113.327 79.1264V79.0988Z" fill="#F2F4F1"/>
<path d="M117.783 99.1435C119.06 99.1297 129.458 99.5301 136.233 99.7647C138.551 99.8614 138.871 100.137 139.287 102.07C139.551 103.285 139.454 104.831 138.996 105.439C138.177 106.805 137.066 106.778 130.541 105.728C128.417 105.342 124.377 105.19 121.601 105.356C118.223 105.512 116.302 104.905 115.84 103.533C115.034 100.993 115.909 99.1159 117.783 99.1297V99.1435Z" fill="#18333C"/>
<path d="M76.6217 86.9399C78.1766 93.304 78.5653 94.3255 80.1617 95.4161C82.5773 97.1003 86.1867 97.6801 88.5329 96.6723L90.5597 95.8164L92.2673 104.859L93.0586 108.862C93.6833 112.037 95.7379 114.743 98.6393 116.206L99.2224 116.496C107.538 120.651 108.898 121.038 117.311 122.115C121.767 122.598 128.542 123.606 132.415 124.213C134.428 124.572 136.358 124.834 137.802 124.959C139.134 125.083 140.467 124.862 141.703 124.365C143.507 123.619 146.867 122.322 150.463 121.024C161.68 116.924 165.789 114.688 171.8 109.414L176.395 105.466L180.115 108.476C182.184 110.146 185.974 113.073 188.57 114.881C191.194 116.772 194.04 119.299 194.914 120.555C197.927 125 202.036 125.897 207.103 122.943C209.685 121.452 210.227 120.072 210.699 112.769C211.198 106.046 210.185 103.299 206.77 101.325C205.701 100.703 204.132 99.7646 203.146 99.1296C200.578 97.473 198.551 97.5697 197.829 99.3367C197.58 100.151 196.969 100.883 196.649 100.952C195.997 101.09 189.292 95.3195 189.125 94.5188C189.07 94.2703 192.762 90.1012 197.371 85.3799C201.953 80.5896 206.728 75.4956 207.964 74.129L210.129 71.5474L219.917 70.305L229.62 69.0764L230.148 71.506C231.189 76.2825 238.339 78.229 243.836 75.2748C245.196 74.4741 246.599 73.4939 246.835 73.0246C247.959 70.7468 247.251 54.1257 245.891 51.3647C245.53 50.5088 244.072 49.6391 242.531 49.2111C240.643 48.7694 239.421 47.8444 238.422 46.3673C236.853 43.8272 235.021 44.0481 234.993 46.6848C235.007 47.9549 234.382 48.5899 232.841 49.3492C231.592 49.8738 230.106 51.2957 229.357 52.5519C228.052 54.7745 227.829 54.9125 224.248 55.3405C221.166 55.658 220.541 55.5476 220.68 54.5812C220.805 53.96 220.708 51.9445 220.541 50.0394C220.222 46.9747 219.764 46.0498 216.279 41.7979C211.851 36.3036 209.449 34.2742 206.714 33.8463C205.645 33.653 201.217 33.6668 196.913 33.8325C188.028 34.1224 189.222 33.7082 174.479 42.3639L165.511 47.7616L157.015 45.5114L148.519 43.2612L147.492 40.0861C146.742 37.7945 146.006 36.7591 144.674 36.1103C143.716 35.6409 142.091 34.7988 141.036 34.2604C139.107 33.2389 137.677 33.2803 137.233 34.3985C137.08 34.854 135.983 35.3372 134.761 35.5995C133.623 35.848 132.041 36.7729 131.374 37.684C130.166 39.2164 130.139 39.4787 132.124 47.8582C133.221 52.5381 134.428 56.9419 134.817 57.5355C135.511 58.7503 139.62 59.6476 141.98 59.1368C142.952 58.9298 143.521 59.1368 143.355 59.6062C143.202 60.0618 142.244 60.3517 141.134 60.3379C137.316 60.3931 131.444 63.5958 121.295 71.4508L111.217 79.2092L104.414 80.0789C100.597 80.562 96.3903 81.2109 95.0854 81.487C93.2113 81.8873 92.5727 81.6802 92.3783 80.7967C92.2534 80.2307 91.5731 78.6846 90.879 77.3869C89.9628 75.5509 89.1576 74.9573 87.214 74.6121C85.8674 74.3084 84.3265 73.4525 83.799 72.638C82.6606 70.9262 81.3834 70.9538 81.3556 72.7347C81.2723 73.5215 80.3006 74.5707 79.0095 75.2748C74.8864 77.5112 74.6504 78.7536 76.6078 86.9813L76.6217 86.9399ZM240.046 53.5321C237.769 55.2025 235.881 55.5338 233.952 54.4984C232.036 53.5459 232.05 52.0273 234.007 51.5994C234.91 51.4061 235.409 51.8064 235.604 52.69C236.048 54.7193 238.061 54.6226 239.144 52.5243C239.852 51.1024 240.143 50.8677 240.81 51.5718C241.434 52.1102 241.212 52.6762 240.032 53.5183L240.046 53.5321ZM233.063 64.9487C232.466 61.0143 232.105 57.784 232.23 57.5907C232.3 57.4941 233.438 57.6735 234.854 57.8806C236.978 58.2671 237.797 58.1015 240.49 56.7624L243.655 55.2439L243.808 57.922C244.28 66.7986 243.905 70.9538 242.448 72.1134C240.851 73.3835 236.936 73.7976 235.173 72.7347C234.118 72.1963 233.854 70.9814 233.063 64.9625V64.9487ZM205.326 108.006C202.73 109.414 201.8 109.442 199.273 108.365C196.205 107.164 195.567 106.198 197.233 105.245C198.163 104.79 199.107 104.845 200.287 105.604C202.522 106.902 203.424 106.708 203.952 104.817C204.271 103.561 204.59 103.409 205.534 103.878C207.186 104.79 207.089 107.109 205.312 107.992L205.326 108.006ZM195.511 110.698L197.996 111.526C199.648 112.106 201.619 112.106 203.896 111.623C205.77 111.223 207.367 111.14 207.422 111.375C207.478 111.609 207.353 113.418 207.2 115.488C206.867 118.277 206.423 119.381 205.312 120.127C202.841 121.673 201.828 121.714 199.815 120.293C198.315 119.257 197.649 118.125 196.677 114.867L195.525 110.712L195.511 110.698ZM107.149 82.3567L101.485 86.8709C98.2645 89.3419 95.5574 91.3575 95.4047 91.4817C95.2381 91.5231 94.7106 89.8527 94.2386 87.6577L93.3917 83.7648L95.7379 83.5991C97.0012 83.5025 100.152 83.1574 102.651 82.8813L107.135 82.3429L107.149 82.3567ZM139.995 41.2595C137.802 41.7289 136.177 41.7427 135.303 41.2595C133.901 40.2932 133.984 39.5063 135.747 38.6228C136.511 38.2086 137.052 38.3467 137.177 38.9127C137.288 39.3958 138.01 40.0033 138.912 40.2379C140.092 40.5831 140.564 40.3898 141.286 39.3959C142.064 38.2915 142.397 38.2224 143.202 38.816C144.535 39.879 143.813 40.4588 139.981 41.2871L139.995 41.2595ZM145.409 45.4424C146.103 49.4458 145.965 53.8772 145.076 54.9125C144.118 55.9617 141.772 56.2102 139.259 55.5614C138.079 55.2163 137.344 53.7667 135.525 48.1482C134.65 45.2905 134.692 45.1111 136.08 45.2353C136.872 45.3181 139.176 45.0006 141.3 44.5451C144.951 43.6754 145.048 43.7444 145.409 45.4424ZM161.374 49.9014C156.071 53.325 153.308 54.3465 151.226 53.7667C149.963 53.4492 149.755 52.897 149.602 50.2189C149.477 48.4657 149.407 46.9609 149.463 46.8505C149.519 46.7401 152.448 47.2232 155.932 48.0101C159.764 48.797 161.888 49.5286 161.374 49.9014ZM195.456 49.8876L184.128 62.9056L168.024 61.6908C159.181 60.9591 151.49 60.4897 151.004 60.5864C148.963 61.0281 150.102 59.5924 152.795 58.2533C162.082 53.5459 167.482 50.5364 173.369 46.6434C177.006 44.1723 180.393 42.0878 180.796 42.005C181.198 41.9221 183.447 40.8454 185.807 39.5753C189.819 37.2699 190.069 37.2285 197.135 36.8143C201.106 36.6487 204.91 36.5106 205.534 36.6211C206.506 36.7591 204.118 39.8928 195.456 49.8738V49.8876ZM216.043 45.8151L204.757 55.092C198.537 60.2412 191.263 66.3706 188.639 68.8003C186.016 71.2299 183.725 73.2454 183.642 73.2593C183.475 73.3007 183.683 72.6518 183.919 71.7545C185.224 67.1575 188.639 62.1049 198.107 50.7435C203.854 43.841 208.838 38.112 209.074 38.0568C209.31 38.0016 211.046 39.6719 212.795 41.8393L216.043 45.8013V45.8151ZM217.362 53.8358L217.279 56.224L211.434 57.5631C208.2 58.3362 205.659 58.8055 205.715 58.7089C205.784 58.6123 207.908 56.6244 210.393 54.3189C212.878 52.0135 215.488 49.501 216.196 48.8384C217.681 47.4165 217.64 47.2508 217.362 53.8358ZM203.66 66.0945C204.146 62.8504 206.451 61.2628 212.892 59.9651C216.154 59.2611 220.999 58.4742 223.762 58.2257L228.69 57.7564L228.912 60.752C229.023 62.4224 229.259 64.3137 229.412 65.0453C229.662 66.1773 229.343 66.3292 226.191 66.6743C224.262 66.8262 218.792 67.5026 214.058 68.0824C204.84 69.2144 203.258 68.9521 203.66 66.0807V66.0945ZM185.155 92.0063L183.1 90.4049C181.962 89.4662 180.463 88.845 179.727 89.0106C178.991 89.1763 177.408 90.1012 176.256 91.109L174.077 92.8484L175.895 88.6517C178.505 82.5914 179.421 80.9486 180.407 80.7415C180.893 80.6311 182.239 79.7613 183.281 78.6846C184.905 77.1522 199.967 63.6648 201.842 62.0773C202.133 61.8426 201.994 62.381 201.494 63.2507C200.148 65.6528 200.911 71.5889 202.605 72.3343C203.743 72.8589 203.216 73.563 198.579 78.5327C195.664 81.6112 191.402 85.9183 189.236 88.0719L185.141 91.9925L185.155 92.0063ZM174.715 100.082L175.59 97.4316C176.048 95.9821 177.172 94.1322 178.089 93.2487L179.796 91.7026L183.767 95.0848C185.974 96.9899 188.972 99.4747 190.513 100.676C192.679 102.415 193.165 103.078 192.637 103.782C192.249 104.375 192.249 105.894 192.443 107.219C193.415 112.092 193.762 114.481 193.512 114.536C193.345 114.577 190.208 112.272 186.446 109.442C182.698 106.681 178.477 103.354 177.117 102.208L174.701 100.096L174.715 100.082ZM166.122 109.207C166.025 109.138 167.163 106.529 168.621 103.423L171.411 97.832L172.036 100.745C172.55 103.52 172.508 103.699 169.44 106.474C167.829 108.089 166.302 109.262 166.122 109.221V109.207ZM159.875 100.8L156.918 97.7905L164.317 86.719C168.357 80.6035 171.647 75.3162 171.592 75.0815C171.522 74.764 171.147 74.5845 170.731 74.6673C169.912 74.8468 161.985 84.2479 157.084 90.7224L153.6 95.4575L149.824 94.9191C146.298 94.4083 128.001 93.3178 114.174 92.807C110.662 92.7103 107.76 92.3238 107.607 92.0063C107.524 91.6059 110.87 88.1685 114.979 84.3308C119.171 80.4654 122.142 77.2903 121.698 77.2074C120.726 77.0694 114.785 81.487 108.204 87.2988C105.497 89.7423 102.415 92.0201 101.402 92.4895C98.8337 93.6353 130.166 68.7036 133.887 66.6329C139.148 63.8029 143.313 63.3473 157.723 64.148C172.05 64.9763 182.003 65.7218 182.462 65.8736C182.642 65.915 180.587 70.1808 178.033 75.3024C175.395 80.4378 171.189 88.9692 168.607 94.3531C166.094 99.6404 163.706 103.961 163.443 103.934C163.082 103.837 161.513 102.484 159.861 100.8H159.875ZM94.4884 100.662L97.1816 99.3229C98.6393 98.5912 100.624 97.4868 101.541 97.0313C102.679 96.3686 104.498 96.1478 107.871 96.3548C110.467 96.5619 115.27 96.7138 118.686 96.7414C126.557 96.9208 146.048 97.9976 149.838 98.536C152.031 98.8259 153.78 99.8061 157.445 103.009L162.179 107.164L161.569 110.256C161.083 112.313 160.402 113.556 159.486 114.011C157.723 114.895 149.241 117.821 148.949 117.711C148.852 117.642 148.949 116.096 149.241 114.343C149.463 112.603 149.449 110.988 149.144 110.726C148.269 110.229 146.562 112.976 145.77 116.358C145.312 118.581 144.674 119.561 143.785 119.754C142.161 120.099 142.133 120.016 143.105 116.593C144.257 112.106 145.243 104.444 144.715 103.961C143.382 102.553 142.452 104.527 140.453 112.589L138.357 121.425L134.831 120.914C132.887 120.569 127.071 119.699 121.892 119.022C116.7 118.263 112.3 117.601 112.119 117.559C112.008 117.421 111.966 115.309 112.216 112.879C113.049 102.194 113.049 101.007 112.438 100.552C112.036 100.303 111.453 100.344 111.106 100.662C110.689 101.09 109.037 110.008 108.44 115.475C108.343 116.593 108.19 116.717 107.205 116.082C106.219 115.447 106.136 114.702 106.455 110.657C106.761 107.371 106.594 105.797 106.08 105.397C104.789 104.569 104.234 105.535 103.776 109.704C103.47 111.803 103.165 113.57 102.915 113.611C102.665 113.652 101.457 113.155 99.9998 112.369C97.612 111.181 97.3621 110.809 95.9461 105.866L94.4746 100.676L94.4884 100.662ZM79.9952 80.5482C78.8151 80.2031 78.6624 79.8994 79.0789 79.0573C79.7453 77.8149 81.3973 77.2074 81.6194 78.1738C81.6888 78.4913 82.0081 79.1954 82.3829 79.7061C83.0493 80.8381 82.0914 81.128 80.009 80.5482H79.9952ZM85.9924 79.9408C85.1733 80.1203 84.8679 79.8442 84.9651 79.1401C85.1456 77.9943 86.5616 77.4421 87.3251 78.2152C87.9915 78.9193 87.3806 79.6509 85.9924 79.9408ZM79.0373 83.6405C79.1067 83.5439 80.134 83.5715 81.3556 83.7372C82.6884 83.958 84.8957 83.5715 86.7143 82.9227L89.8795 81.8183L90.4348 84.4136C91.587 89.7561 89.6435 93.7319 85.7703 93.9666C84.507 94.0632 83.0215 93.8838 82.6051 93.5386C81.9248 93.1797 78.7457 84.3722 79.0095 83.6267L79.0373 83.6405Z" fill="#18333C"/>
<path d="M129.403 110.284C132.027 110.988 132.166 111.223 130.972 113.169C129.431 115.875 123.919 114.853 123.878 111.899C123.822 110.463 126.779 109.58 129.403 110.284Z" fill="#18333C"/>
<path d="M148.977 75.5924C147.395 75.3439 147.242 73.853 148.672 72.6105C150.838 70.7883 153.128 72.3344 151.573 74.6122C150.865 75.689 150.463 75.7857 148.977 75.5924Z" fill="#18333C"/>
<path d="M129.903 79.1677C125.475 81.128 125.225 81.1833 125.003 80.1341C124.725 78.8364 125.78 77.8425 129.931 75.7717C134.984 73.1626 138.496 72.4171 138.566 73.9219C138.566 75.1091 136.386 76.4206 129.903 79.1677Z" fill="#18333C"/>
<path d="M123.128 63.1541C119.685 58.419 110.065 59.3025 104.151 60.9591C102.665 61.3732 103.762 61.18 92.0037 66.4811C85.7566 69.2972 82.4526 70.733 77.9547 70.4707C76.3582 70.374 77.1495 70.2222 72.2073 69.3111C61.4207 67.3093 58.0056 68.1514 56.77 68.4966C55.2985 68.9245 56.2564 68.8555 51.6335 70.8296C44.6229 73.8253 42.3184 74.0323 41.5687 76.0893C40.9024 77.9115 41.777 80.3412 43.2346 81.2523C44.5812 82.0944 46.2749 81.556 47.205 81.3213C52.9801 79.8994 55.1874 84.3446 60.0463 83.5577C61.6566 83.2954 61.143 82.9365 65.7381 80.5344C74.9561 75.7303 76.8302 77.2903 82.0361 73.6872C82.8413 73.1212 84.1046 72.1825 85.9787 71.9616C88.1027 71.7131 89.5049 72.5828 91.5178 73.3283C94.9468 74.5845 97.8482 74.6259 100.666 74.6536C103.429 74.6812 105.747 74.1014 110.259 72.9417C119.033 70.6777 123.642 69.4491 124.197 66.5915C124.503 65.0453 123.489 63.6511 123.114 63.1403L123.128 63.1541Z" fill="#A0E4DA"/>
<path d="M40.097 77.1109C39.8471 78.2567 40.097 79.9961 40.6245 81.0314C41.4575 82.6466 42.1377 82.8675 46.0109 83.116C48.4404 83.2678 52.7578 83.6682 55.7148 84.1099L59.2965 84.5793C60.3654 84.7174 61.4621 84.5379 62.4339 84.0685L70.8328 80.0099C77.8712 76.5863 81.1336 75.2886 82.2442 75.4681C83.0632 75.6061 84.4376 75.1782 85.1734 74.6122C86.2423 73.7839 87.6167 73.7287 90.7541 74.3637C102.596 76.7795 103.457 76.8072 107.316 75.9374C109.537 75.3576 114.618 73.3973 118.7 71.5061C124.78 68.7589 126.182 67.8616 126.501 66.8538C127.085 65.2525 125.988 61.5251 124.738 60.2137C124.211 59.7443 122.004 59.2887 119.852 59.2749C117.686 59.2749 112.841 59.1369 109.051 59.0403L104.345 58.847C102.915 58.7918 101.499 59.1231 100.264 59.8271L93.1003 63.872C87.0336 67.3508 83.8129 68.9108 83.2854 68.6209C82.8689 68.3724 82.2025 68.3309 81.7583 68.5656C81.314 68.8003 78.3293 68.6485 74.9698 68.1239C71.7213 67.6407 66.6542 67.0747 63.7388 66.702L59.8656 66.3154C58.9078 66.2188 57.9499 66.3983 57.0891 66.8124L49.4399 70.5673C43.4705 73.494 40.3562 75.6751 40.097 77.1109ZM93.8083 66.8262C100.125 62.5605 99.861 62.6019 113.507 62.878C119.172 62.9608 122.198 63.3612 122.531 64.0238C123.794 66.4535 121.06 68.041 119.574 65.7218C118.283 63.9548 117.353 64.3413 117.492 66.6053C117.589 68.2343 117.367 68.3448 112.355 70.4431C105.095 73.6044 103.165 73.8529 96.8485 72.3344C93.8638 71.6303 90.7958 71.1471 90.1294 71.299C87.5334 71.6993 88.6301 70.3879 93.7944 66.8124L93.8083 66.8262ZM82.3969 71.934C82.2442 71.6441 82.2442 71.2714 82.3969 71.1886C82.4663 71.1471 82.9244 71.299 83.2992 71.4785C83.7157 71.727 83.6741 72.0307 83.2992 72.2239C83.0077 72.3758 82.5912 72.3068 82.3969 71.934ZM42.8735 78.1186C42.8596 76.821 43.5537 76.3654 50.5922 73.1351C59.227 69.173 58.408 69.2283 72.3182 70.7606C81.203 71.796 81.0503 72.2515 70.2775 77.1247L62.7532 80.5897C61.8786 80.99 60.9207 81.1557 59.9628 81.0729L55.6454 80.7139C51.3973 80.286 49.8564 79.858 49.8147 79.0435C49.5232 76.1169 49.2178 75.5371 47.9545 76.1721C47.2881 76.5172 46.8855 77.3731 47.0105 78.1462C47.3298 79.8442 46.955 80.0375 44.6505 79.7338C43.2345 79.5267 42.8596 79.1678 42.8735 78.1324V78.1186Z" fill="#18333C"/>
<path d="M242.198 83.047C237.714 79.2644 228.58 82.4257 223.249 85.4352C221.902 86.1945 222.93 85.7389 212.782 93.6905C207.395 97.9148 204.521 100.096 200.107 100.91C198.538 101.2 199.26 100.855 194.248 101.145C183.281 101.78 180.172 103.395 179.075 104.03C177.742 104.79 178.658 104.5 174.646 107.523C168.566 112.092 166.372 112.852 166.136 115.033C165.928 116.966 167.358 119.105 168.996 119.644C170.509 120.141 172.009 119.216 172.869 118.774C178.131 116.013 181.352 119.809 185.877 117.891C187.377 117.255 186.794 117.021 190.681 113.611C198.469 106.75 200.676 107.827 204.855 103.078C205.507 102.332 206.507 101.118 208.27 100.469C210.283 99.7233 211.838 100.234 213.975 100.469C217.613 100.869 220.431 100.22 223.179 99.5714C225.873 98.9364 227.983 97.832 232.078 95.6232C240.061 91.3437 244.225 89.0383 244.086 86.1392C244.003 84.5655 242.684 83.4611 242.198 83.047Z" fill="#A0E4DA"/>
<path d="M164.942 116.386C164.984 117.559 165.636 119.188 166.4 120.072C167.608 121.438 168.316 121.494 172.133 120.817C174.521 120.389 178.825 119.74 181.782 119.478L185.363 119.078C186.446 118.954 187.46 118.526 188.293 117.835L195.456 111.885C201.467 106.888 204.313 104.845 205.451 104.748C206.284 104.693 207.52 103.948 208.089 103.23C208.922 102.167 210.255 101.794 213.448 101.656C225.525 101.173 226.358 100.993 229.912 99.2402C231.939 98.1496 236.395 95.0435 239.894 92.2273C245.127 88.1134 246.28 86.8986 246.349 85.8494C246.53 84.1653 244.572 80.7969 243.045 79.8167C242.42 79.4854 240.171 79.5682 238.075 80.0652C235.979 80.576 231.245 81.5975 227.524 82.412L222.902 83.337C221.5 83.6131 220.208 84.2895 219.167 85.2558L213.184 90.8882C208.131 95.7199 205.382 97.9978 204.799 97.8321C204.341 97.6802 203.674 97.8183 203.3 98.1358C202.925 98.4533 199.996 99.0331 196.608 99.323C193.346 99.6267 188.279 100.289 185.363 100.621L181.504 101.173C180.56 101.311 179.672 101.711 178.936 102.319L172.411 107.785C167.321 112.056 164.822 114.923 164.915 116.386H164.942ZM214.614 93.6078C219.723 87.9616 219.473 88.072 232.786 85.0902C238.297 83.8201 241.338 83.4888 241.823 84.0548C243.628 86.1117 241.351 88.3067 239.366 86.4154C237.686 85.0073 236.881 85.601 237.562 87.7545C238.047 89.3145 237.853 89.4801 233.508 92.7105C227.219 97.5146 225.4 98.2048 218.903 98.2462C215.835 98.2738 212.74 98.5361 212.129 98.8398C209.699 99.8476 210.449 98.3153 214.614 93.6078ZM204.757 101.283C204.535 101.035 204.438 100.676 204.577 100.565C204.646 100.51 205.104 100.538 205.521 100.634C205.979 100.786 206.021 101.076 205.715 101.352C205.465 101.573 205.049 101.601 204.771 101.283H204.757ZM167.872 116.703C167.538 115.447 168.121 114.84 174.174 110.022C181.601 104.127 180.824 104.362 194.692 102.54C203.563 101.435 203.536 101.905 194.234 109.207L187.765 114.357C187.015 114.95 186.127 115.35 185.169 115.502L180.893 116.179C176.659 116.772 175.077 116.731 174.827 115.944C173.841 113.183 173.397 112.672 172.328 113.597C171.759 114.094 171.578 115.019 171.884 115.737C172.605 117.311 172.286 117.587 169.968 117.835C168.538 117.973 168.094 117.711 167.858 116.69L167.872 116.703Z" fill="#18333C"/>
<path d="M276.821 64.6725C277.348 58.8468 269.519 53.2282 263.98 50.6191C262.577 49.9565 263.535 50.5225 251.166 46.8366C244.6 44.8763 241.157 43.7857 237.936 40.6658C236.784 39.5476 237.492 39.9479 234.382 36.0273C227.566 27.4683 224.442 25.8669 223.29 25.3285C221.902 24.6797 222.665 25.2595 217.876 23.7272C210.615 21.4079 208.741 20.0551 206.812 21.1042C205.104 22.043 204.16 24.4312 204.66 26.074C205.118 27.5925 206.742 28.2828 207.603 28.7245C212.892 31.4165 211.629 36.2206 215.807 38.8021C217.196 39.658 217.043 39.0506 222.096 40.2516C232.217 42.6537 232.605 45.0557 238.908 45.746C239.894 45.8564 241.462 45.9668 243.017 47.0298C244.78 48.2308 245.252 49.8046 246.293 51.6821C248.043 54.871 250.208 56.7899 252.318 58.6535C254.387 60.4896 256.511 61.5664 260.676 63.6371C268.783 67.6681 273.073 69.7527 275.377 67.9718C276.627 67.0055 276.779 65.2937 276.849 64.6587L276.821 64.6725Z" fill="#A0E4DA"/>
<path d="M205.021 20.911C204.077 21.6151 203.105 23.0922 202.828 24.2104C202.383 25.9774 202.758 26.5848 205.507 29.3044C207.228 31.0024 210.227 34.1361 212.157 36.3863L214.544 39.0782C215.266 39.8927 216.21 40.4725 217.252 40.7486L226.261 43.1783C233.827 45.1938 237.145 46.3534 237.867 47.2093C238.395 47.8443 239.713 48.4241 240.644 48.4794C242.004 48.5622 243.073 49.4181 245.016 51.9444C252.346 61.4974 252.971 62.0772 256.456 63.9547C258.524 64.9762 263.633 66.8261 267.964 68.0547C274.35 69.9598 276.016 70.1945 276.918 69.6561C278.404 68.8278 280.056 65.3075 279.986 63.4991C279.903 62.795 278.543 61.0142 276.918 59.5923C275.294 58.1704 271.726 54.9124 268.936 52.3447L265.521 49.1144C264.48 48.1342 263.189 47.4716 261.8 47.1817L253.735 45.5389C246.863 44.1999 243.406 43.2611 243.198 42.7089C243.059 42.2534 242.573 41.784 242.087 41.6736C241.601 41.5631 239.45 39.4924 237.256 36.9109C235.132 34.426 231.675 30.6849 229.732 28.5037L227.066 25.6875C226.414 24.9973 225.567 24.5003 224.651 24.2518L216.405 22.0844C209.963 20.391 206.169 20.0045 205.021 20.9248V20.911ZM252.291 48.2585C259.871 49.1696 259.649 49.0316 269.741 58.1566C273.961 61.9115 275.96 64.2031 275.78 64.921C275.128 67.5715 272.004 66.9779 272.42 64.2722C272.615 62.1048 271.671 61.7873 270.283 63.5819C269.283 64.8658 269.033 64.8106 263.883 63.1264C256.317 60.7657 254.693 59.6889 250.944 54.4155C249.153 51.9306 247.168 49.57 246.557 49.2524C244.336 47.8582 246.03 47.5821 252.291 48.2723V48.2585ZM240.324 44.6416C240.408 44.3241 240.643 44.0342 240.81 44.0756C240.893 44.0894 241.129 44.4898 241.296 44.8763C241.435 45.3319 241.213 45.5389 240.81 45.4423C240.491 45.3595 240.227 45.042 240.324 44.6416ZM206.451 23.4649C207.298 22.471 208.131 22.5952 215.572 24.7626C224.693 27.4269 224.04 26.9161 233.522 37.1732C239.519 43.7581 239.116 44.0066 227.774 40.6244L219.82 38.319C218.904 38.0567 218.057 37.5459 217.39 36.8557L214.378 33.7634C211.463 30.6573 210.588 29.332 211.088 28.697C212.795 26.2949 212.962 25.6599 211.588 25.3148C210.866 25.1353 209.991 25.5218 209.575 26.1845C208.686 27.6754 208.283 27.5788 206.743 25.8393C205.812 24.7626 205.771 24.238 206.465 23.4649H206.451Z" fill="#18333C"/>
<path d="M178.533 24.887C175.091 20.1519 165.47 21.0354 159.556 22.692C158.071 23.1062 159.167 22.9129 147.409 28.214C141.162 31.0302 137.858 32.4659 133.36 32.2036C131.763 32.1069 132.555 31.9551 127.613 31.044C116.826 29.0423 113.411 29.8844 112.175 30.2295C110.704 30.6574 111.662 30.5884 107.039 32.5625C100.028 35.5582 97.7237 35.7652 96.974 37.8222C96.3076 39.6444 97.1822 42.0741 98.6399 42.9852C99.9865 43.8273 101.68 43.2889 102.61 43.0542C108.385 41.6323 110.593 46.0775 115.452 45.2906C117.062 45.0283 116.548 44.6694 121.143 42.2673C130.361 37.4632 132.235 39.0232 137.441 35.4201C138.247 34.8541 139.51 33.9154 141.384 33.6945C143.508 33.446 144.91 34.3157 146.923 35.0612C150.352 36.3174 153.253 36.3588 156.072 36.3865C158.834 36.4141 161.153 35.8343 165.664 34.6747C174.438 32.4107 179.047 31.182 179.602 28.3244C179.908 26.7783 178.894 25.384 178.52 24.8732L178.533 24.887Z" fill="#A0E4DA"/>
<path d="M95.4881 38.8438C95.2382 39.9896 95.4881 41.729 96.0157 42.7644C96.8486 44.3795 97.5288 44.6004 101.402 44.8489C103.831 45.0007 108.149 45.4011 111.106 45.8428L114.688 46.3122C115.757 46.4503 116.853 46.2708 117.825 45.8014L126.224 41.7428C133.262 38.3192 136.525 37.0215 137.635 37.201C138.454 37.339 139.829 36.9111 140.564 36.3451C141.633 35.5168 143.008 35.4616 146.145 36.0966C157.987 38.5124 158.848 38.5401 162.707 37.6704C164.928 37.0905 170.009 35.1303 174.091 33.239C180.171 30.4918 181.573 29.5945 181.893 28.5867C182.476 26.9854 181.379 23.258 180.13 21.9466C179.602 21.4772 177.395 21.0217 175.243 21.0078C173.077 21.0078 168.232 20.8698 164.442 20.7732L159.736 20.5799C158.306 20.5247 156.89 20.856 155.655 21.56L148.491 25.6049C142.425 29.0837 139.204 30.6437 138.676 30.3538C138.26 30.1053 137.594 30.0639 137.149 30.2985C136.705 30.5332 133.72 30.3814 130.361 29.8568C127.112 29.3736 122.045 28.8076 119.13 28.4349L115.257 28.0483C114.299 27.9517 113.341 28.1312 112.48 28.5453L104.831 32.3002C98.8523 35.2361 95.738 37.4219 95.4881 38.8576V38.8438ZM149.199 28.5591C155.516 24.2934 155.252 24.3348 168.899 24.6109C174.563 24.6938 177.589 25.0941 177.922 25.7567C179.185 28.1864 176.451 29.774 174.965 27.4547C173.674 25.6877 172.744 26.0742 172.883 28.3382C172.98 29.9672 172.758 30.0777 167.746 32.176C160.486 35.3373 158.556 35.5858 152.24 34.0673C149.255 33.3632 146.187 32.8801 145.521 33.0319C142.925 33.4322 144.021 32.1208 149.185 28.5453L149.199 28.5591ZM137.788 33.6669C137.635 33.377 137.635 33.0043 137.788 32.9215C137.857 32.8801 138.316 33.0319 138.69 33.2114C139.107 33.4599 139.065 33.7636 138.69 33.9568C138.399 34.1087 137.982 34.0397 137.788 33.6669ZM98.2646 39.8515C98.2507 38.5539 98.9449 38.0983 105.983 34.868C114.618 30.906 113.799 30.9612 127.709 32.4935C136.594 33.5289 136.441 33.9844 125.669 38.8576L118.144 42.3226C117.27 42.7229 116.312 42.8886 115.354 42.8058L111.036 42.4468C106.788 42.0189 105.247 41.5909 105.206 40.7765C104.914 37.8498 104.609 37.27 103.346 37.905C102.679 38.2502 102.277 39.1061 102.402 39.8791C102.721 41.5771 102.346 41.7704 100.042 41.4667C98.6256 41.2596 98.2507 40.9007 98.2646 39.8653V39.8515Z" fill="#18333C"/>
</g>
<defs>
<filter id="filter0_d_18_1340" x="-0.000488281" y="0" width="320" height="185" filterUnits="userSpaceOnUse" color-interpolation-filters="sRGB">
<feFlood flood-opacity="0" result="BackgroundImageFix"/>
<feColorMatrix in="SourceAlpha" type="matrix" values="0 0 0 0 0 0 0 0 0 0 0 0 0 0 0 0 0 0 127 0" result="hardAlpha"/>
<feOffset dy="20"/>
<feGaussianBlur stdDeviation="20"/>
<feComposite in2="hardAlpha" operator="out"/>
<feColorMatrix type="matrix" values="0 0 0 0 0 0 0 0 0 0.733333 0 0 0 0 0.713726 0 0 0 0.2 0"/>
<feBlend mode="normal" in2="BackgroundImageFix" result="effect1_dropShadow_18_1340"/>
<feBlend mode="normal" in="SourceGraphic" in2="effect1_dropShadow_18_1340" result="shape"/>
</filter>
</defs>
</svg>
