<svg width="1880" height="688" viewBox="0 0 1880 688" fill="none" xmlns="http://www.w3.org/2000/svg">
<g clip-path="url(#clip0_18_1757)">
<path d="M1880 396.189H0V974H1880V396.189Z" fill="#A0E4DA"/>
<path d="M1341.59 520.522C1340.83 540.095 1337.36 563.548 1328.9 590.536C1301.31 678.555 1126.56 728.467 940 724.842C703.208 720.238 571.657 664.909 525.803 589.096C509.48 562.107 509.735 537.088 512.985 520.522H0V974.01H1880V520.522H1341.59Z" fill="url(#paint0_radial_18_1757)"/>
<path d="M1880 114.332C1879.05 115.654 1878.42 116.644 1878.48 116.703C1878.51 116.732 1879.07 116.81 1880 116.908V492.124C1876.73 492.486 1873.3 492.486 1869.52 492.163C1866.05 491.869 1861.9 491.35 1860.19 490.899L1857.16 490.233L1854.41 492.682C1849.16 497.198 1842.64 499.275 1833.09 499.275C1824.72 499.353 1818.13 497.423 1812.8 493.642C1811.54 492.682 1811.47 492.751 1811.1 494.387C1809.69 500.088 1804.28 507.131 1798.73 510.462C1792.73 514.097 1788.14 515.497 1781.85 515.576C1776.22 515.576 1773.93 515.135 1769.04 512.833L1766.59 511.726L1763.56 513.577C1756.82 517.8 1745.34 519.357 1736.89 517.212C1734.15 516.467 1730.82 515.282 1729.49 514.547L1727.04 513.215L1722.82 515.145C1714.82 518.926 1707.2 519.661 1699.5 517.369L1696.39 516.409L1693.35 519.671C1688.53 524.706 1683.95 527.38 1674.02 530.78C1665.44 533.738 1656.84 534.776 1648.54 533.895C1643.81 533.376 1636.03 531.083 1631.07 528.713C1624.62 525.744 1619.51 521.6 1615.96 516.565C1610.99 509.6 1611.88 510.119 1607.89 512.568C1598.26 518.417 1585.53 519.161 1576.71 514.351C1573.68 512.647 1569.46 508.503 1567.9 505.456C1567.09 503.977 1566.34 503.526 1563.31 502.939C1559.83 502.194 1559.53 502.194 1556.2 503.683C1551.17 505.975 1546.35 507.014 1541.32 507.014C1532.5 507.014 1526.29 504.349 1519.7 497.756L1516.06 494.053L1514.51 496.943C1510.14 504.653 1500.14 509.61 1486.51 510.874C1478.3 511.618 1469.33 509.091 1465.25 504.8L1463.55 503.017L1458.44 506.426C1452.59 510.354 1446.51 512.941 1439.71 514.577C1435.93 515.39 1432.68 515.615 1424.01 515.615C1414.09 515.537 1412.46 515.39 1407.28 513.989C1396.54 511.099 1387.58 505.544 1378.7 496.356L1373.07 490.507L1369.66 491.095C1360.92 492.721 1349.89 489.763 1343.37 484.061L1340.7 481.691L1336.55 484.502C1330.26 488.724 1325.08 490.204 1316.78 490.135C1310.49 490.135 1309.53 489.988 1305.23 488.205C1296.34 484.649 1288.04 477.762 1282.2 469.093C1280.57 466.644 1279.16 464.577 1279.09 464.43C1278.94 464.351 1277.09 464.802 1275.01 465.468C1267.01 468.133 1259.24 466.8 1254.5 462.059L1251.61 459.169L1247.54 460.874C1232.51 467.173 1220.95 464.508 1210.88 452.498C1207.4 448.354 1206.58 447.678 1201.25 445.239C1189.26 439.537 1183.63 439.39 1164.82 444.279C1154.15 447.022 1152.22 447.316 1146.15 447.394C1137.19 447.541 1133.04 446.434 1122.31 441.173C1117.65 438.881 1112.75 436.657 1111.5 436.138C1110.09 435.619 1104.98 435.031 1099.65 434.727C1085.44 433.836 1085.21 433.767 1065.44 423.315L1056.63 418.652L1050.04 418.877C1036.71 419.249 1031.83 418.956 1026.2 417.32C1020.27 415.546 1013.91 412.725 1008.65 409.541L1005.02 407.396L1001.38 408.141C987.754 411.177 971.617 405.104 968.504 395.69C966.878 390.87 968.504 385.315 972.724 381.093C974.427 379.389 976.131 377.909 976.65 377.762C977.247 377.537 977.091 376.724 975.906 373.393C975.093 371.101 974.124 367.76 973.762 365.909C973.164 363.019 972.724 362.206 970.501 360.423C964.577 355.603 963.099 347.531 966.8 340.419C967.985 338.127 969.61 336.05 971.098 334.933C973.546 333.15 973.546 333.082 973.546 329.232C973.546 324.265 975.25 320.562 979.617 316.193C989.987 305.966 1005.16 306.113 1015.24 316.565C1017.9 319.377 1019.54 321.904 1022.05 327.008C1023.84 330.711 1025.24 334.042 1025.24 334.414C1025.31 335.521 1025.61 335.452 1030.87 332.856C1042.71 327.077 1055.75 327.302 1065.97 333.523C1069.82 335.815 1075.53 341.379 1079.08 346.121C1080.49 348.119 1081.74 349.824 1081.89 349.97C1082.04 350.049 1083 349.53 1084.11 348.638C1085.3 347.747 1086.92 345.376 1088.27 342.711C1093.82 331.446 1105.45 325.372 1117.66 327.38C1124.25 328.487 1128.32 330.858 1132.17 335.972C1133.65 337.97 1133.95 338.117 1134.83 337.304C1136.69 335.599 1141.13 334.042 1144.09 334.042C1147.72 333.963 1152.68 336.266 1154.46 338.783C1155.12 339.743 1156.08 340.488 1156.53 340.488C1157.05 340.488 1159.86 339.302 1162.9 337.892C1172.15 333.376 1178.53 332.553 1185.49 334.933L1188.23 335.825L1192.6 333.16C1201.63 327.674 1208.89 325.46 1216.96 325.823C1221.32 325.97 1222.88 326.342 1226.14 327.9C1230.66 329.976 1235.62 334.267 1237.76 337.902C1238.58 339.381 1239.47 340.498 1239.69 340.498C1239.92 340.498 1240.65 339.459 1241.25 338.127C1243.47 333.092 1250.95 328.125 1257.98 326.793C1261.24 326.205 1261.69 325.901 1261.98 324.569C1263.91 315.311 1265.61 311.236 1269.17 307.308C1275.76 300.049 1287.16 299.157 1295.16 305.309L1297.09 306.72L1300.87 303.017L1304.65 299.314L1304.73 293.534C1304.81 288.499 1304.65 287.382 1303.47 285.237C1301.54 281.759 1301.18 279.31 1301.91 275.98C1302.72 272.649 1305.84 268.721 1308.87 267.085C1310.8 266.125 1311.16 265.605 1312.43 261.079C1316.72 246.111 1323.69 238.852 1333.68 238.93C1337.24 238.93 1338.34 239.224 1341.09 240.782C1343.9 242.339 1347.82 246.336 1349.67 249.52C1350.27 250.558 1350.49 250.48 1353.45 248.482C1356.64 246.258 1361.37 244.485 1364.19 244.485C1368.12 244.485 1372.05 246.336 1375.3 249.745C1378.27 252.782 1378.85 253.076 1382.63 253.82L1386.78 254.565L1389.9 251.156C1395.74 244.857 1402.71 242.486 1411.37 243.819C1417.44 244.779 1418.11 244.259 1418.11 238.186C1418.11 235.374 1418.48 232.857 1419.21 230.927C1423.81 218.848 1438.77 211.442 1449.27 216.036C1450.98 216.781 1452.68 217.741 1453.05 218.182C1453.57 218.77 1455.13 218.995 1458.39 218.995C1462.9 218.995 1463.05 218.995 1464.46 217.065C1465.65 215.507 1469.05 208.023 1469.05 206.916C1469.05 206.769 1468.16 206.172 1467.2 205.652C1464.02 204.026 1460.02 199.873 1458.54 196.757C1455.73 190.752 1457.35 183.572 1462.53 179.124C1465.5 176.607 1470.53 174.824 1473.49 175.343C1476.38 175.784 1477.48 174.236 1477.93 169.191C1478.68 161.04 1483.49 154.369 1491.41 150.666C1494.96 148.962 1495.92 148.736 1500.74 148.815C1504.89 148.815 1506.66 149.109 1508.95 150.147C1513.11 152.077 1519.47 156.965 1523.47 161.334L1526.87 165.184L1528.87 164.146C1531.98 162.52 1537.68 163.186 1540.49 165.41C1541.76 166.448 1543.3 168.221 1543.97 169.406C1545.3 172.002 1546.63 172.443 1551 171.924C1554.11 171.552 1554.26 171.405 1555.51 168.887C1558.11 163.48 1564.18 159.326 1571.21 158.297C1574.54 157.778 1581.43 159.336 1585.57 161.481C1587.43 162.441 1591.35 164.077 1594.31 164.959C1597.2 165.919 1602.75 168.143 1606.53 169.847L1613.41 172.962L1616.67 169.406C1620.52 165.253 1624.3 163.107 1629.85 161.775C1638.89 159.63 1650.43 162.441 1659.55 168.966C1660.81 169.857 1660.96 169.857 1661.25 168.819C1663.62 162.079 1668.28 156.368 1673.7 153.85C1677.69 151.92 1683.47 151.558 1687.69 152.958C1691.99 154.369 1697.54 159.924 1699.25 164.44L1700.51 167.702L1703.98 168.143C1709.1 168.809 1712.13 170.141 1715.75 173.472L1718.94 176.43L1724.94 174.285C1729.83 172.58 1731.75 172.14 1735.46 172.14C1741.38 172.14 1742.49 171.326 1745.37 164.136C1746.56 161.246 1748.34 157.465 1749.37 155.839C1751.22 152.949 1751.22 152.802 1751.3 144.877C1751.38 138.362 1751.59 136.285 1752.63 133.542C1755.37 126.058 1759.96 120.944 1766.93 117.467C1770.48 115.684 1771.22 115.537 1776.55 115.615C1781.81 115.694 1782.4 115.537 1782.7 114.508C1783.37 112.431 1787.36 108.582 1790.41 107.171C1793.59 105.692 1798.11 105.398 1801.22 106.426C1803 107.093 1803.44 106.867 1810.62 101.832C1818.1 96.5714 1818.17 96.5028 1819.14 93.1623C1820.47 88.7932 1822.1 86.2756 1825.8 82.935C1829.28 79.7513 1833.66 77.4491 1839.58 75.5291C1843.13 74.4221 1845.21 74.1968 1855.35 73.9715C1866.1 73.8245 1867.35 73.8931 1870.38 75.0099C1873.84 76.3226 1877.24 79.1341 1879.97 82.6509V114.342L1880 114.332ZM904.554 360.825C901.587 359.345 900.559 359.199 896.182 359.199C892.55 359.277 890.18 359.639 887.967 360.531C885.157 361.638 884.853 361.638 885.225 360.756C886.704 356.906 885.666 353.869 881.671 350.833C877.157 347.355 871.968 346.757 864.859 348.903L860.56 350.166L857.446 346.757C855.743 344.827 854.039 342.613 853.598 341.722C853.079 340.909 851.816 339.126 850.788 337.725C841.75 326.616 820.209 326.019 802.359 336.315C797.473 339.126 797.698 339.273 793.399 332.612C788.954 325.725 784.44 323.05 775.999 322.237L771.632 321.797L770.301 317.653C768.45 311.873 765.708 306.759 763.114 304.32C761.929 303.213 760.147 301.283 759.265 300.02C757.19 297.208 750.6 292.32 746.977 290.909C742.904 289.351 735.276 289.498 730.096 291.281C717.582 295.503 706.106 308.395 700.329 324.696C698.919 328.771 698.4 329.516 696.697 330.182C693.73 331.446 688.775 331.221 684.33 329.594C679.15 327.743 678.993 327.596 679.884 324.187C680.256 322.629 680.775 318.26 680.922 314.479C681.363 305.662 680.482 302.625 676.33 298.256C674.186 295.964 673.441 294.779 673.363 293.436C673.363 288.176 670.103 280.917 666.333 277.586C661.74 273.589 655.895 272.619 648.708 274.775C640.336 277.371 631.23 283.219 623.68 291.076L619.235 295.67L613.017 295.748C607.612 295.748 606.427 295.974 604.126 297.228C599.906 299.451 597.762 301.303 595.754 304.487C594.198 306.857 593.61 307.376 592.572 307.083C591.906 306.936 589.684 306.495 587.686 306.123C584.053 305.456 583.985 305.378 582.281 302.42C577.248 293.534 565.469 287.676 554.512 288.636C552.142 288.862 548.294 289.528 545.925 290.194C538.816 292.045 538.963 292.124 539.335 286.716C539.629 282.494 539.482 281.681 538.072 278.419C536.143 274.197 532.52 270.494 528.515 268.711C524.814 267.085 518.665 266.712 514.67 267.898C512.819 268.417 511.037 268.936 510.596 269.005C510.156 269.083 509.265 267.447 508.452 265.076C506.523 259.522 504.525 256.338 501.049 253.223C496.535 249.226 490.611 247.521 484.688 248.628C474.915 250.402 467.356 257.523 458.622 273.08C456.997 275.97 455.361 278.409 454.989 278.566C454.617 278.713 453.139 278.487 451.807 278.125C449.584 277.459 448.997 276.861 446.549 272.943C442.476 266.203 439.959 262.941 434.779 258.052C429.6 253.086 426.261 250.94 420.64 248.864C411.681 245.601 401.086 248.051 393.096 255.163L389.983 257.974L387.319 255.016C382.286 249.383 375.393 247.757 369.175 250.715C365.699 252.273 363.545 254.79 361.988 259.012L360.882 261.971L355.545 262.715C346.958 263.901 334.591 264.342 331.849 263.529C329.627 262.941 329.255 262.569 327.854 259.159C324.672 251.675 318.298 244.935 311.042 241.301C306.675 239.077 299.488 237.373 294.602 237.373C282.235 237.373 269.349 244.857 264.169 255.006C262.613 258.043 262.544 258.121 261.281 257.298C260.615 256.779 259.871 255.672 259.655 254.849C258.245 249.069 245.879 237.441 239.22 235.658C238.114 235.286 236.185 235.07 235.147 234.992C233.737 234.992 233.218 234.767 233.443 234.248C236.851 226.616 237.076 225.725 237.291 219.504C237.516 214.244 237.291 212.392 236.332 209.13C233.962 201.273 228.704 194.534 222.633 191.497C219.157 189.714 214.046 188.166 211.529 188.166C208.562 188.166 207.378 187.353 205.752 184.091C202.785 178.243 195.608 168.309 190.938 163.646C182.644 155.27 173.685 150.314 162.728 148.158C158.429 147.345 157.391 146.895 155.394 144.896C151.095 140.899 148.432 139.861 142.067 139.929C134.586 139.929 130.66 141.409 125.999 146.082C124.149 147.864 122.366 149.931 122.004 150.529C121.407 151.636 121.26 151.636 120.447 150.823C120.007 150.382 117.412 145.856 114.749 140.743C112.085 135.707 109.412 130.741 108.825 129.702C108.159 128.742 107.718 127.557 107.718 127.185C107.718 126.744 109.941 124.001 112.751 121.111C115.64 117.996 118.597 114.224 119.713 112.147C121.495 108.67 121.642 108.151 121.642 102.224C121.642 96.2971 121.495 95.8563 119.498 91.5557C115.718 83.8461 111.576 79.0361 104.017 73.9225C100.09 71.2579 85.2854 63.6952 78.7642 61.0307C73.4277 58.8853 73.2808 58.7383 73.7313 57.2493C74.025 56.4362 74.2502 53.6933 74.2502 51.1757C74.2502 47.1004 74.025 46.3559 72.4681 44.0636C71.205 42.2121 69.5796 40.9484 66.9848 39.6945C63.8025 38.1369 63.3521 37.696 62.9898 35.8446C60.9923 26.0679 51.3671 13.6953 39.5877 5.98564C30.3738 -0.127207 30.5892 -0.0586339 23.5588 0.019736C15.0204 0.0785134 7.53958 2.16511 0 6.65178V498.403C1.04771 498.795 2.14438 499.187 3.33896 499.579L8.89083 501.361L10.7415 504.771C11.701 506.7 13.5517 509.365 14.7365 510.776C17.3313 513.891 24.8806 518.475 29.4729 519.739C36.7285 521.816 45.7663 519.818 58.4269 513.44C66.6421 509.296 69.6873 508.924 75.4546 511.589C78.4215 512.999 79.6748 513.215 84.2671 513.215C89.4469 513.215 89.7504 513.137 96.115 510.1C103.302 506.691 105.446 506.103 113.299 505.505C118.332 505.133 118.851 505.211 123.297 506.985C134.107 511.285 147.218 513.283 161.435 512.764C175.281 512.323 184.465 509.287 199.202 500.47L203.941 497.658L216.68 496.698C223.642 496.179 230.75 495.591 232.454 495.435L235.568 495.062L237.046 498.021C238.829 501.577 241.932 504.242 246.3 505.946C248.963 506.984 250.745 507.278 256.669 507.278C264.669 507.278 268.517 506.387 273.031 503.497L275.841 501.714L279.542 503.497C286.504 506.681 291.831 507.798 301.094 507.798C310.2 507.876 316.124 507.053 321.01 505.202C326.121 503.272 331.898 498.53 335.746 493.123C337.675 490.458 339.595 487.941 340.045 487.421C340.633 486.677 343.971 486.158 354.703 485.198C379.29 482.974 376.842 482.974 381.953 485.276C393.429 490.615 404.983 491.35 418.976 487.725C431.783 484.394 440.527 480.76 447.489 475.872C449.486 474.392 451.415 473.207 451.788 473.207C452.081 473.207 453.716 474.539 455.264 476.166C457.408 478.242 459.043 479.349 461.334 480.015C465.261 481.201 466.818 481.201 470.813 480.015C476.071 478.458 479.704 473.942 481.104 467.271C481.329 466.007 482.954 464.753 488.653 461.344C492.648 458.973 501.167 453.791 507.531 449.863C513.828 445.866 521.827 441.046 525.303 439.116C532.187 435.266 543.154 430.593 545.376 430.593C546.12 430.515 549.078 431.485 551.898 432.592C559.819 435.776 563.227 436.442 570.933 436.442C582.702 436.442 590.486 434.443 599.074 429.036C603.441 426.371 604.704 425.921 604.704 427.037C604.704 427.331 605.37 428.301 606.261 429.114C608.258 430.966 610.775 430.966 619.147 429.114L625.59 427.635L628.038 429.34C633.883 433.336 640.698 434.894 653.29 434.894C664.698 434.972 670.984 433.787 687.13 428.673C693.426 426.675 699.125 424.97 699.791 424.823C700.457 424.677 703.943 425.264 707.565 426.087C727.854 430.75 743.628 429.349 768.881 420.601L777.615 417.564L783.392 418.828C790.873 420.454 803.534 420.611 810.574 419.053C813.169 418.534 821.159 416.095 828.346 413.646C835.454 411.275 844.042 408.679 847.302 408.013C865.74 404.016 883.287 394.749 890.327 385.266C891.805 383.268 892.99 382.376 895.213 381.632C900.03 380.074 905.798 376.891 907.952 374.667C909.509 372.962 910.028 371.924 910.243 369.553C910.615 365.478 908.98 362.96 904.544 360.815L904.554 360.825Z" fill="url(#paint1_linear_18_1757)"/>
<path d="M385.772 706.798C382.884 703.32 362.076 700.724 352.079 702.644C349.269 703.164 344.226 703.977 340.819 704.496C337.342 705.015 332.75 705.975 330.596 706.641L326.601 707.974L321.118 706.269C315.713 704.564 315.341 704.486 302.014 704.564C285.133 704.564 276.174 705.897 262.622 710.491C255.288 712.94 244.185 718.495 244.331 719.533C244.772 721.757 251.068 724.421 263.513 727.605C274.098 730.348 280.1 730.936 299.498 731.308C315.791 731.534 318.161 731.455 321.862 730.495C325.71 729.535 326.16 729.535 330.009 730.417C332.153 731.014 334.669 731.524 335.492 731.68C339.34 732.268 356.152 729.682 362.742 727.527C375.775 723.158 389.326 711.079 385.772 706.778V706.798ZM941.821 893.279C920.642 889.135 914.718 888.312 905.386 888.312C900.275 888.391 890.944 888.979 884.648 889.645C873.612 890.83 859.101 891.868 833.995 893.279C820.963 894.023 781.267 895.062 766.09 895.062C755.505 895.062 753.645 895.434 754.761 897.286C756.24 899.578 773.346 905.583 790.677 909.884C812.082 915.144 825.477 917.143 847.028 918.181C862.137 918.926 858.289 919.141 913.455 914.253C921.229 913.587 927.966 913.361 935.075 913.587L945.366 913.88L954.844 916.996C961.659 919.288 965.586 920.258 969.062 920.473C976.092 920.993 983.876 920.552 988.909 919.366C996.39 917.515 1019.49 909.443 1023.93 907.141C1028.15 904.917 1031.56 902.174 1031.56 901.067C1031.56 899.96 1029.19 899.284 1022.08 898.324C1018.3 897.883 1008.83 896.551 1000.98 895.434L986.765 893.357L971.363 894.023C952.553 894.915 949.371 894.837 941.811 893.279H941.821ZM1007.28 866.604C1012.61 867.936 1018.75 869.719 1020.91 870.454C1023.28 871.345 1026.09 871.864 1028.31 871.864C1032.01 871.943 1045.94 869.719 1052.01 868.161C1065.26 864.684 1070 858.532 1062.67 854.378C1058.01 851.714 1035.94 846.453 1029.64 846.453C1027.79 846.453 1024.61 846.972 1022.53 847.638C1018.09 849.049 1006.09 850.234 986.246 851.194C978.393 851.567 971.363 852.007 970.697 852.154C968.18 852.595 969.218 854.153 973.066 855.936C978.178 858.228 995.509 863.636 1007.28 866.604ZM351.403 773.177C354.067 773.696 357.846 774.51 359.697 775.029C361.547 775.47 364.955 776.136 367.178 776.439C373.102 777.184 374.659 777.184 379.466 776.439C386.134 775.401 391.833 772.07 390.942 769.7C390.276 768.142 385.243 765.331 381.092 764.439C376.499 763.401 367.393 762.362 358.502 761.843C346.801 761.245 339.918 764.508 342.581 769.396C343.472 771.1 345.91 772.139 351.394 773.177H351.403ZM1880 228.291C1877.28 225.872 1874.61 225.382 1872.07 226.861C1870.88 227.606 1868.59 230.339 1866.29 233.748C1864.15 236.932 1861.26 240.635 1859.85 242.045L1857.33 244.563L1853.55 242.633C1848.44 239.968 1845.34 237.147 1843.48 233.444C1841.63 229.663 1841.63 228.781 1843.48 221.738C1845.47 214.185 1845.93 206.7 1844.66 201.068C1842.81 192.251 1838.59 185.727 1832.81 182.768C1828.82 180.691 1822.82 180.544 1818.89 182.474C1811.86 185.883 1809.41 189.812 1807.56 200.999C1806.08 210.041 1803.57 216.262 1801.78 215.302C1801.2 214.929 1799.27 214.488 1797.49 214.263C1794.37 213.891 1794.08 213.666 1789.63 208.924C1784.75 203.742 1780.3 200.401 1778.45 200.401C1776.16 200.401 1774.01 202.106 1772.97 204.702C1771.56 208.033 1771.12 215.968 1772.01 220.709C1772.75 224.412 1772.67 224.637 1770.9 229.006C1768.45 234.855 1766.16 238.411 1763.42 240.488C1761.49 241.898 1760.61 242.192 1757.57 242.192C1748.91 242.192 1742.47 237.823 1738.25 229.153C1736.91 226.41 1735.58 222.639 1735.28 220.787C1732.24 201.89 1732.24 202.86 1735.65 200.039C1744.9 192.339 1747.21 189.449 1749.06 182.7C1750.47 177.664 1750.39 176.028 1748.91 174.108C1746.54 171.15 1745.21 171.816 1737.5 179.81C1733.65 183.807 1728.77 188.401 1726.61 190.037C1722.91 192.78 1722.54 193.368 1720.77 197.747C1719.81 200.343 1717.14 206.044 1714.99 210.413C1712.47 215.233 1710.4 220.415 1709.51 223.824C1707.88 229.898 1705.43 235.972 1704.62 235.972C1704.33 235.972 1703.88 234.414 1703.66 232.562C1703.22 228.115 1699.96 218.858 1697.3 213.969C1694.85 209.669 1690.19 204.927 1687.07 203.595C1684.48 202.557 1680.04 202.557 1677.97 203.595C1672.56 206.485 1670.94 212.118 1672.56 223.158C1673.23 227.38 1673.15 227.753 1671.75 230.858C1670.94 232.709 1669.9 234.189 1669.61 234.189C1668.65 234.189 1663.46 231.446 1659.02 228.634C1647.25 221.081 1639.99 211.599 1638.65 202.037C1637.99 197.002 1636.21 193.368 1631.62 187.294C1624.96 178.556 1619.48 175.735 1614.08 178.252C1610.6 179.957 1609.34 184.257 1611.27 188.029C1611.79 188.989 1613.56 191.36 1615.26 193.211C1621.56 200.029 1621.41 199.735 1621.85 208.699C1622.52 221.963 1624.82 229.144 1633.55 245.964C1640.96 260.266 1644.51 264.851 1651.03 268.711C1654.29 270.562 1654.51 270.856 1654.66 273.158C1654.89 276.117 1653.33 279.829 1651.85 279.829C1651.34 279.829 1650.44 279.016 1649.86 278.056C1647.86 274.725 1642.89 269.906 1640.15 268.573C1637.86 267.466 1636.6 267.31 1632.6 267.466C1624.68 267.839 1620.01 271.101 1618.91 277.028C1618.68 278.213 1618.16 279.251 1617.8 279.251C1616.32 279.251 1613.28 275.254 1612.39 272.139C1611.87 270.366 1609.95 265.987 1608.1 262.363L1604.83 255.848L1604.76 248.442C1604.53 233.111 1599.64 223.55 1591.87 223.472C1589.79 223.393 1589.13 223.697 1587.72 225.254C1585.57 227.704 1585.57 229.555 1587.8 236.736C1590.46 245.405 1590.46 245.699 1588.54 251.998C1587.58 255.113 1586.61 259.551 1586.4 261.775C1585.8 268.368 1584.69 270.591 1581.14 272.815C1578.4 274.598 1577.66 274.814 1573.95 274.814C1570.24 274.814 1569.13 274.52 1565.88 272.884C1563.81 271.845 1561.29 270.288 1560.4 269.475L1558.7 267.917L1559.66 262.137C1561.88 248.432 1559.8 237.911 1553.36 230.868C1545.88 222.796 1535.88 224.863 1532.47 235.315C1531.96 236.794 1531.14 241.389 1530.69 245.464C1528.91 259.61 1528.03 263.323 1526.1 265.174C1522.84 268.211 1516.54 268.73 1512.55 266.359C1511.59 265.772 1509.43 263.47 1507.81 261.177C1506.18 258.885 1504.25 256.211 1503.51 255.251C1502.77 254.29 1501.51 251.175 1500.77 248.432C1499.29 242.653 1496.4 236.579 1493.06 231.838C1486.77 223.168 1483.66 218.201 1482.48 214.949C1479.07 205.985 1477.3 203.987 1472.85 203.987C1470.19 203.987 1465.74 206.211 1464.64 208.131C1463.53 210.276 1464.72 212.5 1470.19 218.652C1473.22 221.983 1475.3 224.951 1476.63 227.909C1477.82 230.358 1479.52 233.542 1480.56 235.1C1488.04 245.915 1491.82 261.324 1489.22 269.994C1487.3 276.508 1483.82 279.477 1478.27 279.477C1473.38 279.477 1471.45 278.213 1470.27 274.294C1469.75 272.521 1469.38 270.444 1469.38 269.631C1469.38 265.997 1464.64 262.225 1459.6 261.628C1452.2 260.815 1446.57 268.299 1445.83 280.006L1445.46 285.188H1443.53C1440.2 285.188 1439.16 283.777 1438.42 277.997C1437.83 272.962 1437.83 272.737 1439.6 267.623C1442.57 258.954 1444.26 242.437 1442.57 238.656C1441.82 236.951 1440.28 236.285 1438.12 236.873C1434.94 237.617 1430.64 252.057 1429.6 265.321C1429.23 269.543 1428.79 273.991 1428.5 275.098C1427.23 280.584 1423.53 292.878 1422.43 295.249C1421.76 296.728 1420.57 299.765 1419.83 301.988C1417.24 309.541 1413.99 313.616 1410.65 313.616C1408.8 313.616 1405.99 312.51 1405.99 311.834C1405.99 310.942 1400.43 305.241 1398.8 304.428C1396.58 303.242 1392.95 303.321 1391.25 304.428C1390.5 304.947 1389.4 306.504 1388.73 307.758C1387.89 309.391 1386.58 310.083 1384.81 309.835C1381.48 309.394 1380.81 308.944 1375.92 303.242C1373.69 300.646 1370.8 297.913 1369.47 297.169C1366.36 295.395 1362.66 295.464 1358.66 297.316C1356.07 298.501 1355.19 299.392 1353.33 302.429C1349.85 308.209 1348.36 309.688 1346.51 309.247C1345.7 309.022 1344.58 308.434 1344.06 307.984C1341.99 305.838 1337.91 300.059 1336.06 296.649C1333.62 292.055 1328.88 286.647 1325.84 285.09C1323.76 284.051 1316.44 282.641 1312.06 282.572C1310.36 282.494 1310.21 282.651 1310.07 284.796C1309.92 287.02 1310.14 287.392 1313.91 291.017C1316.21 293.162 1319.76 295.983 1321.91 297.237C1325.39 299.236 1325.99 299.833 1327.32 302.87C1328.8 306.201 1330.29 314.43 1331.02 323.981C1331.39 328.428 1331.31 329.016 1329.46 333.317C1326.87 339.537 1325.83 339.469 1326.35 332.944C1326.72 327.243 1325.83 323.54 1322.94 319.533C1317.98 312.715 1310.2 313.234 1308.21 320.64C1306.8 325.901 1309.62 337.98 1313.24 342.27C1314.35 343.534 1315.31 345.082 1315.31 345.601C1315.31 346.12 1314.13 347.384 1312.65 348.413C1306.81 352.556 1305.25 357.376 1304.8 372.56C1304.57 378.409 1304.21 383.669 1303.91 384.267C1302.58 386.863 1299.17 384.345 1298.13 379.898C1297.84 378.419 1297.24 376.42 1296.87 375.45C1296.49 374.49 1296.05 371.973 1295.98 369.896C1295.39 359.002 1290.13 352.263 1284.13 354.78C1279.16 356.857 1278.72 362.118 1282.86 370.709C1284.42 373.824 1285.68 376.489 1285.68 376.714C1285.68 376.861 1285.23 377.008 1284.78 377.008C1283.16 377.008 1280.34 380.045 1279.67 382.415C1278.86 385.678 1280.27 390.487 1282.93 393.524C1286.19 397.08 1284.78 397.6 1280.19 394.484C1274.79 390.85 1270.57 386.481 1268.49 382.337C1266.79 379.075 1265.83 378.193 1263.9 378.193C1262.19 378.193 1260.78 380.045 1260.78 382.122C1260.78 384.786 1265.96 395.16 1268.56 397.531C1270.93 399.755 1275.75 408.944 1277.45 414.645C1278.41 417.907 1278.78 421.169 1279.08 429.535C1279.37 439.909 1279.45 440.282 1281.07 442.721C1282.86 445.464 1287.89 456.798 1288.33 459.316C1288.55 460.129 1288.1 464.136 1287.44 468.054C1285.51 479.32 1285.96 482.357 1289.95 486.579C1293.59 490.36 1296.48 491.242 1306.46 491.918L1312.98 492.358L1316.62 496.287C1318.61 498.364 1321.8 501.107 1323.65 502.36C1329.72 506.289 1330.09 508.209 1326.24 514.214C1323.35 518.583 1322.91 520.954 1324.39 523.922C1325.58 526.214 1327.95 527.703 1331.87 528.438L1335.13 529.183L1334.91 531.259C1334.54 535.854 1336.76 538.44 1342.39 539.929C1344.53 540.527 1345.05 541.036 1346.31 543.485C1348.17 547.188 1351.2 557.268 1352.32 563.636C1352.76 566.379 1353.21 572.08 1353.21 576.381C1353.21 594.014 1349.02 610.658 1341.76 627.331C1340.66 629.995 1339.69 632.513 1339.69 632.817C1339.69 633.121 1338.13 636.667 1336.36 640.595C1329.02 656.602 1329.82 656.994 1323.37 663.44C1314.64 672.256 1290.49 691.594 1284.5 694.7C1280.2 696.845 1233.1 713.293 1215.78 718.7C1165.21 734.335 1129.59 742.554 1094.63 746.561C1067.01 749.676 1018.95 751.821 976.151 751.821C948.01 751.821 937.278 751.528 905.651 749.529C898.101 749.088 885.588 748.422 877.803 748.05C852.325 746.943 836.257 745.16 796.572 739.155C761.987 733.973 745.919 730.338 708.084 719.523C681.794 712.039 672.394 708.777 641.442 696.404C617.815 687.068 611.529 684.257 594.57 675.656C569.914 663.283 568.132 662.245 550.439 650.47C534.517 639.88 533.558 639.057 519.193 622.688C504.016 605.495 500.53 598.608 498.533 582.454C497.642 574.902 497.642 572.893 498.308 563.558C498.748 557.856 498.974 551.557 498.748 549.627C498.376 546.071 498.376 545.993 500.374 544.514C504.006 541.771 504.3 536.216 501.118 533.552C500.011 532.66 499.786 530.809 500.746 530.221C501.118 529.996 503.341 529.78 505.71 529.702C510.528 529.555 512.819 528.516 513.779 525.92C514.67 523.628 514.072 521.326 511.634 517.995C508.667 513.998 508.52 512.215 510.596 504.731L512.3 498.432L516.452 495.248C518.743 493.465 525.783 486.804 532.079 480.427C545.925 466.35 546.669 466.056 543.849 475.911C542.811 479.467 542.067 480.799 540.001 482.729C536.74 485.913 536.006 487.842 537.112 490.507C538.669 494.288 541.851 494.729 547.481 491.918C551.927 489.694 553.552 487.402 554.884 481.397C556.069 476.214 558.81 470.435 560.808 469.171C562.805 467.839 566.066 467.388 566.879 468.358C567.251 468.799 568.876 472.286 570.511 476.067C575.691 488.44 577.914 491.036 581.253 488.587C582.066 487.921 583.995 487.255 585.551 487.029C587.03 486.804 589.478 485.844 590.888 484.953C594.07 482.876 598.437 476.577 600.445 471.169C601.708 467.839 602.295 467.094 605.184 465.164C609.11 462.421 611.029 459.61 611.548 455.534C611.773 453.908 611.627 448.05 611.176 442.574C610.217 429.241 610.364 428.497 614.29 424.128C619.029 418.867 622.505 412.568 624.209 406.054C626.206 398.197 626.951 392.79 626.804 388.274C626.725 385.384 627.029 383.757 627.91 381.681C629.614 378.125 630.358 370.64 629.095 369.014C628.351 368.054 627.989 367.976 626.725 368.573C624.356 369.612 622.652 373.981 622.065 380.505C621.771 383.62 621.174 386.873 620.733 387.696C620.292 388.587 619.254 390.811 618.589 392.731C617.257 396.365 615.475 399.471 612.743 403.027L611.264 405.103L610.892 397.404C610.745 393.25 610.814 388.44 611.117 386.814C611.636 384.071 611.558 383.552 609.854 380.221C608.816 378.144 607.406 376.077 606.672 375.627C605.115 374.52 600.229 374.441 595.862 375.48C593.199 376.077 592.601 376.518 590.898 379.114C587.862 383.777 582.007 390.007 579.49 391.261C577.268 392.368 575.936 392.3 574.311 390.889C574.164 390.811 575.123 389.106 576.386 387.039C578.384 383.777 578.609 382.886 578.609 379.78C578.609 375.783 577.278 372.59 574.164 369.034C572.607 367.329 571.941 366.957 569.944 366.957C566.683 366.957 564.607 369.249 560.318 377.478C557.136 383.699 555.726 385.922 555.139 385.922C554.473 385.922 552.25 379.849 550.693 374.216C549.361 369.181 549.283 368.064 549.88 365.546C550.253 363.989 550.546 361.696 550.546 360.364C550.546 358.434 550.253 357.915 549.068 357.396C547.883 356.798 547.286 356.877 546.032 357.69C543.81 359.169 542.772 362.206 542.478 367.77C542.331 370.435 541.959 375.989 541.587 380.211C540.627 390.439 540.99 395.474 542.997 399.402C544.847 402.958 544.779 403.918 542.184 409.11C540.48 412.519 537.298 415.781 534.703 416.82C533.891 417.114 532.255 417.192 531.149 416.967C529.005 416.594 528.926 416.301 528.339 410.962C527.673 403.85 521.671 397.776 515.384 397.776C511.086 397.776 508.648 400.372 507.904 405.554L507.61 408.366L504.281 405.476C499.541 401.332 495.762 395.552 493.392 388.734C492.286 385.55 490.797 382.141 490.132 381.25C489.466 380.29 488.947 379.104 488.947 378.585C488.947 377.547 492.129 369.994 495.018 364.136C497.094 360.139 497.387 359.835 500.942 358.131C505.759 355.838 507.091 354.428 506.278 352.498C505.534 350.94 502.205 349.167 499.914 349.167C498.876 349.167 497.691 349.912 496.134 351.538C494.949 352.87 489.613 358.277 484.286 363.538C474.729 373.021 474.582 373.168 471.106 373.912C469.177 374.285 465.408 375.538 462.735 376.655C459.552 377.987 455.626 378.948 451.552 379.623C444.591 380.583 438.598 382.66 434.153 385.472C430.305 387.921 418.604 397.247 411.044 403.918C405.414 408.885 401.644 411.402 399.862 411.402C397.267 411.402 392.754 409.326 390.09 406.955C385.126 402.507 383.275 397.325 380.24 379.398C378.536 369.396 377.87 367.251 373.65 358.062C370.017 350.137 368.686 344.279 368.686 336.726C368.686 331.544 368.686 331.24 370.389 329.535C372.387 327.537 374.384 321.904 374.903 316.869C375.344 312.568 373.572 304.575 371.574 301.685C367.941 296.649 359.432 297.316 356.691 302.948C355.731 304.947 355.731 305.466 356.544 310.06C357.582 316.134 357.582 318.133 356.691 321.542C356.094 323.687 356.172 324.578 356.985 327.096C357.876 329.839 357.876 330.28 356.985 332.651C356.24 334.649 356.025 337.686 355.947 345.915C355.868 354.957 355.653 357.474 354.537 362.137C353.352 366.732 352.98 367.545 352.167 367.172C346.762 364.88 344.539 364.43 338.762 364.802C335.502 364.949 331.135 365.321 329.137 365.546L325.504 365.919L325.132 363.548C324.535 360.286 322.91 357.846 320.471 356.661C318.768 355.848 318.249 355.25 317.955 353.477C316.398 344.435 312.178 339.694 305.588 339.694C303.297 339.694 302.553 340.066 299.958 342.359C298.254 343.838 296.404 345.023 295.806 345.023C295.209 345.023 293.73 343.916 292.624 342.574L290.548 340.125L290.773 334.718C290.92 331.759 291.214 328.203 291.439 326.792C291.733 324.5 291.586 324.049 289.735 322.276C285.075 317.613 274.558 319.318 269.516 325.538C268.106 327.312 267.734 328.428 267.665 331.171C267.44 334.874 264.483 343.544 261.663 348.207C259.665 351.685 256.033 355.76 253.741 357.024L251.959 358.131V352.723C251.959 348.354 252.331 345.983 253.957 340.125C255.141 336.128 256.473 330.721 256.992 328.125C257.511 325.529 258.774 321.013 259.734 318.044C262.994 308.121 263.807 305.006 264.395 299.745C265.354 291.075 266.47 288.852 273.129 281.965C279.2 275.666 282.166 271.003 282.088 267.662C282.088 263.959 278.387 260.256 275.498 261.138C274.901 261.363 273.716 262.764 272.835 264.253C268.468 272.031 268.017 272.551 265.354 272.923C263.797 273.217 261.947 274.03 260.537 275.215C258.02 277.292 255.504 282.102 255.504 284.923C255.504 286.109 254.76 287.588 253.653 289.067C252.615 290.331 250.471 293.955 248.836 297.139C246.544 301.587 244.684 304.173 241.208 307.886C238.613 310.55 235.725 314.185 234.765 316.036C232.317 320.631 228.244 323.227 223.211 323.52C218.031 323.814 217.806 323.52 218.697 318.338C220.029 310.932 218.403 306.191 213.811 304.114C210.775 302.703 208.553 302.635 205.889 303.889C203.226 305.153 201.375 307.67 199.593 312.48C198.781 314.704 197.664 317.143 197.145 317.966C195.882 319.896 192.034 322.482 190.477 322.482C189.733 322.482 187.364 320.778 184.7 318.182L180.186 313.881L179.52 309.14C179.148 306.544 178.482 303.654 178.042 302.772C177.298 301.214 177.376 301.068 179.971 298.697C183.604 295.288 184.269 294.034 182.859 293.064C181.596 292.104 180.93 292.251 174.341 294.994C169.827 296.924 169.161 297.071 167.085 296.404C165.822 296.032 164.862 295.444 164.862 294.994C164.862 293.887 167.457 286.324 168.642 283.885C169.239 282.778 171.384 279.29 173.303 276.107C175.966 271.885 177.376 270.18 178.482 269.955C180.411 269.435 187.736 263.881 191.075 260.247C193.963 257.21 194.482 255.584 192.925 254.242C191.819 253.35 191.3 253.575 181.743 257.651C174.262 260.913 173.743 261.285 172.705 263.724C172.186 264.91 169.229 268.466 166.116 271.649C159.379 278.536 159.232 278.468 159.379 268.985C159.526 263.058 159.673 262.539 161.083 260.981C165.528 256.24 166.713 248.383 164.05 240.977C161.239 233.346 157.088 230.015 149.754 229.565C146.278 229.34 144.936 229.486 142.567 230.525C138.865 232.151 138.053 232.974 134.567 238.009C130.415 244.161 127.38 246.6 123.982 246.6C122.944 246.6 122.944 246.454 124.06 242.897C126.136 236.305 125.324 230.231 121.25 222.227L119.106 218.005L121.622 208.748C124.07 199.637 125.842 195.19 128.878 190.674C129.769 189.41 130.503 187.784 130.503 187.039C130.503 185.11 128.721 183.258 126.577 182.817C123.316 182.229 121.985 184.003 114.435 199.412C110.587 207.269 105.701 216.604 103.547 220.16C98.5825 228.233 97.7698 229.868 97.6229 231.72C97.2508 234.904 85.775 243.867 81.0358 244.612L78.8915 244.984L80.0762 241.869C80.889 239.645 82.5242 237.421 85.9219 233.944C93.4027 226.234 94.7344 223.648 96.4381 213.568C98.0635 204.006 96.7319 196.454 92.4431 191.271C89.7798 188.009 82.3675 182.229 79.7825 181.416C76.9723 180.456 69.6383 180.976 65.6433 182.376C63.3521 183.121 61.57 184.453 58.0156 188.078C55.4992 190.674 53.2765 192.672 53.0512 192.447C52.454 191.859 55.4208 179.486 59.7194 164.518C63.6458 150.588 68.6102 137.99 70.9015 136.07C72.38 134.737 79.4887 125.548 80.605 123.472C82.3871 120.288 80.4581 116.653 76.4533 115.615C74.309 115.027 73.7117 115.096 71.3421 116.36C67.9346 118.064 64.0081 123.619 62.9017 128.135C62.3827 130.505 61.4231 132.132 59.3473 134.434C55.1271 139.097 51.4258 145.327 46.5398 156.367C44.0919 161.853 40.7627 169.259 39.1373 172.815C33.7323 184.747 25.0667 207.641 25.0667 210.158C25.0667 210.531 24.3225 211.716 23.5098 212.823C22.6971 214.008 21.0619 216.673 19.9554 218.828C18.849 221.052 15.9604 226.234 13.5908 230.388C8.71458 238.901 3.01583 249.97 0 256.72V974.01H639.562C640.365 973.471 641.148 972.883 641.765 972.325C648.434 966.32 652.203 949.95 649.246 939.948C648.659 938.018 648.355 936.245 648.502 936.02C648.649 935.726 650.793 934.541 653.163 933.424C658.127 931.053 663.16 926.537 664.864 922.756C667.312 917.348 665.902 909.717 661.535 905.348C658.059 901.87 654.798 900.979 645.026 900.979C640.806 900.979 635.548 900.685 633.472 900.313C626.51 899.206 614.437 899.5 601.482 901.204C575.417 904.466 572.382 904.682 535.134 904.985C508.628 905.132 494.557 904.985 478.489 904.319C466.416 903.722 445.384 903.359 429.913 903.359H402.663V898.471C402.663 894.327 402.438 893.142 401.106 890.546C398.736 886.098 394.144 882.327 384.294 876.694C366.6 866.77 358.6 861.804 358.6 861.059C358.6 860.618 362.076 857.728 366.375 854.692C376.45 847.58 379.926 844.317 382.002 840.242C383.559 837.284 384.225 836.686 388.22 834.609C395.407 830.828 399.549 825.871 398.296 822.609C397.189 819.641 394.144 818.161 385.41 816.241C375.931 814.165 368.382 814.096 355.046 815.869C339.644 817.946 321.94 821.051 308.986 823.873C296.031 826.684 290.107 827.723 288.923 827.282C288.404 827.056 288.11 826.175 288.11 824.99C288.11 823.883 287.297 821.433 286.328 819.504C285.368 817.505 284.546 815.654 284.546 815.36C284.467 813.214 282.92 809.874 281.138 807.875C278.171 804.613 275.293 803.281 269.516 802.468C265.07 801.87 264.483 801.576 261.888 799.284C260.409 797.874 258.108 796.316 256.855 795.807C253.888 794.543 246.27 794.102 240.709 794.768C235.304 795.513 233.678 794.993 229.673 791.29C224.856 786.843 222.339 780.916 222.339 774.176C222.339 769.876 224.043 761.804 226.853 753.428L229.076 746.61L229.154 729.721C229.233 711.863 229.526 709.717 232.415 703.193C234.931 697.413 240.934 690.448 249.08 683.787C251.822 681.563 253.075 680.975 256.189 680.456C261.369 679.564 269.447 679.643 277.143 680.534C290.47 682.16 307.204 681.122 312.021 678.242C318.905 674.245 317.72 665.125 309.573 659.649C308.242 658.836 308.242 658.757 309.28 657.866C309.945 657.278 311.943 656.906 315.644 656.68C321.862 656.387 324.75 655.201 327.933 651.42C332.006 646.678 332.897 640.977 330.381 635.57L328.971 632.386L334.004 627.419C340.965 620.601 341.259 620.454 350.884 620.229C358.071 620.003 359.325 620.15 364.064 621.492C366.952 622.384 370.429 623.05 371.77 623.05C375.031 623.05 376.95 623.569 376.95 624.461C376.95 625.421 379.691 628.017 382.286 629.349C385.175 630.907 392.205 630.76 399.539 629.055C407.911 627.125 410.643 624.167 408.871 618.828C408.205 616.751 408.273 616.379 409.243 615.35C409.84 614.684 411.172 613.646 412.131 612.979C415.02 611.206 430.569 606.161 436.787 604.976C444.267 603.497 456.86 603.497 462.265 604.898C467.082 606.161 478.705 611.863 483.003 615.047C484.785 616.379 488.487 618.975 491.297 620.826C494.039 622.678 500.031 627.713 504.623 632.014C514.18 641.055 518.322 644.455 528.916 652.086C562.237 676.234 570.678 681.72 586.824 690.242C590.976 692.466 594.227 694.465 594.08 694.758C593.933 694.984 592.601 694.984 591.27 694.68C586.971 693.867 568.161 692.828 564.911 693.269C556.323 694.308 556.989 700.156 566.321 706.308C570.316 709.051 588.313 716.976 594.384 718.681L598.829 720.013V723.05C598.829 726.753 600.161 728.389 604.381 730.24C608.307 731.945 614.525 732.533 635.851 733.356C646.074 733.728 656.071 734.169 658.069 734.394L661.623 734.766L663.405 738.322C664.737 741.065 665.696 742.172 667.557 743.211C673.187 746.247 686.445 748.471 702.513 749.059C712.735 749.431 713.842 749.578 730.057 753.134C739.31 755.211 752.94 758.022 760.274 759.355C767.608 760.687 780.268 763.058 788.415 764.694C796.562 766.32 809.448 768.544 817.144 769.729C824.772 770.914 836.473 772.766 843.209 773.883C861.422 776.919 866.984 777.586 890.601 779.584C906.963 780.916 918.742 781.514 939.177 781.955C965.987 782.621 968.572 782.552 992.787 780.691C996.635 780.397 1009.3 779.878 1020.93 779.506C1065.8 778.173 1100.97 775.803 1121.34 772.766C1130.97 771.287 1153.85 766.398 1154.59 765.654C1155.93 764.321 1152.67 764.243 1139.42 765.36C1124.01 766.545 1102.61 766.692 1102.25 765.585C1101.81 764.028 1103.66 763.361 1113.35 761.735C1125.12 759.805 1134.24 757.885 1148.31 754.623C1155.56 752.919 1164.31 751.508 1182.37 749.284C1195.7 747.658 1207.03 746.169 1207.55 745.953C1208.14 745.728 1208.21 745.875 1207.84 746.247C1207.47 746.541 1203.47 748.177 1198.95 749.803C1187.54 753.879 1175.4 758.62 1174.66 759.365C1173.62 760.403 1175.32 761.363 1178.96 761.814C1184.21 762.48 1253.74 762.411 1265.15 761.735C1296.33 759.884 1302.62 759.365 1326.03 756.328C1342.99 754.182 1355.13 749.96 1361.72 743.955C1367.05 739.067 1367.42 735.07 1362.76 732.689C1360.16 731.357 1358.39 731.132 1345.87 730.025C1331.88 728.839 1328.62 728.918 1311.58 730.838C1303.37 731.798 1294.7 732.768 1292.26 732.983L1287.81 733.424L1289.95 730.975C1291.22 729.643 1292.7 727.497 1293.36 726.234C1294.03 724.901 1294.77 723.716 1295.07 723.569C1295.36 723.344 1299.43 722.981 1304.1 722.609C1321.65 721.277 1326.47 720.013 1342.91 712.382C1348.09 710.011 1354.61 707.121 1357.42 706.014C1362.53 704.016 1365.71 702.164 1365.71 701.273C1365.71 699.421 1347.34 698.53 1333.72 699.647L1328.09 700.166L1333.27 696.982C1342.83 691.202 1349.34 686.245 1355.34 680.162C1360.97 674.529 1366.6 667.045 1368.97 662.01C1370.24 659.414 1370.16 659.492 1387.04 653.791C1393.71 651.498 1400.36 648.971 1401.85 648.158C1403.26 647.345 1406.74 645.865 1409.56 644.827C1421.78 640.526 1427.41 636.755 1430.07 631.044C1432.67 625.489 1431.48 621.267 1426.44 618.005C1424.81 616.967 1421.62 615.115 1419.41 613.861C1411.7 609.708 1411.34 608.013 1416.37 600.744C1422.67 591.702 1423.48 587.108 1422.22 567.554C1421.48 555.407 1421.48 553.918 1422.3 552.664C1424.59 549.255 1425.19 548.961 1430.74 549.03C1437.99 549.108 1438.66 549.402 1439.55 552.507C1440.44 555.544 1442.66 558.062 1445.99 559.845C1447.99 560.883 1449.55 561.108 1456.95 561.255L1465.54 561.481L1467.61 563.479C1471.39 567.035 1473.1 567.623 1480.06 567.623C1487.61 567.545 1493.17 565.918 1499.24 561.922C1502.42 559.845 1503.69 558.591 1505.46 555.476C1506.72 553.33 1509.01 550.362 1510.57 548.883C1515.6 543.847 1529.3 538.293 1536.49 538.293C1544.86 538.293 1556.56 541.996 1558.56 545.18C1561.74 550.362 1562.71 551.4 1565.59 552.811C1570.18 555.035 1573.36 555.182 1584.47 553.702C1592.76 552.595 1594.84 552.439 1597.79 553.036C1599.79 553.409 1603.05 553.556 1605.72 553.33C1610.16 552.958 1610.23 552.958 1611.27 554.516C1612.01 555.623 1612.37 557.925 1612.68 562.225C1613.12 568.896 1614.23 571.561 1618.52 576.302L1620.6 578.673L1620.52 585.041C1620.44 588.518 1620.08 592.74 1619.78 594.445C1619.26 597.11 1618.82 597.776 1616.66 599.186C1609.33 604.153 1607.7 612.372 1613.03 618.299C1614.14 619.562 1616.07 620.963 1617.18 621.561C1618.37 622.08 1619.26 622.668 1619.11 622.746C1618.96 622.893 1614.37 623.559 1608.82 624.226C1603.34 624.823 1597.72 625.705 1596.45 626.077C1592.98 627.037 1588.83 629.261 1586.31 631.485C1583.86 633.63 1581.34 638.45 1581.34 640.967C1581.27 647.266 1588.53 652.076 1598.01 652.076C1600.09 652.076 1607.05 651.479 1613.56 650.812L1625.33 649.48L1627.33 651.773C1632.58 657.925 1631.03 664.067 1623.55 666.516C1619.33 667.927 1601.85 669.847 1585.49 670.738C1575.86 671.257 1568.9 671.923 1565.05 672.736C1560.39 673.696 1557.28 674 1551.13 673.843C1545.06 673.765 1542.61 673.922 1541.13 674.588C1538.32 675.852 1529.58 683.326 1527.8 686.148C1523.36 692.74 1528.84 701.263 1539.13 703.928C1541.28 704.515 1544.83 705.632 1546.99 706.524C1549.55 707.562 1558.63 708.205 1574.24 708.454C1587.04 708.679 1601.05 709.041 1605.19 709.267C1611.48 709.639 1613.63 709.56 1617.41 708.679C1622.74 707.493 1624.08 707.719 1626.96 710.158L1629.04 711.931L1627.26 713.489C1626.22 714.302 1622.22 717.417 1618.37 720.454C1606.15 729.937 1601.18 736.304 1600.45 743.642C1600.08 746.904 1600.08 746.972 1597.19 748.461C1590.74 751.724 1585.49 758.463 1585.49 763.499C1585.49 767.348 1587.42 770.013 1591.85 772.021C1597.85 774.686 1603.99 774.539 1614.07 771.433C1615.92 770.836 1615.11 772.247 1610.14 778.467C1605.77 783.875 1604.14 786.686 1600.96 793.73C1600.58 794.543 1599.33 796.541 1598.22 798.099C1594.22 803.653 1593.4 810.325 1596.07 815.585C1596.74 816.849 1598.88 819.367 1600.96 821.071C1608.51 827.595 1610.95 830.26 1610.58 831.445C1609.92 833.15 1605.32 837.813 1598.81 843.22C1591.48 849.225 1586.01 855.074 1583.64 859.227C1581.85 862.411 1581.78 862.411 1577.56 863.381C1571.2 864.713 1563.12 865.898 1552.61 866.937C1535.06 868.71 1520.18 871.384 1506.4 875.303C1498.69 877.448 1498.62 877.448 1483 877.899C1474.26 878.193 1464.78 878.124 1461.67 877.899C1453.75 877.154 1439.6 877.154 1430.49 877.977L1422.79 878.643L1416.86 876.126C1407.83 872.276 1398.2 867.162 1395.76 864.86C1393.77 862.862 1392.36 859.893 1393.1 859.159C1393.32 858.933 1398.5 858.267 1404.65 857.748C1424.5 855.818 1429.24 854.937 1434.42 851.968C1441.9 847.746 1444.94 841.594 1442.27 836.04C1441.01 833.297 1438.12 831.22 1433.75 829.819C1429.16 828.408 1424.13 828.408 1411.47 829.819C1397.62 831.445 1393.55 831.817 1393.55 831.524C1393.55 831.377 1394.22 829.75 1395.03 827.889C1397.1 823.442 1397.55 817.593 1396.21 812.999C1394.95 808.63 1393.47 806.181 1389.77 802.184C1384.29 796.404 1377.4 793.073 1370.37 792.995C1365.93 792.995 1364.08 793.74 1363.26 795.953C1362.75 797.364 1363.12 798.471 1366.23 804.692C1370.16 812.323 1371.12 815.654 1369.79 817.211C1367.71 819.66 1358.83 822.991 1344.39 826.694C1331.13 830.025 1323.06 833.218 1318.17 837.068C1316.99 838.028 1315.06 839.214 1313.95 839.664C1308.55 841.888 1305.22 846.698 1305.29 852.262C1305.29 859.08 1308.55 862.999 1317.14 866.712C1321.5 868.563 1332.31 871.972 1334.02 871.972C1334.68 871.972 1339.2 876.488 1339.94 877.967C1340.75 879.525 1340.68 879.672 1339.42 880.563C1338.68 881.004 1334.68 882.787 1330.61 884.345C1326.46 885.971 1321.72 888.048 1320.02 888.861L1316.91 890.487L1286.62 891.006C1269.96 891.232 1251.97 891.751 1246.64 892.113C1241.23 892.485 1216.06 893.005 1190.66 893.377C1165.18 893.671 1143.12 894.043 1141.48 894.19C1139.86 894.415 1134.23 894.935 1129.04 895.375C1109.79 897.227 1090.61 900.411 1076.02 904.27C1068.24 906.347 1067.58 906.641 1067.8 908.267C1068.09 910.344 1066.18 910.119 1129.64 916.643L1142.08 917.907L1142.23 919.533C1142.37 920.797 1141.71 922.051 1139.11 925.087C1133.71 931.455 1132.82 934.051 1134.3 939.233C1135.04 941.829 1136 943.308 1138.37 945.679C1142.36 949.607 1148.29 954.79 1150.44 956.2C1154.74 959.09 1171.25 964.272 1182.28 966.202C1191.99 967.907 1216.72 969.837 1251.08 971.541C1263.76 972.168 1272.62 972.873 1279.6 974.039H1880.01V228.291H1880Z" fill="url(#paint2_radial_18_1757)"/>
<path d="M856.565 534.551C857.975 534.923 865.084 535.658 872.339 536.108C879.595 536.628 890.63 537.519 896.779 538.107C910.106 539.439 915.589 539.517 927.878 538.773C932.989 538.401 944.171 537.881 952.758 537.666C966.604 537.147 968.973 537 972.312 535.814C974.829 534.923 977.424 534.551 979.715 534.551C981.712 534.629 984.601 534.257 986.236 533.738C987.861 533.218 991.494 532.405 994.236 531.965C996.977 531.445 999.562 530.779 1000.08 530.554C1001.49 529.741 999.19 528.781 994.157 528.183C984.454 526.919 981.203 526.185 981.203 525.068C981.203 523.285 978.315 520.473 975.72 519.729C972.165 518.769 947.432 519.435 932.92 520.914C926.399 521.58 916.186 522.541 910.184 523.06C899.227 523.951 895.673 524.539 892.931 526.028C892.118 526.547 887.751 527.135 882.493 527.439C870.792 528.252 853.98 530.769 852.874 531.886C852.129 532.552 853.98 533.963 856.575 534.551H856.565Z" fill="#2B9E97"/>
<path d="M855.743 505.505C858.71 504.398 859.15 504.026 859.15 502.762C859.15 499.206 852.854 495.797 845.08 495.062C840.35 494.611 835.356 495.209 830.627 495.454C827.836 495.601 825.016 495.689 822.236 495.993C820.708 496.159 819.445 496.59 817.898 496.482C815.793 496.335 813.717 496.375 811.612 496.482C806.128 496.757 800.616 497.041 795.191 497.903C792.498 498.334 789.825 498.902 787.201 499.686C785.918 500.068 781.679 500.881 781.169 502.399C781.022 502.84 780.063 503.212 778.8 503.212C774.208 503.212 771.25 505.808 772.729 508.62C773.473 510.031 778.653 512.548 785.096 514.547C786.878 515.115 788.709 515.899 790.579 516.026C796.366 516.408 802.182 516.477 807.979 516.232C813.178 516.006 818.348 516.036 823.558 516.075C824.84 516.075 825.673 515.644 826.867 515.409C828.502 515.085 830.128 514.723 831.743 514.321C833.457 513.89 841.378 512.45 841.378 509.737C841.378 509.443 840.791 509.139 840.047 508.992C839.381 508.845 840.194 508.698 841.897 508.62C845.452 508.542 850.631 507.356 855.743 505.505Z" fill="#2B9E97"/>
<path d="M1023.25 512.392C1023.25 513.283 1024.06 513.577 1030.06 514.841C1032.06 515.213 1035.17 515.438 1037.09 515.36C1040.21 515.066 1044.64 513.43 1045.47 512.176C1046.13 511.138 1043.39 509.659 1039.62 508.992C1032.88 507.807 1023.26 509.806 1023.26 512.402L1023.25 512.392Z" fill="#2B9E97"/>
<path d="M1090.94 502.546C1099.6 500.029 1101.68 497.805 1097.61 495.434C1094.65 493.651 1083.91 492.398 1074.28 492.623L1065.76 492.848L1065.25 490.997C1064.66 488.626 1063.1 487.666 1058.14 486.402C1049.4 484.257 1036.66 484.551 1032.88 487C1030.89 488.332 1031.41 490.331 1033.92 491.144C1035.33 491.584 1036.07 492.251 1036.37 493.367C1036.66 494.259 1036.66 494.925 1036.45 494.925C1034.6 494.925 1024.89 496.257 1023.19 496.698C1019.26 497.805 1020.01 500.254 1024.67 501.518C1026 501.89 1034.23 502.625 1042.81 503.222C1051.48 503.82 1064.43 504.329 1071.54 504.329C1084.5 504.408 1084.65 504.408 1090.94 502.546Z" fill="#2B9E97"/>
<path d="M1194.83 497.129C1192.16 496.463 1192.16 496.385 1192.46 494.465C1192.68 493.426 1192.68 491.869 1192.46 491.055C1192.14 489.831 1190.9 488.802 1189.4 488.303C1188.65 488.891 1187.88 489.341 1187.29 490.154C1186.67 490.987 1186.08 491.78 1185.33 492.505C1183.69 494.073 1182.17 495.758 1180.59 497.384C1179.79 498.217 1179.01 498.961 1178.39 499.941C1177.83 500.813 1177.24 501.645 1176.55 502.419C1175.16 503.987 1173.57 505.28 1171.83 506.436C1171.08 506.925 1170.4 506.259 1170.38 505.564H1113.23V505.515C1111.2 506.396 1110.33 507.121 1110.02 508.091C1109.8 508.689 1108.98 509.874 1108.25 510.687C1107.44 511.579 1106.77 512.47 1106.77 512.686C1106.77 513.352 1108.1 514.312 1109.43 514.615H1109.51C1111.74 515.203 1152.1 515.056 1158.09 514.468C1161.35 514.096 1168.23 513.508 1173.49 512.989C1186.38 511.804 1197.27 508.689 1199.49 505.436C1201.78 502.174 1199.71 498.471 1194.83 497.139V497.129Z" fill="#2B9E97"/>
<path d="M1129.44 547.364C1125.96 547.07 1118.92 547.07 1113.89 547.286L1104.64 547.727L1104.26 545.875C1103.89 544.249 1103.31 543.73 1099.01 541.731C1096.12 540.399 1094.41 539.361 1094.93 539.214C1095.45 538.988 1098.93 538.322 1102.64 537.588C1119 534.551 1120.04 533.071 1106.19 532.405C1093.16 531.817 1069.17 533.218 1052.88 535.589C1031.85 538.557 1013.34 541.741 1010 542.848C1007.11 543.808 1005.41 545.366 1006.3 546.326C1006.59 546.551 1012.14 546.923 1018.74 547.07L1030.67 547.364L1027.78 549.813L1024.97 552.262L1022.64 552.331C1022.51 552.409 1022.36 552.458 1022.17 552.468C1016.96 552.703 1011.84 553.8 1006.62 553.82C1004.11 553.82 1001.59 553.751 999.083 553.918C997.859 553.996 996.605 554.006 995.44 553.702C987.294 554.584 982.496 555.897 981.36 557.601C980.469 559.012 980.469 559.159 981.732 560.119C982.545 560.785 984.474 561.383 986.765 561.53C988.762 561.755 991.357 561.97 992.464 562.127C997.281 562.646 1029.05 562.049 1031.27 561.314C1032.6 560.942 1037.56 560.569 1042.22 560.423C1046.96 560.344 1053.63 559.982 1057.04 559.609C1060.52 559.237 1068.59 558.943 1075.11 558.943C1094.58 558.943 1109.84 557.905 1115.39 556.279C1118.05 555.534 1121.31 554.721 1122.79 554.496C1126.49 553.908 1133.45 551.381 1134.79 550.274C1136.93 548.275 1136.12 547.825 1129.45 547.384L1129.44 547.364Z" fill="#2B9E97"/>
<path d="M930.835 555.74C938.756 555.662 938.982 555.593 944.093 553.369C949.126 551.146 952.161 549.216 952.161 548.334C952.161 547.452 947.128 545.072 943.642 544.337C938.316 543.23 934.086 543.377 925.645 545.003C906.464 548.785 901.803 551.449 910.312 553.898C912.015 554.339 915.491 555.005 918.086 555.309C920.75 555.603 926.458 555.828 930.825 555.75L930.835 555.74Z" fill="#2B9E97"/>
<path d="M1012 587.597C1011.19 586.853 1010.15 586.187 1009.78 586.187C1008.15 586.187 1009.26 585.148 1011.55 584.482C1014.44 583.591 1017.91 581.445 1017.91 580.485C1017.91 580.192 1016.95 579.378 1015.69 578.781C1012.43 577.223 999.621 576.851 990.956 578.183C987.401 578.703 979.774 579.369 973.997 579.662C960.964 580.407 952.524 581.514 941.488 584.11C936.827 585.217 931.932 586.334 930.678 586.559C927.79 587 925.273 589.077 925.861 590.409C926.38 591.967 927.711 592.339 934.076 592.701C937.337 592.927 943.407 593.74 947.481 594.474C954.736 595.885 954.962 595.954 955.481 597.658C956.225 599.951 958.291 601.44 961.63 602.106C965.331 602.85 964.597 602.85 980.293 601.88C1017.91 599.51 1027.24 598.03 1030.13 593.583C1030.65 592.77 1031.02 591.957 1030.94 591.878C1030.8 591.8 1026.8 591.065 1022.05 590.321C1014.95 589.214 1013.24 588.763 1011.98 587.578L1012 587.597Z" fill="#2B9E97"/>
<path d="M907.208 579.888C905.729 580.113 896.466 580.26 886.694 580.26C856.183 580.338 841.819 581.818 827.454 586.265C820.865 588.342 819.455 589.233 819.455 591.526C819.455 596.708 829.452 598.05 849.965 595.679C855.517 595.013 861.148 594.494 862.411 594.572H864.78L861.745 595.611C856.046 597.54 854.039 599.833 856.927 601.018C858.484 601.606 863.145 601.312 870.401 600.127C873.211 599.686 878.254 599.02 881.661 598.647C885.137 598.275 891.433 597.09 895.8 595.905C900.099 594.798 904.094 593.906 904.534 593.906C906.16 593.906 914.972 590.203 916.089 589.086C917.792 587.382 917.499 585.53 914.982 583.16C911.868 580.123 910.39 579.457 907.208 579.897V579.888Z" fill="#2B9E97"/>
<path d="M652.624 540.771C658.176 539.361 661.877 536.99 661.877 534.923C661.877 533.738 657.217 531.142 653.143 530.035C649.295 529.075 643.146 529.29 634.333 530.779C628.41 531.818 624.483 533.071 623.377 534.335C622.27 535.746 623.23 537.97 625.227 538.704C626.931 539.292 637.153 540.85 642.627 541.3C647.738 541.819 649.148 541.741 652.624 540.781V540.771Z" fill="#2B9E97"/>
<path d="M738.742 554.476C722.821 553.957 706.302 552.106 702.826 550.479C701.867 549.96 701.044 548.775 700.378 546.776C698.9 542.554 696.902 541.438 690.303 541.438C678.68 541.438 656.757 545.66 637.575 551.586C633.873 552.772 630.466 553.81 630.025 553.957C628.762 554.329 629.281 555.809 630.916 556.249C632.395 556.622 658.764 555.662 663.053 555.064C665.128 554.839 671.64 556.024 672.453 556.847C672.678 557.072 671.562 558.405 670.005 559.884C668.526 561.363 666.969 563.068 666.676 563.665C665.638 565.517 667.116 567.662 670.602 569.367C673.344 570.699 674.901 570.993 681.343 571.365C685.495 571.59 689.931 571.659 691.194 571.59C692.526 571.443 697.862 571.071 703.042 570.777C713.705 570.033 720.373 569.004 726.963 566.927C729.479 566.183 733.259 565.076 735.335 564.557C742.15 562.852 746.595 561.226 748.446 559.737C752.441 556.328 749.552 554.849 738.742 554.476Z" fill="#2B9E97"/>
<path d="M840.713 565.742C842.269 563.812 842.416 560.413 841.085 558.483C839.087 555.593 837.452 555.299 825.242 555.525C815.538 555.75 812.953 555.965 807.323 557.298C803.25 558.258 797.473 559.081 791.774 559.521C781.63 560.266 775.774 561.148 765.111 563.675C744.157 568.71 738.605 571.826 746.448 574.118C749.258 574.931 751.853 575.078 760.519 574.931C774.736 574.637 777.331 574.706 787.769 575.303L796.66 575.822L793.027 577.233C789.101 578.712 786.956 580.417 788.063 581.161C788.435 581.387 789.992 581.749 791.539 582.053C799.392 583.385 804.425 582.347 807.979 578.791C810.055 576.714 816.792 573.902 822.118 572.864C832.194 570.866 838.637 568.416 840.703 565.752L840.713 565.742Z" fill="#2B9E97"/>
</g>
<defs>
<radialGradient id="paint0_radial_18_1757" cx="0" cy="0" r="1" gradientUnits="userSpaceOnUse" gradientTransform="translate(969.12 234.943) scale(966.761 967.211)">
<stop offset="0.02" stop-color="#68D5C7"/>
<stop offset="0.77" stop-color="#0C9088"/>
</radialGradient>
<linearGradient id="paint1_linear_18_1757" x1="945.307" y1="129.017" x2="926.901" y2="546.08" gradientUnits="userSpaceOnUse">
<stop offset="0.05" stop-color="#0C9088"/>
<stop offset="0.82" stop-color="#68D5C7"/>
</linearGradient>
<radialGradient id="paint2_radial_18_1757" cx="0" cy="0" r="1" gradientUnits="userSpaceOnUse" gradientTransform="translate(1002.63 47.6684) scale(1128.02 1128.55)">
<stop offset="0.15" stop-color="#2B9E97"/>
<stop offset="0.81" stop-color="#1A4E6E"/>
<stop offset="1" stop-color="#2B4C57"/>
</radialGradient>
<clipPath id="clip0_18_1757">
<rect width="1880" height="974" fill="white"/>
</clipPath>
</defs>
</svg>
