<svg width="771" height="439" viewBox="0 0 771 439" fill="none" xmlns="http://www.w3.org/2000/svg">
<g clip-path="url(#clip0_18_1775)">
<path d="M766.824 188.648C766.51 184.828 766.005 183.081 764.968 182.249C763.003 180.912 698.293 180.708 693.243 182.14C691.483 182.659 684.264 185.755 677.345 189.152C666.92 194.214 664.75 195.551 664.75 196.997C664.75 198.647 665.064 198.757 668.257 198.129C672.378 197.406 672.174 197.406 704.897 198.02C730.907 198.429 740.705 199.357 742.465 201.526C743.189 202.454 743.284 211.43 742.875 239.698C742.561 259.916 741.81 279.956 742.111 280.366C742.52 280.679 744.417 277.774 745.55 277.555C747.092 277.446 748.852 275.7 752.045 271.157C754.42 267.746 758.541 262.699 761.338 259.916C766.81 254.24 768.148 250.843 769.485 239.698C770.304 232.576 769.28 202.658 768.039 197.297C767.52 195.441 767.001 191.622 766.797 188.634L766.824 188.648Z" fill="#41718B"/>
<path d="M692.821 157.284C697.16 155.114 698.088 153.054 698.293 145.838C698.402 141.295 698.811 139.439 700.053 137.993C700.872 137.066 702.114 135.21 702.741 133.969C704.707 129.944 703.56 129.74 684.374 129.126C674.671 128.812 657.34 128.198 645.782 127.68C634.224 127.161 615.023 126.343 603.26 125.92C591.497 125.606 563.945 124.583 542.166 123.86L502.537 122.414L494.895 126.329C490.665 128.498 486.953 130.763 486.748 131.39C486.339 132.318 487.267 139.753 488.604 146.356C488.918 147.898 489.532 149.344 490.051 149.658C491.293 150.476 506.249 151.199 542.998 152.236C573.962 153.164 608.951 155.128 621.014 156.465C624.835 156.874 641.552 157.502 658.173 157.802C674.794 158.116 688.508 158.525 688.618 158.621C689.232 159.139 689.436 159.03 692.848 157.284H692.821Z" fill="#41718B"/>
<path d="M525.954 104.719C524.917 105.238 522.447 107.202 520.277 109.058C518.108 110.913 515.119 113.601 513.468 115.047C510.275 117.83 509.647 119.999 511.926 120.613C516.156 121.854 660.124 126.806 696.86 126.902C701.814 126.902 702.632 127.216 703.874 128.867C705.211 130.722 705.116 130.927 702.018 135.265C698.921 139.494 698.033 146.779 699.18 148.02C700.312 149.153 701.923 143.314 703.983 140.735C705.116 139.289 708.009 135.988 710.274 133.519C715.119 128.253 716.06 125.47 716.06 116.902V110.613L713.686 110.095C712.348 109.89 708.841 109.89 706.044 110.095C703.151 110.408 691.183 110.204 679.311 109.685C667.548 109.167 644.322 108.239 627.714 107.516C611.202 106.902 595.209 106.179 592.207 105.865C589.314 105.661 573.634 105.047 557.327 104.624C535.343 104.01 527.292 104.01 525.954 104.733V104.719Z" fill="#F2F2F2"/>
<path d="M732.873 199.029C726.132 198.538 673.635 198.416 665.269 199.343L659.483 199.957L659.797 237.515C660.002 258.456 660.521 275.686 660.93 276.519C661.339 277.337 662.472 278.374 663.509 278.783C664.683 279.192 665.051 279.383 664.437 279.697L741.975 280.052C744.24 278.497 745.741 276.355 747.488 274.213C748.43 273.081 749.098 271.771 749.985 270.598C750.818 269.479 751.896 268.579 752.851 267.555C754.953 265.304 757.081 263.081 759.292 260.939C760.357 259.902 761.134 258.715 762.049 257.556C762.24 257.31 762.458 257.105 762.663 256.914C759.633 257.446 744.309 263.613 742.657 264.963C741.839 265.577 741.62 259.397 741.62 234.322C741.62 197.692 746.588 200.025 732.846 199.029H732.873Z" fill="#2C5560"/>
<path d="M684.006 234.309C682.559 217.392 682.15 214.814 681.017 215.946C680.089 216.983 681.427 246.792 682.778 251.948C683.392 254.418 684.224 255.864 685.043 255.864C685.971 255.864 686.175 255.141 685.766 252.671C685.452 250.912 684.633 242.562 684.006 234.309Z" fill="#18333C"/>
<path d="M669.445 206.342C668.408 206.342 668.517 209.234 669.963 232.344C671.096 250.816 672.338 263.394 673.375 266.805C673.58 267.637 674.194 268.251 674.617 268.251C675.749 268.251 675.135 257.624 672.761 230.284C670.905 209.548 670.496 206.342 669.458 206.342H669.445Z" fill="#18333C"/>
<path d="M699.999 206.342C698.238 206.342 699.385 261.539 701.445 269.588C701.964 271.757 702.987 272.167 703.506 270.516C703.915 269.179 701.964 216.451 701.336 210.68C701.022 208.306 700.408 206.342 699.999 206.342Z" fill="#18333C"/>
<path d="M561.394 128.757C561.394 127.72 560.78 127.106 559.743 127.106C557.982 127.106 556.85 128.348 557.682 129.589C558.61 131.131 561.394 130.517 561.394 128.757Z" fill="#18333C"/>
<path d="M538.891 129.794C539.614 129.999 540.747 129.794 541.374 129.385C542.712 128.253 541.17 126.288 539 126.288C536.83 126.288 536.939 129.385 538.891 129.794Z" fill="#18333C"/>
<path d="M523.416 127.625C523.416 126.179 521.656 125.456 518.353 125.456C516.088 125.456 515.16 126.902 516.497 128.239C517.63 129.276 523.416 128.758 523.416 127.625Z" fill="#18333C"/>
<path d="M708.254 219.561C707.326 221.007 707.941 234.513 709.291 240.407C710.424 245.359 711.666 245.468 711.666 240.516C711.666 236.382 710.124 221.526 709.496 219.575C709.087 218.538 708.978 218.538 708.254 219.575V219.561Z" fill="#18333C"/>
<path d="M552.523 129.89C553.451 128.962 551.391 127.106 549.33 127.106C547.474 127.106 546.642 128.648 547.884 129.89C548.607 130.613 551.909 130.613 552.523 129.89Z" fill="#18333C"/>
<path d="M728.684 268.251C729.816 268.251 729.925 265.263 729.611 239.779C729.407 219.138 729.093 211.103 728.37 210.38C727.756 209.766 727.128 209.561 726.828 209.862C726.104 210.585 725.995 261.662 726.718 265.168C727.128 267.133 727.851 268.265 728.684 268.265V268.251Z" fill="#18333C"/>
<path d="M755.007 232.768C753.356 232.768 752.837 233.381 752.114 235.864C751.704 237.515 751.295 240.707 751.295 242.877C751.295 245.864 751.609 247.01 753.151 248.033C755.321 249.48 754.802 249.48 757.381 248.443C759.865 247.515 762.853 243.081 762.853 240.394C762.853 235.96 759.551 232.754 755.007 232.754V232.768ZM756.658 243.504C755.525 244.432 755.416 244.023 755.416 240.721C755.416 237.829 755.73 236.901 756.658 236.901C757.477 236.901 757.9 237.72 757.9 239.684C757.9 241.226 757.286 242.986 756.658 243.504Z" fill="#18333C"/>
<path d="M767.902 180.244L767.152 179.535C766.238 178.675 765.037 178.198 763.781 178.211L729.406 178.702C693.599 179.221 692.971 179.316 688.945 181.185C667.589 191.199 660.465 194.91 658.91 196.97C657.149 199.139 657.149 199.343 657.368 238.961L657.572 278.783L653.861 279.711C647.87 281.253 640.337 285.7 639.518 288.169C637.553 293.64 640.76 296.628 651.8 300.038C655.416 301.17 661.503 303.653 665.419 305.604C671.71 308.797 672.747 309.629 675.94 314.472C681.617 323.039 681.508 327.992 675.531 335.413C669.24 343.353 651.282 349.233 636.312 348.414C632.804 348.21 633.528 346.968 637.963 345.522C646.328 342.739 654.679 333.653 654.679 327.364C654.679 321.075 649.003 315.086 641.06 312.098C632.19 308.797 622.583 307.664 606.795 308.074C598.853 308.387 590.078 309.001 587.39 309.52C578.301 311.17 569.745 314.472 566.743 317.364C561.271 322.521 563.441 326.655 574.071 331.402C577.987 333.162 581.194 334.813 581.194 335.222C581.194 336.354 577.687 338.21 572.106 339.97C555.485 345.236 498.621 349.669 486.134 346.682C481.795 345.645 479.12 343.271 479.939 341.32C481.072 338.128 494.595 334.922 514.723 333.067C529.584 331.62 537.226 329.765 540.419 326.777C545.687 321.825 540.31 317.187 524.221 312.739C518.858 311.402 516.688 310.256 514.205 307.896C511.216 305.113 511.012 304.486 511.012 300.256C511.012 297.473 511.735 293.34 512.977 289.943C517.616 276.737 517.93 275.4 517.316 263.013C517.002 256.614 515.87 245.059 514.737 237.324C511.639 215.551 509.783 186.151 510.711 171.704L511.435 159.835L523.825 173.354C538.686 189.657 548.703 201.103 565.01 220.298L577.182 234.745L565.01 246.41C557.368 253.627 553.138 258.279 553.765 258.688C554.693 259.302 555.621 258.579 570.277 245.687L579.57 237.542L581.426 239.916C582.463 241.157 583.187 242.399 583.078 242.494C582.968 242.604 577.919 246.928 571.928 251.99C555.417 265.809 549.016 271.689 549.016 272.931C549.016 273.545 549.221 274.063 549.535 274.063C550.149 274.063 560.78 266.014 574.712 254.977C580.908 250.025 586.162 246 586.38 246C586.898 246 600.517 262.194 610.425 274.691C618.994 285.523 619.513 286.041 621.26 285.318C623.948 284.281 618.776 276.86 600.408 254.882L590.187 242.604L592.876 240.434C594.322 239.193 595.769 238.17 596.178 238.17C596.492 238.17 602.169 245.809 608.869 255.086C615.474 264.377 621.669 272.726 622.488 273.558C624.139 275.318 626.623 274.895 626.623 272.835C626.623 272.112 620.632 263.34 613.413 253.231C606.194 243.217 600.408 234.759 600.613 234.459C600.927 233.941 639.518 202.372 670.687 177.202C681.003 168.839 684.933 165.237 685.233 163.587C685.547 161.731 686.161 161.322 690.078 160.803C695.55 159.971 696.478 159.262 701.841 150.79C704.215 147.079 708.241 141.295 710.711 137.898C718.353 127.68 718.353 127.789 718.244 120.667C718.244 117.257 718.244 113.028 718.353 111.486V111.445C718.53 109.89 717.37 108.512 715.801 108.403L709.578 107.98C704.516 107.666 683.773 106.848 663.345 106.125C642.916 105.402 611.639 104.269 593.995 103.642C576.241 102.919 553.956 102.1 544.459 101.786L527.114 101.172L519.268 107.257C514.928 110.667 509.975 114.692 508.119 116.124C506.263 117.775 504.298 118.703 503.574 118.498C502.128 118.089 487.581 126.752 485.097 129.535C483.76 130.981 483.76 131.499 485.302 140.367C486.23 145.524 487.472 150.162 487.99 150.79C488.509 151.513 490.774 151.922 493.558 152.031C502.851 152.236 502.742 152.236 504.912 160.599C506.454 166.683 506.768 170.299 506.877 180.408C506.877 195.06 508.733 219.098 511.012 233.859C513.291 248.62 514.519 268.006 513.495 274.104C513.086 276.791 511.435 282.467 509.783 286.791C507.614 292.78 506.89 295.877 506.89 299.888C506.89 309.179 510.507 312.685 525.054 317.432C530.321 319.083 535.575 321.143 536.612 321.975L538.577 323.421L535.275 325.072C530.84 327.337 529.803 327.446 514.328 328.987C494.104 330.952 480.471 334.253 477.073 337.855C474.59 340.543 475.013 344.567 478.001 347.036C483.364 351.579 497.707 353.326 516.811 351.784C552.414 349.001 572.338 345.904 578.533 342.398C588.127 336.927 587.513 332.807 576.677 328.578C570.891 326.314 567.18 323.94 567.18 322.494C567.18 319.192 575.026 315.686 587.717 313.203C597.311 311.239 622.802 311.239 631.262 313.094C639.109 314.854 644.881 317.432 647.774 320.42C649.739 322.48 650.149 323.612 650.149 327.228C650.149 334.144 645.4 339.096 635.288 342.903C630.444 344.663 629.297 344.758 623.73 343.421C616.511 341.88 599.576 345.072 596.178 348.687C593.694 351.266 594.008 354.976 596.901 356.422C601.132 358.592 612.376 356.941 625.586 352.084C630.13 350.433 631.877 350.12 633.118 350.843C635.179 351.975 646.737 351.879 652.319 350.733C669.445 347.323 682.354 337.118 684.005 325.563C684.729 321.02 683.487 317.623 679.161 311.525C674.003 304.513 666.565 300.379 649.753 295.427C647.693 294.813 645.113 293.463 643.967 292.535C642.002 290.775 641.907 290.679 643.353 289.124C644.172 288.197 647.174 286.437 649.958 285.1L655.116 282.835L676.582 283.04C688.345 283.244 707.859 283.558 719.922 283.872C731.89 284.186 742.22 284.281 742.725 283.981C743.244 283.776 747.474 279.343 752.114 274.077C756.754 268.811 762.853 262.208 765.637 259.425L769.622 255.359C770.304 254.663 770.7 253.722 770.7 252.74L770.891 221.867C771.096 204.023 771 187.925 770.686 185.96C770.372 183.695 769.349 181.731 767.902 180.285V180.244ZM581.099 231.103C580.785 231.103 574.18 223.777 566.552 214.8C549.726 194.991 540.133 184.364 524.139 167.447C517.33 160.326 511.858 154.146 511.858 153.723C511.858 153 514.341 153 527.96 154.037L534.565 154.555L540.037 160.844C549.535 171.581 570.482 200.148 586.585 224.091C587.103 225.018 586.585 226.055 584.524 228.224C582.982 229.766 581.426 231.117 581.112 231.117L581.099 231.103ZM540.638 154.337L545.796 154.855C548.689 155.06 570.359 156.097 593.995 157.229C656.126 160.121 657.982 160.217 657.463 161.049C657.259 161.458 642.193 175.292 624.125 191.895C605.962 208.511 590.992 222.017 590.897 222.017C590.801 222.017 589.041 219.643 586.98 216.86C585.015 213.968 577.892 204.473 571.396 195.605C564.792 186.738 556.331 175.169 552.51 169.807C548.689 164.446 544.459 158.771 543.121 157.215L540.638 154.323V154.337ZM590.283 236.669L587.09 239.357L585.234 236.778L583.473 234.2L586.462 231.212L589.45 228.224L591.511 230.694C592.548 232.031 593.476 233.381 593.476 233.586C593.476 233.79 592.029 235.237 590.283 236.683V236.669ZM680.171 162.795C679.447 163.314 663.863 176.097 645.495 191.267V191.158C627.128 206.328 608.76 221.39 604.625 224.786L597.188 230.871L595.223 227.979L593.162 225.087L596.055 222.617C597.597 221.171 613.604 206.833 631.454 190.735L663.959 161.336L667.985 161.131C670.25 160.926 672.624 161.24 673.252 161.745C673.975 162.359 675.736 162.577 678.001 162.154C680.894 161.745 681.303 161.84 680.171 162.768V162.795ZM714.123 122.455C714.123 125.756 713.399 127.093 707.722 134.733C704.215 139.576 700.804 144.119 700.285 144.951C699.466 146.397 699.357 146.288 699.248 144.228C699.248 142.782 700.585 140.108 702.96 136.902C706.986 131.431 707.299 130.299 705.334 128.757C704.202 127.83 704.611 127.107 708.432 123.287C710.807 120.817 713.072 118.853 713.495 118.853C713.809 118.853 714.109 120.504 714.109 122.468L714.123 122.455ZM519.895 111.936L528.67 105.442L572.433 107.202C596.587 108.13 637.867 109.781 664.177 110.708C690.487 111.745 712.171 112.564 712.267 112.673C712.376 112.782 709.483 115.865 705.662 119.59C699.262 125.879 698.648 126.302 695.236 126.302C692.657 126.302 691.729 125.988 692.043 125.265C692.248 124.746 693.08 122.891 693.803 121.24C694.936 118.662 694.936 118.048 693.912 117.216C692.261 115.879 691.429 116.602 689.273 121.759C687.935 125.06 687.007 126.302 685.766 126.302C684.524 126.302 684.319 125.988 684.838 124.446C685.152 123.41 685.561 121.554 685.766 120.313C686.489 116.493 683.801 117.53 681.74 121.759C680.403 124.542 679.475 125.47 678.028 125.47C676.518 125.47 676.345 124.233 677.51 121.759C678.547 119.699 678.642 118.662 678.028 117.939C676.691 116.602 675.34 117.83 673.593 121.854L671.942 125.47H667.193C664.614 125.47 660.588 125.265 658.214 124.951L653.874 124.433L655.116 122.059C656.767 118.962 656.658 116.998 654.911 117.311C654.079 117.516 652.742 119.167 651.814 121.131C650.272 124.228 649.849 124.542 647.065 124.637H644.076L645.618 121.131C649.03 113.696 645.932 112.045 642.316 119.481L640.255 123.71L632.313 123.819C627.974 123.819 622.611 123.614 620.55 123.3C616.838 122.782 616.729 122.782 617.862 120.613C619.718 117.107 619.827 114.419 618.176 114.119C617.139 113.914 616.115 115.047 614.464 118.457C612.704 121.963 611.776 123 610.329 123C608.064 123 608.064 122.891 610.124 118.867C611.666 115.77 611.666 115.456 610.438 115.047C608.787 114.433 606.208 117.107 604.966 120.722C604.352 122.482 603.629 122.987 602.387 122.782C600.531 122.577 600.531 122.373 601.568 116.998C602.387 113.178 599.603 114.215 597.543 118.444L595.782 122.154H588.973C585.152 122.154 581.959 121.841 581.645 121.336C581.331 120.927 581.754 119.481 582.477 118.034C583.61 115.77 583.61 115.456 582.368 115.047C580.921 114.433 577.1 118.239 577.1 120.313C577.1 120.927 576.063 121.35 574.617 121.35C571.833 121.35 571.724 121.036 573.375 118.048C573.989 116.916 574.508 115.156 574.617 114.133C574.617 110.831 572.352 112.168 569.977 116.916L567.603 121.459L563.468 121.049C561.203 120.736 556.658 120.531 553.356 120.531H547.27L548.607 118.062C551.596 112.182 548.498 111.35 544.691 117.025C543.149 119.194 541.907 120.326 541.183 120.013C540.146 119.603 540.146 119.194 541.183 117.23C543.872 112.073 541.074 111.459 537.676 116.411C535.916 118.88 534.783 119.603 533.037 119.712H530.662L533.241 116.52C538.304 110.122 534.688 109.399 528.806 115.592L524.985 119.726L518.067 119.112L511.053 118.498L519.923 112.004L519.895 111.936ZM497.816 125.865L503.179 122.768L523.825 123.696C535.179 124.214 579.352 126.07 622.079 127.925C664.696 129.781 700.094 131.336 700.722 131.431C701.445 131.54 700.927 132.877 699.18 135.142L696.396 138.648L687.731 138.539C682.982 138.43 672.87 138.13 665.433 137.72C631.576 135.961 503.506 130.394 497.515 130.394C489.983 130.394 490.078 130.19 497.829 125.852L497.816 125.865ZM500.709 145.265C501.323 145.783 501.95 146.806 501.95 147.434C501.95 148.675 500.613 148.771 495.032 148.048L491.211 147.529L490.392 142.891C489.874 140.313 489.15 137.216 488.741 135.974L487.922 133.71L491.839 134.119C494.008 134.323 511.339 135.251 530.43 136.179C637.24 141.24 688.536 143.614 691.633 143.614H695.141V148.362C695.141 151.049 694.622 153.832 694.104 154.555C692.452 156.724 686.571 156.82 653.438 155.169C608.446 152.904 528.151 149.385 520.305 149.385C516.593 149.385 513.386 149.071 513.181 148.662C512.868 148.252 513.072 146.806 513.7 145.469C514.423 143.505 514.423 142.686 513.591 141.759C512.349 140.217 503.165 139.18 500.995 140.313C499.139 141.349 498.935 143.819 500.681 145.265H500.709ZM509.279 146.711C508.351 149.194 506.181 149.085 505.253 146.397C504.498 144.542 504.844 143.614 506.29 143.614C509.183 143.614 510.111 144.651 509.279 146.711ZM618.053 350.693C607.736 353.885 600.408 354.717 598.129 353.066C596.587 351.825 596.683 351.825 598.539 350.583C599.671 349.86 602.251 348.824 604.325 348.414C610.111 347.173 625.476 346.354 625.995 347.282C626.309 347.691 622.802 349.246 618.053 350.693ZM740.665 212.958C740.555 219.043 740.351 236.478 740.05 251.553L739.436 279.002L729.529 278.892C723.961 278.783 706.822 278.483 691.442 278.169C675.968 277.76 663.058 277.651 662.758 277.856C661.83 278.469 661.421 270.325 660.588 235.66C660.07 213.163 660.07 201.512 660.697 200.789C661.735 199.548 680.102 199.548 715.705 200.899L740.787 201.826L740.678 212.972L740.665 212.958ZM742.207 196.86L734.565 196.97C730.334 196.97 724.043 196.86 720.523 196.656C717.111 196.547 703.697 196.137 690.801 195.824L667.48 195.21L674.494 192.522C678.315 191.076 684.196 188.498 687.594 186.847L693.68 183.955L726.814 183.545L759.947 183.027L751.077 189.944L742.207 196.86ZM766.36 218.838L766.251 251.744L760.261 258.142C756.958 261.648 751.895 267.528 748.907 271.143L743.544 277.746L744.062 274.445C744.376 272.59 744.895 254.95 745.195 235.237L745.714 199.33L755.621 192.113C761.093 188.088 765.733 184.991 766.047 185.305C766.251 185.619 766.456 200.68 766.36 218.838Z" fill="#18333C"/>
<path d="M755.826 203.873C753.451 203.873 752.114 206.451 751.486 212.44C751.172 216.574 751.281 217.801 752.414 218.934C754.065 220.585 754.174 220.585 756.235 219.548C758.296 218.415 761.189 212.836 761.189 209.957C761.189 207.27 758.2 203.873 755.826 203.873ZM756.221 212.058C754.434 212.058 754.434 209.275 756.221 209.275C758.009 209.275 758.009 212.058 756.221 212.058Z" fill="#18333C"/>
<path d="M95.3877 82.2773C95.5924 81.5543 96.0018 78.6621 96.3157 75.7835C96.8342 71.1451 96.6295 70.2174 94.7736 66.9159C91.7851 61.8546 76.8152 48.5532 67.6312 42.878C57.2055 36.4797 50.9145 33.6966 34.2934 28.226C15.8164 22.1415 10.7673 22.1415 6.01836 28.226C3.64391 31.2137 3.64391 39.0581 5.90919 44.1194C8.28364 49.2763 17.3584 58.3621 27.1701 65.2652C37.2819 72.4821 58.4473 83.2187 67.0035 85.4833C77.6339 88.3755 94.2551 86.5201 95.3877 82.291V82.2773Z" fill="#D89568"/>
<path d="M160.398 98.4848C162.664 99.7262 168.136 103.437 172.571 106.848C178.452 111.281 181.032 112.727 182.478 112.523C184.129 112.209 184.334 112.414 183.925 113.969C183.106 116.957 184.743 120.163 187.746 121.39C191.253 122.932 193.109 122.318 196.411 118.703C201.474 113.232 199.099 105.292 192.494 105.292C190.734 105.292 188.987 105.811 188.373 106.534C187.554 107.571 186.927 107.352 184.143 104.992C180.022 101.486 162.609 91.4044 158.583 90.7768C155.69 90.2584 156.168 91.991 156.168 94.051C156.168 95.8109 156.987 96.6294 160.398 98.4848Z" fill="#2C5560"/>
<path d="M227.483 182.563C217.985 177.816 194.5 172.891 184.375 174.746C171.888 177.011 160.917 185.142 159.77 190.817C159.047 194.95 160.698 199.684 164.001 202.986C167.412 206.492 177.101 210.516 185.575 212.167C190.12 212.986 196.206 213.3 205.704 213.095C220.36 212.781 223.144 212.167 234.293 206.601C238.004 204.746 238.632 203.914 239.56 200.721C240.379 197.529 240.379 196.697 238.946 193.395C237.295 189.78 232.341 185.032 227.497 182.563H227.483Z" fill="#F2F2F2"/>
<path d="M242.958 185.769C243.777 181.744 243.777 154.61 242.849 151.622C241.307 146.151 238.619 143.368 231.7 139.958C214.669 131.595 185.466 128.403 174.931 133.873C173.594 134.596 169.077 136.888 166.907 138.948C161.64 144.214 161.313 149.862 159.443 165.128C158.515 171.936 157.382 178.852 156.864 180.503C156.345 182.154 156.141 184.214 156.55 185.046C157.069 186.492 157.164 186.492 158.201 185.155C158.72 184.337 159.538 183.709 160.057 183.709C160.466 183.709 161.708 182.781 162.841 181.54C166.757 177.311 178.425 172.972 189.26 171.745C194.009 171.226 205.881 172.781 215.161 175.155C222.284 176.915 232.914 182.277 236.217 185.783C239.724 189.398 242.208 189.398 242.931 185.783L242.958 185.769Z" fill="#41718B"/>
<path d="M171.288 317.2C178.302 309.465 185.562 294.281 187.937 281.703C189.793 271.907 189.097 253.272 186.517 245.427C180.636 227.065 165.68 208.593 151.951 203.641C140.079 199.412 133.27 199.862 125.014 200.271C116.034 200.68 108.447 201.349 96.2747 209.698C82.2327 219.398 76.3238 228.852 72.2982 240.202C71.4794 242.467 69.5553 246.86 68.409 249.848C65.6252 256.451 65.9527 267.856 67.1945 281.471C68.7365 298.497 71.9707 304.486 80.9499 315.631C87.1453 323.476 99.618 331.416 110.358 336.273C118.927 340.092 114.574 335.877 124.277 336.082C129.64 336.286 134.293 336.491 134.389 336.6C135.003 337.323 144.405 335.672 147.394 334.431C151.624 332.671 166.539 322.548 171.288 317.187V317.2Z" fill="#F2F2F2"/>
<path d="M235.767 209.248C234.525 208.934 231.414 210.626 229.039 211.553C218.723 215.987 197.462 217.229 183.734 214.241C179.599 213.422 175.478 212.386 174.645 212.072C171.029 210.735 161.954 204.855 159.58 202.277C157.205 199.698 154.804 197.393 150.983 197.393C143.764 197.393 143.887 202.181 150.491 203.218C154.722 203.941 166.075 212.508 173.403 220.557C179.176 226.956 185.48 238.402 188.264 247.692C191.881 260.08 189.915 276.491 186.518 288.156C183.42 298.988 176.815 315.072 170.729 319.915C157.001 330.857 156.277 331.675 157.833 333.53V333.64C159.075 335.086 159.375 335.086 165.161 333.53C167.74 332.917 180.022 330.638 192.508 328.578C232.342 321.975 231.523 323.626 241.225 314.445C254.435 301.757 261.736 280.161 261.736 265.414C261.736 259.125 259.075 240.162 256.182 233.872C252.565 225.728 240.72 210.517 235.767 209.275V209.248Z" fill="#41718B"/>
<path d="M83.8293 205.578C92.8085 207.542 97.4483 207.119 104.367 204.036C114.888 199.193 118.409 198.47 132.028 197.952L144.623 197.542L145.347 194.759C146.479 190.639 145.142 187.542 140.598 184.241C129.763 176.301 120.538 170.121 103.603 170.121C93.2862 170.23 84.2523 174.241 77.129 177.856C66.7033 183.122 60.3305 190.953 67.6585 197.979C71.575 201.799 77.552 204.282 83.843 205.619L83.8293 205.578Z" fill="#F2F2F2"/>
<path d="M70.1965 178.539C72.9804 175.551 74.6316 174.514 79.5851 173.068C91.8668 169.453 109.307 168.525 120.142 171.008C127.784 172.659 138.196 177.72 142.945 181.949C148.826 187.215 149.236 186.901 150.887 175.96C153.361 159.662 154.289 150.581 153.671 148.716C151.405 141.704 143.149 135.715 128.903 130.872C121.984 128.498 119.719 128.089 110.535 127.775C98.5671 127.366 85.5622 129.112 79.5715 131.895C77.7156 132.823 75.0273 134.787 73.69 136.329C71.2063 139.016 68.6272 145.92 68.6272 149.535C68.6272 150.572 67.6993 155.415 66.4574 160.271C63.8783 171.213 63.3597 181.417 65.4203 181.84C66.2391 182.045 68.2042 180.599 70.1692 178.539H70.1965Z" fill="#41718B"/>
<path d="M210.466 223.381C200.041 225.346 199.017 225.646 199.741 226.888C199.945 227.297 206.236 227.611 213.673 227.611C225.75 227.611 227.401 227.406 229.148 226.069C233.897 222.044 225.027 220.803 210.466 223.381Z" fill="#2C5560"/>
<path d="M233.993 172.413C235.644 171.076 235.958 169.93 236.258 163.75C236.667 156.424 235.644 152.195 233.474 151.363C231.413 150.544 206.332 152.4 201.692 153.628C190.543 156.724 187.759 158.375 187.759 162.195C187.65 165.087 190.857 166.424 201.378 167.761C206.741 168.484 215.72 170.135 221.083 171.376C226.555 172.713 231.304 173.859 231.604 173.859C231.809 173.969 232.942 173.245 233.979 172.413H233.993Z" fill="#2C5560"/>
<path d="M181.045 201.294C181.045 203.668 184.143 205.005 192.603 206.451C196.943 207.174 201.378 207.897 202.51 208.101C203.643 208.306 207.355 208.306 210.766 208.101C220.674 207.583 226.664 203.763 227.797 197.269C229.039 190.871 222.953 185.1 217.167 187.16C215.72 187.679 213.032 189.016 211.285 190.148C206.85 193.04 200.245 195.209 191.061 196.751C182.696 198.088 181.045 198.811 181.045 201.294Z" fill="#DCD5D2"/>
<path d="M101.269 318.196C105.295 321.702 115.311 326.45 120.879 327.377C127.688 328.619 139.042 327.691 145.237 325.522C151.842 323.039 155.759 320.365 162.063 314.076C168.149 307.882 170.933 302.835 175.791 288.278C179.408 277.76 179.708 276 179.708 268.879C179.817 259.806 178.261 253.094 174.14 244.322C170.947 237.61 167.849 235.032 162.896 235.032C156.7 235.032 154.53 238.647 150.205 255.359C145.865 271.662 142.358 278.674 134.006 286.928C124.823 295.904 118.627 299.097 107.587 300.543C103.043 301.157 99.0174 301.989 98.608 302.398C98.2942 302.807 97.5709 304.663 97.066 306.627C95.7287 310.966 97.066 314.363 101.296 318.182L101.269 318.196Z" fill="#DCD5D2"/>
<path d="M115.83 162.809C121.507 163.845 125.423 165.073 129.872 167.352C137.091 171.062 140.093 171.485 141.744 168.798C142.467 167.761 142.781 161.867 143.804 157.338C146.288 146.192 147.721 147.966 131.318 147.966H118.723L112.009 151.158C104.79 154.569 103.029 156.001 102.511 158.689C102.197 160.448 102.102 160.448 115.83 162.822V162.809Z" fill="#2C5560"/>
<path d="M247.598 297.023C247.489 296.682 247.325 296.355 247.134 296.055C246.506 295.1 245.524 294.431 244.473 293.995C241.443 292.726 238.005 293.258 234.73 293.558C229.012 294.076 223.253 293.845 217.522 294.295C213.005 294.649 208.665 295.795 204.162 296.218C201.269 296.532 196.22 296.832 193.013 296.832C189.915 296.941 186.408 297.146 185.371 297.446C184.238 297.76 181.236 301.266 177.32 306.832C168.654 319.424 168.027 321.893 172.98 323.135C175.669 323.858 185.371 323.244 194.241 321.798C197.23 321.28 202.606 320.87 206.209 320.87C218.804 320.761 227.47 318.906 233.46 314.99C233.46 314.649 236.258 312.753 236.613 312.412C237.855 311.252 239.028 310.025 240.147 308.756C242.453 306.15 244.514 303.326 246.67 300.598C246.998 300.188 247.311 299.779 247.516 299.302C247.816 298.579 247.803 297.76 247.571 297.01L247.598 297.023Z" fill="#2C5560"/>
<path d="M83.6245 267.528C83.6245 274.022 84.4569 277.951 86.3128 280.215C88.3734 282.589 89.7244 280.938 91.5803 273.408C93.6409 265.263 94.5688 263.19 100.15 255.768C106.96 246.791 112.227 242.248 118.518 239.984C129.353 236.068 133.379 232.344 133.379 226.26C133.379 220.584 126.883 216.669 120.374 218.415C111.19 220.898 99.0175 230.898 92.7129 241.116C86.3128 251.539 83.6245 259.383 83.6245 267.528Z" fill="#DCD5D2"/>
<path d="M128.411 195.619C129.653 194.486 130.881 192.522 131.195 191.185C132.328 185.919 126.242 180.558 120.565 181.894C117.372 182.508 98.0622 192.113 95.2783 194.377C91.9759 197.065 94.0365 198.606 101.269 198.92C119.842 199.848 124.7 199.234 128.411 195.619Z" fill="#DCD5D2"/>
<path d="M78.5754 50.9681C77.8521 50.9681 75.8871 49.6311 74.345 48.0759C71.2473 44.979 68.2588 44.1605 69.0776 46.6298C69.3914 47.4483 70.3194 50.3405 71.3428 53.0281C72.994 57.9803 72.994 58.0894 71.5475 62.1139C69.2823 68.3076 64.7381 71.0907 57.3009 71.1862C48.8402 71.2953 45.8516 74.6923 49.9728 79.3307C51.8287 81.4998 59.3614 83.9691 72.0525 86.8613C84.2249 89.5489 96.5066 87.6935 98.3624 79.549C99.0857 75.9337 95.5786 69.5218 90.0109 61.3772C85.1665 54.365 81.4411 50.9544 78.5617 50.9544L78.5754 50.9681Z" fill="#EEC696"/>
<path d="M23.3625 28.6899C28.6299 24.147 27.5928 23.0146 17.9995 23.0146C11.3947 23.0146 9.85268 23.3284 7.57375 24.87C4.27136 27.0392 2.51099 31.7867 3.23424 35.9067C3.95749 39.4129 11.3811 50.6542 16.6485 56.1248C19.1321 58.7033 21.1927 60.0402 22.5301 60.0402C24.7953 60.0402 27.4836 57.8711 27.4836 56.0157C27.4836 55.2927 25.6278 50.9544 23.3625 46.4251C18.095 36.1114 18.095 33.2192 23.3625 28.6763V28.6899Z" fill="#EEC696"/>
<path d="M134.034 212.945C132.696 211.608 117.112 215.728 111.026 219.029C105.24 222.017 96.8885 229.657 93.2722 235.018C91.9349 237.078 90.7886 239.138 90.7886 239.452C90.7886 240.898 91.9212 240.066 99.1537 233.258C107.301 225.523 113.496 221.908 125.477 217.788C134.143 214.896 135.275 214.172 134.047 212.945H134.034Z" fill="#18333C"/>
<path d="M149.918 250.925C148.676 250.925 137.841 264.24 127.729 278.265C121.438 286.928 117.208 294.567 117.208 297.351C117.208 300.447 119.473 298.483 124.427 291.157C127.32 286.928 133.611 277.637 138.564 270.42C149.604 254.227 151.569 250.925 149.918 250.925Z" fill="#18333C"/>
<path d="M131.236 291.062C131.236 294.254 132.574 293.326 137.323 286.928C144.446 277.337 148.676 270.311 147.544 270.011C145.169 269.179 131.236 287.242 131.236 291.062Z" fill="#18333C"/>
<path d="M153.221 317.678C148.376 320.979 142.59 323.244 137.022 323.872C129.585 324.799 127.934 325.318 127.934 326.45C127.934 327.064 128.971 327.787 130.199 327.992C134.539 328.715 142.795 327.678 146.711 326.027C151.256 323.967 156.823 318.906 156.823 316.737C156.823 315.4 156.305 315.495 153.207 317.664L153.221 317.678Z" fill="#18333C"/>
<path d="M245.797 213.572L239.397 207.174L241.252 204.391C242.904 202.017 243.313 199.125 245.073 180.762C246.834 162.29 247.038 158.989 246.111 151.977C245.183 144.964 244.773 143.723 242.699 141.554C240.638 139.494 240.215 138.252 240.215 135.156C240.215 130.408 238.769 129.999 238.046 134.432L237.527 137.625L232.464 135.36C229.776 134.023 224.932 132.263 221.834 131.54C216.771 130.203 216.266 129.78 216.266 127.925C216.157 125.237 215.024 123.382 213.892 124.105C213.373 124.419 212.964 125.647 212.964 126.888C212.964 128.948 212.855 128.948 207.901 128.43C205.117 128.116 198.608 127.911 193.559 127.911C184.989 127.911 184.375 127.802 183.652 126.152C182.314 123.164 180.868 123.464 179.94 126.984C179.107 129.971 178.602 130.394 175.095 131.622C172.83 132.345 169.309 133.996 167.153 135.442C164.542 137.097 163.405 137.27 163.742 135.96C163.946 134.828 164.465 131.213 164.67 127.816C165.079 122.864 167.972 108.416 168.804 107.489C168.914 107.284 171.179 108.73 173.758 110.586C176.446 112.345 179.026 113.887 179.544 113.887C180.063 113.887 180.786 115.224 181.086 116.984C181.495 119.467 182.219 120.394 184.798 121.936C190.884 125.442 197.694 123.587 200.696 117.816C203.589 112.032 201.515 105.129 195.947 102.441C194.091 101.513 192.958 101.404 189.956 102.236C186.654 103.164 186.135 103.069 183.761 101.2C182.314 100.163 179.121 98.2118 176.637 96.9704C174.154 95.7289 171.998 94.5966 171.889 94.5966C171.779 94.4874 172.407 90.1628 173.335 85.0059C175.095 74.5831 175.396 70.1493 174.154 70.1493C173.117 70.1493 170.961 77.2707 168.068 90.0536L167.549 92.3183L162.486 90.2583C157.847 88.4029 157.328 88.2938 154.954 89.5352C153.507 90.1491 152.061 90.7767 151.542 90.7767C151.023 90.7767 149.782 91.5952 148.758 92.5366C145.974 95.2241 146.274 98.8257 149.891 104.092C151.542 106.575 153.807 110.49 154.844 112.755C157.219 117.816 158.761 129.371 157.628 133.696C157.219 135.237 156.7 138.757 156.386 141.336C155.772 146.492 154.735 147.529 153.903 143.709C153.589 142.468 152.142 140.094 150.491 138.648C148.008 136.165 147.707 135.347 147.707 131.431C147.707 129.057 147.393 127.093 146.984 127.093C146.056 127.093 145.224 129.153 145.224 131.227C145.224 133.709 143.886 133.914 140.27 132.059C138.51 131.131 133.979 129.576 130.158 128.443L123.349 126.479L123.035 122.659C122.926 120.599 122.516 118.839 122.107 118.839C121.07 118.839 119.623 121.622 119.623 123.682C119.623 125.224 119.214 125.333 109.511 124.924C103.944 124.61 97.2298 124.815 94.6507 125.238L90.011 125.961L90.5295 123.177C91.1436 119.262 88.8783 119.876 87.9504 123.996C87.2271 126.479 86.613 127.093 83.8156 127.911C75.8734 130.285 68.3407 135.851 66.785 140.599C64.9291 146.274 61.9406 163.6 60.9035 174.446C59.8664 184.964 59.9755 186.206 61.3129 190.025C64.6153 199.316 69.8827 204.159 79.5852 206.737C82.4782 207.57 84.9482 208.702 84.9482 209.22C84.9482 209.834 85.8761 210.557 87.0088 210.762C88.4553 211.171 87.5592 213.063 84.3205 216.437C78.4389 222.835 74.0994 229.329 70.3876 237.283C67.8085 242.849 67.2899 243.367 64.0967 244.404C59.7572 245.741 59.3478 247.91 63.3735 248.32C65.9526 248.524 66.0618 248.633 65.5432 251.212C64.2059 257.296 63.4826 264.104 63.4826 269.888L63.3735 276.082L58.2152 264.527C55.3222 258.128 52.3336 251.73 51.6104 250.284C50.3686 247.91 50.2731 240.693 50.2731 164.241C50.2731 97.6934 50.4777 80.7768 51.3102 81.0769C60.6033 84.9923 64.2059 86.2338 70.4013 87.5707C94.0366 92.5229 105.076 85.1969 97.339 69.6173C85.9307 46.848 43.4226 21.4595 16.5804 21.4595C8.63831 21.4595 4.09411 23.2193 1.51496 27.4485C-0.859487 31.3639 -0.450099 35.2929 2.75677 41.7867C8.11975 52.4142 22.2573 65.3063 38.9876 74.8014L46.2065 78.8259V246.587L33.9248 271.662C20.8244 298.483 12.4593 316.232 10.6034 321.293C9.88012 323.353 9.06135 324.39 8.02423 324.39C5.75895 324.39 3.27533 325.931 3.27533 327.282C3.27533 328.933 9.77095 328.933 13.5919 327.282C16.8943 325.945 17.3037 324.39 14.4243 324.39C13.2917 324.39 12.3637 324.185 12.3637 323.871C12.3637 323.558 14.1241 320.161 16.3894 316.232C18.5591 312.316 26.0919 297.869 32.9014 284.145C39.7108 270.42 45.5924 259.179 45.7971 259.179C46.0018 259.179 46.2065 276.819 46.2065 298.387V337.596L44.2414 338.428C43.1088 338.837 41.9761 339.56 41.6623 340.079C40.3249 342.139 50.3276 343.38 54.8718 341.729C56.6322 341.006 56.9324 340.693 56.1137 339.669C55.5951 339.055 54.1486 338.428 52.9204 338.223L50.7507 338.019L50.546 297.569L50.3413 257.119L58.0787 275.277C64.9974 291.675 65.6115 293.544 64.1649 294.049C61.1764 295.181 62.9231 297.964 66.8533 297.964C67.7812 297.964 68.7092 298.892 69.2277 300.652C69.7463 302.194 71.8069 306.327 73.9766 309.833L77.7976 316.327L77.0743 332.111C76.7604 340.774 76.3511 350.27 76.3511 353.257V358.619L71.5066 359.137C65.939 359.751 65.011 360.379 67.2763 362.029C68.6136 363.066 70.8926 363.271 80.7997 362.752C93.6954 362.138 94.9373 361.934 94.9373 360.174C94.9373 359.451 93.4908 358.932 90.8024 358.523C87.9094 358.114 86.6676 357.596 86.6676 356.763C86.6676 355.631 85.8352 347.173 83.7746 326.641L83.3652 322.616L87.5956 326.436C99.9864 337.473 117.222 343.053 132.901 340.884C136.613 340.365 140.12 339.751 140.639 339.547C141.253 339.342 152.606 337.582 165.816 335.631C183.16 333.053 189.861 332.33 189.861 333.053C189.861 334.294 187.486 356.477 186.872 361.224L186.463 364.635L182.123 365.153C176.242 365.876 171.697 367.213 171.697 368.346C171.697 369.383 200.491 368.66 205.554 367.527C209.989 366.49 209.266 364.539 204.107 364.021C201.733 363.816 199.672 363.407 199.468 363.189C199.358 362.984 199.358 355.549 199.577 346.572L199.986 330.474L213.714 328.51C227.129 326.75 230.84 326.041 233.938 324.799C235.48 324.185 235.48 324.485 234.975 332.33C234.661 336.763 234.156 343.162 233.938 346.354L233.42 352.234L230.226 352.752C226.924 353.271 225.791 355.222 228.466 355.849C230.322 356.368 256.018 355.017 256.645 354.512C257.683 353.475 254.066 351.415 250.559 351.006C248.389 350.802 246.534 350.188 246.424 349.669C246.22 349.151 245.292 341.934 244.364 333.476L242.713 318.305L245.087 315.727C250.764 309.738 257.683 296.436 261.49 284.049C263.455 277.555 263.66 275.686 263.66 262.903C263.66 246.301 262.418 240.311 256.127 227.829C253.029 221.635 250.859 218.647 245.81 213.586L245.797 213.572ZM189.451 106.998C195.742 104.624 200.286 111.841 195.647 116.793C192.344 120.299 184.907 118.962 184.907 114.828C184.907 112.973 188.1 107.502 189.451 106.984V106.998ZM170.77 99.9853C171.384 99.0577 172.421 99.3714 176.337 101.841C183.979 106.479 183.556 106.07 182.423 108.034C181.905 108.962 181.182 109.794 180.772 109.794C179.844 109.794 170.033 102.468 170.033 101.745C170.033 101.431 170.346 100.613 170.756 99.9853H170.77ZM47.653 63.983C46.9297 63.6692 45.3877 61.8138 44.2414 59.9584C41.867 55.9339 34.8528 47.8849 33.7201 47.8849C33.3107 47.8849 32.9969 48.1987 32.9969 48.7171C32.9969 49.5493 39.6017 60.2722 43.6273 65.8383C45.0738 67.8028 46.2065 70.2721 46.2065 71.4044C46.2065 73.3689 45.4832 72.946 36.504 66.1385C22.5711 55.6201 16.5804 48.5943 14.4243 39.8358C13.9058 37.8713 13.087 36.3297 12.664 36.3297C11.2175 36.4389 12.2546 42.9327 14.4243 47.6802L16.4849 52.3187L14.3152 50.3542C7.81953 44.1605 3.48002 35.0883 4.92653 30.75C6.05917 27.6531 8.43362 26.3162 14.0149 25.7978C37.4456 23.7378 85.8488 51.8003 94.6234 72.5368C96.3838 76.6568 95.756 81.609 93.2861 83.478C92.0443 84.4057 89.6698 85.3334 87.9231 85.538L84.6207 86.0564L86.1627 84.4057C87.9231 82.3457 89.0557 75.1152 87.6092 75.1152C87.0907 75.1152 86.3674 76.2475 86.1627 77.5845C85.8489 78.9214 84.7162 80.9951 83.6791 82.1274C82.0279 83.9828 81.1 84.1874 75.8325 84.1874C72.5301 84.1874 68.8183 83.669 67.3718 83.0551C65.9253 82.332 62.6229 81.0906 59.9346 80.1629C51.0645 76.9706 50.3413 76.343 50.3413 72.5231V69.1125L57.5602 69.5218C64.9974 70.0402 67.9859 69.4126 66.3347 67.6664C65.8161 67.148 61.7905 66.3294 57.2463 65.7019C52.7021 65.088 48.4717 64.2558 47.653 63.942V63.983ZM250.45 227.624C251.173 229.07 251.787 230.407 251.787 230.612C251.787 231.226 246.725 231.744 217.931 234.022C203.179 235.155 189.751 236.287 188.1 236.601C185.316 237.01 185.003 236.805 183.965 234.336C182 229.384 174.877 219.275 169.923 214.418C167.235 211.635 165.175 209.261 165.379 209.057C165.693 208.852 168.068 209.671 170.851 210.912C180.349 215.141 187.473 216.383 202.129 216.383C213.073 216.383 221.738 215.046 229.585 212.358L234.225 210.707L238.25 213.395C242.385 216.082 247.953 222.685 250.423 227.638L250.45 227.624ZM159.839 191.417C160.876 187.188 171.083 179.03 173.458 180.476C173.976 180.789 174.904 180.367 175.423 179.644C176.76 177.788 186.367 175.824 194.419 175.824C202.47 175.824 204.435 176.342 204.94 178.402C205.458 180.257 208.037 180.462 208.037 178.716C208.037 177.065 209.279 177.174 215.98 179.234C224.85 181.922 229.503 184.596 229.503 186.874C229.503 189.357 230.322 190.066 231.768 188.934C233.529 187.392 237.759 192.031 238.264 196.26C238.673 199.152 238.373 199.875 235.78 202.863C231.864 207.201 228.971 208.429 219.992 209.984C205.854 212.249 191.307 212.153 180.458 209.671C169.419 206.983 158.379 197.392 159.812 191.417H159.839ZM239.301 148.184L239.915 145.715L241.252 149.739C243.013 154.801 243.013 160.162 241.457 172.959C240.734 178.429 239.915 183.9 239.601 185.032L238.987 187.201L236.408 185.032L233.924 182.863L236.299 166.765C237.541 157.897 238.878 149.535 239.287 148.198L239.301 148.184ZM215.052 135.592C215.256 134.869 215.98 134.774 217.426 135.387C218.463 135.797 219.596 135.906 219.801 135.701C220.21 135.292 228.37 138.075 232.601 140.244C234.975 141.486 236.108 142.509 236.108 143.75C236.108 145.292 231.768 172.127 230.636 177.693C230.117 180.38 230.226 180.38 224.959 177.897C222.694 176.86 218.245 175.319 215.256 174.487C212.159 173.668 209.689 172.727 209.689 172.427C209.689 170.981 214.642 136.52 215.052 135.592ZM178.725 161.39C180.991 145.401 182.546 135.797 183.365 134.46C184.607 131.977 206.686 131.363 210.398 133.737C211.231 134.146 210.917 137.447 208.952 149.112C207.614 157.256 206.263 165.728 205.963 167.884L205.349 171.908L199.468 171.499C196.165 171.185 190.598 171.39 186.981 171.704C183.474 172.113 179.858 172.74 179.039 172.945C177.074 173.559 177.074 173.259 178.725 161.39ZM157.464 92.2637C158.079 91.6498 159.634 92.1546 162.309 93.7098C164.479 94.9513 166.444 96.0836 166.648 96.2882C166.758 96.3974 166.539 97.0113 166.13 97.7343C165.516 98.8667 164.792 98.662 161.067 96.0836C157.969 94.0236 156.932 92.8913 157.451 92.2637H157.464ZM152.825 103.3C149.004 97.4206 148.799 96.4929 150.655 94.6375C152.415 92.8776 153.343 92.9868 153.848 94.8421C154.162 95.6607 156.632 97.939 159.32 99.9035C162.009 101.759 164.274 103.819 164.274 104.542C164.274 105.265 163.441 108.88 162.514 112.591C160.753 119.603 160.139 121.049 160.139 118.375C160.139 116.206 156.946 109.603 152.811 103.314L152.825 103.3ZM157.669 182.331C157.669 178.102 161.586 151.99 163.032 147.352C164.574 141.786 168.395 138.375 176.351 135.387L178.521 134.555L177.907 138.061C177.088 143.218 172.544 173.654 172.544 174.268C172.544 174.582 170.892 175.605 168.832 176.642H168.941C166.88 177.57 163.578 179.835 161.504 181.704L157.683 185.005V182.317L157.669 182.331ZM158.706 202.658C159.948 204.2 160.767 205.551 160.357 205.551C160.044 205.551 156.946 204.214 153.548 202.658L147.353 199.766H151.897C156.127 199.766 156.536 199.971 158.706 202.658ZM153.343 177.065L152.934 183.354C152.62 186.97 152.825 190.789 153.343 192.222C154.271 194.705 154.176 194.8 151.801 194.8C149.017 194.8 149.017 195.114 151.801 183.245L153.343 177.051V177.065ZM146.534 145.701L147.052 140.749L148.594 142.713C152.415 147.352 152.415 155.196 148.485 175.005C147.557 179.753 146.725 183.777 146.629 183.777C146.52 183.886 145.387 182.945 143.941 181.717L141.457 179.548L143.627 165.101C144.869 157.161 146.111 148.389 146.52 145.701H146.534ZM121.152 142.195C121.97 134.978 122.803 131.254 123.526 131.254C125.382 131.254 135.808 134.76 139.724 136.724C141.894 137.857 143.641 139.207 143.641 139.821C143.641 140.544 142.303 149.112 140.652 159.016C139.11 168.921 137.664 177.065 137.555 177.065C137.445 177.065 135.385 176.028 132.915 174.896C130.431 173.655 125.901 172.004 122.803 171.185L117.235 169.739L117.754 166.028C117.959 163.859 118.573 160.148 118.996 157.666C119.405 155.183 120.442 148.17 121.165 142.195H121.152ZM87.8139 146.22C89.0557 136.111 89.9837 130.954 90.8024 130.435C93.9001 128.58 117.331 128.58 118.463 130.544C118.777 130.858 117.74 138.184 116.403 146.738C114.956 155.196 113.619 163.655 113.414 165.414L112.896 168.607L106.905 168.198C103.712 167.884 98.1305 168.088 94.5142 168.402C91.0071 168.811 87.3909 169.439 86.4629 169.739C84.8117 170.258 84.8117 170.053 85.3303 165.824C85.6442 163.354 86.7768 154.582 87.8139 146.22ZM65.2157 179.03C65.2157 174.8 69.1322 148.689 70.5787 144.05C72.1207 138.484 75.9417 135.074 83.8974 132.086L86.0672 131.254L85.4531 134.76C84.6343 139.917 80.0901 170.353 80.0901 170.967C80.0901 171.281 78.4389 172.304 76.3783 173.341H76.4875C74.4269 174.268 71.1245 176.533 69.0503 178.402L65.2294 181.704V179.016L65.2157 179.03ZM68.9275 195.019C65.939 190.585 66.2392 188.006 70.2648 183.573C73.1578 180.476 78.7255 176.656 80.3767 176.656C80.5814 176.656 80.4859 177.379 80.2675 178.307C79.9537 179.343 80.3767 180.162 81.3046 180.476C82.9558 181.09 84.0885 179.548 84.1977 176.86C84.1977 175.524 84.9209 174.896 87.2954 174.173C91.321 173.041 105.459 172.113 109.17 172.836C111.954 173.354 112.159 173.668 112.364 176.86C112.677 181.403 114.738 181.608 115.775 177.27C116.184 175.51 116.908 174.173 117.317 174.173C118.764 174.173 130.418 178.307 133.72 179.957C136.708 181.499 137.022 181.922 137.022 185.114V188.62L138.564 186.56L140.216 184.5L142.699 186.983C144.146 188.225 145.278 190.176 145.278 191.103C145.278 194.718 143.013 195.537 129.08 196.778C118.245 197.815 114.629 198.429 108.856 200.598C93.4771 206.369 74.9046 203.791 68.9138 195.032L68.9275 195.019ZM106.496 333.162C89.0557 325.945 75.5323 309.642 70.0601 289.315C67.3718 279.411 67.3718 262.289 70.0601 252.167C74.2905 235.973 82.2326 223.272 93.9001 213.886C103.193 206.355 116.703 201.294 126.719 201.403C128.48 201.512 127.333 202.017 123.008 203.368C114.028 206.151 112.582 206.778 105.049 211.826C85.0301 225.127 73.1578 249.793 74.6043 275.277C75.9417 300.447 88.428 321.702 108.242 332.643C113.51 335.536 112.787 335.74 106.482 333.162H106.496ZM92.9722 314.895C87.9094 308.605 82.1371 296.941 79.9673 288.483C77.5929 279.097 77.4837 264.745 79.9673 254.636C83.3789 240.393 91.7304 226.574 102.77 217.188C114.219 207.392 134.975 201.499 146.534 204.8L149.836 205.728L147.571 206.546C143.859 207.788 144.883 208.606 150.873 209.234C157.369 209.957 160.166 211.499 167.071 218.415C171.097 222.535 179.967 235.236 179.967 236.983C179.967 237.187 178.111 237.706 175.832 238.02C167.986 238.947 168.19 241.007 176.242 241.007C179.135 241.007 181.714 241.321 181.919 241.621C183.365 243.995 185.835 256.792 186.258 263.695C186.667 270.707 185.739 282.576 184.607 283.613C184.402 283.817 181.618 284.431 178.316 284.95C169.951 286.396 169.651 288.046 177.797 288.046H183.993L182.451 292.385C175.532 312.712 159.334 329.328 141.171 334.581C126.31 339.014 105.772 330.556 92.9722 314.881V314.895ZM191.43 320.775L190.502 327.487L176.365 329.751C168.627 330.993 161.094 332.221 159.743 332.439C157.574 332.848 158.201 332.125 163.455 328.005C173.976 319.547 182.956 306.436 187.404 292.821C189.165 287.351 189.26 287.255 191.949 287.255C194.637 287.255 194.842 287.46 194.842 289.52C194.842 292.207 192.781 311.389 191.43 320.775ZM236.736 299.52C236.326 318.196 236.217 318.292 230.022 320.665C228.166 321.279 221.561 322.63 215.475 323.558C209.279 324.485 203.302 325.522 202.156 325.727C199.058 326.245 198.963 325.317 198.963 304.581V286.737L216.921 285.195C226.719 284.377 235.398 283.544 236.012 283.34C236.94 282.93 237.049 285.509 236.736 299.533V299.52ZM255.417 285.7C253.561 291.989 250.573 298.387 246.329 305.195C244.268 308.496 242.508 311.184 242.303 311.184C241.894 311.184 241.061 298.292 241.061 290.857V283.217L244.159 282.808C245.81 282.603 249.317 282.194 252.006 281.88L256.645 281.362L255.404 285.7H255.417ZM257.996 267.651C257.683 272.085 257.068 275.905 256.755 276.109C256.345 276.314 246.534 277.446 234.88 278.578C223.212 279.711 208.979 281.157 203.193 281.88C188.742 283.531 189.67 283.735 190.393 280.025C190.707 278.374 191.007 272.289 190.911 266.614C190.911 258.565 190.393 254.65 188.851 248.661L186.886 241.021L189.369 240.707C190.816 240.502 204.025 239.466 218.777 238.538C233.529 237.61 247.462 236.573 249.836 236.369L254.175 235.85L255.417 240.284C257.478 247.61 258.515 258.961 257.996 267.624V267.651Z" fill="#18333C"/>
<path d="M85.9307 195.305C83.4471 194.582 79.8445 193.04 77.9886 191.894C74.0721 189.63 73.1441 189.834 74.4815 192.822C75.6141 195.291 79.5442 197.774 83.7746 198.811C88.1141 199.848 91.4165 199.943 91.9214 199.016C92.6446 197.883 90.7888 196.751 85.9307 195.305Z" fill="#18333C"/>
<path d="M70.1419 53.751C70.1419 52.8233 63.6462 47.3526 58.9929 44.365C56.209 42.5096 41.4438 36.3159 39.9973 36.3159C39.7926 36.3159 39.5879 36.7252 39.5879 37.1481C39.5879 37.6665 42.6856 39.4128 46.5065 41.1726C50.3275 42.9325 56.7276 46.6432 60.7532 49.4263C67.5627 54.2694 70.1419 55.4153 70.1419 53.7646V53.751Z" fill="#18333C"/>
<path d="M210.917 207.174C210.917 206.451 209.989 205.837 208.433 205.632C207.096 205.523 200.586 204.5 193.982 203.463C182.014 201.608 178.507 200.571 173.553 197.27C172.107 196.233 170.769 195.933 170.456 196.342C169.841 197.379 174.59 202.836 177.374 204.186C180.567 205.837 187.691 207.379 195.224 208.006C205.445 208.934 210.917 208.62 210.917 207.188V207.174Z" fill="#18333C"/>
<path d="M247.284 267.269C247.325 264.09 240.338 263.449 238.305 263.285C232.642 262.835 226.897 263.381 221.302 264.267C218.04 264.786 214.806 265.468 211.599 266.287C200.764 269.07 197.557 270.202 197.557 271.239C197.557 272.494 201.242 272.835 202.006 272.93C203.22 273.094 204.489 273.408 205.704 273.435C207.069 273.476 208.42 273.108 209.743 272.835C212.554 272.248 215.447 272.044 218.313 272.221C219.787 272.316 221.261 272.507 222.748 272.548C226.501 272.658 230.199 271.757 233.952 271.566C237.513 271.389 241.252 271.825 244.541 270.447C245.524 270.038 246.493 269.411 246.957 268.442C247.161 268.005 247.257 267.61 247.27 267.242L247.284 267.269Z" fill="#2C5560"/>
<path d="M357.832 24.3518C360.097 24.1471 362.171 24.2426 362.376 24.6655C362.895 25.4841 374.549 33.6423 388.7 43.0283C394.581 46.9436 400.258 50.1496 401.186 50.1496C403.451 50.1496 405.103 48.1851 404.489 46.2342C403.97 44.4744 389.314 29.9315 377.455 19.1949C371.983 14.2427 369.404 11.3505 369.09 9.69979C368.681 8.04906 367.125 6.28918 364.027 3.9154C359.183 0.204653 357.218 1.68085e-05 351.746 2.78307C346.792 5.36149 344.622 13.3014 347.406 18.772C349.576 22.892 353.192 24.761 357.832 24.3381V24.3518Z" fill="white"/>
<path d="M389.15 336.968C388.018 333.871 387.908 319.015 388.113 189.848L388.222 46.2343L390.392 47.5712C391.525 48.4034 395.032 50.6681 398.034 52.6326C401.022 54.6926 404.229 56.1387 404.953 56.0432C406.808 55.6339 409.497 48.1033 408.569 45.7295C407.955 43.9696 397.829 34.2835 391.852 29.7406L388.14 26.8484L387.526 17.9808C387.212 13.1377 386.598 9.11321 386.284 9.11321C384.947 9.11321 383.91 13.2469 383.91 18.2946V23.2468L377.51 17.9808C372.966 14.1609 370.496 11.2687 368.64 7.87174C365.651 2.30563 362.24 0.0273438 356.563 0.0273438C348.921 0.0273438 343.872 5.90723 344.486 13.9563C344.8 18.0763 345.209 18.7993 348.621 22.0053C351.923 25.1021 352.96 25.6206 356.058 25.6206C359.77 25.6206 364.423 28.3081 378.356 38.6218L383.105 42.237V330.72L377.837 349.287C374.849 359.396 369.268 379.724 365.242 394.471C358.746 418.618 358.228 421.197 359.36 422.438C360.084 423.161 361.216 423.475 361.844 423.257C363.181 422.738 363.7 420.883 375.258 377.241L382.996 347.937V393.025C383.105 428.318 383.31 438.318 384.128 438.632C387.949 440.173 388.045 439.559 388.263 395.508L388.468 354.13L394.254 387.254C398.798 413.557 400.34 420.583 401.473 421.306C402.51 421.92 403.124 421.92 403.847 421.197C404.98 420.064 405.498 423.68 396.628 374.362C393.326 355.795 389.914 338.974 389.191 337.009L389.15 336.968ZM352.305 20.0135C349.931 18.5674 349.208 16.8212 349.208 12.5784C349.208 8.96314 351.173 6.08459 354.475 4.93862C362.526 2.3602 368.517 12.9877 362.417 19.0722C359.633 21.8552 355.812 22.169 352.305 19.9999V20.0135ZM382.859 36.3162C382.75 36.3162 380.171 34.6655 377.292 32.701C374.303 30.7365 369.964 28.0626 367.698 26.8211L363.468 24.4473L365.528 22.7966C366.661 21.8689 368.108 19.9044 368.722 18.3628L369.964 15.4706L376.364 21.5551C382.764 27.5441 382.859 27.6396 382.968 31.9779C382.968 34.3517 382.968 36.3162 382.859 36.3162ZM388.018 36.63C388.018 34.6655 388.222 33.0148 388.536 33.0148C389.055 33.0148 391.115 34.8701 400.299 43.1238C404.011 46.4253 404.639 47.353 404.011 48.7991C403.288 50.3406 402.769 50.136 395.646 45.2929L388.004 40.1361V36.63H388.018Z" fill="url(#paint0_linear_18_1775)"/>
</g>
<defs>
<linearGradient id="paint0_linear_18_1775" x1="376.597" y1="0.0273437" x2="376.597" y2="439.041" gradientUnits="userSpaceOnUse">
<stop stop-color="#4ABEB2"/>
<stop offset="0.241823" stop-color="#18333C"/>
<stop offset="1" stop-color="#18333C"/>
</linearGradient>
<clipPath id="clip0_18_1775">
<rect width="771" height="439" fill="white"/>
</clipPath>
</defs>
</svg>
