<svg width="28" height="28" viewBox="0 0 28 28" fill="none" xmlns="http://www.w3.org/2000/svg">
<path d="M19.4524 1.03507C19.8593 0.623885 20.5587 0.933121 20.5284 1.51077L20.2717 6.40003C20.0834 9.98636 21.4358 13.4824 23.9886 16.0083L27.4689 19.4519C27.8801 19.8588 27.5709 20.5582 26.9932 20.5279L22.1039 20.2712C18.5176 20.0829 15.0216 21.4354 12.4957 23.9882L9.05204 27.4684C8.64518 27.8796 7.94574 27.5704 7.97607 26.9927L8.23275 22.1035C8.42103 18.5171 7.0686 15.0211 4.51579 12.4952L1.03554 9.05157C0.624358 8.64471 0.933594 7.94527 1.51125 7.9756L6.4005 8.23228C9.98683 8.42056 13.4828 7.06813 16.0088 4.51532L19.4524 1.03507Z" fill="#E4C7FF"/>
</svg>
