<svg width="74" height="119" viewBox="0 0 74 119" fill="none" xmlns="http://www.w3.org/2000/svg">
<path d="M37.644 1.56802C39.4351 -0.242118 42.5142 1.11922 42.3807 3.6622L41.2507 25.186C40.4219 40.9741 46.3757 56.3644 57.6138 67.4843L72.9349 82.6441C74.745 84.4352 73.3837 87.5143 70.8407 87.3808L49.3168 86.2508C33.5288 85.4219 18.1384 91.3757 7.01857 102.614L-8.14121 117.935C-9.93229 119.745 -13.0114 118.384 -12.8779 115.841L-11.7479 94.3169C-10.9191 78.5289 -16.8728 63.1385 -28.111 52.0186L-43.432 36.8588C-45.2422 35.0678 -43.8808 31.9886 -41.3378 32.1221L-19.814 33.2521C-4.02599 34.081 11.3644 28.1272 22.4843 16.8891L37.644 1.56802Z" fill="#FFC14A"/>
</svg>
