<svg width="27" height="26" viewBox="0 0 27 26" fill="none" xmlns="http://www.w3.org/2000/svg">
<path opacity="0.16" d="M21.8917 6.25381C23.4155 11.0428 25.6222 17.9992 26.6208 21.2166C26.9255 22.1983 26.4008 23.1956 25.4264 23.5235L20.5346 25.1694C19.5188 25.5112 18.4141 24.9915 18.0298 23.991L15.4401 17.249C15.0744 16.2971 14.0512 15.7727 13.0649 16.0318L5.02194 18.1449C3.87877 18.4452 2.72589 17.694 2.53892 16.5269L0.492253 3.75145C0.307135 2.59592 1.14933 1.52902 2.31626 1.44078L8.12997 1.00114C9.11627 0.926556 10.0089 1.58414 10.2301 2.5482L10.7723 4.91146C11.0204 5.99258 12.1009 6.66533 13.1805 6.41089L19.5279 4.91495C20.545 4.67525 21.5749 5.25807 21.8917 6.25381Z" fill="white"/>
</svg>
