<svg width="138" height="120" viewBox="0 0 138 120" fill="none" xmlns="http://www.w3.org/2000/svg">
<path fill-rule="evenodd" clip-rule="evenodd" d="M0.0923584 3.9565C0.0459401 2.63437 1.27295 1.63227 2.55915 1.94185L32.4431 9.13483L65.4486 1.20579C65.7404 1.13569 66.0442 1.13216 66.3376 1.19546L103.151 9.139L135.308 0.705835C136.631 0.358991 137.904 1.41194 137.811 2.77611L130.078 116.486C129.989 117.792 128.69 118.662 127.448 118.246L98.637 108.601L69.6814 119.738C69.2413 119.907 68.7556 119.916 68.31 119.761L35.9947 108.591L6.66943 118.294C5.40308 118.713 4.08922 117.798 4.04242 116.465L0.0923584 3.9565ZM36.0928 101.373L69 112.5L98.5349 101.373L123.72 109.805L130.576 9.00047L103.304 16.1524L65.9726 8.09707L32.4416 16.1524L7.10711 10.0544L10.6092 109.805L36.0928 101.373Z" fill="white"/>
</svg>
