<svg width="6" height="135" viewBox="0 0 6 135" fill="none" xmlns="http://www.w3.org/2000/svg">
<path d="M0 3C0 1.34315 1.34315 0 3 0C4.65685 0 6 1.34315 6 3V21C6 22.6569 4.65685 24 3 24C1.34315 24 0 22.6569 0 21V3Z" fill="url(#paint0_linear_18_1706)"/>
<path d="M0 40C0 38.3431 1.34315 37 3 37C4.65685 37 6 38.3431 6 40V58C6 59.6569 4.65685 61 3 61C1.34315 61 0 59.6569 0 58V40Z" fill="url(#paint1_linear_18_1706)"/>
<path d="M0 77C0 75.3431 1.34315 74 3 74C4.65685 74 6 75.3431 6 77V95C6 96.6569 4.65685 98 3 98C1.34315 98 0 96.6569 0 95V77Z" fill="url(#paint2_linear_18_1706)"/>
<path d="M0 114C0 112.343 1.34315 111 3 111C4.65685 111 6 112.343 6 114V132C6 133.657 4.65685 135 3 135C1.34315 135 0 133.657 0 132V114Z" fill="url(#paint3_linear_18_1706)"/>
<defs>
<linearGradient id="paint0_linear_18_1706" x1="3" y1="0" x2="3" y2="135" gradientUnits="userSpaceOnUse">
<stop stop-color="white" stop-opacity="0"/>
<stop offset="1" stop-color="white" stop-opacity="0.8"/>
</linearGradient>
<linearGradient id="paint1_linear_18_1706" x1="3" y1="0" x2="3" y2="135" gradientUnits="userSpaceOnUse">
<stop stop-color="white" stop-opacity="0"/>
<stop offset="1" stop-color="white" stop-opacity="0.8"/>
</linearGradient>
<linearGradient id="paint2_linear_18_1706" x1="3" y1="0" x2="3" y2="135" gradientUnits="userSpaceOnUse">
<stop stop-color="white" stop-opacity="0"/>
<stop offset="1" stop-color="white" stop-opacity="0.8"/>
</linearGradient>
<linearGradient id="paint3_linear_18_1706" x1="3" y1="0" x2="3" y2="135" gradientUnits="userSpaceOnUse">
<stop stop-color="white" stop-opacity="0"/>
<stop offset="1" stop-color="white" stop-opacity="0.8"/>
</linearGradient>
</defs>
</svg>
