<svg width="25" height="39" viewBox="0 0 25 39" fill="none" xmlns="http://www.w3.org/2000/svg">
<path d="M1.17206 15.5554C4.88485 11.0317 10.4438 4.27119 12.8567 1.37759C13.515 0.58808 14.6378 0.486802 15.4431 1.1258L20.4493 5.09845C21.2888 5.76468 21.454 6.97429 20.8237 7.84118L15.6877 14.9057C15.088 15.7305 15.2049 16.8744 15.9591 17.5608L23.3683 24.3051C24.2424 25.1007 24.2395 26.4768 23.3622 27.2687L11.9797 37.5432C11.111 38.3274 9.75762 38.2014 9.04854 37.2704L4.70091 31.5621C4.1016 30.7753 4.16749 29.6685 4.85594 28.9583L7.13627 26.6059C7.9083 25.8094 7.88472 24.5369 7.08373 23.7696L1.33719 18.2648C0.582607 17.542 0.509132 16.3631 1.17206 15.5554Z" fill="#00DECF"/>
</svg>
