<svg width="25" height="39" viewBox="0 0 25 39" fill="none" xmlns="http://www.w3.org/2000/svg">
<path d="M23.8279 15.5554C20.1151 11.0317 14.5562 4.27119 12.1433 1.37759C11.485 0.58808 10.3622 0.486802 9.55691 1.1258L4.55073 5.09845C3.71118 5.76468 3.54603 6.97429 4.17628 7.84118L9.31233 14.9057C9.91197 15.7305 9.79505 16.8744 9.04094 17.5608L1.63168 24.3051C0.757597 25.1007 0.760462 26.4768 1.63785 27.2687L13.0203 37.5432C13.889 38.3274 15.2424 38.2014 15.9515 37.2704L20.2991 31.5621C20.8984 30.7753 20.8325 29.6685 20.1441 28.9583L17.8637 26.6059C17.0917 25.8094 17.1153 24.5369 17.9163 23.7696L23.6628 18.2648C24.4174 17.542 24.4909 16.3631 23.8279 15.5554Z" fill="#FFC14A"/>
</svg>
