<svg width="43" height="49" viewBox="0 0 43 49" fill="none" xmlns="http://www.w3.org/2000/svg">
<g clip-path="url(#clip0_18_309)">
<path d="M1.24254 41.522C0.56332 38.1911 0.246673 30.1976 2.08744 25.533C3.92309 20.8684 7.5852 12.3962 12.7767 8.15093C17.9682 3.90566 28.5413 0.309075 31.1862 0.729236C33.8311 1.1494 32.4779 2.97061 32.4779 2.97061C32.4779 2.97061 31.7414 3.03199 31.3127 3.81881C30.884 4.60563 31.1922 5.69396 31.8673 5.63266C32.5424 5.57135 35.2476 5.08417 35.2476 5.08417L36.7838 6.50872C36.7838 6.50872 34.6983 7.6907 35.0676 8.53703C35.4369 9.38335 36.1736 9.44294 36.1736 9.44294L39.0017 9.16227L41.1587 12.1637L39.5637 12.8108C39.5637 12.8108 31.3921 14.4135 28.3227 18.1421C25.2532 21.8706 18.0115 26.8442 15.6231 35.3855C13.2347 43.9267 15.0859 47.861 15.0859 47.861L14.2885 48.2248L11.3347 46.172L7.3039 45.935L6.11045 44.5453L2.82584 43.8235L1.24766 41.522L1.24254 41.522Z" fill="url(#paint0_linear_18_309)"/>
<path d="M27.6978 4.7707C27.2068 4.7713 27.0945 4.99321 27.0955 5.80974L27.0968 6.84805L26.2319 6.40556C25.4028 5.9983 25.2902 5.99844 25.0249 6.51792C24.8769 6.81548 24.8008 7.33473 24.878 7.6673C25.1039 8.37267 24.5009 8.85728 24.0144 8.374C23.5996 7.96624 22.6942 7.92702 22.4697 8.30028C22.2042 8.70887 23.3016 11.011 24.2441 12.1237C25.2992 13.3472 25.9437 13.3465 27.5226 12.0844C28.2023 11.5645 29.4032 10.7465 30.1955 10.2969C31.0593 9.81198 31.6264 9.29213 31.626 8.95947C31.6251 8.21854 28.3781 4.76483 27.7029 4.76565L27.6978 4.7707ZM28.0832 10.4154C26.9895 11.1577 25.9725 11.794 25.9009 11.8294C25.7117 11.9052 24.6568 10.8279 24.2775 10.158C24.0879 9.89609 24.277 9.8253 24.9164 9.8598C25.7094 9.96972 25.7809 9.89403 25.8564 8.85562C25.9673 7.59036 26.0798 7.51966 26.8376 8.22438C27.6312 8.89378 28.306 8.51997 28.3046 7.44134L28.3035 6.51392L29.2101 7.55112C29.7376 8.10492 30.1168 8.66393 30.117 8.81514C30.1172 8.96635 29.2127 9.66806 28.0832 10.4154Z" fill="#18333C"/>
<path d="M40.8244 10.3999L39.4667 8.582L37.6564 8.80599C35.5851 9.03029 35.2419 8.58716 36.9033 7.87949C37.5066 7.65697 37.9563 7.28344 37.956 7.06167C37.9557 6.83989 37.428 6.13489 36.788 5.54091L35.6204 4.39314L33.9227 4.76819C32.716 5.06705 32.1124 5.06778 31.8871 4.84628C31.4364 4.39824 31.7735 3.9946 32.8269 3.7665C33.957 3.54335 33.9566 3.17036 32.9723 1.38728L32.1779 0.0122408L30.1422 0.0147254C24.9404 0.0210744 17.2161 3.48314 11.795 8.24784C6.78781 12.5987 2.65336 19.6199 1.00454 26.497C-0.00805483 30.8026 -0.265635 37.678 0.453837 40.4594C0.75688 41.4973 1.05984 42.4647 1.17245 42.5402C1.32088 42.6156 1.70001 43.1343 2.07914 43.653C2.64784 44.4335 2.98565 44.6196 3.92678 44.6185C5.13388 44.617 6.64384 45.5073 6.64474 46.2482C6.64506 46.5103 7.2846 46.6557 8.75776 46.7295C10.5276 46.8382 11.0598 46.9888 12.1502 47.7637C13.773 48.9512 15.3178 49.0602 15.6951 48.092C15.8072 47.7189 15.8403 45.491 15.7658 43.1171C15.6858 40.4408 15.7598 38.1776 15.9479 37.2499C16.8837 32.904 19.2926 28.5563 23.5473 23.6469C28.2156 18.1825 34.7679 14.1624 40.0813 13.4502C41.4366 13.2974 42.1931 12.9285 42.1926 12.4799C42.1924 12.3337 41.5877 11.402 40.8346 10.3999L40.8244 10.3999ZM38.341 12.409C34.1581 13.271 29.2258 16.0996 24.9701 20.1522C19.81 25.0224 15.7871 31.2672 14.6269 36.1376C14.1384 38.2199 13.9577 45.2363 14.374 46.8739C14.6001 47.7254 14.4876 47.7255 13.5456 47.0261C12.1889 45.9894 10.9045 45.5071 9.39563 45.509C8.0402 45.5106 7.73829 45.4001 7.02121 44.5844C6.381 43.8796 5.85385 43.6181 4.75914 43.5086C3.13751 43.3241 2.68696 42.9567 1.85577 40.8407C1.10158 38.9465 1.05844 37.127 1.65605 32.2623C2.77541 23.2337 5.63228 17.1415 11.4305 11.3027C15.5327 7.17472 19.2994 4.79108 24.6523 2.89442C27.4387 1.88799 30.9468 1.36455 31.5101 1.84774C32.0783 2.2906 32.0383 2.99629 31.4757 2.99698C30.8363 2.99776 30.3827 4.29872 30.7264 5.19044C31.1061 6.1174 31.8941 6.37854 33.7811 6.11414C35.8523 5.81423 36.4974 6.3326 35.404 7.33696C33.7078 8.90154 35.2958 10.8653 37.745 10.192C38.7983 9.92859 38.8751 9.9285 39.6282 10.9709L40.3814 12.0083L38.3462 12.4191L38.341 12.409Z" fill="#18333C"/>
<path d="M7.52772 32.1695C5.11175 30.7258 3.90927 30.319 3.90999 30.9088C3.91048 31.317 6.09647 32.9121 8.81444 34.5419C11.1536 35.9151 12.3612 36.3219 12.3605 35.7271C12.3599 35.2835 10.3992 33.8343 7.53283 32.1695L7.52772 32.1695Z" fill="#18333C"/>
<path d="M14.3031 22.6904L11.4386 22.5427L11.437 21.1667C11.3992 19.5337 10.8651 17.8256 10.3023 17.6398C10.0004 17.5293 9.96505 17.9376 10.1153 19.5352L10.3428 21.541L9.17552 20.615C8.00816 19.6487 7.21505 19.3926 7.21572 19.947C7.21636 20.4662 9.66931 22.8775 12.5006 25.1422C14.0109 26.3299 15.4034 27.3312 15.5926 27.331C16.3087 27.3654 15.9703 26.6602 14.7258 25.3613L13.4404 24.0977L15.7421 24.0949C20.0028 24.0897 18.7943 22.942 14.3082 22.6854L14.3031 22.6904Z" fill="#18333C"/>
<path d="M21.1932 18.7455C21.0806 18.7456 20.2884 19.2305 19.4247 19.8263C17.728 20.9423 17.3137 20.9428 16.1818 19.7193C15.6901 19.1605 15.69 19.0899 16.5582 17.9749C18.1004 16.0023 17.6854 15.3727 15.9536 17.1238C15.3865 17.684 14.8603 18.1635 14.7887 18.1636C14.6761 18.1637 14.1488 17.7208 13.6214 17.2376L12.6024 16.3467L13.0918 15.0104C13.3927 14.3044 13.7296 13.7092 13.883 13.709C14.0365 13.7088 14.1487 13.4869 14.1484 13.2248C14.148 12.9274 13.9228 12.8168 13.5086 12.8526C12.6802 13.0048 10.95 16.0866 11.3651 16.7161C11.4779 16.9378 12.7991 18.2366 14.2329 19.5705C17.3667 22.5002 17.8937 22.6104 19.9988 20.7883C21.2404 19.7484 21.8069 18.7447 21.2034 18.7455L21.1932 18.7455Z" fill="#18333C"/>
<path d="M6.25608 37.9271C4.92209 37.3339 4.14193 36.5183 3.91561 35.4803C3.68929 34.4423 3.42269 33.9234 3.12091 33.9238C2.81914 33.9242 2.74274 34.1864 2.85612 34.8919C2.93348 35.4109 3.08322 36.565 3.16103 37.457C3.35232 39.1302 4.02947 40.7624 4.56141 40.7618C4.89899 40.7614 4.8984 40.2775 4.55929 39.0178C4.35731 38.3729 4.48327 38.1997 4.93715 38.4982C5.27505 38.7599 6.8209 39.7207 8.29506 40.6111C11.1615 42.3162 11.7653 42.5373 11.7644 41.7964C11.7636 41.1663 8.67161 39.0128 6.2561 37.9422L6.25608 37.9271Z" fill="#18333C"/>
<path d="M14.0865 29.601C13.7081 29.7123 12.6905 29.8648 11.7494 29.9365C10.2816 30.0845 9.97978 30.0143 8.80744 29.1588C7.4099 28.1928 6.43094 26.5256 6.73176 25.744C6.84396 25.4818 7.33462 25.1838 7.82556 25.1126C8.57726 24.9655 8.68965 24.8495 8.42839 24.5171C7.93664 23.923 7.14393 23.9996 6.20366 24.7063C4.66048 25.933 5.45613 28.2708 8.09272 30.2736C9.14733 31.0536 9.67438 31.2394 10.8815 31.238C12.6154 31.2358 14.7627 30.452 14.7619 29.8219C14.7615 29.4893 14.6131 29.4491 14.0814 29.601L14.0865 29.601Z" fill="#18333C"/>
<path d="M19.4919 11.9884L17.5306 10.136L18.6241 9.24249C19.4877 8.53579 19.6051 8.34915 19.1906 8.16317C18.5867 7.94213 15.9906 9.72454 15.235 10.8797C14.6683 11.7322 14.598 12.8109 15.1606 12.8102C15.3499 12.81 15.7995 12.4012 16.1006 11.8817C16.6264 10.9889 16.6673 10.9888 17.1538 11.5074C17.4201 11.8045 18.9259 13.4357 20.4726 15.1072C22.0193 16.7787 23.4174 18.148 23.5299 18.1478C24.6245 18.1465 22.3185 14.6564 19.4919 11.9884Z" fill="#18333C"/>
</g>
<defs>
<linearGradient id="paint0_linear_18_309" x1="26.1796" y1="-6.95117" x2="16.3047" y2="48.8229" gradientUnits="userSpaceOnUse">
<stop offset="0.11" stop-color="#DFA984"/>
<stop offset="0.47" stop-color="#EBDE89"/>
<stop offset="1" stop-color="#DB9657"/>
</linearGradient>
<clipPath id="clip0_18_309">
<rect width="42.1667" height="48.7098" fill="white" transform="translate(0 0.0515137) rotate(-0.0699313)"/>
</clipPath>
</defs>
</svg>
