<svg width="58" height="67" viewBox="0 0 58 67" fill="none" xmlns="http://www.w3.org/2000/svg">
<g clip-path="url(#clip0_18_298)">
<path d="M1.63951 57.0443C0.710833 52.4616 0.288708 41.466 2.82849 35.053C5.36125 28.64 10.4127 16.9927 17.5607 11.162C24.7086 5.33143 39.2579 0.402108 42.8952 0.984475C46.5325 1.56684 44.6681 4.06964 44.6681 4.06964C44.6681 4.06964 43.655 4.15283 43.0641 5.23437C42.4731 6.31591 42.8952 7.81343 43.8239 7.73023C44.7526 7.64704 48.4743 6.98147 48.4743 6.98147L50.5849 8.9435C50.5849 8.9435 47.7145 10.5658 48.221 11.7305C48.7276 12.8953 49.7407 12.9785 49.7407 12.9785L53.6313 12.5972L56.5932 16.7292L54.3981 17.6166C54.3981 17.6166 43.1555 19.8074 38.9272 24.9309C34.6989 30.0543 24.7298 36.8833 21.4301 48.6277C18.1305 60.3721 20.6703 65.7867 20.6703 65.7867L19.5728 66.2859L15.5134 63.4573L9.96945 63.1245L8.33019 61.211L3.81345 60.2126L1.64654 57.0443H1.63951Z" fill="url(#paint0_linear_18_298)"/>
<path d="M38.0899 6.53782C37.4145 6.53782 37.2597 6.84287 37.2597 7.966V9.39419L36.0707 8.78409C34.931 8.22252 34.7762 8.22252 34.4104 8.93662C34.2064 9.34566 34.1008 10.0598 34.2064 10.5173C34.5159 11.4879 33.6857 12.1535 33.0174 11.4879C32.4475 10.9264 31.2022 10.8709 30.8927 11.3839C30.5268 11.9455 32.0324 15.1139 33.3269 16.6461C34.7762 18.3308 35.6627 18.3308 37.8366 16.5975C38.7723 15.8834 40.4257 14.7603 41.5162 14.1433C42.7051 13.4777 43.4861 12.7636 43.4861 12.306C43.4861 11.2869 39.0256 6.53088 38.0969 6.53088L38.0899 6.53782ZM38.6105 14.3027C37.105 15.3219 35.7049 16.1954 35.6064 16.2439C35.3461 16.3479 33.8968 14.8643 33.3762 13.9422C33.1159 13.5817 33.3762 13.4846 34.2556 13.5332C35.3461 13.6857 35.4446 13.5817 35.5501 12.1535C35.7049 10.4133 35.8597 10.3163 36.9009 11.2869C37.9914 12.209 38.9201 11.6959 38.9201 10.2123V8.93662L40.1654 10.3648C40.89 11.1274 41.4106 11.897 41.4106 12.105C41.4106 12.313 40.1654 13.2766 38.6105 14.3027Z" fill="#18333C"/>
<path d="M56.1359 14.3027L54.2715 11.7999L51.7809 12.1049C48.9316 12.41 48.4602 11.7999 50.7467 10.8293C51.5769 10.5242 52.196 10.0112 52.196 9.70613C52.196 9.40108 51.4714 8.43046 50.592 7.61238L48.9879 6.03166L46.6521 6.5447C44.9918 6.95375 44.1616 6.95375 43.852 6.6487C43.2329 6.03166 43.6972 5.47703 45.1465 5.16505C46.7014 4.86 46.7014 4.34696 45.3506 1.89269L44.2601 0H41.46C34.305 0 23.6744 4.74907 16.2099 11.2938C9.31514 17.27 3.61645 26.9206 1.33698 36.3772C-0.063072 42.2979 -0.428914 51.7544 0.556045 55.5814C0.971135 57.0096 1.38622 58.3408 1.541 58.4447C1.74503 58.5487 2.26565 59.2628 2.78627 59.9769C3.5672 61.0515 4.03154 61.3081 5.32606 61.3081C6.98642 61.3081 9.06187 62.5352 9.06187 63.5543C9.06187 63.9148 9.94129 64.1159 11.9675 64.2199C14.4018 64.3724 15.1334 64.5804 16.632 65.6481C18.8622 67.2843 20.9869 67.4368 21.5075 66.1057C21.6623 65.5926 21.7116 62.5283 21.6131 59.2628C21.5075 55.5814 21.6131 52.4685 21.8734 51.1929C23.1679 45.2167 26.4886 39.2405 32.3491 32.4947C38.7795 24.9863 47.7989 19.4677 55.1087 18.4971C56.9731 18.2891 58.0143 17.783 58.0143 17.166C58.0143 16.9649 57.1841 15.6823 56.1499 14.3027H56.1359ZM52.7166 17.062C46.9617 18.2406 40.1725 22.123 34.312 27.6902C27.2062 34.3805 21.6623 42.9635 20.0582 49.6607C19.3828 52.524 19.1225 62.1747 19.6924 64.4279C20.0019 65.5995 19.8472 65.5995 18.5527 64.6359C16.6883 63.2077 14.9224 62.5421 12.8469 62.5421C10.9825 62.5421 10.5674 62.3896 9.58249 61.2665C8.70306 60.2958 7.97841 59.9353 6.47283 59.7828C4.2426 59.5263 3.62349 59.0202 2.48375 56.1083C1.44954 53.5016 1.39326 50.9988 2.22344 44.3085C3.77827 31.8916 7.7181 23.5166 15.7033 15.4951C21.3527 9.82399 26.5378 6.55163 33.9039 3.95178C37.7382 2.57212 42.5645 1.85803 43.3384 2.52359C44.1194 3.13369 44.0631 4.1043 43.2892 4.1043C42.4098 4.1043 41.7836 5.89301 42.255 7.12014C42.7756 8.3958 43.8591 8.75631 46.4551 8.3958C49.3045 7.98675 50.1909 8.70085 48.6853 10.0805C46.3496 12.2297 48.5306 14.9336 51.9005 14.0115C53.3498 13.651 53.4554 13.651 54.4896 15.0861L55.5238 16.5143L52.7237 17.0758L52.7166 17.062Z" fill="#18333C"/>
<path d="M10.3002 44.1906C6.9795 42.2009 5.32617 41.6393 5.32617 42.4505C5.32617 43.012 8.3303 45.2098 12.0661 47.4561C15.2813 49.3488 16.9416 49.9103 16.9416 49.0922C16.9416 48.4821 14.2471 46.4855 10.3072 44.1906H10.3002Z" fill="#18333C"/>
<path d="M19.6357 31.1636L15.6958 30.9556V29.0629C15.6466 26.8166 14.9149 24.4663 14.141 24.2098C13.7259 24.0573 13.6767 24.6189 13.8807 26.8166L14.1902 29.5759L12.5862 28.3003C10.9821 26.9691 9.8916 26.6155 9.8916 27.3782C9.8916 28.0923 13.2616 31.4131 17.1522 34.533C19.2276 36.1692 21.1412 37.5488 21.4015 37.5488C22.3865 37.5973 21.9222 36.6267 20.2126 34.838L18.4467 33.0979H21.6126C27.4731 33.0979 25.8128 31.5171 19.6427 31.1566L19.6357 31.1636Z" fill="#18333C"/>
<path d="M29.1202 25.749C28.9655 25.749 27.875 26.4146 26.686 27.2326C24.3502 28.7648 23.7804 28.7648 22.2255 27.0801C21.5501 26.3106 21.5501 26.2135 22.7462 24.6813C24.8708 21.9705 24.301 21.1039 21.916 23.5097C21.135 24.2792 20.4104 24.9378 20.3119 24.9378C20.1571 24.9378 19.4325 24.3277 18.7078 23.6622L17.3078 22.435L17.9832 20.5978C18.3983 19.6272 18.8626 18.8091 19.0737 18.8091C19.2847 18.8091 19.4395 18.5041 19.4395 18.1436C19.4395 17.7345 19.1299 17.582 18.5601 17.6305C17.4203 17.8385 15.0353 22.0745 15.6052 22.9412C15.76 23.2462 17.5751 25.0349 19.545 26.8721C23.8507 30.9071 24.5754 31.0596 27.474 28.5568C29.1836 27.1287 29.9645 25.749 29.1343 25.749H29.1202Z" fill="#18333C"/>
<path d="M8.54106 52.108C6.70716 51.2899 5.63543 50.1668 5.32587 48.7386C5.01631 47.3104 4.65047 46.5963 4.23538 46.5963C3.82029 46.5963 3.71476 46.9568 3.86954 47.9274C3.97507 48.6415 4.1791 50.2292 4.28463 51.4563C4.54494 53.758 5.47361 56.0043 6.2053 56.0043C6.66964 56.0043 6.66964 55.3388 6.2053 53.6055C5.92857 52.7181 6.10211 52.4801 6.72592 52.8914C7.19026 53.2519 9.31495 54.5761 11.3412 55.8033C15.281 58.1535 16.1112 58.4586 16.1112 57.4394C16.1112 56.5728 11.8618 53.6055 8.54106 52.1288V52.108Z" fill="#18333C"/>
<path d="M19.3267 40.6686C18.8061 40.8212 17.406 41.0292 16.1115 41.1262C14.0923 41.3273 13.6773 41.2302 12.0661 40.0516C10.1455 38.7205 8.80171 36.4257 9.2168 35.3511C9.37157 34.9906 10.047 34.5815 10.7224 34.4845C11.7566 34.2834 11.9114 34.1239 11.5526 33.6664C10.8772 32.8483 9.78666 32.9523 8.49215 33.9229C6.36745 35.6076 7.45794 38.8245 11.0812 41.5838C12.5305 42.6584 13.2551 42.9149 14.9155 42.9149C17.3005 42.9149 20.2554 41.8403 20.2554 40.9737C20.2554 40.5161 20.0513 40.4607 19.3197 40.6686H19.3267Z" fill="#18333C"/>
<path d="M26.7906 16.4519L24.0961 13.9006L25.6016 12.6735C26.7906 11.7029 26.9524 11.4463 26.3826 11.1898C25.5524 10.8848 21.9784 13.3321 20.9372 14.9198C20.1562 16.0914 20.0577 17.5751 20.8316 17.5751C21.0919 17.5751 21.7111 17.0135 22.1261 16.2994C22.8508 15.0723 22.9071 15.0723 23.5754 15.7864C23.9413 16.1954 26.0097 18.4417 28.1344 20.7434C30.2591 23.0452 32.1798 24.9309 32.3345 24.9309C33.8401 24.9309 30.6742 20.1264 26.7906 16.4519Z" fill="#18333C"/>
</g>
<defs>
<linearGradient id="paint0_linear_18_298" x1="36.0216" y1="-9.58827" x2="22.3451" y2="67.1119" gradientUnits="userSpaceOnUse">
<stop offset="0.11" stop-color="#DFA984"/>
<stop offset="0.47" stop-color="#EBDE89"/>
<stop offset="1" stop-color="#DB9657"/>
</linearGradient>
<clipPath id="clip0_18_298">
<rect width="58" height="67" fill="white"/>
</clipPath>
</defs>
</svg>
