<svg width="44" height="35" viewBox="0 0 44 35" fill="none" xmlns="http://www.w3.org/2000/svg">
<g clip-path="url(#clip0_18_288)">
<path d="M0.52774 24.2767C0.52774 24.2767 -0.467095 19.9578 6.15286 12.3783C12.7728 4.79877 21.5544 1.77803 21.5544 1.77803C21.5544 1.77803 28.8621 -0.184532 34.6162 1.07052C40.3703 2.32558 43.103 4.49731 43.103 4.49731L42.145 6.61368L39.1175 6.83516L38.6017 7.57342L40.1492 9.64057L41.1809 11.2648L40.5177 12.4583L38.0122 13.4057L39.486 16.4634L39.1912 18.6536C39.1912 18.6536 29.8201 15.7866 23.4028 17.5154C16.9855 19.2442 11.3051 27.0821 11.3051 27.0821L8.89173 33.585L6.50904 29.5922L4.88782 28.7801L3.92983 25.4518L1.17868 25.8209L0.533881 24.2706L0.52774 24.2767Z" fill="url(#paint0_linear_18_288)"/>
<path d="M6.44122 17.1893C6.89565 16.4202 6.93864 16.0573 6.61931 15.8727C6.0789 15.5097 3.94799 18.0014 3.45057 19.5886C2.99614 20.9052 3.22335 22.6278 3.85587 22.6278C4.21819 22.6278 4.35329 22.3571 4.71561 20.7268C4.85071 20.1362 5.07792 19.7732 5.21303 19.8655C5.39111 20.0008 6.16487 21.1328 6.93249 22.4494C8.28965 24.7626 8.65196 25.1256 9.05727 24.4427C9.28448 24.0798 7.79223 20.8621 6.61316 19.2749C5.84554 18.2782 5.84554 18.1859 6.43508 17.1893H6.44122Z" fill="#18333C"/>
<path d="M36.9375 0.596525C35.218 0.0981954 33.6828 -0.0371535 29.5192 0.00591204C24.9503 0.00591204 23.9063 0.141261 21.0999 1.00257C15.4871 2.68213 11.2805 5.26606 7.34417 9.34499C3.13761 13.7008 0.871596 17.7366 0.146962 21.994C-0.12324 23.8519 -0.0802532 24.258 0.736495 25.8945C1.73133 27.8447 2.32086 28.1585 2.63405 26.9834C2.95338 25.8022 3.62889 26.3497 4.03419 28.0724C4.30439 29.2536 4.62372 29.7519 5.16413 29.795C5.66155 29.8873 6.20195 30.6563 6.97571 32.422C8.60307 36.1379 9.28471 35.9103 10.5068 31.2407C11.6858 26.7558 15.1248 22.5846 19.6507 20.1791C24.0844 17.8228 28.9297 17.3244 34.0881 18.6841C39.1114 20.0006 39.6518 20.0868 40.0141 19.367C40.1922 19.004 40.4685 18.0504 40.6036 17.2383C40.8308 15.9217 40.7387 15.651 39.879 14.9743C38.6569 13.9776 38.6999 13.6146 40.1062 13.4793C41.1932 13.387 41.3283 13.2516 41.5985 11.7567C41.9178 10.2125 41.8687 10.1263 40.6036 9.08044C38.8842 7.7208 38.9271 7.31475 40.8308 7.58545L42.4152 7.81308L43.1828 6.13353C43.6373 5.22915 43.9996 4.27556 43.9996 4.00486C43.9996 3.45731 40.1983 1.64856 36.9375 0.602678V0.596525ZM41.6906 5.17378C41.5125 5.71518 41.2361 5.89974 40.7879 5.76439C39.8851 5.49369 38.3438 6.12737 37.8893 6.98869C37.3919 7.89306 37.9814 9.34499 39.2035 10.114C40.2413 10.7969 40.2904 11.7444 39.2956 11.7444C38.3929 11.7444 37.1217 12.9686 37.1217 13.873C37.1217 14.2791 37.527 15.0543 38.0244 15.6387C39.1114 16.9553 39.2465 18.0873 38.2946 17.7674C32.6818 15.9525 28.0208 15.5464 24.0844 16.4508C17.2987 17.995 10.8261 23.7966 9.10663 29.8257C8.7873 31.05 8.47411 32.0467 8.42498 32.0467C8.33287 32.0467 8.10565 31.5053 7.88458 30.8224C7.65736 30.1457 6.93273 29.1921 6.34319 28.6445C5.75366 28.1031 5.25624 27.3772 5.25624 27.0572C5.25624 26.6943 5.02903 26.0114 4.66671 25.5622C4.21228 24.8794 3.84996 24.744 2.85513 24.8794C1.27076 25.0639 0.908442 24.4241 1.31375 22.2031C2.03838 18.1673 4.79567 13.9961 9.68388 9.37575C11.9929 7.19786 13.35 6.25042 16.2486 4.84156C21.364 2.39297 24.2564 1.7593 30.0534 1.7593C34.26 1.7593 35.1197 1.85158 37.8341 2.75596C41.7274 4.02331 41.9546 4.20788 41.6783 5.16148L41.6906 5.17378Z" fill="#18333C"/>
<path d="M31.4167 3.45134C30.1946 3.35906 30.4218 4.448 31.736 4.7187C32.3255 4.85405 32.8659 5.08168 33.001 5.21703C33.0931 5.39544 32.9089 7.16729 32.5957 9.16061C32.2764 11.2031 32.0983 13.1042 32.2334 13.4241C32.3685 13.7871 32.5957 13.9224 32.7738 13.6948C33.0931 13.3318 34.0389 9.29595 34.4503 6.75509C34.6284 5.53079 34.8126 5.21703 35.4021 5.21703C35.8074 5.21703 36.0347 5.03246 35.9425 4.76177C35.8074 4.3065 33.044 3.49441 31.4167 3.44519V3.45134Z" fill="#18333C"/>
<path d="M10.194 14.107C9.56153 12.612 8.87988 12.4274 8.87988 13.701C8.87988 15.0606 9.5124 16.4202 10.9617 18.3705C11.7293 19.3241 12.4539 20.0931 12.589 20.0931C13.1786 20.0931 12.8162 18.6904 11.7723 17.0539C11.1827 16.1003 10.4581 14.7899 10.1879 14.107H10.194Z" fill="#18333C"/>
<path d="M28.2973 12.4766C27.3455 12.4766 26.9832 12.2921 26.8481 11.7507C26.713 11.3446 26.5287 10.711 26.4428 10.2988C26.2647 9.75736 26.4428 9.61586 27.3946 9.48051C29.0711 9.34516 29.2062 8.48385 27.5727 8.48385C26.4857 8.48385 26.2155 8.29929 25.8962 7.48719C25.2146 5.76457 25.5769 5.08167 27.2534 4.67563C28.1131 4.49106 28.7947 4.13423 28.7947 3.85738C28.7947 3.13142 25.8962 3.26677 24.8584 4.08501C24.0908 4.67563 23.9987 4.94632 24.2259 6.71201C24.5452 9.97884 25.1777 12.3351 25.9453 13.1472C26.7621 14.0085 27.2595 14.1008 28.6167 13.5533C29.9308 13.055 29.7466 12.4643 28.2973 12.4643V12.4766Z" fill="#18333C"/>
<path d="M21.5978 10.7049L20.7381 10.0712L21.5057 7.98558C22.9058 4.26964 22.2733 3.08841 20.781 6.58287L19.8783 8.66848L19.3809 7.12427C19.1537 6.26296 18.6993 5.58006 18.4291 5.58006C18.1589 5.58006 17.9316 5.71541 17.9316 5.85076C17.9316 6.34909 18.6563 10.3357 19.2458 13.1042C19.8783 16.1434 20.7381 16.5925 20.56 13.7871C20.4679 12.8828 20.517 12.1076 20.6521 12.1076C20.7442 12.1076 21.6469 12.6059 22.5988 13.1965C24.4104 14.3285 25.178 14.5562 25.178 13.9225C25.178 13.6518 23.9989 12.5628 21.6039 10.7049H21.5978Z" fill="#18333C"/>
<path d="M15.8984 16.1496C14.6333 15.7866 14.314 15.5159 13.8166 14.2916C12.7296 11.5231 13.1841 9.57899 14.9465 9.57899C15.9843 9.57899 16.0765 8.62539 15.0816 8.31163C14.2219 8.04093 13.0919 8.58233 12.3673 9.67127C11.1453 11.3508 12.2322 16.1988 13.9947 17.1032C15.0325 17.6015 16.4818 17.6938 17.2064 17.1954C17.888 16.7894 17.7468 16.6971 15.8922 16.1557L15.8984 16.1496Z" fill="#18333C"/>
</g>
<defs>
<linearGradient id="paint0_linear_18_288" x1="48.3351" y1="0.516824" x2="-0.991787" y2="26.6075" gradientUnits="userSpaceOnUse">
<stop offset="0.11" stop-color="#DFA984"/>
<stop offset="0.47" stop-color="#EBDE89"/>
<stop offset="1" stop-color="#DB9657"/>
</linearGradient>
<clipPath id="clip0_18_288">
<rect width="44" height="35" fill="white"/>
</clipPath>
</defs>
</svg>
