<svg width="71" height="59" viewBox="0 0 71 59" fill="none" xmlns="http://www.w3.org/2000/svg">
<g clip-path="url(#clip0_18_279)">
<path d="M60.3619 45.2851L54.9492 53.062C54.9492 53.062 50.6574 43.8514 44.8191 39.7673C38.9807 35.6832 33.7504 34.6845 29.2591 34.7977C24.7678 34.9109 18.053 38.7303 18.053 38.7303L15.55 33.1159C15.55 33.1159 16.9076 31.7201 16.917 30.4156C16.9264 29.1111 16.8605 27.8698 15.9947 27.8655C15.1289 27.8612 13.9124 28.7209 13.9124 28.7209L13.266 26.3973C13.266 26.3973 14.6267 22.6522 13.5616 22.1129C12.4964 21.5737 10.7206 22.3239 10.7206 22.3239L9.26624 22.282L8.13791 19.3672C8.13791 19.3672 15.1428 11.1884 22.2008 10.3058C29.2473 9.41749 46.1241 14.2291 52.5313 22.2902C58.9473 30.3484 60.6963 40.1525 60.6963 40.1525L60.3561 45.2822L60.3619 45.2851Z" fill="url(#paint0_linear_18_279)"/>
<path d="M18.8245 39.1786C20.4022 37.6338 23.3302 36.1794 25.5427 35.8095C28.2262 35.3525 33.7751 35.5504 36.1761 36.1801C40.9115 37.4563 46.0396 41.0144 49.0638 45.1566C49.8894 46.269 51.3203 48.7004 52.1854 50.5778C54.3332 55.0793 54.5439 55.0774 57.7121 50.6054C61.8016 44.8421 62.0602 43.9026 61.1954 37.9241C59.4882 26.6656 50.8206 16.4114 39.0993 11.9747C31.0771 8.87543 25.0817 8.50205 18.6498 10.5768C15.4788 11.5826 14.3441 12.2378 10.8011 14.9215C8.55593 16.6131 6.61701 18.2427 6.50865 18.5567C6.31178 19.26 9.20373 23.8633 9.95067 23.9738C10.2681 23.9754 10.9536 23.6786 11.4669 23.1934C11.9597 22.7486 12.4492 22.4105 12.5758 22.4746C12.8752 22.6262 12.7123 24.6196 12.3246 25.3854C12.1527 25.7251 12.2332 26.9376 12.5482 28.0013C12.9873 29.663 13.1964 29.9786 13.8978 29.9648C14.3453 29.9237 14.8546 29.6463 15.047 29.2663C15.2394 28.8863 15.5637 28.6744 15.7307 28.7589C16.3237 29.0591 16.1056 30.5472 15.3562 31.4988C14.7113 32.3441 14.7319 32.8319 15.6503 36.1757C16.2145 38.219 16.9068 40.0089 17.1806 40.0969C17.4776 40.1387 18.2039 39.7614 18.8216 39.17L18.8245 39.1786ZM17.184 35.3608C16.4302 33.1636 16.4522 32.8059 17.1589 31.7242C17.7612 30.7489 17.845 30.1548 17.5567 28.9383C17.1783 27.2567 16.0598 26.4228 14.9723 26.8849C14.0149 27.3044 13.8642 26.8592 14.3862 25.1994C15.3768 22.1855 13.413 19.535 11.2558 20.9528C10.2105 21.646 10.1702 21.6256 9.51437 20.6064C9.15927 20.0505 8.98971 19.3282 9.11796 19.0748C9.30984 18.7958 10.8054 17.5277 12.5548 16.2867C18.4463 12.0217 25.7264 10.5861 33.0575 12.2216C36.9466 13.0693 44.3954 16.5727 47.5057 19.0587C55.0951 25.0275 59.7916 33.5389 60.2176 41.8558C60.275 43.6426 59.8045 43.0861 59.2875 40.8497C58.4126 36.8914 56.2236 33.1141 54.881 33.2373C54.4334 33.2784 54.5977 33.8968 55.5304 35.5407L56.7977 37.7809L55.7505 39.4352C55.1516 40.3038 54.3808 41.5121 53.9539 42.041C53.5673 42.5903 53.3738 43.1867 53.4767 43.3979C53.8375 43.9567 54.9476 43.0214 56.2736 41.0309L57.4747 39.1869L58.2286 41.3841C58.6891 42.789 59.1528 43.559 59.5969 43.6247C60.0614 43.6502 60.1036 43.8812 59.7392 44.6009C59.267 45.5337 55.2655 51.0232 54.9446 51.1284C54.8839 51.1483 54.1854 49.999 53.4454 48.5032C52.7111 47.0104 51.42 44.9173 50.6404 43.8282C47.4697 39.5612 41.2822 35.4667 36.0532 34.2083C33.3148 33.5164 28.6139 33.4294 25.3557 33.9644C23.2038 34.3144 18.6417 36.4821 18.1899 37.3746C18.082 37.5876 17.6217 36.7108 17.1782 35.3723L17.184 35.3608Z" fill="#18333C"/>
<path d="M22.42 22.5035C21.4552 19.78 20.9348 17.6504 21.2096 17.5219C21.4441 17.373 22.3999 17.271 23.3581 17.2786C24.5473 17.2442 24.9983 17.0963 24.9135 16.7351C24.4956 15.4603 21.0056 15.6103 17.8495 17.101C16.6115 17.6461 15.506 18.2582 15.4185 18.4309C15.095 19.07 16.1133 19.1588 17.7784 18.613L19.5241 18.108L21.4484 24.6228C22.9984 29.7764 23.5401 31.1211 24.0313 30.9937C24.8843 30.6805 24.4683 28.4446 22.4142 22.5006L22.42 22.5035Z" fill="#18333C"/>
<path d="M30.0431 20.605C30.0714 23.6066 32.2795 28.1892 34.145 29.1336C34.8244 29.4775 35.782 29.5862 36.5708 29.3997C38.2932 28.9407 38.2975 28.0894 36.6005 28.0838C35.4719 28.0983 35.2186 27.9701 34.3953 26.9674C32.9175 25.2572 31.9477 22.958 31.8108 20.9139C31.7148 19.3175 31.8407 18.9545 32.5652 18.3664C33.782 17.4345 35.6292 18.0008 36.7084 19.7695C37.7455 21.3072 37.8057 21.3883 38.1263 20.755C38.6189 19.782 37.3955 17.9836 35.6164 17.0829C34.2173 16.3746 33.7067 16.3259 32.429 16.7495C30.7032 17.3153 30.0572 18.377 30.0489 20.6079L30.0431 20.605Z" fill="#18333C"/>
<path d="M48.6929 25.1427C48.349 25.8221 46.856 35.8293 47.0237 36.341C47.1289 36.6618 47.8459 37.5601 48.63 38.3259C50.5537 40.3125 51.2397 39.9148 49.8457 37.6105C48.8324 35.9257 48.771 35.5185 49.1883 33.4368L49.6674 31.1188L50.5111 32.0812C51.9685 33.8317 52.5838 34.3023 52.7995 33.8762C52.9073 33.6632 52.2345 32.5776 51.3225 31.4215C50.0747 29.8856 49.6951 29.0496 49.7857 28.242C49.8525 27.5814 49.9431 26.7738 49.9651 26.416C50.0285 25.8622 50.2653 25.823 51.2015 26.1884C51.8382 26.4023 52.4988 26.4691 52.7134 26.2594C53.2063 25.8146 50.3217 24.3542 49.4892 24.6271C49.128 24.7119 48.7833 24.9642 48.6987 25.1312L48.6929 25.1427Z" fill="#18333C"/>
<path d="M29.4145 26.2614C29.1737 23.0508 27.5107 16.2343 26.8954 15.7637C26.5995 15.5053 26.3024 15.4634 26.2179 15.6304C26.0022 16.0565 27.1821 23.0986 27.9942 26.338C28.7859 29.6176 29.6577 29.5816 29.4232 26.2585L29.4145 26.2614Z" fill="#18333C"/>
<path d="M39.8312 32.3309C40.3164 32.8442 40.7483 31.891 41.338 28.8261C41.5817 27.4016 41.905 26.2343 41.9453 26.2548C42.0317 26.2985 42.5767 27.5364 43.2276 28.9798C44.8253 32.6676 45.4982 33.7532 45.9729 33.4583C46.2075 33.3094 46.2544 32.5881 46.1081 31.8197C45.7758 30.1614 43.6717 25.5736 42.8876 24.8078C42.3388 24.3202 42.5273 24.1479 44.83 23.0714C46.2127 22.4405 47.3876 21.8056 47.4517 21.679C47.7753 21.0399 46.5224 21.1 44.3053 21.7931C42.9611 22.2338 41.9616 22.4221 42.049 22.2494C42.393 21.57 41.8151 17.6536 41.3909 17.6486C41.154 17.6878 40.8792 17.8163 40.8151 17.943C40.4507 18.6627 39.5353 32.0582 39.8313 32.3165L39.8312 32.3309Z" fill="#18333C"/>
</g>
<defs>
<linearGradient id="paint0_linear_18_279" x1="66.0278" y1="48.6382" x2="5.94769" y2="11.7918" gradientUnits="userSpaceOnUse">
<stop offset="0.11" stop-color="#DFA984"/>
<stop offset="0.47" stop-color="#EBDE89"/>
<stop offset="1" stop-color="#DB9657"/>
</linearGradient>
<clipPath id="clip0_18_279">
<rect width="35.2096" height="60.7134" fill="white" transform="translate(70.0703 27.4226) rotate(116.851)"/>
</clipPath>
</defs>
</svg>
