<svg width="82" height="84" viewBox="0 0 82 84" fill="none" xmlns="http://www.w3.org/2000/svg">
<g clip-path="url(#clip0_18_270)">
<path d="M67.6369 17.9184L74.8794 26.745C74.8794 26.745 62.7919 28.7009 56.1416 34.1313C49.4913 39.5617 46.618 45.299 45.2764 50.5439C43.9348 55.7889 46.1614 64.8274 46.1614 64.8274L38.8305 65.8886C38.8305 65.8886 37.6572 63.8566 36.1477 63.4179C34.6383 62.9792 33.1773 62.6486 32.8883 63.6511C32.5994 64.6536 33.1973 66.3461 33.1973 66.3461L30.291 66.3336C30.291 66.3336 26.3947 63.5277 25.4201 64.5859C24.4455 65.6441 24.733 67.9493 24.733 67.9493L24.2075 69.6219L20.4577 69.9744C20.4577 69.9744 13.2713 59.1697 14.5626 50.6964C15.8433 42.2344 26.9572 24.2431 38.4055 19.4572C49.8533 14.6604 61.795 15.8474 61.795 15.8474L67.6316 17.9241L67.6369 17.9184Z" fill="url(#paint0_linear_18_270)"/>
<path d="M46.9344 64.0801C45.6606 61.7441 44.9343 57.872 45.231 55.1852C45.5811 51.9237 47.6304 45.5545 49.1478 42.977C52.1806 37.9046 57.9881 33.1252 63.7828 30.977C65.3434 30.3845 68.632 29.5227 71.0926 29.1352C77.0166 28.1209 77.0836 27.876 72.9371 22.7359C67.5955 16.104 66.5908 15.4959 59.3749 14.5381C45.7605 12.8255 31.0279 19.5132 22.0395 31.6494C15.815 39.9351 13.4159 46.7645 13.7123 54.9029C13.8387 58.9097 14.2264 60.4402 16.1763 65.4286C17.4014 68.5867 18.6552 71.3693 18.9838 71.598C19.7346 72.0569 26.0207 70.2132 26.3938 69.3833C26.4997 69.0157 26.3805 68.1236 25.9862 67.3693C25.632 66.6519 25.4004 65.9735 25.5163 65.8477C25.7903 65.5502 28.0483 66.3929 28.8091 67.0935C29.1466 67.4043 30.579 67.7086 31.9157 67.6921C33.9864 67.728 34.421 67.589 34.635 66.7712C34.7341 66.2388 34.5795 65.5572 34.202 65.2095C33.8244 64.8618 33.685 64.4163 33.8378 64.2504C34.3804 63.6612 36.0344 64.4022 36.892 65.5831C37.6607 66.6081 38.2331 66.7442 42.4115 66.7758C44.9658 66.7918 47.2683 66.5759 47.4601 66.2874C47.606 65.9567 47.4067 64.9908 46.9235 64.0806L46.9344 64.0801ZM41.9696 64.7302C39.1747 64.8838 38.767 64.741 37.7446 63.5668C36.8111 62.5486 36.1497 62.2566 34.6446 62.1919C32.5707 62.0792 31.237 63.1027 31.4162 64.5152C31.5886 65.7629 31.0229 65.7917 29.2696 64.6421C26.0997 62.5051 22.3823 63.9129 23.3189 66.8792C23.7799 68.3186 23.743 68.3587 22.3462 68.7849C21.5851 69.0143 20.6919 68.9741 20.4402 68.7423C20.1796 68.4283 19.1996 66.2783 18.3344 63.8428C15.321 55.6127 16.0439 46.7004 20.3445 38.736C22.6028 34.5045 29.1079 27.0163 33.0105 24.225C42.4204 17.3822 53.8298 14.7278 63.6132 16.9613C65.7039 17.4806 64.9043 17.8437 62.1416 17.7098C57.2649 17.4262 52.1672 18.7257 51.8697 20.3229C51.7705 20.8553 52.5415 20.8676 54.7536 20.3253L57.7667 19.5904L59.3415 21.3472C60.1523 22.3265 61.3005 23.6165 61.7738 24.285C62.284 24.9134 62.9122 25.3333 63.1908 25.2833C63.9571 25.0482 63.2366 23.4543 61.3633 21.264L59.6191 19.2665L62.414 19.1129C64.1941 19.0397 65.239 18.7545 65.4609 18.2611C65.6427 17.7308 65.9244 17.7577 66.6395 18.4162C67.5661 19.2696 72.6192 25.7098 72.6359 26.1164C72.6391 26.1933 71.0774 26.6263 69.1003 26.9938C67.1285 27.3557 64.278 28.1664 62.7596 28.7132C56.772 30.9904 49.9952 36.8223 46.8211 42.4728C45.1208 45.4211 43.4783 50.8435 43.0302 54.7969C42.7303 57.4069 43.7478 63.4078 44.6344 64.2243C44.8461 64.4192 43.6785 64.6654 41.981 64.7408L41.9696 64.7302Z" fill="#18333C"/>
<path d="M28.7781 54.4424C25.3037 54.668 22.6637 54.573 22.6048 54.2122C22.5091 53.8914 22.7042 52.7497 23.0273 51.6412C23.3774 50.251 23.3538 49.6796 22.9072 49.6594C21.292 49.7259 20.3213 53.8219 21.0149 57.9704C21.2409 59.5846 21.5881 61.0673 21.7597 61.2253C22.3947 61.8101 22.8316 60.6584 22.7448 58.5486L22.7317 56.3588L30.9169 56.2641C37.401 56.1568 39.1379 55.9698 39.1512 55.3583C39.0678 54.2666 36.3388 54.0157 28.7728 54.4481L28.7781 54.4424Z" fill="#18333C"/>
<path d="M29.0772 44.9808C32.567 45.9323 38.6048 44.8748 40.3116 43.0215C40.9332 42.3465 41.3733 41.2717 41.4157 40.2959C41.4484 38.1482 40.4626 37.8641 39.8996 39.8299C39.5464 41.1433 39.3146 41.395 37.8819 42.0208C35.4143 43.1735 32.4302 43.544 30.0151 43.0325C28.1325 42.6202 27.7529 42.3551 27.3086 41.3223C26.6271 39.6057 27.8894 37.6496 30.2943 36.9783C32.4174 36.28 32.5312 36.2368 31.902 35.6573C30.9352 34.767 28.4488 35.5958 26.821 37.3634C25.5409 38.7534 25.3169 39.3294 25.3891 40.95C25.4791 43.1366 26.4984 44.2339 29.0825 44.9751L29.0772 44.9808Z" fill="#18333C"/>
<path d="M40.4549 24.8432C41.1298 25.4649 52.244 30.4778 52.8923 30.4511C53.2988 30.4344 54.5755 29.8976 55.7207 29.2396C58.6551 27.6604 58.4188 26.7345 55.2898 27.5953C53.004 28.2177 52.5116 28.1554 50.2347 26.9888L47.704 25.6731L49.0966 25.0104C51.6043 23.8945 52.3517 23.3355 51.9284 22.9456C51.7168 22.7507 50.2373 23.1748 48.5977 23.8532C46.4076 24.7964 45.3138 24.9624 44.407 24.5925C43.6629 24.2984 42.7562 23.9285 42.3485 23.7857C41.7272 23.5306 41.7594 23.2431 42.4901 22.2774C42.9469 21.6092 43.241 20.8652 43.0683 20.5476C42.7141 19.8302 40.0748 22.696 40.1182 23.7509C40.0981 24.1975 40.2775 24.6799 40.4434 24.8327L40.4549 24.8432Z" fill="#18333C"/>
<path d="M35.4295 47.5645C31.6279 46.7909 23.1785 46.4838 22.431 47.0429C22.0344 47.3013 21.8884 47.6321 22.0543 47.7848C22.4776 48.1747 31.0301 49.116 35.0526 49.2366C39.1151 49.3941 39.3592 48.3714 35.4291 47.5536L35.4295 47.5645Z" fill="#18333C"/>
<path d="M45.8835 37.4758C46.6377 37.0816 45.6742 36.2682 42.3136 34.5794C40.7418 33.8296 39.4943 33.0719 39.5312 33.0318C39.6102 32.946 41.2245 32.72 43.1116 32.4387C47.9116 31.7954 49.3911 31.3713 49.2048 30.724C49.1091 30.4033 48.2881 30.1123 47.3491 30.0299C45.3173 29.8714 39.3076 30.8067 38.1624 31.4647C37.417 31.9411 37.2792 31.6661 36.786 28.643C36.5079 26.8328 36.1571 25.2623 36.0312 25.1464C35.3963 24.5617 35.0551 26.0341 35.1317 28.8322C35.2018 30.5354 35.0925 31.7561 34.9209 31.5981C34.2459 30.9765 29.5152 30.3622 29.3703 30.8524C29.3381 31.1399 29.3969 31.5007 29.5228 31.6166C30.2378 32.2751 45.4701 37.7295 45.8668 37.471L45.8835 37.4758Z" fill="#18333C"/>
</g>
<defs>
<linearGradient id="paint0_linear_18_270" x1="73.3829" y1="12.4482" x2="10.9555" y2="70.0297" gradientUnits="userSpaceOnUse">
<stop offset="0.11" stop-color="#DFA984"/>
<stop offset="0.47" stop-color="#EBDE89"/>
<stop offset="1" stop-color="#DB9657"/>
</linearGradient>
<clipPath id="clip0_18_270">
<rect width="42.4282" height="73.1607" fill="white" transform="translate(50.1084 0.803223) rotate(42.6432)"/>
</clipPath>
</defs>
</svg>
