<svg width="148" height="176" viewBox="0 0 148 176" fill="none" xmlns="http://www.w3.org/2000/svg">
<g clip-path="url(#clip0_18_258)">
<path d="M144.112 137.42C144.112 133.69 144.632 128.178 145.295 124.877C147.038 115.973 146.778 110.916 144.216 104.053C144.216 104.053 144.216 104.053 144.216 104.04C140.212 92.9525 137.559 89.8069 122.386 78.1992C118.239 74.9365 112.986 70.4781 111.244 68.4113C109.41 66.3055 107.005 62.7179 105.367 60.0662C101.765 54.2169 101.791 53.255 102.727 52.3061C104.587 50.4473 113.077 50.5643 116.171 51.0973C120.995 52.0851 121.476 52.5141 122.685 56.9206C123.4 59.4943 123.972 60.6382 124.297 61.1191C125.91 59.7543 130.109 55.3088 133.763 50.7203C137.65 45.6769 137.884 43.9351 135.375 38.3197C134.205 35.798 132.176 32.2754 130.863 30.4946C128.445 27.3749 127.912 26.1271 128.822 23.4104C130.135 19.6278 129.914 18.9259 126.651 16.6122C124.687 15.1173 122.217 13.9215 121.281 13.7135C117.939 13.1416 117.718 11.6987 118.043 8.55309C118.226 6.35634 118.239 6.21335 109.566 4.44555C105.237 3.52266 103.442 3.44467 100.465 4.0686C95.7453 5.08248 89.6735 7.95515 87.2031 10.3469L85.1618 12.1927C84.6938 12.6216 84.0047 12.7256 83.4326 12.4656C82.8475 12.2057 82.4835 11.6207 82.4965 10.9838L82.5875 6.87628C82.5875 3.71764 82.2104 3.00272 81.4303 2.20981C80.8582 1.63787 80.6502 1.59888 80.5852 1.59888C79.493 1.63787 75.9305 5.65442 73.8112 8.07214C66.8552 16.0662 63.2147 22.2795 62.7076 24.9052C62.2006 27.7909 60.6794 29.1817 55.7127 32.4314C44.8301 39.6846 36.2359 49.7844 30.19 62.458C27.6417 67.9303 26.0944 70.0491 22.3239 73.2207C8.35993 84.8544 4.18634 92.5236 2.05403 110.501C0.467809 123.057 3.30221 135.575 10.0242 145.74C16.7201 155.878 25.6654 163.833 33.9216 167.005C40.9296 169.826 55.0756 173.01 60.9914 173.114C64.1638 173.205 68.6495 173.491 71.0678 173.894C79.194 175.103 92.4689 174.141 101.934 171.633C119.344 167.135 130.512 161.559 138.17 153.539C143.41 148.027 144.138 146.064 144.138 137.446L144.112 137.42Z" fill="url(#paint0_linear_18_258)"/>
<path d="M82.835 14.5973C82.835 14.5973 91.0521 5.55033 100.817 5.14737C110.581 4.74442 117.056 7.72108 117.056 7.72108L118.291 12.9595C118.291 12.9595 128.224 17.6909 129.161 20.2517C130.097 22.8124 127.743 28.8827 127.743 28.8827C127.743 28.8827 131.033 29.4026 133.802 35.044C136.572 40.6983 136.676 45.2088 136.676 45.2088C136.676 45.2088 136.572 47.7825 132.879 51.4741C129.174 55.1787 124.662 60.1051 124.662 60.1051C124.662 60.1051 121.06 46.0277 114.182 39.5545C107.291 33.0812 99.3863 27.3229 99.3863 27.3229L89.3099 26.7119L83.446 16.4431L82.835 14.5973Z" fill="#00C491"/>
<path d="M123.153 21.7206C123.816 21.7206 124.297 21.2397 124.297 20.5767C124.297 20.0048 123.816 19.4329 123.153 19.4329C122.49 19.4329 122.009 20.0048 122.009 20.5767C122.009 21.2527 122.49 21.7206 123.153 21.7206Z" fill="#18333C"/>
<path d="M47.2616 157.399C45.2593 156.255 42.1909 153.954 40.3836 152.239C37.9913 149.951 36.9381 149.379 36.2751 149.951C34.6498 151.576 38.4724 156.736 43.153 159.31C47.4566 161.598 50.135 161.988 50.7071 160.363C50.7981 159.882 49.2769 158.647 47.2616 157.399Z" fill="#18333C"/>
<path d="M123.335 76.9513C118.849 73.4157 113.974 69.2171 112.44 67.3974C109.189 63.6668 103.26 54.0219 103.832 53.4499C104.885 52.3971 112.049 52.0201 115.872 52.683C118.672 53.255 120.423 54.8148 121.125 57.3625C122.178 61.1841 123.231 63.0039 124.284 63.0039C125.142 63.0039 130.876 56.8946 134.985 51.7341C139.184 46.2878 139.574 43.896 136.805 37.6827C135.557 35.005 133.464 31.3784 132.124 29.5587C129.836 26.595 129.641 25.9321 130.304 23.9173C131.838 19.5238 131.448 18.094 127.535 15.3123C125.532 13.7784 122.854 12.4526 121.606 12.1536C119.409 11.7767 119.317 11.4907 119.604 8.70902C119.89 5.17342 119.226 4.79647 109.852 2.88568C105.367 1.92379 103.351 1.8328 100.101 2.50873C95.2251 3.56161 88.8282 6.52527 86.0458 9.20297L84.0435 11.0228L84.1345 6.91523C84.1345 3.57461 83.7574 2.32675 82.5093 1.09189C80.312 -1.10486 79.0638 -0.33795 72.5759 7.01921C66.179 14.3764 61.7713 21.1616 61.1082 24.5932C60.7312 26.79 59.769 27.8428 54.8023 31.0925C43.6208 38.5406 34.8315 48.9655 28.7076 61.769C26.2243 67.1244 24.7941 69.0352 21.2576 71.9858C6.92955 83.9185 2.63894 91.8476 0.428622 110.292C-1.19661 123.187 1.76781 136.186 8.64579 146.597C15.5238 157.009 24.6121 165.133 33.2973 168.474C40.6563 171.438 54.9974 174.583 60.9132 174.687C64.0727 174.778 68.4673 175.064 70.7556 175.454C79.0768 176.702 92.5467 175.74 102.298 173.166C120.072 168.578 131.357 162.949 139.288 154.63C144.736 148.898 145.685 146.506 145.685 137.433C145.685 133.989 146.166 128.542 146.829 125.202C148.65 115.934 148.364 110.682 145.685 103.507C141.577 92.1335 138.807 88.7929 123.322 76.9513H123.335ZM128.12 35.7719C128.978 31.8594 129.173 31.5734 130.122 32.8083C130.694 33.5752 132.033 36.6299 133.177 39.5025C135.089 44.286 135.18 44.9489 134.14 46.7687C133.568 47.9126 131.37 50.6813 129.264 52.982L125.441 57.0895L124.388 53.177C123.049 47.9256 118.745 41.6213 112.153 35.304C109.098 32.4443 106.706 29.9486 106.706 29.7666C106.706 27.9468 117.029 33.0163 122.477 37.5008C124.297 38.9306 126.013 40.0745 126.39 40.0745C126.768 40.0745 127.535 38.1637 128.107 35.7719H128.12ZM111.581 41.5953C107.473 40.9324 103.364 37.9687 102.22 34.8101C101.843 33.4712 101.648 32.4183 101.843 32.4183C103.273 32.4183 106.914 35.187 109.293 38.1507C110.918 40.0615 111.867 41.5953 111.581 41.5953ZM120.566 26.309C120.943 25.7371 121.047 24.4892 120.852 23.6313C120.657 22.8644 120.189 20.4727 119.994 18.4709L119.513 14.7403L121.71 15.8842C122.958 16.5601 124.765 17.795 125.727 18.5619C127.353 19.9008 127.444 20.2777 126.69 22.6694C126.208 24.0993 125.545 27.2579 125.259 29.6496L124.687 33.9522L120.865 31.5604C115.612 28.3108 112.648 27.0629 106.342 26.0231L100.985 24.9702L106.433 24.8792C109.683 24.8792 113.506 25.3601 115.898 26.127C119.239 27.1799 119.916 27.2709 120.579 26.322L120.566 26.309ZM86.3578 13.4145C87.606 12.1666 90.6614 10.2558 93.2358 9.02099C97.0583 7.30518 98.9696 6.91523 103.65 6.91523C106.81 6.91523 110.814 7.29218 112.544 7.86412L115.599 8.72202L115.69 13.6875C115.69 16.4561 115.976 19.3288 116.171 20.0827C116.652 21.3306 116.171 21.4216 111.685 21.1356C105.861 20.7587 98.3975 21.9935 94.393 24.0993C92.7677 24.9572 91.4285 25.5291 91.2335 25.5291C91.1425 25.5291 89.5173 23.3324 87.697 20.5637L84.2515 15.5982L86.3578 13.4015V13.4145ZM65.0478 25.3601C65.8149 22.5914 72.0298 13.2325 76.4244 8.35806L79.8699 4.5365L79.9609 8.35806C79.9609 10.4638 79.3888 14.6623 78.8167 17.535C78.1536 20.4987 77.3865 24.1253 77.1915 25.5551C76.7104 28.0378 76.8145 28.1288 77.9586 27.0889C78.6217 26.426 79.8699 24.2293 80.637 22.3055L81.9762 18.6789L84.8496 23.2674C86.3838 25.7501 88.7632 28.6228 90.0113 29.6626L92.4037 31.4824L90.2064 32.0544C87.528 32.7173 79.9739 37.2148 78.1666 39.3205C75.2932 42.3752 77.7896 42.4792 83.6144 39.4115C86.7739 37.6957 90.3104 36.2529 91.3505 36.2529C92.4947 36.2529 94.51 35.9669 95.7451 35.59C98.0335 35.018 98.2285 35.109 99.0866 37.1238C100.517 40.4644 104.625 43.6231 109.124 44.9619C111.412 45.6248 113.805 46.5867 114.572 47.1587C115.716 48.0166 115.053 48.1205 110.177 47.9256C107.018 47.7306 101.284 48.2115 97.4614 48.8875C86.8519 50.7073 81.9762 50.1353 76.5284 46.4047C70.8856 42.4922 64.0076 29.7796 65.0608 25.3861L65.0478 25.3601ZM73.46 48.4845L71.9258 46.6647L73.837 48.0036C78.1406 50.9672 80.624 51.8251 86.4488 52.787L92.5597 53.7489L87.593 53.8399C82.0542 53.8399 76.1254 51.6431 73.447 48.4845H73.46ZM83.6924 60.7161C81.0141 60.7161 80.728 60.5211 80.728 58.8053C80.728 57.1805 81.1051 56.8946 83.3024 56.8946C85.4997 56.8946 85.9808 57.2715 86.2668 58.8053C86.6439 60.6251 86.4618 60.7161 83.6924 60.7161ZM79.2068 58.1424C79.2068 60.1442 78.9208 60.3392 76.3334 59.1043C74.6171 58.2464 74.0451 55.8547 75.3713 55.0878C76.7104 54.2299 79.1938 56.1406 79.1938 58.1424H79.2068ZM92.5857 56.5176L96.7853 55.7507L94.679 57.8564C93.5348 59.0003 91.6236 60.1442 90.4794 60.4302C88.6591 60.9111 88.3731 60.7161 88.3731 59.0913C88.3731 57.4665 88.8542 57.1805 92.5727 56.5176H92.5857ZM65.7239 40.4644C67.0631 44.7669 69.1694 48.5885 71.3667 50.9802C72.6149 52.3191 73.0829 53.6579 72.9919 55.1787C72.8012 56.5826 71.9734 56.0713 70.5086 53.6449C67.5441 48.5755 64.6837 41.6993 64.7747 39.3075C64.7747 37.8777 64.9698 38.1637 65.7369 40.4514L65.7239 40.4644ZM142.565 119.677L141.707 123.694L140.654 121.12C139.028 117.39 135.687 113.282 134.92 114.049C134.543 114.426 135.492 118.066 137.026 122.368C139.99 130.583 141.421 140.995 140.276 145.298C139.418 148.547 131.292 156.099 125.077 159.635C118.199 163.456 111.217 165.939 99.9447 168.617C86.9429 171.775 77.1005 172.152 73.278 169.761C72.7059 169.475 70.8856 167.369 69.1694 164.977C66.205 161.065 64.2937 159.44 63.4356 160.389C63.2405 160.584 64.0987 162.872 65.4379 165.458L67.7262 170.047H62.6555C59.8861 170.047 56.3496 169.761 54.8153 169.384C53.2811 169.007 49.0815 167.954 45.545 166.992C33.8824 164.028 28.0575 160.974 21.0756 153.994C15.0557 147.884 9.89396 140.046 7.50163 133.17C5.59035 127.529 5.39533 125.904 5.39533 116.545C5.48634 105.08 6.53949 99.6337 10.5571 91.5096C13.0404 86.4402 16.6679 82.2417 22.4017 77.6532L25.7432 75.0795L25.5482 79.759C25.4572 82.3327 25.6392 84.7244 25.9252 85.0104C26.6924 85.7773 28.6036 80.3309 29.3707 75.0795C31.282 61.899 42.9447 44.9879 56.2325 36.0969L60.4321 33.2372L61.0042 38.7746C61.3813 42.8821 62.2524 45.7548 64.3457 49.8624C67.6872 56.4526 70.5606 59.6112 76.1904 62.6659C79.5318 64.5767 81.1571 64.9536 85.2657 64.8626C88.4251 64.8626 91.1945 64.3817 92.7157 63.5238L95.1991 62.2759L94.718 65.2396C94.432 66.9554 94.809 70.686 95.4851 73.9356C96.1482 76.9903 97.0193 83.2945 97.4874 87.883C98.3455 97.242 97.6824 101.635 95.1991 102.402C94.432 102.688 92.9108 103.546 91.8576 104.404C89.8553 106.029 89.2832 108.798 90.3234 112.528C90.9865 115.011 91.8576 114.725 92.4297 111.956C92.7157 110.617 94.2499 108.044 95.9662 106.133C97.6824 104.222 99.4117 101.259 99.8797 99.4387C100.738 96.3841 100.361 76.9903 99.3076 70.205C98.7356 66.1885 101.31 54.0609 102.077 56.9205C104.56 65.5256 109.917 72.2068 121.957 81.8647C135.336 92.5625 138.014 95.9161 141.837 107.277C143.553 112.632 143.657 114.257 142.5 119.703L142.565 119.677Z" fill="#18333C"/>
<path d="M109.189 12.8296C111.581 14.4544 113.102 14.4544 112.439 12.7386C112.153 12.0757 111.867 10.8278 111.867 10.1649C111.958 8.34512 110.814 7.77319 108.994 8.73508C106.992 9.87895 107.083 11.4128 109.189 12.8426V12.8296Z" fill="#18333C"/>
<path d="M119.044 138.577C118.563 139.435 118.186 140.579 118.186 141.151C118.186 141.723 116.652 144.115 114.845 146.506C112.933 148.898 111.594 151.004 111.88 151.29C113.987 153.396 122.009 146.22 122.009 142.308C122.009 140.878 121.528 139.149 120.956 138.395C120.253 137.442 119.616 137.507 119.044 138.59V138.577Z" fill="#18333C"/>
<path d="M94.0942 13.6875C95.6284 13.0245 97.0586 12.6346 97.2536 12.8296C97.4487 13.0245 96.4865 13.5965 95.2514 14.0774C92.677 15.2213 91.4288 16.9371 91.4288 19.4328C91.4288 21.6296 93.9122 21.5386 99.2689 19.1468C102.324 17.808 103.664 17.522 104.34 18.094C104.821 18.5749 105.393 18.7569 105.588 18.5749C106.069 18.094 104.054 8.1631 103.299 7.39618C102.337 6.43429 101.583 9.021 102.155 11.5037C102.818 14.4674 101.869 15.7022 97.6697 17.0411C94.1332 18.2889 93.8472 17.704 97.0976 15.7932C99.0999 14.6494 99.672 13.8824 99.2949 12.6346C99.0089 11.3867 98.3328 11.0098 96.3305 11.0098C93.1711 11.0098 89.9336 12.4396 89.9336 13.8824C89.9336 15.2213 90.5967 15.1303 94.1332 13.6875H94.0942Z" fill="#18333C"/>
<path d="M131.175 44.364C131.656 42.9342 131.656 41.8813 131.266 41.4003C130.018 40.2565 128.107 41.4003 128.107 43.4021C128.107 44.364 127.729 45.5079 127.248 45.9758C126.767 46.4568 126.676 47.2237 126.871 47.6916C127.729 48.9395 130.213 46.9247 131.175 44.351V44.364Z" fill="#18333C"/>
<path d="M115.885 95.2921C112.634 91.9515 109.488 87.935 108.903 86.4011C108.33 84.8673 107.472 83.6324 106.9 83.6324C102.987 83.6324 106.991 92.3285 114.35 99.7766C118.55 104.079 120.656 107.043 123.244 112.385C125.155 116.207 126.871 119.651 127.157 119.833C127.924 120.691 128.873 120.405 128.873 119.352C128.873 117.156 126.299 109.798 124.193 105.782C122.945 103.39 119.226 98.7107 115.872 95.2661L115.885 95.2921Z" fill="#18333C"/>
</g>
<defs>
<linearGradient id="paint0_linear_18_258" x1="100.231" y1="-58.5323" x2="71.2513" y2="138.306" gradientUnits="userSpaceOnUse">
<stop offset="0.2" stop-color="#F2F2F2"/>
<stop offset="0.45" stop-color="#ECEBEB"/>
<stop offset="0.8" stop-color="#DCD9D8"/>
<stop offset="0.91" stop-color="#D6D2D1"/>
</linearGradient>
<clipPath id="clip0_18_258">
<rect width="148" height="176" fill="white"/>
</clipPath>
</defs>
</svg>
