<svg width="177" height="172" viewBox="0 0 177 172" fill="none" xmlns="http://www.w3.org/2000/svg">
<g clip-path="url(#clip0_18_248)">
<path d="M1.85307 113.439C2.17401 105.518 2.56789 103.421 4.84367 97.5245C7.86345 89.8949 11.3938 84.8134 15.639 81.9887C16.7915 81.2753 18.8484 79.7901 19.1256 78.2904C19.2278 77.7663 19.1256 77.2566 18.8776 76.8344C18.6442 76.4121 17.944 75.4949 13.407 73.238C8.63663 70.8647 6.78392 67.9527 6.78392 62.842C6.78392 60.4833 7.10486 58.7651 7.27992 58.4157C8.3011 56.8869 7.46957 53.0575 7.04651 51.4705C5.23755 44.598 5.74814 37.2597 8.27193 33.6487C9.03052 32.5567 9.90582 31.9598 10.854 31.8578C13.8593 31.5666 15.0701 30.4892 15.6536 27.548C16.2226 24.6214 22.0725 18.9866 26.5803 17.7927C29.425 16.9773 31.6132 16.1328 32.1676 13.1916C32.6052 11.2551 33.7869 5.94063 34.5455 5.28542C34.7935 5.19806 34.881 5.1835 34.9102 5.16893C35.4354 5.27086 37.6382 7.13457 40.1912 9.28948L44.0425 12.5947C44.6552 13.1188 45.5451 13.1771 46.2161 12.7111L49.9653 10.1485C52.314 8.50323 54.6919 5.94063 55.5089 4.17884C55.9465 3.11594 56.5446 2.48985 57.4637 2.12585C58.0764 1.87832 58.8058 1.76184 59.652 1.76184C61.884 1.76184 64.8746 2.59177 68.3612 4.1934C71.6581 5.60574 77.2601 7.55681 80.6008 8.56147C90.9585 11.3134 91.2065 11.8084 92.607 14.5166C94.1387 17.4432 95.831 18.7828 100.193 20.5009C109.894 24.3739 121.273 30.4601 126.102 34.3622C134.913 41.4967 154.053 61.1676 158.123 67.2538C164.309 76.7762 172.215 91.4674 173.776 96.3451C174.856 99.694 175.191 103.771 175.191 113.788C175.191 126.252 174.958 127.358 172.828 133.546C170.042 141.773 167.781 145.166 160.764 151.659C151.237 160.439 141.069 165.652 127.809 168.564C119.114 170.631 105.503 170.777 98.0776 168.899C95.1016 168.156 88.7265 165.914 84.35 163.875C70.7974 157.877 68.4195 157.396 52.5037 157.396C27.9224 157.396 21.343 155.722 13.3633 147.452C4.66861 138.366 1.22577 128.188 1.85307 113.439Z" fill="url(#paint0_linear_18_248)"/>
<path d="M61.8688 25.5532C61.1832 24.6942 34.5449 5.8678 34.5449 5.8678L30.3872 26.2376L31.7731 30.0378L28.7242 35.3959L17.0827 32.746C17.0827 32.746 10.9702 29.8631 7.86287 36.6627C4.75556 43.4623 8.66523 56.3481 8.66523 56.3481H24.9166L39.3299 77.8681C39.3299 77.8681 63.6923 57.9352 63.5173 57.6731C63.3422 57.411 60.7455 51.1064 60.7455 51.1064L54.3412 48.2381C54.3412 48.2381 55.9022 46.0104 59.0095 45.7483C62.1168 45.4862 67.2227 47.5537 65.6618 44.103C64.1008 40.6522 61.4312 32.7897 61.4312 32.7897L61.8688 25.5387V25.5532Z" fill="#00C491"/>
<path d="M161.77 120.428C163.273 117.428 164.775 114.647 165.315 114.327C166.92 113.366 167.241 115.608 166.278 120.107C164.556 127.067 162.208 130.911 156.095 136.691C150.201 142.253 148.261 143.214 148.261 140.55C148.261 138.73 150.085 136.051 155.118 130.387C157.262 128.028 160.267 123.544 161.77 120.428Z" fill="#18333C"/>
<path d="M20.6572 129.848C21.0802 130.387 21.1969 131.348 20.876 131.77C19.2713 134.551 14.2237 129.732 12.7211 123.951C11.2185 118.71 12.7211 108.648 14.8656 108.648C15.6096 108.648 16.1494 110.468 16.587 114.429C17.1268 120.428 19.1546 128.028 20.6572 129.834V129.848Z" fill="#18333C"/>
<path d="M41.2411 137.551C44.1296 139.05 47.4557 140.434 48.5353 140.768C49.6148 141.089 50.4609 141.948 50.4609 142.588C50.4609 144.51 44.5673 144.088 39.5197 141.729C34.8077 139.487 33.1884 137.551 34.9098 135.847C35.6538 135.206 37.2731 135.629 41.2411 137.565V137.551Z" fill="#18333C"/>
<path d="M44.1445 26.7909C43.8235 26.3686 42.8607 26.1502 42.1021 26.1502C40.0597 26.0483 37.711 21.7676 39.0969 20.4717C41.4602 18.011 47.9958 22.8305 46.712 26.0337C46.1722 27.4315 45.1073 27.7518 44.1445 26.7763V26.7909Z" fill="#18333C"/>
<path d="M37.813 55.5764C40.2784 55.5764 42.4229 53.8583 42.846 51.718C43.3857 49.2573 46.3909 49.2573 49.4982 51.8199C52.3867 54.2806 53.0432 57.28 50.8987 58.9835C50.1547 59.6242 49.615 59.8426 49.615 59.5223C49.615 57.4838 48.1124 54.7028 46.9307 54.7028C46.3909 54.7028 46.2888 55.8822 46.6098 57.7022C47.0328 59.9445 46.8286 60.8036 45.6469 61.4442C43.8234 62.5217 42.3208 61.9829 38.6737 59.0855C35.3476 56.5229 35.1288 55.6638 37.813 55.5473V55.5764Z" fill="#18333C"/>
<path d="M3.18044 96.8838C6.40445 88.7446 10.1536 83.503 14.6614 80.5035C16.3829 79.4406 17.6666 78.1448 17.3457 77.7225C17.1269 77.3003 14.9824 76.0044 12.6337 74.8396C7.26517 72.1605 5.01855 68.6369 5.01855 62.8565C5.01855 60.4978 5.33951 58.1536 5.76257 57.4984C6.18562 56.8577 5.98138 54.397 5.33951 51.9364C2.55313 41.3365 5.12068 30.6348 10.708 30.1106C12.9546 29.8922 13.4944 29.368 13.932 27.2277C14.676 23.3692 21.3283 17.3849 26.157 16.1036C29.1622 15.2446 30.125 14.6039 30.446 12.8858C31.9486 6.14444 32.6926 4.10601 33.8742 3.68376C35.479 3.04311 35.7999 3.26151 41.3872 7.96447L45.2531 11.2842L49.0023 8.7216C51.1468 7.2219 53.2913 4.86314 53.9332 3.47992C55.6546 -0.80079 61.0085 -1.12111 69.1634 2.62086C72.1686 3.90216 77.6392 5.82412 81.1695 6.90157C91.2501 9.58066 92.4317 10.2213 94.2553 13.7449C95.539 16.2056 96.8228 17.283 100.908 18.8846C110.565 22.7431 122.25 28.9458 127.283 33.0081C136.401 40.3901 155.599 60.192 159.669 66.2928C166.001 76.0335 173.937 90.7976 175.541 95.8355C176.723 99.4755 177.044 103.756 177.044 113.817C177.044 126.237 176.825 127.62 174.579 134.158C171.69 142.719 169.21 146.359 162.033 152.999C152.375 161.881 141.872 167.341 128.261 170.34C119.26 172.481 105.313 172.582 97.6981 170.66C94.6929 169.918 88.2595 167.661 83.6496 165.521C70.3596 159.638 68.2151 159.202 52.5473 159.202C27.6742 159.202 20.4822 157.382 12.1231 148.718C3.12209 139.298 -0.524994 128.596 0.116882 113.395C0.437836 105.372 0.860886 103.014 3.2242 96.9129L3.18044 96.8838ZM28.5933 21.1124C29.454 18.972 27.7326 19.2923 23.4436 22.1898C19.8986 24.6505 16.1494 28.6109 16.1494 30.0087C16.1494 30.329 18.5127 30.8677 21.4012 31.188C24.1876 31.5084 27.0907 31.9306 27.6159 32.149C29.4394 32.8916 30.0813 30.0087 28.4766 28.509C27.1928 27.1112 27.1928 24.767 28.5787 21.1269L28.5933 21.1124ZM26.23 38.1333C27.3095 35.7745 26.974 35.5707 16.908 34.5951C11.6562 34.1729 11.1165 34.2748 9.8327 36.0948C8.11128 38.4536 8.00917 44.4378 9.61388 46.5782C11.4374 49.1408 13.5819 47.6557 13.5819 43.8991C13.5819 41.0162 13.4798 40.8997 12.4002 42.3994C10.7955 44.5398 9.71599 43.4769 10.4746 40.6813C11.1165 38.0022 13.1588 37.0413 14.8657 38.541C15.7264 39.2981 16.1494 41.22 16.1494 45.2823C16.1494 51.6015 14.9678 53.6254 11.8605 52.7809C10.8977 52.5625 10.1391 52.6789 10.1391 53.1012C10.1391 54.0622 25.0483 54.499 27.6159 53.6399C28.7975 53.3196 29.8625 52.1402 30.1834 51.2812C30.4022 50.2037 32.0069 48.9224 34.0493 48.1798C35.975 47.4373 37.5943 46.4617 37.5943 46.1414C37.5943 45.3988 36.9524 45.1804 31.0587 43.6807C26.4488 42.5013 25.0483 40.7978 26.23 38.1187V38.1333ZM63.8678 61.8956C63.7657 61.7936 62.0443 62.7546 60.0019 64.0359C56.5737 66.1763 56.4569 66.3947 58.3972 66.9188C61.7233 67.8798 62.0443 67.6614 63.1092 64.8804C63.649 63.3807 64.0721 61.9975 63.8532 61.881L63.8678 61.8956ZM64.7285 54.2951C65.0495 55.2561 65.5892 56.7558 65.8081 57.6149C66.5521 59.7552 67.6316 58.4739 67.6316 55.6929C67.6316 52.9119 64.7431 50.0144 61.1982 49.1699L58.6306 48.6312L61.417 50.6696C62.9196 51.7471 64.4222 53.4506 64.7431 54.3097L64.7285 54.2951ZM60.0165 58.5758C60.8772 58.3574 61.6212 57.7168 61.6212 57.2945C61.6212 56.3336 57.0113 53.3342 50.5779 50.1309C44.7863 47.248 42.2188 47.5683 36.7481 52.0528C34.6037 53.771 31.8173 55.9113 30.5335 56.7558L28.0681 58.2555L32.3571 63.1769C34.6037 65.8559 37.1858 69.2776 38.1486 70.7773C39.7533 73.6602 40.614 74.3154 41.1538 72.8157C41.5769 71.6364 58.0908 59.2165 60.0311 58.5758H60.0165ZM43.1816 15.3319C38.6738 11.6919 35.6686 9.76994 35.5665 10.4106C35.3477 11.0512 34.6037 14.6913 33.8451 18.5498C32.1236 27.0093 32.4446 27.9702 39.7388 32.9935C42.3063 34.8135 44.4508 36.5316 44.4508 36.852C44.4508 38.7739 42.2042 38.3517 37.7985 35.6726C32.6488 32.4548 32.0069 32.5713 31.4672 36.75C31.1462 38.672 31.7881 38.9923 41.0079 42.1082C46.4785 43.8263 50.9863 45.3115 51.0885 45.3115C51.1906 45.3115 51.3073 43.7098 51.3073 41.6714C51.3073 34.3913 53.8748 31.5084 55.6984 36.75C56.2381 38.1478 57.945 40.0698 59.5643 41.0308C62.5695 42.8508 63.3135 42.5305 61.2857 40.2882C59.4621 38.2498 58.2805 33.0081 58.8203 29.2661C59.2433 26.1648 59.1412 25.9464 54.8522 23.7041C52.3868 22.3063 47.135 18.5643 43.167 15.3611L43.1816 15.3319ZM89.7183 17.2539C89.4995 15.1135 88.6388 14.6913 80.4985 11.8957C75.5676 10.2941 69.5573 7.83343 67.2085 6.53757C61.417 3.43624 58.6306 3.53816 56.9092 6.85789C56.0485 8.576 54.1228 10.0611 51.6574 11.1386C49.5129 11.9977 48.0103 13.177 48.3313 13.5993C48.9731 14.5603 60.7751 22.481 61.096 22.0588C66.2457 14.0361 68.7111 11.7792 70.5347 13.5993C71.1766 14.3564 71.0744 15.2009 69.9949 16.919C66.7709 21.9423 64.7431 27.0821 64.4222 31.1589C64.1012 35.2212 64.32 35.9784 68.609 42.2829C72.7959 48.6021 73.2189 49.563 73.2189 53.9457C73.2189 57.6877 72.6792 59.5077 70.9723 62.0848C69.7907 63.9049 68.2881 66.9043 67.6462 68.7243C67.1064 70.5443 66.0415 72.2625 65.3996 72.4663C64.7577 72.6847 61.8546 72.0441 59.0683 71.0685L54.0353 69.1466L50.4903 72.0295C48.448 73.5292 45.4574 76.0918 43.6338 77.5915C41.9124 79.1931 39.7679 80.3725 39.126 80.3725C38.382 80.3725 36.4418 78.0137 34.735 75.0143C33.1302 72.1314 29.3665 67.0936 26.478 63.8903L21.2262 58.1099H15.7556C10.3871 58.1099 10.2849 58.2118 9.74516 60.789C8.88446 64.7494 10.708 68.2875 14.7782 70.3114C16.7038 71.2724 21.2116 75.1308 24.8587 78.7709C28.5057 82.5128 31.5109 85.5123 31.7152 85.5123C32.678 85.1919 41.0517 81.8722 43.1962 80.9112C47.1642 79.0912 57.8866 77.5915 62.3944 78.2321C64.5389 78.5525 67.7629 79.5134 69.5718 80.4744C73.321 82.3964 73.5399 81.8722 70.6514 77.6934C66.3624 71.2724 68.8278 70.8501 74.6194 76.9363C76.7639 79.295 78.8063 81.217 79.0105 81.217C79.8712 81.217 82.2345 73.9369 83.9413 65.9142C85.9837 56.4937 87.5884 53.3924 91.9795 50.5095L95.3056 48.3691L87.9094 41.4093C80.9361 34.9883 80.5131 34.2457 80.5131 31.0279C80.5131 27.0675 82.4387 24.0681 87.0486 21.2871C89.4119 19.7874 89.9371 18.9283 89.7329 17.2248L89.7183 17.2539ZM17.5499 146.214C23.8812 151.776 26.7697 152.417 49.615 153.276C60.6584 153.596 70.7389 154.237 71.9206 154.557C73.3502 154.984 73.5642 154.518 72.5625 153.159C69.0175 148.019 64.2033 139.56 64.2033 138.279C64.2033 135.396 66.9897 137.201 71.3808 143.098C76.4138 149.941 85.2105 158.721 89.9371 161.502C91.5418 162.565 95.3056 163.963 98.092 164.603C111.178 167.923 124.366 166.744 138.954 160.861C147.313 157.44 151.5 154.863 158.794 148.121C167.912 139.662 171.763 129.499 171.763 113.337C171.763 101.878 170.479 97.0731 164.046 84.6532C156.752 70.8501 150.42 62.0703 140.559 51.9072C127.473 38.3226 116.75 30.5037 104.525 25.5823L94.6637 21.622L92.5193 23.5439C91.3376 24.5049 89.2952 26.1065 88.0115 26.8637C84.1456 29.3243 84.9042 31.5666 92.0816 37.9877C95.6266 41.1909 99.1569 44.9475 99.9155 46.3307C101.097 48.573 101.097 49.1117 99.8134 50.9317C99.0694 52.1111 98.092 52.9701 97.6689 52.9701C96.2685 52.9701 91.5564 57.5712 90.6957 59.7115C90.2727 60.8909 89.091 65.4919 88.1282 69.9911C84.9042 84.8716 82.7597 88.1913 75.9032 88.0749C72.7959 88.0749 70.5347 87.4342 68.0693 85.9345C65.385 84.3329 63.4593 83.8961 59.2725 83.8961C51.1176 83.7942 41.8978 85.4977 37.1858 87.7545C34.8225 88.9339 32.0361 89.793 31.1754 89.793C30.2126 89.793 27.6304 88.0749 25.6027 85.9345C23.5603 83.8961 21.4158 82.076 20.9928 82.076C20.5697 82.076 18.8483 83.1389 17.3457 84.3183C11.6562 88.599 5.01855 105.94 5.01855 116.424C5.01855 125.946 11.1311 140.608 17.5645 146.17L17.5499 146.214Z" fill="#18333C"/>
</g>
<defs>
<linearGradient id="paint0_linear_18_248" x1="64.4661" y1="-50.2619" x2="96.8756" y2="170.242" gradientUnits="userSpaceOnUse">
<stop offset="0.2" stop-color="#F2F2F2"/>
<stop offset="0.45" stop-color="#ECEBEB"/>
<stop offset="0.8" stop-color="#DCD9D8"/>
<stop offset="0.91" stop-color="#D6D2D1"/>
</linearGradient>
<clipPath id="clip0_18_248">
<rect width="177" height="172" fill="white" transform="matrix(-1 0 0 1 177 0)"/>
</clipPath>
</defs>
</svg>
