<svg width="39" height="66" viewBox="0 0 39 66" fill="none" xmlns="http://www.w3.org/2000/svg">
<g clip-path="url(#clip0_18_320)">
<path d="M0.79834 15.3807L1.32566 10.9987L3.43496 9.7864L5.63214 6.09823L8.85468 1.09546C8.85468 1.09546 28.2997 7.04766 33.3606 21.0992C38.4214 35.1508 39.4834 50.9771 33.8733 59.2882C28.2558 67.5994 31.1634 63.714 31.1634 63.714L21.0124 64.6196L20.3459 63.714L17.0648 64.1814H13.9228C13.9228 64.1814 24.4547 52.8613 19.2327 33.8873C16.0541 22.3846 8.45919 18.5212 0.79834 15.3807Z" fill="url(#paint0_linear_18_320)"/>
<path d="M27.4721 10.9111C23.7442 6.93084 16.3544 2.24942 11.1177 0.525838C8.90592 -0.175279 8.79606 -0.175279 7.99042 0.525838C7.50704 0.956733 7.1262 1.70897 7.1262 2.24942C7.1262 2.78986 6.48169 4.08255 5.61746 5.15614C4.80451 6.22972 4.10873 7.41286 4.10873 7.74151C4.10873 8.54487 3.24451 9.35554 2.32901 9.35554C1.13521 9.34824 0.161127 11.2909 0.0512676 13.7083L0 15.9139L2.37296 16.7173C7.71944 18.492 14.0327 24.897 16.6766 31.1413C18.9397 36.6845 19.4304 39.1603 19.4304 45.5142C19.4304 52.6203 18.8372 54.8771 15.6513 59.5074C12.3555 64.3494 12.1431 64.6708 12.4654 65.4815C12.8462 66.4528 17.7532 65.9635 19.0496 64.7803C19.6599 64.2448 20.0554 64.2813 20.2361 64.8899C20.4485 65.7517 20.6682 65.7517 25.7437 65.5326C30.9803 65.3208 31.0901 65.2624 32.4377 63.9697C34.5983 61.9247 37.7256 54.8771 38.5386 50.4074C39.6152 44.2215 38.751 33.0256 36.649 26.7812C34.8107 21.238 31.0389 14.6723 27.4721 10.9038V10.9111ZM33.6242 58.1124C31.8445 61.9321 30.4969 63.3343 28.6073 63.495C23.0997 63.8747 21.7521 63.8163 21.32 63.0641C20.8366 62.1512 19.7014 62.0927 18.5662 62.9545C17.8118 63.495 15.7611 63.8674 15.7611 63.4365C15.7611 63.327 16.6254 61.9832 17.702 60.4203C21.049 55.4175 21.5324 53.5844 21.591 45.9451C21.591 38.1963 21.1589 35.9907 18.1927 29.7975C15.2265 23.4436 8.37127 16.9875 3.40563 15.7532C2.43155 15.483 1.51606 15.0521 1.4062 14.7819C1.02535 13.8106 2.16056 11.2836 3.02479 11.1229C4.10141 10.9623 5.82986 9.39936 5.82986 8.59599C5.82986 8.32577 6.4231 7.25219 7.1262 6.28085C7.8293 5.36793 8.53239 3.9657 8.69352 3.26458C8.90592 2.08144 9.07437 1.97189 10.0997 2.24212C12.6338 2.88481 18.6248 6.22242 21.9718 8.85891C29.8524 15.2128 34.818 24.5756 36.3268 36.0929C37.5132 45.0833 36.7589 51.4299 33.6315 58.1051L33.6242 58.1124Z" fill="#18333C"/>
<path d="M24.7698 43.5788C24.8211 43.7979 25.1507 43.6299 25.5828 43.2575C26.176 42.6659 26.2273 42.1839 25.8538 39.971L25.4216 37.3345L26.718 36.9036C27.4211 36.6918 28.0656 36.5238 28.0656 36.5823C28.1169 36.6334 28.3366 37.7654 28.549 39.0581C29.0323 42.0743 29.7867 41.7457 29.7867 38.5176C29.7867 36.2536 29.8966 35.9907 30.8121 35.7716C31.354 35.6109 31.8887 35.6109 31.9985 35.7205C32.1597 35.83 32.3794 37.444 32.4819 39.2187C32.8042 43.6299 33.6684 43.3086 33.8295 38.7367C33.9394 35.9396 33.7783 35.1289 33.185 34.5373C32.2109 33.566 29.838 33.9458 26.22 35.6109C24.0594 36.5823 23.5247 37.0643 23.6859 37.6558C23.8983 38.3058 24.0667 39.2699 24.6599 42.717C24.6599 42.9361 24.7112 43.3086 24.7698 43.5788Z" fill="#18333C"/>
<path d="M16.1345 10.7504C16.5153 11.0718 16.779 11.1302 17.1086 10.8016C17.592 10.2611 15.3801 8.11394 13.2196 6.98193C11.4398 6.06901 10.9565 6.98193 12.4652 8.32573L13.6004 9.29707L11.2274 12.1527C9.93111 13.7156 8.85449 15.1105 8.85449 15.2201C8.85449 15.2712 9.17675 15.3807 9.55759 15.3807C9.93844 15.3807 11.4472 14.1976 12.9559 12.7954C15.0066 10.8016 15.761 10.3195 16.1418 10.7504H16.1345Z" fill="#18333C"/>
<path d="M27.0398 29.5857C27.3108 29.1037 27.7429 29.1548 29.5226 30.1773C32.4375 31.7402 32.7085 30.9295 30.0646 28.8335L27.904 27.1099L28.9806 26.5694C29.5739 26.2481 30.006 25.7076 30.006 25.3863C30.006 24.4734 28.2775 25.0065 25.0404 26.7885C21.6421 28.6728 20.668 29.425 21.1001 29.8559C21.3711 30.1773 21.913 30.0166 24.6082 28.8846C25.1844 28.6703 25.2015 28.9747 24.6595 29.7975C24.2274 30.4475 23.473 31.6817 23.0409 32.434C22.1767 33.8362 22.1767 33.8873 22.9897 33.8873C23.6342 33.8873 25.9046 31.5211 27.0398 29.5784V29.5857Z" fill="#18333C"/>
<path d="M25.2601 20.8144C25.2601 22.0487 26.3953 22.2167 26.7688 20.9751C27.2522 19.4706 25.4725 17.1555 23.8026 17.097C22.2939 17.097 19.1592 18.8718 18.295 20.274C17.3209 21.7785 17.482 23.8234 18.6173 25.6054C19.5327 27.0588 20.1846 26.3065 19.6426 24.4223C19.1006 22.3773 19.0494 22.4869 20.5068 20.8144C22.6674 18.3897 25.2527 18.3897 25.2527 20.8144H25.2601Z" fill="#18333C"/>
<path d="M20.4558 11.9336C19.9138 11.9336 13.1685 18.3386 13.1685 18.879C13.1685 20.0111 15.1093 18.879 17.8631 16.133C20.778 13.2263 21.5837 11.9336 20.4558 11.9336Z" fill="#18333C"/>
<path d="M27.5233 51.1158C25.3115 51.1158 24.8794 51.817 24.6084 56.1186C24.3374 59.7776 24.3374 60.0989 25.0918 60.2596C26.3295 60.5809 29.4129 60.6394 30.2185 60.3107C31.2439 59.9309 31.0315 59.0765 29.6766 58.4265L28.4901 57.8349L29.8963 57.404C31.5662 56.922 31.7346 56.1697 30.3797 55.1984L29.4056 54.5557L30.8118 54.0737C31.5662 53.8035 32.1594 53.3726 32.1594 53.0512C32.1594 52.3501 29.1346 51.1158 27.516 51.1158H27.5233ZM28.2264 56.4473C27.5233 56.6079 27.3622 56.9293 27.5233 57.9517C27.7357 59.2956 27.3109 59.6169 26.2856 58.9742C25.9633 58.7551 25.9633 57.7911 26.2343 55.6366C26.4467 53.9714 26.7177 52.5692 26.7763 52.5181C26.8276 52.4085 27.4208 52.467 28.014 52.6276C28.9881 52.8979 29.0394 53.0074 28.6073 53.7596C28.2264 54.3512 28.2264 54.731 28.6073 55.3737C29.0394 56.0748 28.9881 56.2355 28.2264 56.4473Z" fill="#18333C"/>
<path d="M33.8951 44.7109C33.6827 45.6238 33.3531 45.7333 30.3869 46.0035C26.2343 46.3833 24.2861 46.9165 24.0737 47.6687C23.9126 48.1507 24.7182 48.1507 28.7171 47.9389L33.5729 47.6687L33.2506 48.64C33.0895 49.1805 32.8698 49.9327 32.7672 50.3636C32.6574 50.8456 32.8185 51.1159 33.1993 51.1159C34.0123 51.1159 34.8692 48.5889 34.9278 46.0035C34.979 43.9075 34.2833 43.0457 33.9024 44.7109H33.8951Z" fill="#18333C"/>
</g>
<defs>
<linearGradient id="paint0_linear_18_320" x1="15.0288" y1="9.68415" x2="27.7198" y2="58.8382" gradientUnits="userSpaceOnUse">
<stop offset="0.11" stop-color="#DFA984"/>
<stop offset="0.47" stop-color="#EBDE89"/>
<stop offset="1" stop-color="#DB9657"/>
</linearGradient>
<clipPath id="clip0_18_320">
<rect width="39" height="66" fill="white"/>
</clipPath>
</defs>
</svg>
